<?xml version="1.0" encoding="utf-8"?>
<!-- Generator: Adobe Illustrator 24.0.1, SVG Export Plug-In . SVG Version: 6.00 Build 0)  -->
<svg version="1.1" id="Layer_1" xmlns="http://www.w3.org/2000/svg" xmlns:xlink="http://www.w3.org/1999/xlink" x="0px" y="0px"
	 viewBox="0 0 5.1 8.4" style="enable-background:new 0 0 5.1 8.4;" xml:space="preserve">
<style type="text/css">
	.st0{fill:#C0CBCE;}
</style>
<g>
	<g>
		<g>
			<polygon class="st0" points="0.9,0.7 0.8,0.9 4.1,4.2 0.8,7.5 0.9,7.7 4.4,4.2 			"/>
			<path class="st0" d="M4.9,4.2c0,0.1,0,0.3-0.1,0.4L1.3,8C1.1,8.2,0.8,8.2,0.6,8L0.4,7.9c-0.2-0.2-0.2-0.5,0-0.7l3-3l-3-3
				C0.3,1.2,0.3,1,0.3,0.9v0c0-0.1,0.1-0.3,0.2-0.4l0.2-0.2c0.2-0.2,0.5-0.2,0.7,0l3.5,3.5C4.9,3.9,4.9,4.1,4.9,4.2z"/>
		</g>
	</g>
</g>
</svg>
