<?xml version="1.0" encoding="utf-8"?>
<!-- Generator: Adobe Illustrator 24.0.1, SVG Export Plug-In . SVG Version: 6.00 Build 0)  -->
<svg version="1.1" id="Layer_1" xmlns="http://www.w3.org/2000/svg" xmlns:xlink="http://www.w3.org/1999/xlink" x="0px" y="0px"
	 viewBox="0 0 5 3" style="enable-background:new 0 0 5 3;" xml:space="preserve">
<style type="text/css">
	.st0{fill:#FFFFFF;}
	.st1{fill:#C6C5C4;}
</style>
<g>
	<g>
		<g>
			<polygon class="st0" points="4.5,0.6 4.4,0.5 2.5,2.4 0.6,0.5 0.5,0.6 2.5,2.6 			"/>
			<path class="st1" d="M2.5,2.8c-0.1,0-0.1,0-0.2-0.1l-2-2c-0.1-0.1-0.1-0.3,0-0.4l0.1-0.1c0.1-0.1,0.1-0.1,0.2-0.1h0
				c0.1,0,0.1,0,0.2,0.1L2.5,2l1.7-1.7c0.1-0.1,0.3-0.1,0.4,0l0.1,0.1c0.1,0.1,0.1,0.3,0,0.4l-2,2C2.7,2.8,2.6,2.8,2.5,2.8z"/>
		</g>
	</g>
</g>
</svg>
