<?xml version="1.0" encoding="utf-8"?>
<!-- Generator: Adobe Illustrator 24.0.1, SVG Export Plug-In . SVG Version: 6.00 Build 0)  -->
<svg version="1.1" id="Layer_1" xmlns="http://www.w3.org/2000/svg" xmlns:xlink="http://www.w3.org/1999/xlink" x="0px" y="0px"
	 viewBox="0 0 17.6 17.6" style="enable-background:new 0 0 17.6 17.6;" xml:space="preserve">
<style type="text/css">
	.st0{fill:#0079C2;}
</style>
<g>
	<path class="st0" d="M15.9,13.7l-0.3,1.4c-0.1,0.5-0.5,0.8-1,0.8H2.3c-0.7,0-1.2-0.6-1-1.3l1.2-5.7c0.1-0.4,0.4-0.7,0.7-0.8
		c0,0,0.1,0,0.1,0c0,0,0,0,0,0c0,0,0.1,0,0.1,0c0,0,0,0,0,0c0,0,0,0,0.1,0c0,0,0.1,0,0.1,0h12.8c0.1,0,0.3,0.1,0.4,0.2
		c0.1,0.1,0.2,0.2,0.2,0.4c0,0,0,0.1,0,0.1L15.9,13.7z M15.9,7.2c0-0.5-0.4-0.8-0.9-0.8h-0.4v0.8H15.9z M1.7,8.7
		C1.9,8,2.5,7.4,3.2,7.2V5H1.8C1.2,5,0.7,5.5,0.7,6.1v7.5L1.7,8.7z M13.7,2.1v5.1H4.1V2.1c0-0.3,0.2-0.5,0.5-0.5h8.7
		C13.5,1.6,13.7,1.8,13.7,2.1L13.7,2.1z M12.5,5.7c0-0.2-0.2-0.4-0.4-0.4H5.6c-0.2,0-0.4,0.2-0.4,0.4c0,0.2,0.2,0.4,0.4,0.4h6.5
		C12.3,6.1,12.5,5.9,12.5,5.7L12.5,5.7z M12.5,3.6c0-0.2-0.2-0.4-0.4-0.4H5.6c-0.2,0-0.4,0.2-0.4,0.4C5.2,3.8,5.4,4,5.6,4h6.5
		C12.3,4,12.5,3.8,12.5,3.6L12.5,3.6z M12.5,3.6"/>
</g>
</svg>
