<?xml version="1.0" encoding="utf-8"?>
<!-- Generator: Adobe Illustrator 24.0.1, SVG Export Plug-In . SVG Version: 6.00 Build 0)  -->
<svg version="1.1" id="Layer_1" xmlns="http://www.w3.org/2000/svg" xmlns:xlink="http://www.w3.org/1999/xlink" x="0px" y="0px"
	 viewBox="0 0 5.1 5" style="enable-background:new 0 0 5.1 5;" xml:space="preserve">
<style type="text/css">
	.st0{fill:#3394CE;}
	.st1{fill:#459CDE;}
</style>
<g>
	<g>
		<g>
			<path class="st0" d="M3.2,2.4v0.2H2.5v0.6H2.4V2.6H1.7V2.4h0.6V1.8h0.2v0.6H3.2z"/>
			<polygon class="st1" points="2.6,3.3 2.3,3.3 2.3,2.7 1.6,2.7 1.6,2.3 2.3,2.3 2.3,1.7 2.6,1.7 2.6,2.3 3.3,2.3 3.3,2.7 2.6,2.7 
							"/>
		</g>
	</g>
	<g>
		<path class="st1" d="M2.5,4.9c-1.3,0-2.4-1.1-2.4-2.4c0-1.3,1.1-2.4,2.4-2.4C3.9,0.1,5,1.2,5,2.5C5,3.9,3.9,4.9,2.5,4.9z M2.5,0.5
			c-1.1,0-2,0.9-2,2s0.9,2,2,2s2-0.9,2-2S3.7,0.5,2.5,0.5z"/>
	</g>
</g>
</svg>
