<?xml version="1.0" encoding="utf-8"?>
<!-- Generator: Adobe Illustrator 24.0.1, SVG Export Plug-In . SVG Version: 6.00 Build 0)  -->
<svg version="1.1" id="Layer_1" xmlns="http://www.w3.org/2000/svg" xmlns:xlink="http://www.w3.org/1999/xlink" x="0px" y="0px"
	 viewBox="0 0 9.2 9.2" style="enable-background:new 0 0 9.2 9.2;" xml:space="preserve">
<style type="text/css">
	.st0{fill:#ADB9BC;}
</style>
<g>
	<path class="st0" d="M1.1,9.1h5.7c0.5,0,1-0.4,1-1V4.9c0-0.2-0.1-0.3-0.3-0.3S7.2,4.8,7.2,4.9v3.2c0,0.2-0.1,0.3-0.3,0.3H1.1
		c-0.2,0-0.3-0.1-0.3-0.3V1.8c0-0.2,0.1-0.3,0.3-0.3h3.8c0.2,0,0.3-0.1,0.3-0.3S5.1,0.8,4.9,0.8H1.1c-0.5,0-1,0.4-1,1v6.4
		C0.1,8.7,0.6,9.1,1.1,9.1z"/>
	<path class="st0" d="M7.9,0.2C7.5,0.2,7.2,0.3,7,0.5L2.8,4.7c0,0-0.1,0.1-0.1,0.1L2.1,6.8C2,6.9,2.1,7.1,2.3,7.2c0,0,0.1,0,0.1,0
		c0,0,0.1,0,0.1,0l1.9-0.6c0,0,0.1,0,0.1-0.1l4.2-4.2c0.5-0.5,0.5-1.3,0-1.7C8.5,0.3,8.2,0.2,7.9,0.2z M8.3,1.8L4.1,5.9L2.9,6.4
		l0.4-1.2L7.4,1C7.7,0.7,8,0.7,8.3,1c0.1,0.1,0.2,0.3,0.2,0.4C8.4,1.5,8.4,1.7,8.3,1.8z"/>
</g>
</svg>
