<?xml version="1.0" encoding="utf-8"?>
<!-- Generator: Adobe Illustrator 24.0.1, SVG Export Plug-In . SVG Version: 6.00 Build 0)  -->
<svg version="1.1" id="Layer_1" xmlns="http://www.w3.org/2000/svg" xmlns:xlink="http://www.w3.org/1999/xlink" x="0px" y="0px"
	 viewBox="0 0 17.6 17.6" style="enable-background:new 0 0 17.6 17.6;" xml:space="preserve">
<style type="text/css">
	.st0{fill:#0079C2;}
</style>
<g>
	<path class="st0" d="M8.8,4.7L2.6,9.8c0,0,0,0,0,0c0,0,0,0,0,0V15c0,0.2,0.1,0.3,0.2,0.5c0.1,0.1,0.3,0.2,0.5,0.2h4.1v-4.1h2.7v4.1
		h4.1c0.2,0,0.3-0.1,0.5-0.2c0.1-0.1,0.2-0.3,0.2-0.5V9.8c0,0,0-0.1,0-0.1L8.8,4.7z M8.8,4.7"/>
	<path class="st0" d="M17.3,8.6l-2.3-2V2.3c0-0.1,0-0.2-0.1-0.2c-0.1-0.1-0.1-0.1-0.2-0.1h-2.1c-0.1,0-0.2,0-0.2,0.1
		c-0.1,0.1-0.1,0.1-0.1,0.2v2.1L9.6,2.2C9.4,2,9.1,1.9,8.8,1.9C8.5,1.9,8.2,2,8,2.2L0.3,8.6C0.2,8.7,0.2,8.7,0.2,8.8
		c0,0.1,0,0.2,0.1,0.3l0.7,0.8C0.9,9.9,1,10,1.1,10c0.1,0,0.2,0,0.3-0.1l7.4-6.2l7.4,6.2c0.1,0.1,0.1,0.1,0.2,0.1h0
		c0.1,0,0.2-0.1,0.2-0.1l0.7-0.8c0.1-0.1,0.1-0.2,0.1-0.3C17.4,8.7,17.4,8.7,17.3,8.6L17.3,8.6z M17.3,8.6"/>
</g>
</svg>
