<?xml version="1.0" encoding="utf-8"?>
<!-- Generator: Adobe Illustrator 24.0.1, SVG Export Plug-In . SVG Version: 6.00 Build 0)  -->
<svg version="1.1" id="Layer_1" xmlns="http://www.w3.org/2000/svg" xmlns:xlink="http://www.w3.org/1999/xlink" x="0px" y="0px"
	 viewBox="0 0 17.6 17.6" style="enable-background:new 0 0 17.6 17.6;" xml:space="preserve">
<style type="text/css">
	.st0{fill:#0079C2;}
</style>
<g>
	<path class="st0" d="M8.7,0.3c-4.6,0-8.4,3.8-8.4,8.4s3.8,8.4,8.4,8.4s8.4-3.8,8.4-8.4S13.4,0.3,8.7,0.3L8.7,0.3z M8.7,13.7
		C8.3,13.7,8,13.4,8,13s0.3-0.7,0.7-0.7c0.4,0,0.7,0.3,0.7,0.7S9.1,13.7,8.7,13.7L8.7,13.7z M9.8,9.2C9.6,9.3,9.4,9.6,9.4,9.9v0.3
		c0,0.4-0.3,0.7-0.7,0.7c-0.4,0-0.7-0.3-0.7-0.7V9.9C8,9,8.5,8.3,9.3,7.9c0.7-0.3,1.2-1.2,1.2-1.6c0-1-0.8-1.8-1.8-1.8S7,5.3,7,6.3
		C7,6.7,6.7,7,6.3,7C5.9,7,5.6,6.7,5.6,6.3c0-1.7,1.4-3.2,3.2-3.2c1.7,0,3.2,1.4,3.2,3.2C11.9,7.3,11.1,8.7,9.8,9.2L9.8,9.2z
		 M9.8,9.2"/>
</g>
</svg>
