<?xml version="1.0" encoding="utf-8"?>
<!-- Generator: Adobe Illustrator 24.0.1, SVG Export Plug-In . SVG Version: 6.00 Build 0)  -->
<svg version="1.1" id="Layer_1" xmlns="http://www.w3.org/2000/svg" xmlns:xlink="http://www.w3.org/1999/xlink" x="0px" y="0px"
	 viewBox="0 0 5.1 5" style="enable-background:new 0 0 5.1 5;" xml:space="preserve">
<style type="text/css">
	.st0{fill:#ADB9BC;}
</style>
<path class="st0" d="M4.2,1.2l-1-1c0,0,0,0-0.1,0h-2C1,0.2,0.8,0.4,0.8,0.6v3.8c0,0.2,0.2,0.4,0.4,0.4h2.7c0.2,0,0.4-0.2,0.4-0.4
	L4.2,1.2C4.3,1.2,4.3,1.2,4.2,1.2z M3.3,0.5l0.6,0.6H3.5C3.4,1.2,3.3,1.1,3.3,1V0.5z M3.9,4.6H1.2C1.1,4.6,1,4.5,1,4.4V0.6
	c0-0.1,0.1-0.2,0.2-0.2h1.9V1c0,0.2,0.2,0.4,0.4,0.4h0.6v3.1C4.1,4.5,4,4.6,3.9,4.6z"/>
<path class="st0" d="M3.3,3c0,0-0.1,0-0.3,0C2.9,2.9,2.8,2.9,2.8,2.8C2.7,2.7,2.7,2.7,2.6,2.6c0.1-0.3,0.1-0.4,0.1-0.5
	c0-0.3-0.1-0.4-0.3-0.4c-0.1,0-0.3,0.1-0.3,0.4c0,0.1,0.1,0.3,0.2,0.5c0,0.1-0.1,0.3-0.1,0.4c0,0.1-0.1,0.1-0.1,0.2c0,0,0,0-0.1,0
	C2,3.3,2,3.4,1.9,3.4C1.6,3.5,1.4,3.6,1.4,3.8C1.4,4,1.5,4,1.7,4c0.2,0,0.4-0.2,0.6-0.6C2.5,3.3,2.8,3.3,3,3.2
	c0.2,0.1,0.3,0.2,0.4,0.2c0.2,0,0.3-0.1,0.3-0.3C3.7,3,3.4,3,3.3,3z M1.7,3.8C1.6,3.8,1.6,3.8,1.7,3.8C1.6,3.7,1.8,3.6,2,3.6
	c0,0,0,0,0,0C1.9,3.7,1.7,3.8,1.7,3.8z M2.3,2.1c0-0.2,0.1-0.2,0.1-0.2c0.1,0,0.1,0,0.1,0.2c0,0,0,0.1-0.1,0.3
	C2.4,2.3,2.3,2.2,2.3,2.1z M2.4,3.2C2.4,3.1,2.4,3.1,2.4,3.2C2.5,3,2.5,2.9,2.5,2.8c0,0,0.1,0.1,0.1,0.1c0,0,0.1,0.1,0.1,0.1
	C2.7,3.1,2.5,3.1,2.4,3.2z M3.4,3.3c0,0-0.1,0-0.2-0.1c0,0,0,0,0.1,0C3.4,3.2,3.5,3.2,3.4,3.3C3.5,3.3,3.5,3.3,3.4,3.3z"/>
</svg>
