<?xml version="1.0" encoding="utf-8"?>
<!-- Generator: Adobe Illustrator 24.0.1, SVG Export Plug-In . SVG Version: 6.00 Build 0)  -->
<svg version="1.1" id="Layer_1" xmlns="http://www.w3.org/2000/svg" xmlns:xlink="http://www.w3.org/1999/xlink" x="0px" y="0px"
	 viewBox="0 0 17.6 17.6" style="enable-background:new 0 0 17.6 17.6;" xml:space="preserve">
<style type="text/css">
	.st0{fill:#0079C2;}
</style>
<path class="st0" d="M16.9,10.7l-1.6-1.2c0-0.4,0-0.9,0-1.3l1.6-1.2c0.3-0.2,0.4-0.7,0.2-1L15.4,3c-0.2-0.3-0.6-0.5-1-0.3l-1.9,0.8
	c-0.4-0.3-0.7-0.5-1.1-0.7l-0.3-2c-0.1-0.4-0.4-0.7-0.8-0.7H7.1c-0.4,0-0.7,0.3-0.8,0.7l-0.3,2C5.7,3,5.3,3.2,5,3.5L3.1,2.7
	C2.7,2.6,2.3,2.7,2.1,3L0.5,5.9c-0.2,0.3-0.1,0.8,0.2,1l1.6,1.2c0,0.4,0,0.9,0,1.3l-1.6,1.2c-0.3,0.2-0.4,0.7-0.2,1l1.6,2.9
	c0.2,0.3,0.6,0.5,1,0.3L5,14.1c0.4,0.3,0.7,0.5,1.1,0.7l0.3,2c0.1,0.4,0.4,0.7,0.8,0.7h3.3c0.4,0,0.7-0.3,0.8-0.7l0.3-2
	c0.4-0.2,0.8-0.4,1.1-0.7l1.9,0.8c0.4,0.1,0.8,0,0.9-0.3l1.7-2.9C17.3,11.3,17.2,10.9,16.9,10.7z M8.8,12.4c-2,0-3.6-1.6-3.6-3.6
	s1.6-3.6,3.6-3.6s3.6,1.6,3.6,3.6C12.4,10.8,10.8,12.4,8.8,12.4z"/>
</svg>
