<?xml version="1.0" encoding="utf-8"?>
<!-- Generator: Adobe Illustrator 24.0.1, SVG Export Plug-In . SVG Version: 6.00 Build 0)  -->
<svg version="1.1" id="Layer_1" xmlns="http://www.w3.org/2000/svg" xmlns:xlink="http://www.w3.org/1999/xlink" x="0px" y="0px"
	 viewBox="0 0 6.1 6.4" style="enable-background:new 0 0 6.1 6.4;" xml:space="preserve">
<style type="text/css">
	.st0{fill:#ADB9BC;}
</style>
<g>
	<path class="st0" d="M4.5,6.3l-3,0c-0.2,0-0.4-0.2-0.4-0.4L0.7,1.3l0.5,0l0.4,4.5l2.9,0l0.4-4.5l0.5,0L4.9,5.9
		C4.9,6.1,4.7,6.3,4.5,6.3z"/>
	<path class="st0" d="M4.4,1.3l-0.5,0l0-0.7l-1.7,0l0,0.7l-0.5,0l0-0.8c0-0.2,0.2-0.4,0.4-0.4l1.8,0c0.2,0,0.4,0.2,0.4,0.4L4.4,1.3z
		"/>
	<path class="st0" d="M5.7,1.6l-5.3,0c-0.1,0-0.3-0.1-0.2-0.3c0-0.1,0.1-0.3,0.3-0.2l5.3,0c0.1,0,0.3,0.1,0.2,0.3S5.8,1.6,5.7,1.6z"
		/>
</g>
</svg>
