<?xml version="1.0" encoding="utf-8"?>
<!-- Generator: Adobe Illustrator 24.0.1, SVG Export Plug-In . SVG Version: 6.00 Build 0)  -->
<svg version="1.1" id="Layer_1" xmlns="http://www.w3.org/2000/svg" xmlns:xlink="http://www.w3.org/1999/xlink" x="0px" y="0px"
	 viewBox="0 0 1071.8 111.2" style="enable-background:new 0 0 1071.8 111.2;" xml:space="preserve">
<style type="text/css">
	.st0{fill:#CCDFEB;}
	.st1{fill:#ADD0E5;}
</style>
<g>
	<rect x="30" y="13.7" class="st0" width="1012.7" height="84.4"/>
	<polyline class="st0" points="1032.4,98.1 1042.7,98.1 1042.7,98.1 1042.7,107.8 1042.7,107.8 1063,55.9 1063,55.9 1042.7,4 
		1042.7,13.7 1042.7,13.7 1032.4,13.7 	"/>
	<path class="st0" d="M32,101.7c-3.7,0-7.4,0-11.2,0l-9.6,6.1c-0.6,0.4-1.4-0.1-1.4-0.9V5.8c0-0.8,0.8-1.3,1.4-0.9l9.6,6.1l0,0
		c3.6,0,7.2,0,10.8,0"/>
	<rect x="20.8" y="11" class="st1" width="10.7" height="90.7"/>
	<rect x="1032" y="13.7" class="st1" width="10.7" height="84.3"/>
</g>
</svg>
