<?xml version="1.0" encoding="utf-8"?>
<!-- Generator: Adobe Illustrator 24.0.1, SVG Export Plug-In . SVG Version: 6.00 Build 0)  -->
<svg version="1.1" id="Layer_1" xmlns="http://www.w3.org/2000/svg" xmlns:xlink="http://www.w3.org/1999/xlink" x="0px" y="0px"
	 viewBox="0 0 114.2 23.8" style="enable-background:new 0 0 114.2 23.8;" xml:space="preserve">
<style type="text/css">
	.st0{opacity:0.8;fill:#0079C2;}
	.st1{opacity:0.6;}
	.st2{fill:#F5F5F5;}
</style>
<path class="st0" d="M114.2,23.8L114,3.1c-0.5-1.9-1.8-3.1-3.2-3.1H0l5.9,23.9L114.2,23.8z"/>
<g class="st1">
	<g>
		<g>
			<polygon class="st2" points="102.8,9.8 102.7,9.9 104.7,11.9 102.7,13.8 102.8,13.9 104.9,11.9 			"/>
			<path class="st2" d="M105.2,11.9c0,0.1,0,0.2-0.1,0.2l-2,2c-0.1,0.1-0.3,0.1-0.4,0l-0.1-0.1c-0.1-0.1-0.1-0.3,0-0.4l1.7-1.7
				l-1.7-1.7c-0.1-0.1-0.1-0.1-0.1-0.2v0c0-0.1,0-0.2,0.1-0.2l0.1-0.1c0.1-0.1,0.3-0.1,0.4,0l2,2C105.1,11.7,105.2,11.8,105.2,11.9z
				"/>
		</g>
	</g>
</g>
</svg>
