<?xml version="1.0" encoding="utf-8"?>
<!-- Generator: Adobe Illustrator 24.0.1, SVG Export Plug-In . SVG Version: 6.00 Build 0)  -->
<svg version="1.1" id="Layer_1" xmlns="http://www.w3.org/2000/svg" xmlns:xlink="http://www.w3.org/1999/xlink" x="0px" y="0px"
	 viewBox="0 0 16.8 20.8" style="enable-background:new 0 0 16.8 20.8;" xml:space="preserve">
<style type="text/css">
	.st0{fill:#0079C2;}
	.st1{opacity:0.6;}
	.st2{fill:#F5F5F5;}
</style>
<path class="st0" d="M17,20.7L16.8,2.8c-0.5-1.6-1.8-2.7-3.2-2.7H0v20.7L17,20.7z"/>
<g class="st1">
	<g>
		<g>
			<polygon class="st2" points="2.8,8.3 2.7,8.4 4.7,10.4 2.7,12.3 2.8,12.4 4.9,10.4 			"/>
			<path class="st2" d="M5.2,10.4c0,0.1,0,0.2-0.1,0.2l-2,2c-0.1,0.1-0.3,0.1-0.4,0l-0.1-0.1c-0.1-0.1-0.1-0.3,0-0.4l1.7-1.7
				L2.5,8.6C2.5,8.6,2.4,8.5,2.4,8.4v0c0-0.1,0-0.2,0.1-0.2l0.1-0.1C2.8,8,2.9,8,3.1,8.1l2,2C5.2,10.2,5.2,10.3,5.2,10.4z"/>
		</g>
	</g>
</g>
</svg>
