<?xml version="1.0" encoding="utf-8"?>
<!-- Generator: Adobe Illustrator 24.0.1, SVG Export Plug-In . SVG Version: 6.00 Build 0)  -->
<svg version="1.0" id="Layer_1" xmlns="http://www.w3.org/2000/svg" xmlns:xlink="http://www.w3.org/1999/xlink" x="0px" y="0px"
	 viewBox="0 0 61 30.4" style="enable-background:new 0 0 61 30.4;" xml:space="preserve">
<style type="text/css">
	.st0{fill:#0079C2;}
	.st1{fill:#FFFFFF;}
</style>
<g>
	<g>
		<path class="st0" d="M10.1,23.2c0-1.1,0-2.1,0-3.2c2.5,0,4.9,0,7.4,0c0,2.3,0,4.6,0,7c-0.3,0.2-0.5,0.5-0.8,0.7
			c-0.4,0.3-0.7,0.6-1.2,0.9c-0.4,0.3-0.9,0.5-1.3,0.7c-0.4,0.2-0.8,0.3-1.3,0.5c-0.3,0.1-0.7,0.2-1,0.2c-0.3,0-0.5,0.1-0.8,0.1
			c-0.6,0.1-1.3,0-1.9,0c-0.3-0.1-0.6-0.1-0.9-0.1C8,30,7.5,29.9,7.1,29.8c-0.4-0.1-0.8-0.3-1.2-0.5c-0.5-0.2-1-0.5-1.4-0.8
			C4.2,28.3,4,28.2,3.8,28c-0.4-0.3-0.8-0.6-1.1-1c-0.2-0.2-0.4-0.5-0.6-0.7c-0.3-0.4-0.5-0.7-0.8-1.1c-0.3-0.4-0.5-0.9-0.7-1.4
			c-0.1-0.3-0.2-0.7-0.3-1c-0.1-0.3-0.1-0.6-0.2-0.9C0.1,21.6,0.1,21.3,0,21c-0.1-0.6,0-1.2,0-1.8c0.1-0.4,0.1-0.8,0.2-1.2
			c0.1-0.5,0.2-1,0.4-1.5c0.1-0.2,0.2-0.5,0.3-0.7c0.2-0.4,0.3-0.7,0.5-1.1c0.2-0.3,0.4-0.7,0.7-1c0.3-0.4,0.6-0.8,1-1.2
			c0.4-0.3,0.7-0.7,1.1-0.9c0.4-0.3,0.7-0.5,1.1-0.7c0.6-0.3,1.2-0.6,1.8-0.8c0.4-0.1,0.8-0.2,1.2-0.3C8.6,10,8.9,10,9.1,10
			c0.3-0.1,0.7,0,1,0c0,2.5,0,5.1,0,7.6c-0.1,0-0.1,0-0.2,0c-0.2,0-0.5,0.1-0.7,0.1c-0.3,0-0.6,0.1-0.9,0.2c-0.4,0.1-0.7,0.2-1,0.5
			c-0.1,0.1-0.3,0.2-0.4,0.3c-0.4,0.2-0.7,0.6-1.1,0.9c-0.4,0.4-0.7,0.9-1,1.5c-0.2,0.4-0.3,0.7-0.4,1.1c0,0.2,0,0.3-0.1,0.5
			c-0.1,0.3,0,0.6,0,0.9c0,0.3,0,0.6,0.1,0.9c0.1,0.5,0.3,1,0.5,1.4c0.2,0.4,0.5,0.8,0.8,1.1c0.1,0.1,0.2,0.3,0.4,0.4
			C6.6,27.7,7,28,7.5,28.3c0.4,0.2,0.9,0.4,1.4,0.5c0.3,0.1,0.6,0.1,0.9,0.1c0.2,0,0.4,0,0.7,0c0.4,0,0.8-0.1,1.2-0.2
			c0.6-0.2,1.2-0.4,1.7-0.8c0.4-0.2,0.7-0.5,1-0.9c0.3-0.3,0.5-0.7,0.6-1.2c0-0.2,0.1-0.4,0.1-0.6c0-0.4-0.1-0.7-0.2-1.1
			c-0.2-0.5-0.5-0.8-0.9-1.2c-0.3-0.2-0.6-0.4-0.9-0.5c-0.2-0.1-0.4-0.1-0.6-0.1c-0.2,0-0.5,0-0.7,0c-0.3,0.1-0.6,0.2-0.9,0.3
			c-0.2,0.1-0.3,0.2-0.4,0.3C10.2,23.2,10.2,23.2,10.1,23.2z"/>
		<path class="st0" d="M53,11.8c0.9,0,1.8,0,2.6,0c0,0.1,0.1,0.1,0.1,0.2c0.1,0.3,0.1,0.6,0.2,1c0,0.2,0.1,0.4,0.1,0.6
			c0,0.2,0.1,0.4,0.1,0.7c0.1,0.3,0.1,0.6,0.2,1c0.1,0.3,0.1,0.5,0.1,0.8c0,0.2,0.1,0.4,0.1,0.7c0.1,0.3,0.1,0.6,0.2,1
			c0.1,0.3,0.1,0.6,0.2,1c0,0,0,0.1,0.1,0.1c0.4-2.3,0.9-4.6,1.3-7c0.9,0,1.8,0,2.7,0c0,3.4,0,6.8,0,10.2c-0.2,0-0.4,0-0.5,0
			c-0.2,0-0.3,0-0.5,0c-0.2,0-0.4,0-0.5,0c-0.2,0-0.3,0-0.5,0c0-2.1,0-4.2,0-6.3c0,0,0,0,0,0c-0.2,1.1-0.3,2.1-0.5,3.2
			c-0.2,1.1-0.4,2.1-0.5,3.2c-0.6,0-1.1,0-1.6,0c-0.3-2.1-0.7-4.2-1-6.3c0,0,0,0,0,0c0,0,0,0,0,0c0,2.1,0,4.2,0,6.3
			c-0.1,0-0.3,0-0.4,0c-0.1,0-0.3,0-0.4,0c-0.1,0-0.3,0-0.4,0c-0.1,0-0.3,0-0.4,0c-0.1,0-0.3,0-0.4-0.1C53,18.6,53,15.2,53,11.8z"/>
		<path class="st0" d="M13.8,18.6c-0.3-0.4-0.5-0.8-0.8-1.2c-0.2-0.4-0.5-0.8-0.6-1.3c-0.2-0.4-0.4-0.9-0.5-1.3
			c-0.2-0.4-0.3-0.9-0.4-1.3c-0.1-0.4-0.2-0.9-0.3-1.4c-0.1-0.5-0.1-0.9-0.2-1.4c-0.1-0.5,0-0.9-0.1-1.4c0-0.1,0-0.2,0-0.3
			c0-0.1,0-0.3,0-0.4c0-0.3,0-0.6,0.1-1c0-0.4,0.1-0.7,0.1-1.1c0.1-0.4,0.2-0.8,0.2-1.2c0.1-0.5,0.3-1,0.4-1.5
			c0.2-0.4,0.3-0.8,0.5-1.3c0.1-0.3,0.3-0.6,0.4-0.8c0.2-0.3,0.4-0.7,0.6-1c0.2-0.3,0.3-0.5,0.5-0.8c0.2,0.1,0.9,1.3,1.3,2.1
			c0.4,0.7,0.7,1.5,0.9,2.3c0.2,0.8,0.4,1.6,0.5,2.4c0.1,0.8,0.2,1.6,0.2,2.5c0,0.8-0.1,1.6-0.2,2.5c-0.1,0.8-0.3,1.6-0.5,2.4
			c-0.2,0.8-0.5,1.5-0.9,2.3C14.6,17.4,14.5,17.6,13.8,18.6z M13.8,1.5c-0.1,0.1-0.1,0.1-0.1,0.2c-0.2,0.5-0.5,1-0.7,1.5
			c-0.2,0.5-0.4,1-0.6,1.5c-0.2,0.5-0.3,1.1-0.4,1.6c-0.1,0.5-0.2,0.9-0.2,1.4c0,0.2,0,0.3-0.1,0.5c0,0.2,0,0.3,0,0.5
			c0,0.2,0,0.3,0,0.5c0,0.4,0,0.8,0,1.2c0,0.3,0,0.7,0.1,1c0,0.2,0,0.4,0.1,0.7c0,0.1,0,0.3,0.1,0.4c0-0.3,0-0.6,0.1-0.9
			c0-0.4,0.1-0.8,0.1-1.3c0-0.3,0.1-0.7,0.1-1c0-0.3,0.1-0.6,0.2-0.9c0.1-0.2,0.1-0.5,0.2-0.7C12.7,7,12.9,6.5,13.1,6
			c0.1-0.3,0.2-0.5,0.3-0.7c0.1-0.3,0.2-0.5,0.4-0.8c0.1,0.1,0.1,0.2,0.2,0.3c0.1,0.2,0.2,0.4,0.3,0.6c0.3,0.5,0.4,1.1,0.6,1.6
			c0.1,0.3,0.2,0.7,0.3,1c0.2,0.6,0.3,1.3,0.4,1.9c0,0.3,0.1,0.6,0.1,0.9c0,0.3,0,0.6,0.1,0.9c0,0.2,0,0.3,0,0.5c0,0,0,0.1,0,0.1
			c0-0.1,0.1-0.2,0.1-0.4c0-0.2,0-0.4,0.1-0.6c0.1-0.3,0.1-0.6,0.1-0.9c0-0.7,0-1.5,0-2.2c0-0.2,0-0.4-0.1-0.6c0-0.1,0-0.3,0-0.4
			c0-0.2-0.1-0.5-0.1-0.7c-0.1-0.3-0.1-0.5-0.2-0.8c-0.1-0.5-0.3-1-0.4-1.4c-0.2-0.4-0.3-0.9-0.5-1.3c-0.2-0.4-0.4-0.8-0.6-1.2
			C13.9,1.7,13.9,1.6,13.8,1.5z M13.8,11.2c0,0.1-0.1,0.1-0.1,0.1c-0.2,0.4-0.4,0.9-0.5,1.3c-0.1,0.4-0.2,0.8-0.2,1.2
			c0,0.5,0,1,0,1.4c0,0.3,0.1,0.6,0.2,0.9c0.1,0.4,0.2,0.9,0.4,1.3c0.1,0.1,0.1,0.3,0.2,0.4c0.1-0.2,0.2-0.5,0.3-0.7
			c0.1-0.2,0.2-0.5,0.2-0.7c0.1-0.2,0.1-0.5,0.2-0.7c0-0.3,0-0.5,0.1-0.8c0-0.2,0-0.5,0-0.7c0-0.3,0-0.5-0.1-0.8
			c0-0.3-0.1-0.5-0.2-0.7c-0.1-0.2-0.1-0.5-0.2-0.7C14.1,11.7,13.9,11.5,13.8,11.2z"/>
		<path class="st0" d="M37,22c-0.7,0-1.3,0-2,0c0-0.2-0.1-9.7,0-10.2c0.2,0,4.2-0.1,4.7,0c0,0.2,0.1,9.6,0,10.2c-0.2,0-1.5,0.1-2,0
			c0-0.4,0-0.7,0-1.1c0-0.4,0-0.7,0-1.1c0-0.4,0-0.7,0-1.1c0-0.4,0-0.7,0-1.1c0-0.4,0-0.7,0-1.1c0-0.4,0-0.7,0-1.1
			c0-0.4,0-0.7,0-1.1c0-0.4,0-0.7,0-1.1c-0.2,0-0.4,0-0.6,0c0,0.1,0,0.2,0,0.3c0,2.8,0,5.6,0,8.3C37,21.8,37.1,21.9,37,22z"/>
		<path class="st0" d="M51.8,16.9c0,1.1,0,2.2,0,3.3c0,0.4,0,0.8-0.3,1.1c-0.2,0.4-0.5,0.5-0.9,0.6c-0.7,0.1-1.3,0-2,0
			c-0.2,0-0.4,0-0.6-0.1c-0.5-0.2-0.8-0.5-0.9-0.9C47,20.7,47,20.4,47,20.1c0-2.2,0-4.5,0-6.7c0-0.3,0.1-0.6,0.2-0.9
			c0.2-0.4,0.5-0.7,1-0.8c0.2,0,0.4,0,0.6,0c0.5,0,1,0,1.5,0c0.2,0,0.5,0,0.7,0.1c0.3,0.1,0.5,0.3,0.7,0.6c0.1,0.2,0.1,0.4,0.2,0.7
			c0.1,0.8,0,1.6,0,2.4C51.8,16,51.8,16.4,51.8,16.9z M49.1,13.2c0,2.4,0,4.8,0,7.2c0,0,0.1,0.1,0.1,0.1c0.1,0,0.3,0,0.4-0.1
			c0-0.1,0-0.2,0-0.3c0-2.3,0-4.6,0-6.9c0,0,0-0.1-0.1-0.1c0,0-0.1-0.1-0.1-0.1c-0.1,0-0.2,0-0.3,0C49.2,13.2,49.1,13.2,49.1,13.2z"
			/>
		<path class="st0" d="M23.8,11.8c1.1,0,2.1,0,3.2,0c0,0.2,0,0.4,0.1,0.6c0,0.2,0,0.4,0.1,0.6c0,0,0,0,0,0.1c0,0.2,0,0.5,0.1,0.7
			c0,0.3,0.1,0.6,0.1,1c0,0.3,0.1,0.6,0.1,0.9c0,0.3,0.1,0.6,0.1,0.9c0,0.2,0,0.4,0.1,0.7c0,0.1,0,0.3,0.1,0.5c0,0.2,0,0.5,0.1,0.7
			c0,0.2,0,0.5,0.1,0.7c0,0.1,0,0.3,0,0.5c0,0.2,0,0.5,0.1,0.7c0,0.2,0,0.5,0.1,0.7c0,0,0,0.1,0,0.1c0,0.2,0,0.5,0.1,0.7
			c0,0,0,0.1,0,0.2c0,0-0.1,0.1-0.1,0.1c-0.6,0-1.2,0-1.9,0c0,0,0,0,0,0c0-0.3,0-0.5-0.1-0.8c0-0.3,0-0.6-0.1-0.9c0-0.2,0-0.4,0-0.6
			c0-0.1,0-0.3-0.1-0.4c-0.3,0-0.6,0-0.9,0c0,0.1,0,0.1,0,0.2c0,0.3,0,0.6-0.1,0.9c0,0.2,0,0.4,0,0.6c0,0.3,0,0.5,0,0.8
			c0,0.1,0,0.1-0.1,0.2c-0.7,0-1.3,0-2,0c0-0.1,0-0.3,0-0.4c0,0,0-0.1,0-0.1c0-0.2,0-0.5,0.1-0.7c0.1-0.2,0-0.4,0.1-0.7
			c0.1-0.2,0-0.4,0.1-0.6c0-0.3,0-0.5,0.1-0.8c0-0.2,0-0.3,0-0.5c0-0.2,0-0.5,0.1-0.7c0-0.2,0-0.5,0.1-0.7c0,0,0-0.1,0-0.1
			c0-0.2,0-0.5,0.1-0.7c0-0.2,0-0.3,0-0.5c0-0.2,0-0.3,0-0.5c0-0.3,0.1-0.7,0.1-1c0-0.3,0.1-0.6,0.1-0.9c0-0.1,0-0.2,0-0.3
			c0-0.1,0-0.2,0-0.3c0,0,0-0.1,0-0.1c0-0.2,0-0.5,0.1-0.7C23.8,11.8,23.8,11.8,23.8,11.8z M25.8,18.1c0-0.1,0-0.1,0-0.2
			c0-0.2,0-0.5,0-0.7c0-0.2,0-0.5,0-0.7c0-0.2,0-0.5-0.1-0.7c0-0.2,0-0.5,0-0.7c0-0.3,0-0.5-0.1-0.8c0-0.4,0-0.8-0.1-1.1
			c0,0,0-0.1,0-0.1c-0.1,0.1-0.1,0.3-0.1,0.4c0,0.2,0,0.4,0,0.7c0,0.3,0,0.5-0.1,0.8c0,0.2,0,0.4,0,0.6c0,0.3,0,0.6-0.1,0.8
			c0,0.4,0,0.7-0.1,1.1c0,0,0,0.1,0,0.1c0,0.2,0,0.3,0,0.5C25.3,18.1,25.6,18.1,25.8,18.1z"/>
		<path class="st0" d="M32.3,16.6c0.2,0,0.4,0.1,0.6,0.1c0.5,0.1,0.8,0.5,0.8,1.1c0,0.9,0,1.8,0,2.7c0,0.3-0.1,0.7-0.3,1
			c-0.2,0.3-0.5,0.4-0.8,0.4c-0.7,0.1-1.4,0-2.1,0c-0.2,0-0.5,0-0.7-0.1c-0.2-0.1-0.3-0.2-0.4-0.3C29.1,21.3,29,21,29,20.7
			c0-0.2,0-0.3,0-0.5c0-0.6,0-1.2,0-1.9c0.2,0,1.2-0.1,2,0c0,0.1,0,0.1,0,0.2c0,0.5,0,1,0,1.4c0,0.1,0,0.3,0,0.4
			c0.1,0.1,0.1,0.1,0.2,0.2c0.1,0,0.2,0,0.4-0.1c0,0,0.1-0.1,0.1-0.2c0-0.8,0-1.6,0-2.5c0-0.1,0-0.3-0.1-0.4
			c-0.1-0.2-0.3-0.2-0.5-0.2c-0.3,0-0.6,0-0.9,0c0,0-0.1,0-0.2,0c0-0.4,0-0.8,0-1.2c0.3,0,0.5,0,0.8,0c0.2,0,0.3,0,0.5,0
			c0.2-0.1,0.3-0.1,0.3-0.3c0-0.1,0-0.3,0-0.4c0-0.7,0-1.3,0-2c0-0.1-0.1-0.1-0.1-0.2c-0.2-0.1-0.2-0.1-0.5,0c0,0.2-0.1,0.3-0.1,0.5
			c0,0.4,0,0.9,0,1.3c-0.2,0-1.5,0.1-2,0c0-0.1,0-0.1,0-0.2c0-0.5,0-1.1,0-1.6c0-0.3,0.1-0.7,0.3-1c0.2-0.3,0.5-0.4,0.8-0.5
			c0.2-0.1,0.4,0,0.7,0c0.5,0,1,0,1.5,0c0.3,0,0.5,0.1,0.8,0.2c0.4,0.2,0.5,0.5,0.6,0.9c0.1,0.2,0,0.4,0,0.6c0,0.7,0,1.3,0,2
			c0,0.3-0.1,0.7-0.4,0.9c-0.2,0.2-0.5,0.3-0.8,0.3C32.4,16.6,32.3,16.6,32.3,16.6z"/>
		<path class="st0" d="M43.1,18.5c0,1.1,0,2.2,0,3.3C43,22,43,22,42.9,22c-0.6,0-1.3,0-1.9,0c0,0,0,0,0,0c0,0,0,0,0,0
			c0-3.4,0-6.8,0-10.1c0.1,0,0.1,0,0.2,0c1.1,0,2.1,0,3.2,0c0.4,0,0.8,0.2,1.1,0.5c0.1,0.2,0.2,0.3,0.2,0.5c0,0.1,0,0.3,0.1,0.4
			c0.1,0.6,0,1.1,0,1.7c0,0.6,0,1.1,0,1.7c0,0.3,0,0.7-0.1,1c-0.2,0.5-0.6,0.8-1.1,0.9c-0.4,0.1-0.9,0-1.3,0
			C43.1,18.5,43.1,18.5,43.1,18.5z M43.6,17c0-1.1,0-2.2,0-3.3c0-0.1,0-0.3,0-0.4c-0.1-0.1-0.1-0.1-0.2-0.2c-0.1,0-0.2,0-0.4,0
			c0,1.4,0,2.8,0,4.3c0.2,0,0.3,0,0.4-0.1C43.6,17.2,43.6,17.1,43.6,17z"/>
		<path class="st0" d="M18.8,11.8c1.3,0,2.6,0,3.9,0c0,0,0.1,0.1,0.1,0.1c0,0.3,0,0.7,0,1c0,0,0,0.1-0.1,0.1c-0.6,0-1.2,0-1.7,0
			c0,0,0,0,0,0c0,0,0,0,0,0c0,0,0,0,0,0c0,2.9,0,5.8,0,8.7c0,0.1-0.1,0.1-0.2,0.1c-0.4,0-0.8,0-1.3,0c-0.2,0-0.4,0-0.6,0
			C18.8,21.8,18.8,13.3,18.8,11.8z"/>
	</g>
	<g>
		<rect x="18.7" y="24.1" class="st0" width="39.6" height="6.4"/>
		<g>
			<path class="st1" d="M20.1,29l0.9-3.7H22l0.8,3.7H22l-0.2-1H21l-0.2,1H20.1z M21.1,27.5h0.6l-0.3-1.7L21.1,27.5z"/>
			<path class="st1" d="M23.1,29v-3.7h1.3c0.2,0,0.3,0,0.4,0.1c0.1,0,0.2,0.1,0.3,0.2c0.1,0.1,0.1,0.2,0.2,0.3
				c0,0.1,0.1,0.2,0.1,0.3c0,0.2,0,0.4-0.1,0.5c-0.1,0.2-0.2,0.3-0.4,0.3c0.2,0.1,0.3,0.2,0.4,0.3c0.1,0.1,0.1,0.3,0.1,0.6
				c0,0.3-0.1,0.6-0.2,0.8C25,28.9,24.7,29,24.5,29H23.1z M23.8,26.8h0.4c0.3,0,0.4-0.2,0.4-0.5c0-0.2,0-0.3-0.1-0.4
				c-0.1-0.1-0.2-0.1-0.3-0.1h-0.4V26.8z M23.8,28.5h0.5c0.1,0,0.2,0,0.3-0.1c0.1-0.1,0.1-0.2,0.1-0.4c0-0.2,0-0.3-0.1-0.4
				c-0.1-0.1-0.2-0.1-0.3-0.1h-0.5V28.5z"/>
			<path class="st1" d="M25.6,25.9v-0.6H28v0.6h-0.9V29h-0.7v-3.1H25.6z"/>
			<path class="st1" d="M28.4,27.9v-1.3c0-0.2,0-0.4,0.1-0.6c0.1-0.2,0.1-0.3,0.3-0.4c0.1-0.1,0.2-0.2,0.4-0.2
				c0.1,0,0.3-0.1,0.5-0.1c0.2,0,0.3,0,0.5,0.1c0.1,0,0.3,0.1,0.4,0.2c0.1,0.1,0.2,0.2,0.2,0.4c0.1,0.2,0.1,0.4,0.1,0.6v1.3
				c0,0.2,0,0.4-0.1,0.6c-0.1,0.2-0.1,0.3-0.2,0.4C30.3,28.9,30.2,29,30,29c-0.1,0-0.3,0.1-0.5,0.1C28.8,29.1,28.4,28.7,28.4,27.9z
				 M29.1,28c0,0.4,0.2,0.6,0.5,0.6c0.2,0,0.3-0.1,0.4-0.2C30,28.3,30,28.1,30,28v-1.5c0-0.2,0-0.4-0.1-0.5
				c-0.1-0.1-0.2-0.2-0.3-0.2c-0.3,0-0.5,0.2-0.5,0.6V28z"/>
			<path class="st1" d="M31.2,29v-3.7h1.1l0.5,2.4l0.5-2.4h1.1V29h-0.7v-3.3l0,0L33.1,29h-0.5l-0.7-3.3h0V29H31.2z"/>
			<path class="st1" d="M34.7,29l0.9-3.7h0.9l0.8,3.7h-0.8l-0.2-1h-0.8l-0.2,1H34.7z M35.8,27.5h0.6l-0.3-1.7L35.8,27.5z"/>
			<path class="st1" d="M37.4,25.9v-0.6h2.4v0.6H39V29h-0.7v-3.1H37.4z"/>
			<path class="st1" d="M40.2,29v-3.7h0.7v1.4c0,0.6,0,1-0.1,1.3h0l1-2.7h0.8V29h-0.7v-1.4c0-0.6,0-1,0.1-1.3h0l-1,2.7H40.2z"/>
			<path class="st1" d="M42.9,28h0.7c0,0.1,0,0.3,0.1,0.4c0.1,0.1,0.2,0.1,0.3,0.1c0.2,0,0.3-0.1,0.4-0.2s0.1-0.3,0.1-0.5
				c0-0.2,0-0.4-0.1-0.5s-0.2-0.1-0.4-0.1h-0.2v-0.5H44c0.1,0,0.2,0,0.3-0.1c0.1-0.1,0.1-0.2,0.1-0.4c0-0.1,0-0.1,0-0.2
				c0-0.1,0-0.1-0.1-0.2c0-0.1-0.1-0.1-0.1-0.1c-0.1,0-0.1,0-0.2,0c-0.1,0-0.2,0.1-0.3,0.2c-0.1,0.1-0.1,0.2-0.1,0.4H43
				c0-0.3,0.1-0.6,0.3-0.8c0.2-0.2,0.5-0.3,0.8-0.3c0.1,0,0.3,0,0.4,0.1c0.1,0,0.2,0.1,0.4,0.2c0.1,0.1,0.2,0.2,0.3,0.3
				c0.1,0.1,0.1,0.3,0.1,0.5c0,0.2-0.1,0.4-0.2,0.5c-0.1,0.1-0.2,0.2-0.4,0.3c0.2,0,0.3,0.2,0.5,0.3c0.1,0.2,0.2,0.4,0.2,0.6
				c0,0.4-0.1,0.6-0.3,0.8s-0.5,0.3-0.8,0.3c-0.2,0-0.3,0-0.4-0.1c-0.1,0-0.3-0.1-0.4-0.2c-0.1-0.1-0.2-0.2-0.3-0.3
				C43,28.4,42.9,28.2,42.9,28z"/>
			<path class="st1" d="M45.5,29l0.9-3.7h0.9l0.8,3.7h-0.8l-0.2-1h-0.8l-0.2,1H45.5z M46.6,27.5h0.6l-0.3-1.7L46.6,27.5z"/>
			<path class="st1" d="M48.5,29v-3.7h0.7v3.1h0.9v-3.1h0.7v3.1H51v1.3h-0.7V29H48.5z"/>
			<path class="st1" d="M51.4,29v-3.7h0.7v1.4c0,0.6,0,1-0.1,1.3h0l1-2.7h0.8V29h-0.7v-1.4c0-0.6,0-1,0.1-1.3h0l-1,2.7H51.4z"/>
			<path class="st1" d="M54.1,29l0.7-1.6c-0.2-0.1-0.3-0.2-0.4-0.4c-0.1-0.2-0.2-0.4-0.2-0.6c0-0.2,0-0.4,0.1-0.5
				c0.1-0.2,0.2-0.3,0.3-0.4c0.1-0.1,0.3-0.1,0.5-0.1h1.4V29h-0.7v-1.5h-0.3L54.9,29H54.1z M55,26.4c0,0.2,0,0.3,0.1,0.4
				c0.1,0.1,0.2,0.1,0.4,0.1h0.4v-1.1h-0.4c-0.2,0-0.3,0-0.4,0.1C55,26.1,55,26.2,55,26.4z"/>
		</g>
	</g>
</g>
<g>
</g>
<g>
</g>
<g>
</g>
<g>
</g>
<g>
</g>
<g>
</g>
</svg>
