<?xml version="1.0" encoding="UTF-8"?>
<!DOCTYPE svg PUBLIC "-//W3C//DTD SVG 1.1//EN" "http://www.w3.org/Graphics/SVG/1.1/DTD/svg11.dtd">
<!-- Creator: CorelDRAW -->
<svg xmlns="http://www.w3.org/2000/svg" xml:space="preserve" width="297mm" height="210mm" version="1.1" style="shape-rendering:geometricPrecision; text-rendering:geometricPrecision; image-rendering:optimizeQuality; fill-rule:evenodd; clip-rule:evenodd"
viewBox="0 0 29700 21000"
 xmlns:xlink="http://www.w3.org/1999/xlink"
 xmlns:xodm="http://www.corel.com/coreldraw/odm/2003">
 <defs>
  <style type="text/css">
   <![CDATA[
    .fil0 {fill:#0073BB;fill-rule:nonzero}
   ]]>
  </style>
 </defs>
 <g id="Слой_x0020_1">
  <metadata id="CorelCorpID_0Corel-Layer"/>
  <path class="fil0" d="M10410.68 5896.4l1630.06 0 0 529.92 -775.52 0 0 3743.49 -854.54 0 0 -4273.41zm16339.45 8916.1l583.18 -823.37 222.38 0 -511.78 669.65 527.41 932.58 -206.84 0 -427.27 -792.21 -187.08 233.55 0 558.66 -177.98 0 0 -1602.23 177.98 0 0 823.37zm-2573.93 -342.78c0,-193.52 -64.4,-351.59 -286.99,-351.59 -309.4,0 -311.5,436.22 -311.5,647.67 0,324.82 17.82,703.12 311.5,703.12 231.54,0 269.26,-191.34 286.99,-456.25l178.1 0c-20,369.55 -111.19,616.41 -451.76,616.41 -471.76,0 -509.6,-480.62 -509.6,-858.91 0,-360.57 66.82,-812.24 505.11,-812.24 302.76,0 456.25,224.8 456.25,511.79l-178.1 0zm-3717.67 282.61l173.61 0c244.71,0 391.64,-37.81 391.64,-311.47 0,-227.08 -126.73,-291.48 -340.48,-291.48l-224.77 0 0 602.95zm0 839l-177.98 0 0 -1602.23 445.08 0c291.48,0 482.9,135.68 482.9,451.76 0,373.89 -227.08,471.75 -516.25,471.75l-233.75 0 0 678.72zm-2941.09 -1473.2c-273.75,0 -338.35,282.73 -338.35,640.88 0,465.11 49.07,709.91 342.75,709.91 293.75,0 345.03,-244.8 345.03,-707.7 0,-358.29 -66.9,-643.09 -349.43,-643.09zm-523.04 669.85c0,-367.24 60.15,-830.05 527.44,-830.05 469.58,0 529.69,462.81 529.69,830.05 0,442.81 -62.3,841.1 -529.69,841.1 -467.29,0 -527.44,-398.29 -527.44,-841.1zm-2093.22 -798.91l0 160.28 -574.2 0 0 1441.98 -177.98 0 0 -1602.26 752.18 0zm-3849.62 772.12c0,462.93 46.7,707.7 342.75,707.7 293.66,0 342.64,-242.5 342.64,-707.7 0,-355.99 -64.49,-643.09 -347.13,-643.09 -273.75,0 -338.26,284.83 -338.26,643.09zm-462.9 -91.19l278.24 0c0,-340.54 104.51,-712.07 527.41,-712.07 469.48,0 527.41,462.81 527.41,830.05 0,442.78 -60.11,841.1 -527.41,841.1 -451.76,0 -527.41,-371.52 -527.41,-798.88l-278.24 0 0 761.13 -178.01 0 0 -1602.23 178.01 0 0 680.9zm16982.66 -3926.04l-17160.61 0 0 2670.52 17160.61 0 0 -2670.52zm-15970.32 2136.43l-354.63 0 0 -1297.93 -303.23 0 0 -303.27 941.13 0 0 303.27 -283.27 0 0 1297.93zm14444.71 -1112.84c0,-332.21 207.37,-524.07 484.05,-524.07 305.44,0 477.19,198.42 477.19,423.73 0,198.42 -64.6,298.77 -227.49,370.16l4.37 0c162.89,60.33 278.86,127.12 278.86,414.87 0,316.7 -205.18,466.11 -510.72,466.11 -238.65,0 -506.26,-104.92 -506.26,-517.51l354.63 0c0,178.54 51.25,229.7 136.09,229.7 100.26,0 140.47,-51.16 140.47,-229.7 0,-149.33 -46.88,-209.56 -169.53,-209.56l-55.78 0 0 -287.63 91.4 0c55.86,0 116.01,-62.51 116.01,-176.33 0,-120.26 -37.96,-196.21 -129.24,-196.21 -98.28,0 -129.42,71.37 -129.42,236.44l-354.63 0zm-1584.03 504.08l-102.57 -704.8 -2.27 0 -100.35 704.8 205.19 0zm133.78 -992.41l354.63 1601.2 -379.12 0 -58.04 -321.07 -294.4 0 -49.07 321.07 -383.49 0 347.84 -1601.2 461.65 0zm-1777.97 -0.05l0 303.26 -510.75 0 0 1297.96 -385.79 0 0 -1601.22 896.54 0zm-2119.3 967.94l0 149.41c0,363.5 -165.07,521.8 -521.98,521.8 -354.54,0 -521.8,-156.12 -521.8,-524.07l0 -698.12c0,-251.98 156.12,-452.68 521.8,-452.68 361.4,0 521.98,205.28 521.98,454.98l0 109.21 -385.89 0 0 -144.87c0,-84.81 -80.34,-124.92 -140.49,-124.92 -64.69,0 -131.51,35.74 -131.51,118.16l0 798.47c0,120.47 51.19,169.45 131.51,169.45 82.54,0 140.49,-44.61 140.49,-165.08l0 -211.74 385.89 0zm-2904.37 -350.2l251.98 0 0 -617.77 385.8 0 0 1601.31 -385.8 0 0 -680.19 -251.98 0 0 680.19 -385.79 0 0 -1601.31 385.79 0 0 617.77zm-2014.47 374.72l-102.56 -704.8 -2.27 0 -100.38 704.8 205.21 0zm133.79 -992.41l354.63 1601.2 -379.21 0 -57.95 -321.07 -294.4 0 -49.07 321.07 -383.61 0 347.96 -1601.2 461.65 0zm-2473.88 689.03l69.1 0c95.89,0 187.37,-46.79 187.37,-205.19 0,-158.3 -82.53,-196.23 -194.05,-196.23l-62.42 0 0 401.42zm0 912.17l-385.79 0 0 -1601.23 559.73 0c223,0 468.42,80.27 468.42,488.33 0,394.78 -240.93,488.57 -468.42,488.57l-173.94 0 0 624.33zm-4881.85 -2137.26l-2259.41 0 0 1515.86c2.19,-2.19 3.75,-4.38 5.85,-6.36 532.52,-532.1 1395.07,-532.1 1927.38,0 532.2,532.73 532.2,1395.69 0,1927.48 -2.1,2.3 -4.37,4.4 -6.56,6.58l0 0.5c-2.3,1.9 -5.73,5.12 -8.24,7.09 -530.42,527 -1224.47,791.18 -1918.43,791.18 -696.44,0 -1393.41,-266.16 -1925.2,-796.79 -936.45,-937.28 -1047.85,-2387.17 -333.36,-3445.54 96.27,-143.1 206.96,-279.19 333.36,-404.97 531.79,-531.69 1228.76,-797.44 1925.2,-797.44l0 -3644.38c-2676.76,0 -4848.12,2171.06 -4848.12,4846.79 0,2677.38 2171.36,4848.11 4848.12,4848.11 1397.05,0 2654.07,-590.86 3538.18,-1534.94l0 -3313.17 -1278.77 0zm553.2 -4425.13c-10.81,496.28 -69.8,1020.44 -145.78,1332.89 27.3,-539.41 -37.39,-1300.16 -161.64,-1894.69 -124.22,-594.52 -475.51,-1585.36 -755.52,-2045.98 -258.95,437.58 -577.75,1296.19 -745.21,2040.67 -167.88,745.53 -172.9,1646.33 -172.9,1917.19 -44.08,-228.56 -155.89,-1040.14 -124.1,-1857.46 26.47,-674.05 183.92,-1365.8 270.32,-1684.39 329.4,-1064.42 702.05,-1743.67 771.89,-1850.69 69.92,107.02 539.61,944.58 782.84,1823.93 241.97,880.15 290.95,1721.75 280.1,2218.53zm-1057.21 3798.31c-146.31,-274.69 -373.27,-798.14 -394.75,-1606.42 -5.64,-782.41 307.43,-1453.74 399.03,-1592.87 81.27,139.13 351.83,723.97 383.58,1522.21 21.8,781.69 -237.18,1396.54 -387.86,1677.08zm1143.29 -6006.24c-296.17,-1300.53 -1040.76,-2357.78 -1143.29,-2530.97 -162.89,242.82 -756.79,1175.93 -1058.58,2212.74 -329.31,1155.58 -377.46,2180.3 -264.06,3190.4 113.05,1008.48 539.7,2045.28 539.7,2045.28 226.67,544.28 566.29,1126.72 787.22,1412.58 324.29,-421.45 1069.62,-1677.17 1301.28,-3317.99 129.33,-911.84 134.97,-1710.64 -162.27,-3012.04zm17263.41 1786.3l1111.22 0 0 4273.41 -854.75 0 0 -2680.1 -30.54 0 -439.56 2680.1 -683.83 0 -439.47 -2680.1 -30.84 0 0 2680.1 -854.54 0 0 -4273.41 1111.01 0 555.53 3003.48 555.77 -3003.48zm-4640.65 3510.21c0,298.98 36.86,763.14 634.94,763.14l708.34 0c598.16,0 634.85,-464.16 634.85,-763.14l0 -2747.09c0,-299.31 -36.69,-763.15 -634.85,-763.15l-708.34 0c-598.08,0 -634.94,463.84 -634.94,763.15l0 2747.09zm1123.38 71.9c0,73.5 -54.82,140.49 -134.23,140.49 -48.86,0 -134.52,-30.63 -134.52,-140.49l0 -2911.87c0,-109.71 85.66,-140.37 134.52,-140.37 79.41,0 134.23,67.23 134.23,140.37l0 2911.87zm-3516.58 691.27l854.71 0 0 -1453.02 488.24 0c598.4,0 635.06,-464.14 635.06,-763.12l0 -1294.21c0,-299.31 -36.66,-763.03 -635.06,-763.03l-1342.95 0 0 4273.38zm854.71 -1923.01l0 -1820.47 109.86 0c91.61,0 158.93,79.22 158.93,213.42l0 1393.21c0,134.44 -67.32,213.84 -158.93,213.84l-109.86 0zm-3332.7 -2350.37l1978.25 0 0 4273.41 -854.33 0 0 -3743.49 -268.88 0 0 3743.49 -855.04 0 0 -4273.41zm-1572.93 2777.49l0 804.71c0,109.74 85.34,140.37 134.23,140.37 79.61,0 134.32,-66.99 134.32,-140.37l0 -993.85c0,-134.32 -24.49,-280.75 -341.93,-280.75l-347.83 0 0 -470.11 360.03 0c244.18,0 329.73,-54.91 329.73,-317.41l0 -849.84c0,-73.17 -54.71,-140.29 -134.32,-140.29 -48.89,0 -134.23,30.64 -134.23,140.29l0 697.15 -854.74 0 0 -604.3c0,-299.31 36.68,-763.06 634.84,-763.06l708.56 0c598.78,0 635.05,463.75 635.05,763.06l0 683.73c0,463.84 -323.46,592.23 -579.93,579.82l0 42.83c573.88,-12.2 579.93,427.36 579.93,579.94l0 860.8c0,298.98 -36.27,763.11 -635.05,763.11l-708.56 0c-598.16,0 -634.84,-464.13 -634.84,-763.11l0 -732.72 854.74 0zm-3357.98 1495.89l836.31 0 79.28 -1135.67 403.11 0 79.49 1135.67 836.32 0 -445.71 -4273.38 -1343.07 0 -445.73 4273.38zm946.26 -1605.48l146.52 -2138.21 48.98 0 146.4 2138.21 -341.9 0z"/>
 </g>
</svg>
