<?xml version="1.0" encoding="utf-8"?>
<!-- Generator: Adobe Illustrator 25.2.3, SVG Export Plug-In . SVG Version: 6.00 Build 0)  -->
<svg version="1.1" id="Layer_1" xmlns="http://www.w3.org/2000/svg" xmlns:xlink="http://www.w3.org/1999/xlink" x="0px" y="0px"
	 viewBox="0 0 1032.8 568.6" style="enable-background:new 0 0 1032.8 568.6;" xml:space="preserve">
<style type="text/css">
	.st0{fill:none;stroke:#864ACC;stroke-miterlimit:10;}
	.st1{opacity:0.1;}
	.st2{fill:#459CDE;}
	.st3{clip-path:url(#SVGID_2_);fill:none;stroke:#FFE36E;stroke-miterlimit:10;}
	.st4{clip-path:url(#SVGID_4_);fill:none;stroke:#FFE36E;stroke-miterlimit:10;}
	.st5{clip-path:url(#SVGID_6_);fill:none;stroke:#FFE36E;stroke-miterlimit:10;}
	.st6{clip-path:url(#SVGID_8_);fill:none;stroke:#FFE36E;stroke-miterlimit:10;}
	.st7{clip-path:url(#SVGID_10_);fill:none;stroke:#FFE36E;stroke-miterlimit:10;}
	.st8{clip-path:url(#SVGID_12_);fill:none;stroke:#FFE36E;stroke-miterlimit:10;}
	.st9{clip-path:url(#SVGID_14_);fill:none;stroke:#FFE36E;stroke-miterlimit:10;}
	.st10{clip-path:url(#SVGID_16_);fill:none;stroke:#FFE36E;stroke-miterlimit:10;}
	.st11{clip-path:url(#SVGID_18_);fill:none;stroke:#FFE36E;stroke-miterlimit:10;}
	.st12{clip-path:url(#SVGID_20_);fill:none;stroke:#FFE36E;stroke-miterlimit:10;}
	.st13{clip-path:url(#SVGID_22_);fill:none;stroke:#864ACC;stroke-miterlimit:10;}
	.st14{clip-path:url(#SVGID_24_);fill:none;stroke:#864ACC;stroke-miterlimit:10;}
	.st15{clip-path:url(#SVGID_26_);fill:none;stroke:#864ACC;stroke-miterlimit:10;}
	.st16{clip-path:url(#SVGID_28_);fill:none;stroke:#864ACC;stroke-miterlimit:10;}
	.st17{clip-path:url(#SVGID_30_);fill:none;stroke:#864ACC;stroke-miterlimit:10;}
	.st18{clip-path:url(#SVGID_32_);fill:none;stroke:#864ACC;stroke-miterlimit:10;}
	.st19{clip-path:url(#SVGID_32_);fill:#FFFFFF;}
	.st20{clip-path:url(#SVGID_34_);fill:none;stroke:#864ACC;stroke-miterlimit:10;}
	.st21{clip-path:url(#SVGID_36_);fill:none;stroke:#864ACC;stroke-miterlimit:10;}
	.st22{clip-path:url(#SVGID_38_);fill:none;stroke:#864ACC;stroke-miterlimit:10;}
	.st23{clip-path:url(#SVGID_40_);fill:none;stroke:#864ACC;stroke-miterlimit:10;}
	.st24{clip-path:url(#SVGID_44_);fill:none;stroke:#864ACC;stroke-miterlimit:10;}
	.st25{clip-path:url(#SVGID_46_);fill:none;stroke:#864ACC;stroke-miterlimit:10;}
	.st26{clip-path:url(#SVGID_48_);fill:none;stroke:#864ACC;stroke-miterlimit:10;}
	.st27{clip-path:url(#SVGID_50_);fill:none;stroke:#864ACC;stroke-miterlimit:10;}
	.st28{clip-path:url(#SVGID_52_);fill:none;stroke:#864ACC;stroke-miterlimit:10;}
	.st29{clip-path:url(#SVGID_54_);fill:none;stroke:#864ACC;stroke-miterlimit:10;}
	.st30{clip-path:url(#SVGID_56_);fill:none;stroke:#864ACC;stroke-miterlimit:10;}
	.st31{clip-path:url(#SVGID_60_);fill:none;stroke:#864ACC;stroke-miterlimit:10;}
	.st32{clip-path:url(#SVGID_62_);fill:none;stroke:#864ACC;stroke-miterlimit:10;}
	.st33{clip-path:url(#SVGID_64_);fill:none;stroke:#864ACC;stroke-miterlimit:10;}
	.st34{clip-path:url(#SVGID_66_);fill:none;stroke:#FFE36E;stroke-miterlimit:10;}
	.st35{clip-path:url(#SVGID_68_);fill:none;stroke:#864ACC;stroke-miterlimit:10;}
	.st36{clip-path:url(#SVGID_70_);fill:none;stroke:#864ACC;stroke-miterlimit:10;}
	.st37{clip-path:url(#SVGID_72_);fill:none;stroke:#864ACC;stroke-miterlimit:10;}
	.st38{clip-path:url(#SVGID_74_);fill:none;stroke:#FFE36E;stroke-miterlimit:10;}
	.st39{clip-path:url(#SVGID_76_);fill:none;stroke:#FFE36E;stroke-miterlimit:10;}
	.st40{clip-path:url(#SVGID_78_);fill:none;stroke:#FFE36E;stroke-miterlimit:10;}
	.st41{clip-path:url(#SVGID_80_);fill:none;stroke:#FFE36E;stroke-miterlimit:10;}
	.st42{clip-path:url(#SVGID_82_);fill:none;stroke:#FFE36E;stroke-miterlimit:10;}
	.st43{clip-path:url(#SVGID_84_);fill:none;stroke:#864ACC;stroke-miterlimit:10;}
	.st44{clip-path:url(#SVGID_86_);fill:none;stroke:#864ACC;stroke-miterlimit:10;}
	.st45{clip-path:url(#SVGID_88_);fill:none;stroke:#864ACC;stroke-miterlimit:10;}
	.st46{clip-path:url(#SVGID_90_);fill:none;stroke:#864ACC;stroke-miterlimit:10;}
	.st47{clip-path:url(#SVGID_92_);fill:none;stroke:#864ACC;stroke-miterlimit:10;}
	.st48{clip-path:url(#SVGID_94_);fill:none;stroke:#864ACC;stroke-miterlimit:10;}
	.st49{clip-path:url(#SVGID_96_);fill:none;stroke:#864ACC;stroke-miterlimit:10;}
	.st50{clip-path:url(#SVGID_98_);fill:none;stroke:#864ACC;stroke-miterlimit:10;}
	.st51{clip-path:url(#SVGID_100_);fill:none;stroke:#864ACC;stroke-miterlimit:10;}
	.st52{clip-path:url(#SVGID_102_);fill:none;stroke:#864ACC;stroke-miterlimit:10;}
	.st53{clip-path:url(#SVGID_104_);fill:none;stroke:#864ACC;stroke-miterlimit:10;}
	.st54{clip-path:url(#SVGID_106_);fill:none;stroke:#864ACC;stroke-miterlimit:10;}
	.st55{clip-path:url(#SVGID_108_);fill:none;stroke:#864ACC;stroke-miterlimit:10;}
	.st56{clip-path:url(#SVGID_110_);fill:none;stroke:#864ACC;stroke-miterlimit:10;}
	.st57{clip-path:url(#SVGID_112_);fill:none;stroke:#864ACC;stroke-miterlimit:10;}
	.st58{clip-path:url(#SVGID_114_);fill:none;stroke:#864ACC;stroke-miterlimit:10;}
	.st59{clip-path:url(#SVGID_116_);fill:none;stroke:#864ACC;stroke-miterlimit:10;}
	.st60{clip-path:url(#SVGID_118_);}
	.st61{clip-path:url(#SVGID_120_);fill:#FFFFFF;}
	.st62{clip-path:url(#SVGID_120_);fill:none;stroke:#864ACC;stroke-miterlimit:10;}
	.st63{clip-path:url(#SVGID_122_);fill:none;stroke:#864ACC;stroke-miterlimit:10;}
	.st64{clip-path:url(#SVGID_124_);fill:none;stroke:#864ACC;stroke-miterlimit:10;}
	.st65{clip-path:url(#SVGID_126_);fill:none;stroke:#FFE36E;stroke-miterlimit:10;}
	.st66{clip-path:url(#SVGID_128_);fill:none;stroke:#FFE36E;stroke-miterlimit:10;}
	.st67{clip-path:url(#SVGID_130_);fill:none;stroke:#FFE36E;stroke-miterlimit:10;}
	.st68{clip-path:url(#SVGID_132_);fill:none;stroke:#FFE36E;stroke-miterlimit:10;}
	.st69{clip-path:url(#SVGID_134_);fill:#FFFFFF;}
	.st70{clip-path:url(#SVGID_134_);fill:none;stroke:#864ACC;stroke-miterlimit:10;}
	.st71{fill:none;stroke:#FFE36E;stroke-miterlimit:10;}
	.st72{fill:#FFFFFF;}
	.st73{fill:#F8F3FF;}
	.st74{fill:none;stroke:#864ACC;stroke-width:0.5;stroke-miterlimit:10;}
	.st75{fill:#864ACC;}
</style>
<rect x="370.4" y="239.2" transform="matrix(6.123234e-17 -1 1 6.123234e-17 142.6991 621.0077)" class="st0" width="23" height="0"/>
<rect x="463.2" y="188.7" transform="matrix(6.123234e-17 -1 1 6.123234e-17 285.9782 663.3441)" class="st0" width="23" height="0"/>
<g class="st1">
	<g>
		<g>
			<path class="st2" d="M102.1,292.2c-3.9,25.9,4.2,51.3,5.4,77c0.3,6.4,0.2,12.9-0.8,19.3c-1,6.8-3,13.3-4.7,19.9
				c-3.5,13.3-4.7,26.9-3.9,40.6c0.9,15.5,3.8,30.9,7.2,46c0.3,1.6,2.8,0.9,2.4-0.7c-5.8-26.6-10.7-54.6-4.2-81.6
				c1.6-6.5,3.7-12.9,5-19.5c1.2-6.3,1.7-12.7,1.7-19.1c-0.1-12.8-2.2-25.4-4-38c-2-14.3-3.8-28.9-1.6-43.3
				C104.8,291.3,102.4,290.6,102.1,292.2L102.1,292.2z"/>
		</g>
	</g>
	<g>
		<g>
			<path class="st2" d="M156.3,9.5c-4.8,19.2-9.6,38.7-9.4,58.7c0.2,20.2,4.8,39.9,6.8,59.9c2.1,20.7,0.8,41.5-1.2,62.2
				c-1,10.3-2.1,20.6-3.1,30.9c-0.9,9.3-2.2,19.1,0.5,28.2c4.3,14.7,17.3,25.2,30.8,31.3c17.2,7.8,36.3,9.5,53.9,15.9
				c15.2,5.5,30.7,15.5,35.9,31.7c3,9.5,2.2,19.7,0.9,29.5c-1.5,10.2-3.2,20.4-4.6,30.6c-5.6,40.8-8.4,82-8.5,123.1
				c0,5.1,0,10.2,0.1,15.3c0,1.6,2.5,1.6,2.5,0c-0.6-41.4,1.6-82.8,6.6-123.9c1.2-10.3,2.7-20.6,4.3-30.9c1.5-9.5,3.4-19.1,3.4-28.8
				c0-8.4-1.7-16.8-6.1-24.1c-3.9-6.5-9.5-11.7-15.8-15.9c-28.8-19.2-71.7-12.6-94.3-41.8c-5.5-7.1-8-15.4-7.9-24.3
				c0-10,1.5-20,2.5-29.9c2.1-20.5,4.3-41.1,3.9-61.8c-0.4-20.3-4.6-40.1-6.8-60.3c-1.1-10-1.4-20-0.5-30
				c0.9-10.2,2.9-20.3,5.2-30.3c1.1-4.8,2.3-9.6,3.5-14.4C159.1,8.6,156.6,8,156.3,9.5L156.3,9.5z"/>
		</g>
	</g>
	<g>
		<g>
			<path class="st2" d="M506.8,109.6c1.1,15.1-2.4,30-2.2,45c0.2,14.6,5.2,28.1,10.1,41.6c8.7,23.9,18.4,48.8,36.9,67
				c8.4,8.3,19.2,15.3,24.5,26.3c3.2,6.7,3.4,14.3,3.3,21.6c-0.1,7.7-0.3,15.3-0.5,23c-0.3,15.5-0.4,31-1,46.5
				c-0.3,7.8-0.8,15.7-2,23.4c-1.2,7.4-3,14.6-4.7,21.9c-3.5,14.6-5.8,29.2-6.5,44.2c-0.6,15.2,0,30.3,1,45.5
				c0.2,3.8,0.5,7.5,0.7,11.2c0.1,1.6,2.6,1.6,2.5,0c-2-30.3-4-61,2.5-91c3.2-14.7,7.2-28.9,8.3-44c1.2-15.4,1-30.8,1.3-46.2
				c0.2-7.7,0.3-15.5,0.5-23.2c0.2-7.5,0.7-15.1-0.2-22.6c-0.8-6.3-2.9-12.2-6.6-17.3c-3.4-4.7-7.7-8.7-12-12.5
				c-4.6-4.1-9.2-8.1-13.3-12.6c-4.4-4.9-8.3-10.3-11.8-15.9c-6.9-11.2-12.1-23.4-16.8-35.6c-5-12.9-10.5-26.2-12.9-39.9
				c-2.6-15.1,0.7-30.2,1.3-45.3c0.2-3.7,0.1-7.4-0.1-11.2C509.2,108,506.7,108,506.8,109.6L506.8,109.6z"/>
		</g>
	</g>
	<g>
		<g>
			<path class="st2" d="M874.3,171.5c-5.4,7.7-9.9,16.1-13.4,24.8c-1.8,4.4-3.3,9-4.6,13.6c-1.3,4.7-2.4,9.5-2.7,14.4
				c-0.5,9.9,4.4,18.8,8.4,27.5c4.1,9.2,8.1,18.4,11.2,28c3.1,9.5,5.3,19.3,5.7,29.3c0.4,10.1-1.3,19.9-3.6,29.7
				c-2.3,10-4.9,19.8-6.1,30c-1.2,10.3-1.3,20.6-0.5,31c1.5,20.8,6,41.2,10.8,61.5c0.6,2.5,1.2,5,1.8,7.5c0.4,1.6,2.8,0.9,2.4-0.7
				c-4.9-20.2-9.8-40.5-11.9-61.2c-1-10.2-1.4-20.5-0.7-30.7c0.7-10.3,2.7-20.2,5.1-30.2c2.3-9.6,4.7-19.4,5.2-29.3
				c0.5-9.6-0.8-19.3-3.2-28.7c-2.4-9.4-5.8-18.5-9.6-27.4c-1.9-4.5-4-9.1-6-13.6c-2-4.4-4.2-8.9-5.5-13.6
				c-2.6-9.6,0.4-19.9,3.5-29.1c3-9,7-17.6,12-25.7c1.2-2,2.5-4,3.9-5.9C877.4,171.4,875.2,170.2,874.3,171.5L874.3,171.5z"/>
		</g>
	</g>
	<g>
		<g>
			<path class="st2" d="M918.3,112.2c-1.1,26.7,9,52,13.9,77.9c5.2,27.3,5.4,55.3,4.4,83c-1,28.2-2.7,56.4-4.1,84.5
				c-0.7,14-1.1,28.1-2.3,42c-0.6,7.1-1.5,14.2-3,21.3c-1.5,6.7-3.3,13.2-4.7,19.9c-5.7,26-5.9,53.1-0.9,79.3
				c0.7,3.3,1.4,6.7,2.2,10c0.4,1.6,2.8,0.9,2.4-0.7c-6.5-26.3-7.5-53.9-2.8-80.6c2.4-13.4,6.6-26.4,8.3-39.9
				c1.8-13.8,2.1-27.8,2.8-41.7c1.4-28.1,3-56.3,4.2-84.4c1.2-27.3,1.7-54.7-2.2-81.8c-1.9-13.3-5.2-26.3-8.5-39.3
				c-3.3-12.9-6.5-26-7.2-39.3c-0.2-3.3-0.2-6.7-0.1-10.1C920.8,110.6,918.3,110.6,918.3,112.2L918.3,112.2z"/>
		</g>
	</g>
</g>
<g id="LINES2">
	<g>
		<g>
			<defs>
				<rect id="SVGID_1_" x="40.3" y="56.6" width="905.7" height="442.6"/>
			</defs>
			<clipPath id="SVGID_2_">
				<use xlink:href="#SVGID_1_"  style="overflow:visible;"/>
			</clipPath>
			<polyline class="st3" points="40.3,98.5 226.3,98.5 430.4,297 946.1,297 			"/>
		</g>
		<g>
			<defs>
				<rect id="SVGID_3_" x="40.3" y="56.6" width="905.7" height="442.6"/>
			</defs>
			<clipPath id="SVGID_4_">
				<use xlink:href="#SVGID_3_"  style="overflow:visible;"/>
			</clipPath>
			<polyline class="st4" points="34,118.7 220,118.7 424.1,317.1 951,317.1 			"/>
		</g>
		<g>
			<defs>
				<rect id="SVGID_5_" x="40.3" y="56.6" width="905.7" height="442.6"/>
			</defs>
			<clipPath id="SVGID_6_">
				<use xlink:href="#SVGID_5_"  style="overflow:visible;"/>
			</clipPath>
			<polyline class="st5" points="26.9,140.4 212.9,140.4 417,338.8 948.8,338.8 			"/>
		</g>
		<g>
			<defs>
				<rect id="SVGID_7_" x="40.3" y="56.6" width="905.7" height="442.6"/>
			</defs>
			<clipPath id="SVGID_8_">
				<use xlink:href="#SVGID_7_"  style="overflow:visible;"/>
			</clipPath>
			<polyline class="st6" points="30.5,172.4 216.4,172.4 410.7,360.9 950.8,360.9 			"/>
		</g>
		<g>
			<defs>
				<rect id="SVGID_9_" x="40.3" y="56.6" width="905.7" height="442.6"/>
			</defs>
			<clipPath id="SVGID_10_">
				<use xlink:href="#SVGID_9_"  style="overflow:visible;"/>
			</clipPath>
			<polyline class="st7" points="23.2,193.1 209.2,193.1 404.6,382.6 950.7,382.6 			"/>
		</g>
		<g>
			<defs>
				<rect id="SVGID_11_" x="40.3" y="56.6" width="905.7" height="442.6"/>
			</defs>
			<clipPath id="SVGID_12_">
				<use xlink:href="#SVGID_11_"  style="overflow:visible;"/>
			</clipPath>
			<polyline class="st8" points="27.9,225.3 213.9,225.3 397.6,403.8 950.6,403.8 			"/>
		</g>
		<g>
			<defs>
				<rect id="SVGID_13_" x="40.3" y="56.6" width="905.7" height="442.6"/>
			</defs>
			<clipPath id="SVGID_14_">
				<use xlink:href="#SVGID_13_"  style="overflow:visible;"/>
			</clipPath>
			<line class="st9" x1="116.4" y1="209.8" x2="195" y2="209.8"/>
		</g>
		<g>
			<defs>
				<rect id="SVGID_15_" x="40.3" y="56.6" width="905.7" height="442.6"/>
			</defs>
			<clipPath id="SVGID_16_">
				<use xlink:href="#SVGID_15_"  style="overflow:visible;"/>
			</clipPath>
			<line class="st10" x1="53.3" y1="98.3" x2="53.3" y2="225.6"/>
		</g>
		<g>
			<defs>
				<rect id="SVGID_17_" x="40.3" y="56.6" width="905.7" height="442.6"/>
			</defs>
			<clipPath id="SVGID_18_">
				<use xlink:href="#SVGID_17_"  style="overflow:visible;"/>
			</clipPath>
			<line class="st11" x1="89.4" y1="98.3" x2="89.4" y2="225.6"/>
		</g>
		<g>
			<defs>
				<rect id="SVGID_19_" x="40.3" y="56.6" width="905.7" height="442.6"/>
			</defs>
			<clipPath id="SVGID_20_">
				<use xlink:href="#SVGID_19_"  style="overflow:visible;"/>
			</clipPath>
			<polyline class="st12" points="116.8,225.6 116.8,98.3 116.8,76.4 194.8,76.4 194.8,225 			"/>
		</g>
		<g>
			<defs>
				<rect id="SVGID_21_" x="40.3" y="56.6" width="905.7" height="442.6"/>
			</defs>
			<clipPath id="SVGID_22_">
				<use xlink:href="#SVGID_21_"  style="overflow:visible;"/>
			</clipPath>
			<path class="st13" d="M35.1,339.1c9.9,0,19.7,0,29.6,0"/>
		</g>
		<g>
			<defs>
				<rect id="SVGID_23_" x="40.3" y="56.6" width="905.7" height="442.6"/>
			</defs>
			<clipPath id="SVGID_24_">
				<use xlink:href="#SVGID_23_"  style="overflow:visible;"/>
			</clipPath>
			<path class="st14" d="M33.4,361.1c68.6,0,137.2,0,205.7,0"/>
		</g>
		<g>
			<defs>
				<rect id="SVGID_25_" x="40.3" y="56.6" width="905.7" height="442.6"/>
			</defs>
			<clipPath id="SVGID_26_">
				<use xlink:href="#SVGID_25_"  style="overflow:visible;"/>
			</clipPath>
			<path class="st15" d="M33.2,382.2c106,0,212,0,318,0l36.2-36.2v-56l36.1-36.1h48.7l22.1,22.1H521"/>
		</g>
		<g>
			<defs>
				<rect id="SVGID_27_" x="40.3" y="56.6" width="905.7" height="442.6"/>
			</defs>
			<clipPath id="SVGID_28_">
				<use xlink:href="#SVGID_27_"  style="overflow:visible;"/>
			</clipPath>
			<polyline class="st16" points="35.9,402.8 358.9,402.8 408.4,353.3 408.4,297.4 431.1,274.6 481.1,274.6 			"/>
		</g>
		<g>
			<defs>
				<rect id="SVGID_29_" x="40.3" y="56.6" width="905.7" height="442.6"/>
			</defs>
			<clipPath id="SVGID_30_">
				<use xlink:href="#SVGID_29_"  style="overflow:visible;"/>
			</clipPath>
			<line class="st17" x1="54.1" y1="339.1" x2="54.1" y2="382.2"/>
		</g>
		<g>
			<defs>
				<rect id="SVGID_31_" x="40.3" y="56.6" width="905.7" height="442.6"/>
			</defs>
			<clipPath id="SVGID_32_">
				<use xlink:href="#SVGID_31_"  style="overflow:visible;"/>
			</clipPath>
			<polyline class="st18" points="80.8,361.2 80.8,371.7 143.6,371.7 143.6,361.3 			"/>
			<rect x="142.6" y="361.6" class="st19" width="2.4" height="11.5"/>
		</g>
		<g>
			<defs>
				<rect id="SVGID_33_" x="40.3" y="56.6" width="905.7" height="442.6"/>
			</defs>
			<clipPath id="SVGID_34_">
				<use xlink:href="#SVGID_33_"  style="overflow:visible;"/>
			</clipPath>
			<polyline class="st20" points="80.7,382.2 80.7,392 139.9,392 139.9,382.3 			"/>
		</g>
		<g>
			<defs>
				<rect id="SVGID_35_" x="40.3" y="56.6" width="905.7" height="442.6"/>
			</defs>
			<clipPath id="SVGID_36_">
				<use xlink:href="#SVGID_35_"  style="overflow:visible;"/>
			</clipPath>
			<polyline class="st21" points="115.2,371.7 115.2,486.5 138.8,486.5 			"/>
		</g>
		<g>
			<defs>
				<rect id="SVGID_37_" x="40.3" y="56.6" width="905.7" height="442.6"/>
			</defs>
			<clipPath id="SVGID_38_">
				<use xlink:href="#SVGID_37_"  style="overflow:visible;"/>
			</clipPath>
			<polyline class="st22" points="122,392.1 122,468.8 115.4,468.8 			"/>
		</g>
		<g>
			<defs>
				<rect id="SVGID_39_" x="40.3" y="56.6" width="905.7" height="442.6"/>
			</defs>
			<clipPath id="SVGID_40_">
				<use xlink:href="#SVGID_39_"  style="overflow:visible;"/>
			</clipPath>
			<line class="st23" x1="187.4" y1="382" x2="187.4" y2="402.8"/>
		</g>
		<g>
			<defs>
				<rect id="SVGID_41_" x="40.3" y="56.6" width="905.7" height="442.6"/>
			</defs>
			<clipPath id="SVGID_42_">
				<use xlink:href="#SVGID_41_"  style="overflow:visible;"/>
			</clipPath>
		</g>
		<g>
			<defs>
				<rect id="SVGID_43_" x="40.3" y="56.6" width="905.7" height="442.6"/>
			</defs>
			<clipPath id="SVGID_44_">
				<use xlink:href="#SVGID_43_"  style="overflow:visible;"/>
			</clipPath>
			<line class="st24" x1="238.6" y1="360.8" x2="238.6" y2="403.3"/>
		</g>
		<g>
			<defs>
				<rect id="SVGID_45_" x="40.3" y="56.6" width="905.7" height="442.6"/>
			</defs>
			<clipPath id="SVGID_46_">
				<use xlink:href="#SVGID_45_"  style="overflow:visible;"/>
			</clipPath>
			<line class="st25" x1="276.5" y1="382" x2="276.5" y2="400.9"/>
		</g>
		<g>
			<defs>
				<rect id="SVGID_47_" x="40.3" y="56.6" width="905.7" height="442.6"/>
			</defs>
			<clipPath id="SVGID_48_">
				<use xlink:href="#SVGID_47_"  style="overflow:visible;"/>
			</clipPath>
			<line class="st26" x1="291.5" y1="382.7" x2="291.5" y2="403.2"/>
		</g>
		<g>
			<defs>
				<rect id="SVGID_49_" x="40.3" y="56.6" width="905.7" height="442.6"/>
			</defs>
			<clipPath id="SVGID_50_">
				<use xlink:href="#SVGID_49_"  style="overflow:visible;"/>
			</clipPath>
			<line class="st27" x1="318.6" y1="382.1" x2="318.6" y2="403.2"/>
		</g>
		<g>
			<defs>
				<rect id="SVGID_51_" x="40.3" y="56.6" width="905.7" height="442.6"/>
			</defs>
			<clipPath id="SVGID_52_">
				<use xlink:href="#SVGID_51_"  style="overflow:visible;"/>
			</clipPath>
			<polyline class="st28" points="333.6,402.6 333.6,443.4 393.8,443.4 			"/>
		</g>
		<g>
			<defs>
				<rect id="SVGID_53_" x="40.3" y="56.6" width="905.7" height="442.6"/>
			</defs>
			<clipPath id="SVGID_54_">
				<use xlink:href="#SVGID_53_"  style="overflow:visible;"/>
			</clipPath>
			<polyline class="st29" points="276.3,407.9 276.3,465.5 423,465.5 			"/>
		</g>
		<g>
			<defs>
				<rect id="SVGID_55_" x="40.3" y="56.6" width="905.7" height="442.6"/>
			</defs>
			<clipPath id="SVGID_56_">
				<use xlink:href="#SVGID_55_"  style="overflow:visible;"/>
			</clipPath>
			<polyline class="st30" points="286.4,402.8 286.4,426.5 276.1,426.5 			"/>
		</g>
		<g>
			<defs>
				<rect id="SVGID_57_" x="40.3" y="56.6" width="905.7" height="442.6"/>
			</defs>
			<clipPath id="SVGID_58_">
				<use xlink:href="#SVGID_57_"  style="overflow:visible;"/>
			</clipPath>
		</g>
		<g>
			<defs>
				<rect id="SVGID_59_" x="40.3" y="56.6" width="905.7" height="442.6"/>
			</defs>
			<clipPath id="SVGID_60_">
				<use xlink:href="#SVGID_59_"  style="overflow:visible;"/>
			</clipPath>
			<line class="st31" x1="402.5" y1="228.1" x2="361.8" y2="228.1"/>
		</g>
		<g>
			<defs>
				<rect id="SVGID_61_" x="40.3" y="56.6" width="905.7" height="442.6"/>
			</defs>
			<clipPath id="SVGID_62_">
				<use xlink:href="#SVGID_61_"  style="overflow:visible;"/>
			</clipPath>
			<path class="st32" d="M355.3,228.1c0-1.9,1.5-3.4,3.4-3.4s3.4,1.5,3.4,3.4"/>
		</g>
		<g>
			<defs>
				<rect id="SVGID_63_" x="40.3" y="56.6" width="905.7" height="442.6"/>
			</defs>
			<clipPath id="SVGID_64_">
				<use xlink:href="#SVGID_63_"  style="overflow:visible;"/>
			</clipPath>
			<path class="st33" d="M355.7,228.1c-5.5,0-7.2,0-7.2,0"/>
		</g>
		<g>
			<defs>
				<rect id="SVGID_65_" x="40.3" y="56.6" width="905.7" height="442.6"/>
			</defs>
			<clipPath id="SVGID_66_">
				<use xlink:href="#SVGID_65_"  style="overflow:visible;"/>
			</clipPath>
			<line class="st34" x1="332.2" y1="228.1" x2="343" y2="228.1"/>
		</g>
		<g>
			<defs>
				<rect id="SVGID_67_" x="40.3" y="56.6" width="905.7" height="442.6"/>
			</defs>
			<clipPath id="SVGID_68_">
				<use xlink:href="#SVGID_67_"  style="overflow:visible;"/>
			</clipPath>
			<polyline class="st35" points="430.9,254.1 430.9,264.9 449.9,264.9 450.3,264.9 471.1,264.9 471.1,274.7 			"/>
		</g>
		<g>
			<defs>
				<rect id="SVGID_69_" x="40.3" y="56.6" width="905.7" height="442.6"/>
			</defs>
			<clipPath id="SVGID_70_">
				<use xlink:href="#SVGID_69_"  style="overflow:visible;"/>
			</clipPath>
			<polyline class="st36" points="450.3,264.9 450.3,308.3 494.4,308.3 			"/>
		</g>
		<g>
			<defs>
				<rect id="SVGID_71_" x="40.3" y="56.6" width="905.7" height="442.6"/>
			</defs>
			<clipPath id="SVGID_72_">
				<use xlink:href="#SVGID_71_"  style="overflow:visible;"/>
			</clipPath>
			<line class="st37" x1="450.4" y1="286.1" x2="493.1" y2="286.1"/>
		</g>
		<g>
			<defs>
				<rect id="SVGID_73_" x="40.3" y="56.6" width="905.7" height="442.6"/>
			</defs>
			<clipPath id="SVGID_74_">
				<use xlink:href="#SVGID_73_"  style="overflow:visible;"/>
			</clipPath>
			<line class="st38" x1="534.2" y1="403.7" x2="534.2" y2="297"/>
		</g>
		<g>
			<defs>
				<rect id="SVGID_75_" x="40.3" y="56.6" width="905.7" height="442.6"/>
			</defs>
			<clipPath id="SVGID_76_">
				<use xlink:href="#SVGID_75_"  style="overflow:visible;"/>
			</clipPath>
			<line class="st39" x1="570.7" y1="403.7" x2="570.7" y2="297"/>
		</g>
		<g>
			<defs>
				<rect id="SVGID_77_" x="40.3" y="56.6" width="905.7" height="442.6"/>
			</defs>
			<clipPath id="SVGID_78_">
				<use xlink:href="#SVGID_77_"  style="overflow:visible;"/>
			</clipPath>
			<polyline class="st40" points="495.3,286.2 499.9,286.2 519.2,286.2 519.2,296.5 			"/>
		</g>
		<g>
			<defs>
				<rect id="SVGID_79_" x="40.3" y="56.6" width="905.7" height="442.6"/>
			</defs>
			<clipPath id="SVGID_80_">
				<use xlink:href="#SVGID_79_"  style="overflow:visible;"/>
			</clipPath>
			<line class="st41" x1="500.1" y1="286.5" x2="500.1" y2="307.9"/>
		</g>
		<g>
			<defs>
				<rect id="SVGID_81_" x="40.3" y="56.6" width="905.7" height="442.6"/>
			</defs>
			<clipPath id="SVGID_82_">
				<use xlink:href="#SVGID_81_"  style="overflow:visible;"/>
			</clipPath>
			<polyline class="st42" points="495.5,308.2 519.4,308.2 519.4,316.9 			"/>
		</g>
		<g>
			<defs>
				<rect id="SVGID_83_" x="40.3" y="56.6" width="905.7" height="442.6"/>
			</defs>
			<clipPath id="SVGID_84_">
				<use xlink:href="#SVGID_83_"  style="overflow:visible;"/>
			</clipPath>
			<polyline class="st43" points="762.3,63.1 762.3,92.9 788.9,92.9 788.9,240.4 			"/>
		</g>
		<g>
			<defs>
				<rect id="SVGID_85_" x="40.3" y="56.6" width="905.7" height="442.6"/>
			</defs>
			<clipPath id="SVGID_86_">
				<use xlink:href="#SVGID_85_"  style="overflow:visible;"/>
			</clipPath>
			<polyline class="st44" points="762.2,76.5 793.1,76.5 793.1,211.1 			"/>
		</g>
		<g>
			<defs>
				<rect id="SVGID_87_" x="40.3" y="56.6" width="905.7" height="442.6"/>
			</defs>
			<clipPath id="SVGID_88_">
				<use xlink:href="#SVGID_87_"  style="overflow:visible;"/>
			</clipPath>
			<polyline class="st45" points="818.8,65.7 818.8,97.7 818.8,114.6 803.1,114.6 803.1,226 			"/>
		</g>
		<g>
			<defs>
				<rect id="SVGID_89_" x="40.3" y="56.6" width="905.7" height="442.6"/>
			</defs>
			<clipPath id="SVGID_90_">
				<use xlink:href="#SVGID_89_"  style="overflow:visible;"/>
			</clipPath>
			<polyline class="st46" points="818.8,98.4 798.7,98.4 798.7,211 			"/>
		</g>
		<g>
			<defs>
				<rect id="SVGID_91_" x="40.3" y="56.6" width="905.7" height="442.6"/>
			</defs>
			<clipPath id="SVGID_92_">
				<use xlink:href="#SVGID_91_"  style="overflow:visible;"/>
			</clipPath>
			<polyline class="st47" points="859.8,62.4 859.8,114.7 827.4,114.7 827.4,257.8 			"/>
		</g>
		<g>
			<defs>
				<rect id="SVGID_93_" x="40.3" y="56.6" width="905.7" height="442.6"/>
			</defs>
			<clipPath id="SVGID_94_">
				<use xlink:href="#SVGID_93_"  style="overflow:visible;"/>
			</clipPath>
			<polyline class="st48" points="859.9,100.6 823.3,100.6 823.3,211.1 			"/>
		</g>
		<g>
			<defs>
				<rect id="SVGID_95_" x="40.3" y="56.6" width="905.7" height="442.6"/>
			</defs>
			<clipPath id="SVGID_96_">
				<use xlink:href="#SVGID_95_"  style="overflow:visible;"/>
			</clipPath>
			<line class="st49" x1="717.5" y1="190.8" x2="717.5" y2="211.1"/>
		</g>
		<g>
			<defs>
				<rect id="SVGID_97_" x="40.3" y="56.6" width="905.7" height="442.6"/>
			</defs>
			<clipPath id="SVGID_98_">
				<use xlink:href="#SVGID_97_"  style="overflow:visible;"/>
			</clipPath>
			<line class="st50" x1="738.2" y1="211.5" x2="738.2" y2="234.2"/>
		</g>
		<g>
			<defs>
				<rect id="SVGID_99_" x="40.3" y="56.6" width="905.7" height="442.6"/>
			</defs>
			<clipPath id="SVGID_100_">
				<use xlink:href="#SVGID_99_"  style="overflow:visible;"/>
			</clipPath>
			<polyline class="st51" points="916.1,108.7 869,108.7 869,117.9 869,211.8 			"/>
		</g>
		<g>
			<defs>
				<rect id="SVGID_101_" x="40.3" y="56.6" width="905.7" height="442.6"/>
			</defs>
			<clipPath id="SVGID_102_">
				<use xlink:href="#SVGID_101_"  style="overflow:visible;"/>
			</clipPath>
			<polyline class="st52" points="869,117.9 884.7,117.9 884.7,256.9 			"/>
		</g>
		<g>
			<defs>
				<rect id="SVGID_103_" x="40.3" y="56.6" width="905.7" height="442.6"/>
			</defs>
			<clipPath id="SVGID_104_">
				<use xlink:href="#SVGID_103_"  style="overflow:visible;"/>
			</clipPath>
			<line class="st53" x1="863" y1="211.5" x2="863" y2="234.9"/>
		</g>
		<g>
			<defs>
				<rect id="SVGID_105_" x="40.3" y="56.6" width="905.7" height="442.6"/>
			</defs>
			<clipPath id="SVGID_106_">
				<use xlink:href="#SVGID_105_"  style="overflow:visible;"/>
			</clipPath>
			<line class="st54" x1="838.4" y1="211.5" x2="838.4" y2="257.5"/>
		</g>
		<g>
			<defs>
				<rect id="SVGID_107_" x="40.3" y="56.6" width="905.7" height="442.6"/>
			</defs>
			<clipPath id="SVGID_108_">
				<use xlink:href="#SVGID_107_"  style="overflow:visible;"/>
			</clipPath>
			<line class="st55" x1="893.8" y1="211.3" x2="893.8" y2="257.1"/>
		</g>
		<g>
			<defs>
				<rect id="SVGID_109_" x="40.3" y="56.6" width="905.7" height="442.6"/>
			</defs>
			<clipPath id="SVGID_110_">
				<use xlink:href="#SVGID_109_"  style="overflow:visible;"/>
			</clipPath>
			<polyline class="st56" points="945.5,201.2 903.8,201.2 903.8,211.6 			"/>
		</g>
		<g>
			<defs>
				<rect id="SVGID_111_" x="40.3" y="56.6" width="905.7" height="442.6"/>
			</defs>
			<clipPath id="SVGID_112_">
				<use xlink:href="#SVGID_111_"  style="overflow:visible;"/>
			</clipPath>
			<polyline class="st57" points="903.9,234.8 903.9,245.3 945.6,245.3 			"/>
		</g>
		<g>
			<defs>
				<rect id="SVGID_113_" x="40.3" y="56.6" width="905.7" height="442.6"/>
			</defs>
			<clipPath id="SVGID_114_">
				<use xlink:href="#SVGID_113_"  style="overflow:visible;"/>
			</clipPath>
			<polyline class="st58" points="501.9,254.6 519.8,254.6 519.8,234.1 			"/>
		</g>
		<g>
			<defs>
				<rect id="SVGID_115_" x="40.3" y="56.6" width="905.7" height="442.6"/>
			</defs>
			<clipPath id="SVGID_116_">
				<use xlink:href="#SVGID_115_"  style="overflow:visible;"/>
			</clipPath>
			<line class="st59" x1="561.8" y1="211.6" x2="561.8" y2="233.6"/>
		</g>
		<g>
			<defs>
				<rect id="SVGID_117_" x="40.3" y="56.6" width="905.7" height="442.6"/>
			</defs>
			<clipPath id="SVGID_118_">
				<use xlink:href="#SVGID_117_"  style="overflow:visible;"/>
			</clipPath>
			<g class="st60">
				<line class="st0" x1="501.9" y1="211.8" x2="501.9" y2="231.1"/>
				<line class="st0" x1="501.9" y1="237.6" x2="501.9" y2="276.2"/>
				<path class="st0" d="M502.2,237.5c-1.9,0-3.4-1.5-3.4-3.4c0-1.9,1.5-3.4,3.4-3.4"/>
			</g>
		</g>
		<g>
			<defs>
				<rect id="SVGID_119_" x="40.3" y="56.6" width="905.7" height="442.6"/>
			</defs>
			<clipPath id="SVGID_120_">
				<use xlink:href="#SVGID_119_"  style="overflow:visible;"/>
			</clipPath>
			<rect x="449.4" y="271.5" class="st61" width="1.6" height="2.7"/>
			<rect x="449.4" y="275.2" class="st61" width="1.6" height="2.7"/>
			<path class="st62" d="M450.8,278c-2,0-3.7-1.5-3.7-3.4s1.6-3.4,3.7-3.4"/>
		</g>
		<g>
			<defs>
				<rect id="SVGID_121_" x="40.3" y="56.6" width="905.7" height="442.6"/>
			</defs>
			<clipPath id="SVGID_122_">
				<use xlink:href="#SVGID_121_"  style="overflow:visible;"/>
			</clipPath>
			<path class="st63" d="M276.8,407.8c-1.9,0-3.4-1.7-3.4-3.7s1.5-3.7,3.4-3.7"/>
		</g>
		<g>
			<defs>
				<rect id="SVGID_123_" x="40.3" y="56.6" width="905.7" height="442.6"/>
			</defs>
			<clipPath id="SVGID_124_">
				<use xlink:href="#SVGID_123_"  style="overflow:visible;"/>
			</clipPath>
			<polyline class="st64" points="351.2,382.2 351.6,403.2 351.6,424.5 333.6,424.5 			"/>
		</g>
		<g>
			<defs>
				<rect id="SVGID_125_" x="40.3" y="56.6" width="905.7" height="442.6"/>
			</defs>
			<clipPath id="SVGID_126_">
				<use xlink:href="#SVGID_125_"  style="overflow:visible;"/>
			</clipPath>
			<line class="st65" x1="806.9" y1="361.1" x2="806.9" y2="403.7"/>
		</g>
		<g>
			<defs>
				<rect id="SVGID_127_" x="40.3" y="56.6" width="905.7" height="442.6"/>
			</defs>
			<clipPath id="SVGID_128_">
				<use xlink:href="#SVGID_127_"  style="overflow:visible;"/>
			</clipPath>
			<line class="st66" x1="893.7" y1="297.1" x2="893.7" y2="403.8"/>
		</g>
		<g>
			<defs>
				<rect id="SVGID_129_" x="40.3" y="56.6" width="905.7" height="442.6"/>
			</defs>
			<clipPath id="SVGID_130_">
				<use xlink:href="#SVGID_129_"  style="overflow:visible;"/>
			</clipPath>
			<line class="st67" x1="926.8" y1="296.8" x2="926.8" y2="403"/>
		</g>
		<g>
			<defs>
				<rect id="SVGID_131_" x="40.3" y="56.6" width="905.7" height="442.6"/>
			</defs>
			<clipPath id="SVGID_132_">
				<use xlink:href="#SVGID_131_"  style="overflow:visible;"/>
			</clipPath>
			<line class="st68" x1="778.6" y1="296.8" x2="778.6" y2="361"/>
		</g>
		<g>
			<defs>
				<rect id="SVGID_133_" x="39.8" y="56.6" width="905.7" height="442.6"/>
			</defs>
			<clipPath id="SVGID_134_">
				<use xlink:href="#SVGID_133_"  style="overflow:visible;"/>
			</clipPath>
			<rect x="350.5" y="400" class="st69" width="1.6" height="2.3"/>
			<rect x="350.5" y="403.3" class="st69" width="1.6" height="3.5"/>
			<path class="st70" d="M352.1,406.6c-2.2,0-3.9-1.5-3.9-3.4s1.8-3.4,3.9-3.4"/>
		</g>
	</g>
	<line class="st71" x1="192.9" y1="158.5" x2="116.2" y2="158.5"/>
	<polyline class="st0" points="458.9,54.5 501.8,54.5 501.8,94.6 	"/>
	<polyline class="st0" points="486.8,55 486.8,233.1 486.8,268.7 	"/>
	<polyline class="st0" points="486.8,233.9 780.4,233.9 803.8,257.4 944.5,257.4 	"/>
	<rect x="487.3" y="231.6" class="st72" width="5.5" height="4.7"/>
	<polyline class="st0" points="698.2,190.9 766.2,190.9 810.1,234.8 944.8,234.8 	"/>
	<line class="st0" x1="493.4" y1="211.3" x2="944.7" y2="211.3"/>
</g>
<g>
	<rect x="65.5" y="334.3" class="st73" width="28.8" height="9.2"/>
	<rect x="65.5" y="334.3" class="st74" width="28.8" height="9.2"/>
	<g>
		<path class="st75" d="M67.9,341v-0.4c0.1,0,0.1,0,0.2,0c0.1,0,0.1,0,0.2,0s0.1,0,0.1-0.1c0,0,0.1-0.1,0.1-0.2c0-0.1,0-0.1,0.1-0.2
			c0-0.1,0-0.2,0-0.3s0-0.2,0-0.4s0-0.3,0-0.4s0-0.3,0-0.5v-1.9h2.5v4.4h-0.5v-4h-1.5v1.8c0,0.1,0,0.2,0,0.3s0,0.2,0,0.3
			s0,0.3,0,0.4c0,0.1,0,0.2-0.1,0.3c0,0.1-0.1,0.2-0.1,0.3s-0.1,0.2-0.1,0.2s-0.1,0.1-0.2,0.2c-0.1,0-0.1,0.1-0.2,0.1
			c-0.1,0-0.2,0-0.3,0C68.1,341,68,341,67.9,341z"/>
		<path class="st75" d="M71.7,336.5h0.5l1,3.1l0.9-3.1h0.5l-1.2,3.7c-0.1,0.3-0.2,0.5-0.3,0.7s-0.3,0.2-0.5,0.2
			c-0.2,0-0.3,0-0.4-0.1v-0.4c0.1,0,0.2,0,0.3,0c0.1,0,0.2,0,0.2-0.1s0.1-0.2,0.2-0.3L71.7,336.5z"/>
		<path class="st75" d="M75.1,340.9v-4.4h2.7v4.4h-0.5v-4h-1.7v4H75.1z"/>
		<path class="st75" d="M78.7,340.9v-4.4h0.5v3.6c0,0.1,0,0.3,0,0.5h0c0,0,0-0.1,0.1-0.2c0-0.1,0-0.1,0.1-0.2s0-0.1,0.1-0.2l1.4-3.5
			h0.7v4.4H81v-3.5c0-0.1,0-0.4,0-0.7h0c-0.1,0.3-0.1,0.6-0.2,0.7l-1.4,3.5H78.7z"/>
		<path class="st75" d="M82.4,340.9v-4.4h0.5v3.6c0,0.1,0,0.3,0,0.5h0c0,0,0-0.1,0.1-0.2c0-0.1,0-0.1,0.1-0.2s0-0.1,0.1-0.2l1.4-3.5
			h0.7v4.4h-0.5v-3.5c0-0.1,0-0.4,0-0.7h0c-0.1,0.3-0.1,0.6-0.2,0.7l-1.4,3.5H82.4z"/>
		<path class="st75" d="M86.1,340.9v-4.4h0.5v1.9h1.7v-1.9h0.5v4.4h-0.5v-2.1h-1.7v2.1H86.1z"/>
		<path class="st75" d="M89.7,340.9v-4.4h2.1v0.5h-1.6v4L89.7,340.9L89.7,340.9z"/>
	</g>
</g>
<rect x="499.3" y="94.6" class="st0" width="4.9" height="0"/>
<rect x="474.7" y="177.7" class="st0" width="12" height="0"/>
<rect x="471.7" y="200.2" class="st0" width="6" height="0"/>
<rect x="492.9" y="209" class="st75" width="0.9" height="4.9"/>
<rect x="492.9" y="231.6" class="st75" width="0.9" height="4.9"/>
<rect x="520.2" y="273.6" class="st75" width="0.9" height="4.9"/>
<rect x="697.7" y="188.4" class="st75" width="0.9" height="4.9"/>
<rect x="480.4" y="272.3" class="st75" width="0.9" height="4.9"/>
<rect x="142.5" y="369.4" class="st75" width="0.9" height="4.9"/>
<g>
	<rect x="114" y="400" class="st72" width="2" height="2.4"/>
	<rect x="114" y="403.3" class="st72" width="2" height="2.5"/>
	<path class="st0" d="M115.7,406.4c-2.2,0-3.9-1.5-3.9-3.4s1.8-3.4,3.9-3.4"/>
</g>
<g>
	<rect x="114" y="389.1" class="st72" width="2" height="2.4"/>
	<rect x="114" y="392.5" class="st72" width="2" height="2.5"/>
	<path class="st0" d="M115.7,395.5c-2.2,0-3.9-1.5-3.9-3.4s1.8-3.4,3.9-3.4"/>
</g>
<g>
	<rect x="114" y="379.3" class="st72" width="2" height="2.4"/>
	<rect x="114" y="382.7" class="st72" width="2" height="2.5"/>
	<path class="st0" d="M115.7,385.7c-2.2,0-3.9-1.5-3.9-3.4s1.8-3.4,3.9-3.4"/>
</g>
<g>
	<rect x="120.8" y="400" class="st72" width="2" height="2.4"/>
	<rect x="120.8" y="403.3" class="st72" width="2" height="2.5"/>
	<path class="st0" d="M122.5,406.4c-2.2,0-3.9-1.5-3.9-3.4s1.8-3.4,3.9-3.4"/>
</g>
<g>
	
		<rect x="883.8" y="211.8" transform="matrix(-1 -8.936464e-11 8.936464e-11 -1 1769.7164 426.0654)" class="st72" width="2" height="2.4"/>
	
		<rect x="883.8" y="208.3" transform="matrix(-1 -8.981139e-11 8.981139e-11 -1 1769.7192 419.164)" class="st72" width="2" height="2.5"/>
	<path class="st0" d="M884.2,207.8c2.2,0,3.9,1.5,3.9,3.4s-1.8,3.4-3.9,3.4"/>
</g>
<g>
	
		<rect x="883.8" y="235.3" transform="matrix(-1 -8.936464e-11 8.936464e-11 -1 1769.7164 473.0454)" class="st72" width="2" height="2.4"/>
	
		<rect x="883.8" y="231.8" transform="matrix(-1 -8.981139e-11 8.981139e-11 -1 1769.7192 466.144)" class="st72" width="2" height="2.5"/>
	<path class="st0" d="M884.2,231.3c2.2,0,3.9,1.5,3.9,3.4s-1.8,3.4-3.9,3.4"/>
</g>
<g>
	
		<rect x="826.5" y="211.8" transform="matrix(-1 -8.981139e-11 8.981139e-11 -1 1655.0818 426.0478)" class="st72" width="2" height="2.4"/>
	
		<rect x="826.5" y="208.3" transform="matrix(-1 -8.981139e-11 8.981139e-11 -1 1655.0845 419.1465)" class="st72" width="2" height="2.5"/>
	<path class="st0" d="M826.9,207.8c2.2,0,3.9,1.5,3.9,3.4s-1.8,3.4-3.9,3.4"/>
</g>
<g>
	
		<rect x="802.6" y="211.8" transform="matrix(-1 -8.981139e-11 8.981139e-11 -1 1607.1698 426.0478)" class="st72" width="2" height="2.4"/>
	
		<rect x="802.6" y="208.3" transform="matrix(-1 -8.981139e-11 8.981139e-11 -1 1607.1726 419.1465)" class="st72" width="2" height="2.5"/>
	<path class="st0" d="M803,207.8c2.2,0,3.9,1.5,3.9,3.4s-1.8,3.4-3.9,3.4"/>
</g>
<g>
	
		<rect x="826.5" y="235.3" transform="matrix(-1 -8.981139e-11 8.981139e-11 -1 1655.0818 473.003)" class="st72" width="2" height="2.4"/>
	
		<rect x="826.5" y="231.8" transform="matrix(-1 -8.981139e-11 8.981139e-11 -1 1655.0845 466.1016)" class="st72" width="2" height="2.5"/>
	<path class="st0" d="M826.9,231.2c2.2,0,3.9,1.5,3.9,3.4s-1.8,3.4-3.9,3.4"/>
</g>
</svg>
