<?xml version="1.0" encoding="utf-8"?>
<!-- Generator: Adobe Illustrator 25.2.3, SVG Export Plug-In . SVG Version: 6.00 Build 0)  -->
<svg version="1.1" id="Layer_1" xmlns="http://www.w3.org/2000/svg" xmlns:xlink="http://www.w3.org/1999/xlink" x="0px" y="0px"
	 viewBox="0 0 1032.8 568.6" style="enable-background:new 0 0 1032.8 568.6;" xml:space="preserve">
<style type="text/css">
	.st0{fill:#BABABA;}
	.st1{fill:#EDF6FC;}
	.st2{fill:#999999;}
	.st3{fill:#757575;}
	.st4{fill:#F8F3FF;}
</style>
<g>
	<g>
		<path class="st0" d="M347.6,405.1h-3.4l0-1.5c0-0.2,0-0.3,0-0.5l0-0.2c0-3.1,2.2-6.4,6.3-6.7l1.4-0.1l0.2,1.4c0,0.1,0,0.2,0,0.3
			l0.4,1.7l-1.7,0.1c-2.2,0.1-3.2,1.8-3.2,3.4L347.6,405.1z"/>
	</g>
</g>
<g>
	<path class="st1" d="M101.7,293.7c-3.9,25.9,4.2,51.3,5.4,77c0.3,6.4,0.2,12.9-0.8,19.3c-1,6.8-3,13.3-4.7,19.9
		c-3.5,13.3-4.7,26.9-3.9,40.6c0.9,15.5,3.8,30.9,7.2,46c0.3,1.6,2.8,0.9,2.4-0.7c-5.8-26.6-10.7-54.6-4.2-81.6
		c1.6-6.5,3.7-12.9,5-19.5c1.2-6.3,1.7-12.7,1.7-19.1c-0.1-12.8-2.2-25.4-4-38c-2-14.3-3.8-28.9-1.6-43.3
		C104.4,292.8,102,292.1,101.7,293.7L101.7,293.7z M155.9,11c-4.8,19.2-9.6,38.7-9.4,58.7c0.2,20.2,4.8,39.9,6.8,59.9
		c2.1,20.7,0.8,41.5-1.2,62.2c-1,10.3-2.1,20.6-3.1,30.9c-0.9,9.3-2.2,19.1,0.5,28.2c4.3,14.7,17.3,25.2,30.8,31.3
		c17.2,7.8,36.3,9.5,53.9,15.9c15.2,5.5,30.7,15.5,35.9,31.7c3,9.5,2.2,19.7,0.9,29.5c-1.5,10.2-3.2,20.4-4.6,30.6
		c-5.6,40.8-8.4,82-8.5,123.1c0,5.1,0,10.2,0.1,15.3c0,1.6,2.5,1.6,2.5,0c-0.6-41.4,1.6-82.8,6.6-123.9c1.2-10.3,2.7-20.6,4.3-30.9
		c1.5-9.5,3.4-19.1,3.4-28.8c0-8.4-1.7-16.8-6.1-24.1c-3.9-6.5-9.5-11.7-15.8-15.9c-28.8-19.2-71.7-12.6-94.3-41.8
		c-5.5-7.1-8-15.4-7.9-24.3c0-10,1.5-20,2.5-29.9c2.1-20.5,4.3-41.1,3.9-61.8c-0.4-20.3-4.6-40.1-6.8-60.3c-1.1-10-1.4-20-0.5-30
		c0.9-10.2,2.9-20.3,5.2-30.3c1.1-4.8,2.3-9.6,3.5-14.4C158.7,10.1,156.2,9.5,155.9,11L155.9,11z M506.4,111.1
		c1.1,15.1-2.4,30-2.2,45c0.2,14.6,5.2,28.1,10.1,41.6c8.7,23.9,18.4,48.8,36.9,67c8.4,8.3,19.2,15.3,24.5,26.3
		c3.2,6.7,3.4,14.3,3.3,21.6c-0.1,7.7-0.3,15.3-0.5,23c-0.3,15.5-0.4,31-1,46.5c-0.3,7.8-0.8,15.7-2,23.4c-1.2,7.4-3,14.6-4.7,21.9
		c-3.5,14.6-5.8,29.2-6.5,44.2c-0.6,15.2,0,30.3,1,45.5c0.2,3.8,0.5,7.5,0.7,11.2c0.1,1.6,2.6,1.6,2.5,0c-2-30.3-4-61,2.5-91
		c3.2-14.7,7.2-28.9,8.3-44c1.2-15.4,1-30.8,1.3-46.2c0.2-7.7,0.3-15.5,0.5-23.2c0.2-7.5,0.7-15.1-0.2-22.6
		c-0.8-6.3-2.9-12.2-6.6-17.3c-3.4-4.7-7.7-8.7-12-12.5c-4.6-4.1-9.2-8.1-13.3-12.6c-4.4-4.9-8.3-10.3-11.8-15.9
		c-6.9-11.2-12.1-23.4-16.8-35.6c-5-12.9-10.5-26.2-12.9-39.9c-2.6-15.1,0.7-30.2,1.3-45.3c0.2-3.7,0.1-7.4-0.1-11.2
		C508.8,109.5,506.3,109.5,506.4,111.1L506.4,111.1z M873.9,173c-5.4,7.7-9.9,16.1-13.4,24.8c-1.8,4.4-3.3,9-4.6,13.6
		c-1.3,4.7-2.4,9.5-2.7,14.4c-0.5,9.9,4.4,18.8,8.4,27.5c4.1,9.2,8.1,18.4,11.2,28c3.1,9.5,5.3,19.3,5.7,29.3
		c0.4,10.1-1.3,19.9-3.6,29.7c-2.3,10-4.9,19.8-6.1,30c-1.2,10.3-1.3,20.6-0.5,31c1.5,20.8,6,41.2,10.8,61.5c0.6,2.5,1.2,5,1.8,7.5
		c0.4,1.6,2.8,0.9,2.4-0.7c-4.9-20.2-9.8-40.5-11.9-61.2c-1-10.2-1.4-20.5-0.7-30.7c0.7-10.3,2.7-20.2,5.1-30.2
		c2.3-9.6,4.7-19.4,5.2-29.3c0.5-9.6-0.8-19.3-3.2-28.7c-2.4-9.4-5.8-18.5-9.6-27.4c-1.9-4.5-4-9.1-6-13.6c-2-4.4-4.2-8.9-5.5-13.6
		c-2.6-9.6,0.4-19.9,3.5-29.1c3-9,7-17.6,12-25.7c1.2-2,2.5-4,3.9-5.9C877,172.9,874.8,171.7,873.9,173L873.9,173z M917.9,113.7
		c-1.1,26.7,9,52,13.9,77.9c5.2,27.3,5.4,55.3,4.4,83c-1,28.2-2.7,56.4-4.1,84.5c-0.7,14-1.1,28.1-2.3,42c-0.6,7.1-1.5,14.2-3,21.3
		c-1.5,6.7-3.3,13.2-4.7,19.9c-5.7,26-5.9,53.1-0.9,79.3c0.7,3.3,1.4,6.7,2.2,10c0.4,1.6,2.8,0.9,2.4-0.7
		c-6.5-26.3-7.5-53.9-2.8-80.6c2.4-13.4,6.6-26.4,8.3-39.9c1.8-13.8,2.1-27.8,2.8-41.7c1.4-28.1,3-56.3,4.2-84.4
		c1.2-27.3,1.7-54.7-2.2-81.8c-1.9-13.3-5.2-26.3-8.5-39.3c-3.3-12.9-6.5-26-7.2-39.3c-0.2-3.3-0.2-6.7-0.1-10.1
		C920.4,112.1,917.9,112.1,917.9,113.7L917.9,113.7z"/>
</g>
<g>
	<path class="st0" d="M115.8,488.3h-3v-79.8c-1.8-0.5-3.4-2.2-3.4-5c0-3,1.7-4.8,3.6-5.2c-1.9-0.4-3.6-2.1-3.6-5
		c0-3,1.7-4.8,3.6-5.2c-1.9-0.4-3.6-2.1-3.6-5c0-2.9,1.6-4.6,3.4-5.2v-4.3h3v7.4l-1.8,0c-0.6,0-1.3,0.6-1.3,2.1
		c0,1.4,0.7,1.9,1.3,1.9c0.1,0,0.2,0,0.2,0h1.5l0.1,1.7v4.6l-1.8,0c-0.6,0-1.3,0.6-1.3,2.1c0,1.4,0.7,1.9,1.3,1.9c0.1,0,0.2,0,0.2,0
		h1.5l0.1,1.7v4.6l-1.8,0c-0.6,0-1.3,0.6-1.3,2.1c0,1.4,0.7,1.9,1.3,1.9c0.1,0,0.2,0,0.2,0h1.5l0.1,1.7V468h4.1v-59.5
		c-1.8-0.5-3.4-2.2-3.4-5c0-2.9,1.6-4.6,3.4-5.2v-5.5h3v8.6l-1.8,0c-0.6,0-1.3,0.6-1.3,2.1c0,1.4,0.7,1.9,1.3,1.9c0.1,0,0.2,0,0.2,0
		h1.5l0.1,1.7V471l-7.1,0v14.3h22.9v3L115.8,488.3z M277,467.8h-3v-58.6c-2.2-0.5-4.2-2.4-4.2-5.6c0-3.3,2-5.3,4.2-5.8v-14.6h3v17.8
		l-1.9,0c-1,0-2,0.8-2,2.6c0,1.8,1,2.4,2,2.4c0.1,0,0.2,0,0.3,0l1.6,0v19.7h8.1v-22.2h3v25.2h-1.5v0.1H277v36h145.8v3L277,467.8z
		 M334.6,445.2h-3v-41.6h3v20.2h15.5v-12.9c-2.8-0.4-5.6-2.5-5.9-6.3l-0.1-1.4l1.4-0.2c0.1,0,0.2,0,0.3,0l1.7-0.4l0.1,1.7
		c0.1,2.2,1.8,3.2,3.4,3.2l2.1,0v19.2l-18.5,0v15.4h59.2v3L334.6,445.2z M144.2,377.4h-3v-3.2h-11.9v-3h11.9v-2.6h3V377.4z
		 M55.7,351.4h-3v-10.3H40.2v-3H65v3h-9.3V351.4z M520.9,315.6h-3v-4.9H494v-3h4.4v-19.5h-4.5v-3h27L520.9,315.6z M501.4,307.7h16.5
		v-19.5h-16.5V307.7z M494,310.7h-46.1l0-30c-2.1-0.5-3.9-2.3-3.9-5.3c0-3.1,1.8-5,3.9-5.5v-3h-18.3v-12.7h3v9.7h39.6l0,10.4h-3V267
		h-18.3v6.1l-1.9,0c-0.9,0-1.7,0.7-1.7,2.3c0,1.6,0.9,2.1,1.7,2.1c0.1,0,0.2,0,0.3,0l1.6,0v7.6h43v3h-43v19.5H494V310.7z
		 M503.2,276.7h-3v-35.4c-2.4-0.5-4.5-2.8-4.5-6.8c0-4.1,2.1-6.5,4.5-7.1v-15.5h3v18.8l-2,0c-1.1,0-2.3,1.3-2.3,3.8
		c0,2.4,1.1,3.5,2.3,3.5c0.1,0,0.2,0,0.3,0l0.1,0h1.5v15.9h15.4v-19.1h3l0,22.1h-18.5V276.7z M488.3,269.7h-3v-90h-9.2v19.9h2.2v3
		h-7.2v-3h2l0-22.9h12.2V56.5h-27.2v-3l45.4,0v40.2h2v3h-6.9v-3h2V56.5h-12.2V269.7z M887,256.9h-3v-19.5l1.9,0
		c0.8,0,1.7-0.6,1.7-2.1c0-1.6-0.9-2.3-1.7-2.3l-1.9,0v-18.8l1.6,0c0.1,0,0.2,0,0.2,0c0.8,0,1.7-0.6,1.7-2.1c0-1.6-0.9-2.3-1.7-2.3
		l-1.9,0v-89.2h-13.9v91.4h-3V109.1h0v-1.5h48.6v3h-45.7v6.9l16.9,0v89c2.1,0.5,3.9,2.4,3.9,5.5c0,3-1.8,4.8-3.9,5.3v12.5
		c2,0.5,3.9,2.4,3.9,5.5c0,3-1.8,4.8-3.9,5.3V256.9z M829.2,256.9h-3v-19.5l1.9,0c0.8,0,1.7-0.6,1.7-2.1c0-1.6-0.9-2.3-1.7-2.3
		l-1.9,0v-18.8l1.6,0c0.1,0,0.2,0,0.2,0c0.8,0,1.7-0.6,1.7-2.1c0-1.6-0.9-2.3-1.7-2.3l-1.9,0l0-95.9h31.7v-11.2h-33.2v109.3h-3
		V101.2h0v-1.5h36.2V63.8h3v53l-31.7,0v89.7c2.1,0.5,3.9,2.4,3.9,5.5c0,3-1.8,4.8-3.9,5.3v12.5c2,0.5,3.9,2.4,3.9,5.5
		c0,3-1.8,4.8-3.9,5.3V256.9z M383.1,249.5h-3v-19.2h-17l0-1.9c0-0.9-0.7-1.7-2.3-1.7c-1.6,0-2.1,0.9-2.1,1.7c0,0.1,0,0.2,0,0.3
		l0,1.6h-10.9v-3h7.8c0.5-2.1,2.3-3.9,5.3-3.9c3.1,0,5,1.8,5.5,3.9h37v3h-20.1V249.5z M789.1,243.1h-3V95h-25.8V63.8h3v11.5h31.5
		l0,136.6h-3V78.3h-28.5V92h25.8L789.1,243.1z M804.9,228.6h-3v-14.5l1.6,0c0.1,0,0.2,0,0.2,0c0.8,0,1.7-0.6,1.7-2.1
		c0-1.6-0.9-2.3-1.7-2.3l-1.9,0v-95.9l15.4,0v-13.3h-17.2v111.4h-3l0-114.4h20.2V63.8h3v53l-15.4,0v89.7c2.1,0.5,3.9,2.4,3.9,5.5
		c0,3-1.8,4.8-3.9,5.3V228.6z"/>
</g>
<g>
	<rect x="128.8" y="97.3" class="st2" width="48.4" height="3"/>
</g>
<g>
	<polygon class="st2" points="195.9,86.8 192.9,86.8 192.9,78.1 117.8,78.1 117.8,86.8 114.8,86.8 114.8,75 117.8,75 117.8,75.1 
		192.9,75.1 192.9,75 195.9,75 	"/>
</g>
<g>
	<polygon class="st2" points="117.8,108.5 114.8,108.5 114.8,100.3 90.9,100.3 90.9,108.1 87.9,108.1 87.9,100.3 69.8,100.3 
		69.8,97.3 114.8,97.3 114.8,86.8 117.8,86.8 117.8,97.3 128.8,97.3 128.8,100.3 117.8,100.3 	"/>
</g>
<g>
	<rect x="128.8" y="117.6" class="st2" width="48.4" height="3"/>
</g>
<g>
	<polygon class="st2" points="90.9,129.8 87.9,129.8 87.9,120.6 69.8,120.6 69.8,117.6 87.9,117.6 87.9,108.1 90.9,108.1 
		90.9,117.6 114.8,117.6 114.8,107.1 117.8,107.1 117.8,117.6 128.8,117.6 128.8,120.6 117.8,120.6 117.8,128.8 114.8,128.8 
		114.8,120.6 90.9,120.6 	"/>
</g>
<g>
	<path class="st3" d="M41.4,119.1h28.4 M53.6,108.5v21.7"/>
	<polygon class="st2" points="55.1,130.3 52.1,130.3 52.1,120.6 41.4,120.6 41.4,117.6 52.1,117.6 52.1,108.5 55.1,108.5 
		55.1,117.6 69.8,117.6 69.8,120.6 55.1,120.6 	"/>
</g>
<g>
	<rect x="128.8" y="139.3" class="st2" width="48.4" height="3"/>
</g>
<g>
	<polygon class="st2" points="117.8,158.2 114.8,158.2 114.8,142.3 90.9,142.3 90.9,158.2 87.9,158.2 87.9,142.3 69.8,142.3 
		69.8,139.3 87.9,139.3 87.9,129.8 90.9,129.8 90.9,139.3 114.8,139.3 114.8,128.8 117.8,128.8 117.8,139.3 128.8,139.3 
		128.8,142.3 117.8,142.3 	"/>
</g>
<g>
	<path class="st3" d="M41.4,140.8h28.4 M53.6,130.3v27.9"/>
	<polygon class="st2" points="55.1,158.2 52.1,158.2 52.1,142.3 41.4,142.3 41.4,139.3 52.1,139.3 52.1,130.3 55.1,130.3 
		55.1,139.3 69.8,139.3 69.8,142.3 55.1,142.3 	"/>
</g>
<g>
	<rect x="128.8" y="170.8" class="st2" width="48.4" height="3"/>
</g>
<g>
	<polygon class="st2" points="90.9,183.1 87.9,183.1 87.9,173.8 69.8,173.8 69.8,170.8 87.9,170.8 87.9,158.2 90.9,158.2 
		90.9,170.8 114.8,170.8 114.8,160.3 117.8,160.3 117.8,170.8 128.8,170.8 128.8,173.8 117.8,173.8 117.8,182.1 114.8,182.1 
		114.8,173.8 90.9,173.8 	"/>
</g>
<g>
	<path class="st3" d="M41.4,172.3h28.4 M53.6,158.2v25.3"/>
	<polygon class="st2" points="55.1,183.5 52.1,183.5 52.1,173.8 41.4,173.8 41.4,170.8 52.1,170.8 52.1,158.2 55.1,158.2 
		55.1,170.8 69.8,170.8 69.8,173.8 55.1,173.8 	"/>
</g>
<g>
	<rect x="128.8" y="192.6" class="st2" width="48.4" height="3"/>
</g>
<g>
	<polygon class="st2" points="117.8,208.9 114.8,208.9 114.8,195.6 90.9,195.6 90.9,208.2 87.9,208.2 87.9,195.6 69.8,195.6 
		69.8,192.6 87.9,192.6 87.9,183.1 90.9,183.1 90.9,192.6 114.8,192.6 114.8,182.1 117.8,182.1 117.8,192.6 128.8,192.6 
		128.8,195.6 117.8,195.6 	"/>
</g>
<g>
	<path class="st3" d="M41.4,194.1h28.4 M53.6,183.5v24.7"/>
	<polygon class="st2" points="55.1,208.2 52.1,208.2 52.1,195.6 41.4,195.6 41.4,192.6 52.1,192.6 52.1,183.5 55.1,183.5 
		55.1,192.6 69.8,192.6 69.8,195.6 55.1,195.6 	"/>
</g>
<g>
	<rect x="128.8" y="224.1" class="st2" width="48.4" height="3"/>
</g>
<g>
	<polygon class="st2" points="128.8,227.1 69.8,227.1 69.8,224.1 87.9,224.1 87.9,208.2 90.9,208.2 90.9,224.1 114.8,224.1 
		114.8,211.4 117.8,211.4 117.8,224.1 128.8,224.1 	"/>
</g>
<g>
	<path class="st3" d="M41.4,225.6h28.4 M53.6,208.2v18.4"/>
	<polygon class="st2" points="69.8,227.1 41.4,227.1 41.4,224.1 52.1,224.1 52.1,208.2 55.1,208.2 55.1,224.1 69.8,224.1 	"/>
</g>
<g>
	<path class="st3" d="M41.4,98.8h28.4 M53.6,108.5v-9.8"/>
	<polygon class="st2" points="55.1,108.5 52.1,108.5 52.1,100.3 41.4,100.3 41.4,97.3 69.8,97.3 69.8,100.3 55.1,100.3 	"/>
</g>
<g>
	<rect x="114.9" y="157.5" transform="matrix(1 -1.953121e-03 1.953121e-03 1 -0.3103 0.3038)" class="st2" width="81" height="3"/>
</g>
<g>
	<rect x="114.9" y="208.6" transform="matrix(1 -1.953121e-03 1.953121e-03 1 -0.4101 0.3039)" class="st2" width="81" height="3"/>
</g>
<g>
	<rect x="909.7" y="381.9" class="st2" width="36.3" height="3"/>
</g>
<g>
	<rect x="909.7" y="295.4" class="st2" width="36.3" height="3"/>
</g>
<g>
	<rect x="925.1" y="297.8" class="st2" width="3" height="9.7"/>
</g>
<g>
	<polygon class="st2" points="928.1,328.4 925.1,328.4 925.1,318.7 909.9,318.7 909.9,315.7 925.1,315.7 925.1,307.4 928.1,307.4 
		928.1,315.7 946.1,315.7 946.1,318.7 928.1,318.7 	"/>
</g>
<g>
	<polygon class="st2" points="928.1,349.9 925.1,349.9 925.1,340.4 909.9,340.4 909.9,337.4 925.1,337.4 925.1,327.9 928.1,327.9 
		928.1,337.4 946.1,337.4 946.1,340.4 928.1,340.4 	"/>
</g>
<g>
	<polygon class="st2" points="928.1,372.9 925.1,372.9 925.1,362.8 909.7,362.8 909.7,359.8 925.1,359.8 925.1,350.5 928.1,350.5 
		928.1,359.8 945.9,359.8 945.9,362.8 928.1,362.8 	"/>
</g>
<g>
	<rect x="925.1" y="372.9" class="st2" width="3" height="21.1"/>
</g>
<g>
	<polygon class="st2" points="945.9,406.3 909.6,406.3 909.6,403.3 925,403.3 925,394 928,394 928,403.3 945.9,403.3 	"/>
</g>
<g>
	<polygon class="st2" points="909.6,406.3 849.2,406.3 849.2,403.3 891.6,403.3 891.6,394 894.6,394 894.6,403.3 909.6,403.3 	"/>
</g>
<g>
	<polygon class="st2" points="894.6,394.3 891.6,394.3 891.6,384.9 849.3,384.9 849.3,381.9 891.6,381.9 891.6,373.2 894.6,373.2 
		894.6,381.9 909.7,381.9 909.7,384.9 894.6,384.9 	"/>
</g>
<g>
	<polygon class="st2" points="894.6,372.9 891.6,372.9 891.6,362.8 849.3,362.8 849.3,359.8 891.6,359.8 891.6,350.5 894.6,350.5 
		894.6,359.8 909.7,359.8 909.7,362.8 894.6,362.8 	"/>
</g>
<g>
	<polygon class="st2" points="894.6,349.9 891.6,349.9 891.6,340.4 849.3,340.4 849.3,337.4 891.6,337.4 891.6,327.9 894.6,327.9 
		894.6,337.4 909.9,337.4 909.9,340.4 894.6,340.4 	"/>
</g>
<g>
	<polygon class="st2" points="894.6,328.4 891.6,328.4 891.6,318.7 849.3,318.7 849.3,315.7 891.6,315.7 891.6,307.4 894.6,307.4 
		894.6,315.7 909.9,315.7 909.9,318.7 894.6,318.7 	"/>
</g>
<g>
	<polygon class="st2" points="894.6,307.4 891.6,307.4 891.6,298.4 849.3,298.4 849.3,295.4 909.7,295.4 909.7,298.4 894.6,298.4 	
		"/>
</g>
<g>
	<rect x="790.2" y="295.4" class="st2" width="59.1" height="3"/>
</g>
<g>
	<rect x="790.2" y="315.7" class="st2" width="59.1" height="3"/>
</g>
<g>
	<rect x="790.2" y="337.4" class="st2" width="59.1" height="3"/>
</g>
<g>
	<rect x="817.3" y="381.9" class="st2" width="32" height="3"/>
</g>
<g>
	<rect x="817.2" y="403.3" class="st2" width="32" height="3"/>
</g>
<g>
	<polygon class="st2" points="535.3,350.8 532.3,350.8 532.3,340.4 415.9,340.2 415.7,340.3 213.3,142.3 195.9,142.3 195.9,158.2 
		192.9,158.2 192.9,142.3 177.1,142.3 177.1,139.3 192.9,139.3 192.9,128.8 195.9,128.8 195.9,139.3 214.4,139.3 214.4,139.3 
		416.8,337.2 532.3,337.4 532.3,328.4 535.3,328.4 535.3,337.4 552.2,337.4 552.2,340.4 535.3,340.4 	"/>
</g>
<g>
	<polygon class="st2" points="535.3,373.2 532.3,373.2 532.3,362.8 408.5,362.6 408.5,362.6 408.5,362.6 215.5,173.8 195.9,173.8 
		195.9,182.1 192.9,182.1 192.9,173.8 177.1,173.8 177.1,170.8 192.9,170.8 192.9,160.3 195.9,160.3 195.9,170.8 216.6,170.8 
		216.6,170.8 409.7,359.6 532.3,359.8 532.3,350.8 535.3,350.8 535.3,359.8 552.2,359.8 552.2,362.8 535.3,362.8 	"/>
</g>
<g>
	<polygon class="st2" points="535.3,394.7 532.3,394.7 532.3,384.9 403.9,384.7 403.9,384.7 403.9,384.7 210.5,195.6 195.9,195.6 
		195.9,208.9 192.9,208.9 192.9,195.6 177.1,195.6 177.1,192.6 192.9,192.6 192.9,182.1 195.9,182.1 195.9,192.6 211.6,192.6 
		211.7,192.5 405.1,381.7 532.3,381.9 532.3,373.2 535.3,373.2 535.3,381.9 552.2,381.9 552.2,384.9 535.3,384.9 	"/>
</g>
<g>
	<polygon class="st2" points="552.2,406.4 397.3,406.2 397.3,406.2 214.1,227.1 177.1,227.1 177.1,224.1 192.9,224.1 192.9,211.4 
		195.9,211.4 195.9,224.1 215.2,224.1 215.2,224 398.5,403.2 532.3,403.4 532.3,394.7 535.3,394.7 535.3,403.4 552.2,403.4 	"/>
</g>
<g>
	<polygon class="st2" points="535.3,307.5 532.3,307.5 532.3,298.3 429.4,298.2 429.4,298.1 429.4,298.2 227,100.3 195.9,100.3 
		195.9,108.5 192.9,108.5 192.9,100.3 177.1,100.3 177.1,97.3 192.9,97.3 192.9,86.8 195.9,86.8 195.9,97.3 228.3,97.3 228.3,97.3 
		430.6,295.2 551.9,295.4 551.9,298.4 535.3,298.4 	"/>
</g>
<g>
	<polygon class="st2" points="572.1,307.5 569.1,307.5 569.1,298.4 551.9,298.4 551.9,295.4 683.3,295.4 683.3,298.4 572.1,298.4 	
		"/>
</g>
<g>
	<polygon class="st2" points="572.1,328.4 569.1,328.4 569.1,318.7 551.9,318.7 551.9,315.7 569.1,315.7 569.1,307.5 572.1,307.5 
		572.1,315.7 735.9,315.7 735.9,318.7 572.1,318.7 	"/>
</g>
<g>
	<polygon class="st2" points="572.1,350.8 569.1,350.8 569.1,340.4 551.9,340.4 551.9,337.4 569.1,337.4 569.1,328.4 572.1,328.4 
		572.1,337.4 683.3,337.4 683.3,340.4 572.1,340.4 	"/>
</g>
<g>
	<polygon class="st2" points="572.1,373.2 569.1,373.2 569.1,362.8 551.9,362.8 551.9,359.8 569.1,359.8 569.1,350.8 572.1,350.8 
		572.1,359.8 735.9,359.8 735.9,362.8 572.1,362.8 	"/>
</g>
<g>
	<polygon class="st2" points="572.1,394.7 569.1,394.7 569.1,384.9 551.9,384.9 551.9,381.9 569.1,381.9 569.1,373.2 572.1,373.2 
		572.1,381.9 683.3,381.9 683.3,384.9 572.1,384.9 	"/>
</g>
<g>
	<polygon class="st2" points="735.9,406.4 551.9,406.4 551.9,403.4 569.1,403.4 569.1,394.7 572.1,394.7 572.1,403.4 735.9,403.4 	
		"/>
</g>
<g>
	<polygon class="st2" points="780,307.4 777,307.4 777,298.4 683.3,298.4 683.3,295.4 790.2,295.4 790.2,298.4 780,298.4 	"/>
</g>
<g>
	<polygon class="st2" points="780,328.4 777,328.4 777,318.7 735.9,318.7 735.9,315.7 777,315.7 777,307.4 780,307.4 780,315.7 
		790.2,315.7 790.2,318.7 780,318.7 	"/>
</g>
<g>
	<polygon class="st2" points="780,349.9 777,349.9 777,340.4 683.3,340.4 683.3,337.4 777,337.4 777,328.4 780,328.4 780,337.4 
		790.2,337.4 790.2,340.4 780,340.4 	"/>
</g>
<g>
	<polygon class="st2" points="790.2,362.8 735.9,362.8 735.9,359.8 777,359.8 777,349.9 780,349.9 780,359.8 790.2,359.8 	"/>
</g>
<g>
	<polygon class="st2" points="808.1,372.9 805.1,372.9 805.1,362.8 790.2,362.8 790.2,359.8 849.3,359.8 849.3,362.8 808.1,362.8 	
		"/>
</g>
<g>
	<polygon class="st2" points="808.1,394.3 805.1,394.3 805.1,384.9 683.3,384.9 683.3,381.9 805.1,381.9 805.1,372.9 808.1,372.9 
		808.1,381.9 817.3,381.9 817.3,384.9 808.1,384.9 	"/>
</g>
<g>
	<polygon class="st2" points="817.3,406.3 735.9,406.3 735.9,403.3 805.1,403.3 805.1,394.3 808.1,394.3 808.1,403.3 817.3,403.3 	
		"/>
</g>
<g>
	<polygon class="st2" points="535.3,328.4 532.3,328.4 532.3,318.6 423.5,318.4 423.3,318.6 220.9,120.6 195.9,120.6 195.9,128.8 
		192.9,128.8 192.9,120.6 177.1,120.6 177.1,117.6 192.9,117.6 192.9,107.1 195.9,107.1 195.9,117.6 222,117.6 222,117.5 
		222.1,117.6 222.2,117.6 222.2,117.7 334.4,227.4 342.4,227.4 342.4,230.4 337.5,230.4 424.4,315.4 532.3,315.6 532.3,307.5 
		535.3,307.5 535.3,315.6 552.2,315.7 552.2,318.7 535.3,318.6 	"/>
</g>
<g>
	<polygon class="st2" points="95.6,374.2 79.6,374.2 79.6,362.7 55.7,362.7 55.7,371 52.7,371 52.7,362.7 40.2,362.7 40.2,359.7 
		52.7,359.7 52.7,351.4 55.7,351.4 55.7,359.7 95.8,359.7 95.8,362.7 82.6,362.7 82.6,371.2 95.6,371.2 	"/>
</g>
<g>
	<polygon class="st2" points="95.6,394.4 79.6,394.4 79.6,384.4 40.2,384.4 40.2,381.4 52.7,381.4 52.7,371 55.7,371 55.7,381.4 
		95.8,381.4 95.8,384.4 82.6,384.4 82.6,391.4 95.6,391.4 	"/>
</g>
<g>
	<rect x="40.2" y="402.1" class="st2" width="120.2" height="3"/>
</g>
<g>
	<polygon class="st2" points="250.6,405.1 160.4,405.1 160.4,402.1 185.7,402.1 185.7,392.9 188.7,392.9 188.7,402.1 237,402.1 
		237,392.9 240,392.9 240,402.1 250.6,402.1 	"/>
</g>
<g>
	<polygon class="st2" points="140.7,394.4 129.4,394.4 129.4,391.4 138.6,391.4 138.6,384.4 129.4,384.4 129.4,381.4 237,381.4 
		237,372.7 240,372.7 240,381.4 250.6,381.4 250.6,384.4 240,384.4 240,392.9 237,392.9 237,384.4 188.7,384.4 188.7,392.9 
		185.7,392.9 185.7,384.4 141.6,384.4 141.6,394.4 	"/>
</g>
<g>
	<rect x="95.6" y="391.4" class="st2" width="33.8" height="3"/>
</g>
<g>
	<rect x="95.8" y="381.4" class="st2" width="33.6" height="3"/>
</g>
<g>
	<rect x="95.6" y="371.2" class="st2" width="33.8" height="3"/>
</g>
<g>
	<rect x="95.8" y="359.7" class="st2" width="33.6" height="3"/>
</g>
<g>
	<polygon class="st2" points="240,372.7 237,372.7 237,362.7 129.4,362.7 129.4,359.7 240,359.7 	"/>
</g>
<g>
	<polygon class="st2" points="292.9,392.9 289.9,392.9 289.9,384.4 250.6,384.4 250.6,381.4 306.3,381.4 306.3,384.4 292.9,384.4 	
		"/>
</g>
<g>
	<polygon class="st2" points="306.3,405.1 250.6,405.1 250.6,402.1 289.9,402.1 289.9,392.9 292.9,392.9 292.9,402.1 306.3,402.1 	
		"/>
</g>
<g>
	<path class="st2" d="M320,392.9h-3v-8.5h-10.7v-3H351l34.3-34.5v-56.1l0,0l37.3-37.9l0,0v0l49.8,0l22.3,22.3h24.1v-2h3v7.3h-3v-2.3
		h-25.3v0l-22.3-22.3h-47.3l-35.5,36.1l0,56.2l-35.2,35.4v8.3h-3v-7.4H320V392.9z M351.6,382.9L351.6,382.9z"/>
</g>
<g>
	<rect x="350.1" y="391.9" class="st0" width="3" height="7.7"/>
</g>
<g>
	<polygon class="st2" points="494.9,215.6 491.9,215.6 491.9,208.3 494.9,208.3 494.9,210.4 542.7,210.4 542.7,213.4 494.9,213.4 	
		"/>
</g>
<g>
	<polygon class="st2" points="494.9,238.6 491.9,238.6 491.9,231.1 494.9,231.1 494.9,233.3 560.4,233.3 560.4,222.7 563.4,222.7 
		563.4,233.3 717.5,233.3 717.5,236.3 494.9,236.3 	"/>
</g>
<g>
	<polygon class="st2" points="846.4,259.4 802.3,259.4 802.3,259.3 779.5,236.3 717.5,236.3 717.5,233.3 736.3,233.3 736.3,222.7 
		739.3,222.7 739.3,233.3 780.7,233.3 780.8,233.3 780.8,233.3 803.6,256.4 836.4,256.4 836.4,246.3 839.4,246.3 839.4,256.4 
		846.4,256.4 	"/>
</g>
<g>
	<polygon class="st2" points="916.5,259.4 846.4,259.4 846.4,256.4 891.6,256.4 891.6,248.1 894.6,248.1 894.6,256.4 916.5,256.4 	
		"/>
</g>
<g>
	<rect x="916.5" y="256.4" class="st2" width="29.4" height="3"/>
</g>
<g>
	<rect x="916.5" y="244.8" class="st2" width="29.4" height="3"/>
</g>
<g>
	<rect x="916.5" y="233.6" class="st2" width="29.4" height="3"/>
</g>
<g>
	<rect x="916.5" y="210.4" class="st2" width="29.4" height="3"/>
</g>
<g>
	<rect x="916.5" y="200.2" class="st2" width="29.4" height="3"/>
</g>
<g>
	<polygon class="st2" points="894.6,248.1 891.6,248.1 891.6,236.6 852.3,236.6 852.3,233.6 861.5,233.6 861.5,223.9 864.5,223.9 
		864.5,233.6 891.6,233.6 891.6,223.9 894.6,223.9 894.6,233.6 916.5,233.6 916.5,236.6 905,236.6 905,244.8 916.5,244.8 
		916.5,247.8 902,247.8 902,236.6 894.6,236.6 	"/>
</g>
<g>
	<polygon class="st2" points="894.6,223.9 891.6,223.9 891.6,213.4 864.5,213.4 864.5,223.9 861.5,223.9 861.5,213.4 852.3,213.4 
		852.3,210.4 902,210.4 902,200.2 916.5,200.2 916.5,203.2 905,203.2 905,210.4 916.5,210.4 916.5,213.4 894.6,213.4 	"/>
</g>
<g>
	<polygon class="st2" points="839.4,246.3 836.4,246.3 836.4,236.6 809.2,236.6 809.2,236.5 809.2,236.6 764.8,193.4 719,193.4 
		719,200.7 716,200.7 716,193.4 699.4,193.4 699.4,196.1 696.4,196.1 696.4,187.8 699.4,187.8 699.4,190.4 766.1,190.4 766.1,190.5 
		810.5,233.6 836.4,233.6 836.4,223.9 839.4,223.9 839.4,233.6 852.3,233.6 852.3,236.6 839.4,236.6 	"/>
</g>
<g>
	<polygon class="st2" points="739.3,222.7 736.3,222.7 736.3,213.4 563.4,213.4 563.4,222.7 560.4,222.7 560.4,213.4 542.7,213.4 
		542.7,210.4 716,210.4 716,200.7 719,200.7 719,210.4 750.3,210.4 750.3,213.4 739.3,213.4 	"/>
</g>
<g>
	<polygon class="st2" points="839.4,223.9 836.4,223.9 836.4,213.4 750.3,213.4 750.3,210.4 852.3,210.4 852.3,213.4 839.4,213.4 	
		"/>
</g>
<g>
	<g>
		<rect x="65" y="334.8" class="st4" width="31.5" height="10.1"/>
	</g>
	<g>
		<path class="st0" d="M97.5,345.9H64v-12.1h33.5V345.9z M66,343.9h29.5v-8.1H66V343.9z"/>
	</g>
	<g>
		<g>
			<path class="st0" d="M67.6,342.1v-0.4c0.1,0,0.1,0,0.2,0c0.1,0,0.1,0,0.2,0c0.1,0,0.1,0,0.1-0.1c0,0,0.1-0.1,0.1-0.2
				c0-0.1,0-0.1,0.1-0.2c0-0.1,0-0.2,0-0.3s0-0.2,0-0.4s0-0.3,0-0.4c0-0.1,0-0.3,0-0.5v-2.1h2.7v4.8h-0.5v-4.4h-1.6v2
				c0,0.1,0,0.2,0,0.3s0,0.2,0,0.3s0,0.3,0,0.4c0,0.1,0,0.2-0.1,0.3c0,0.1-0.1,0.2-0.1,0.3s-0.1,0.2-0.1,0.2s-0.1,0.1-0.2,0.2
				c-0.1,0-0.1,0.1-0.2,0.1c-0.1,0-0.2,0-0.3,0C67.8,342.1,67.7,342.1,67.6,342.1z"/>
		</g>
		<g>
			<path class="st0" d="M71.8,337.2h0.5l1.1,3.4l1-3.4H75l-1.3,4.1c-0.1,0.3-0.2,0.5-0.3,0.8c-0.1,0.2-0.3,0.2-0.5,0.2
				s-0.3,0-0.4-0.1v-0.4c0.1,0,0.2,0,0.3,0s0.2,0,0.2-0.1s0.1-0.2,0.2-0.3L71.8,337.2z"/>
		</g>
		<g>
			<path class="st0" d="M75.5,342v-4.8h3v4.8h-0.5v-4.4h-1.9v4.4H75.5z"/>
		</g>
		<g>
			<path class="st0" d="M79.4,342v-4.8H80v3.9c0,0.1,0,0.3,0,0.5l0,0c0,0,0-0.1,0.1-0.2c0-0.1,0-0.1,0.1-0.2c0.1-0.1,0-0.1,0.1-0.2
				l1.5-3.8h0.8v4.8H82v-3.8c0-0.1,0-0.4,0-0.8l0,0c-0.1,0.3-0.1,0.7-0.2,0.8l-1.5,3.8L79.4,342L79.4,342z"/>
		</g>
		<g>
			<path class="st0" d="M83.5,342v-4.8H84v3.9c0,0.1,0,0.3,0,0.5l0,0c0,0,0-0.1,0.1-0.2c0-0.1,0-0.1,0.1-0.2c0.1-0.1,0-0.1,0.1-0.2
				l1.5-3.8h0.8v4.8h-0.5v-3.8c0-0.1,0-0.4,0-0.8l0,0c-0.1,0.3-0.1,0.7-0.2,0.8l-1.5,3.8L83.5,342L83.5,342z"/>
		</g>
		<g>
			<path class="st0" d="M87.5,342v-4.8h0.5v2.1H90v-2.1h0.5v4.8H90v-2.3h-1.9v2.3H87.5z"/>
		</g>
		<g>
			<path class="st0" d="M91.5,342v-4.8h2.3v0.5H92v4.4L91.5,342L91.5,342z"/>
		</g>
	</g>
</g>
<g>
	<g>
		<polygon class="st2" points="360.3,405.1 360.3,405.1 306.3,405.1 306.3,402.1 317,402.1 317,392.9 320,392.9 320,402.1 
			359,402.1 407.2,352.4 407.2,298 407.2,298 407.2,298 430.5,273.8 430.5,273.8 478.9,273.8 478.9,271.5 481.9,271.5 481.9,279.2 
			478.9,279.2 478.9,276.8 431.7,276.8 410.2,299.2 410.2,353.6 410,353.6 410.1,353.7 360.4,405 360.4,405.1 		"/>
	</g>
</g>
</svg>
