<?xml version="1.0" encoding="utf-8"?>
<!-- Generator: Adobe Illustrator 24.0.1, SVG Export Plug-In . SVG Version: 6.00 Build 0)  -->
<svg version="1.1" id="Layer_1" xmlns="http://www.w3.org/2000/svg" xmlns:xlink="http://www.w3.org/1999/xlink" x="0px" y="0px"
	 viewBox="0 0 9.5 9.5" style="enable-background:new 0 0 9.5 9.5;" xml:space="preserve">
<style type="text/css">
	.st0{fill:#C0CBCE;}
</style>
<g id="Page-1_1_">
	<g id="icon-111-search_1_">
		<path id="search_1_" class="st0" d="M6.3,7.3C5.7,7.7,4.9,8,4,8C1.8,8,0,6.2,0,4s1.8-4,4-4s4,1.8,4,4c0,0.9-0.3,1.7-0.7,2.3
			l2.1,2.1c0.3,0.3,0.3,0.7,0,0.9l0,0c-0.3,0.3-0.7,0.3-0.9,0L6.3,7.3L6.3,7.3z M4,7.1c1.7,0,3.1-1.4,3.1-3.1S5.7,0.9,4,0.9
			S0.9,2.3,0.9,4S2.3,7.1,4,7.1L4,7.1z"/>
	</g>
</g>
</svg>
