<?xml version="1.0" encoding="utf-8"?>
<!-- Generator: Adobe Illustrator 27.0.0, SVG Export Plug-In . SVG Version: 6.00 Build 0)  -->
<svg version="1.1" id="Layer_1" xmlns="http://www.w3.org/2000/svg" xmlns:xlink="http://www.w3.org/1999/xlink" x="0px" y="0px"
	 viewBox="0 0 315.4 114.1" style="enable-background:new 0 0 315.4 114.1;" xml:space="preserve">
<style type="text/css">
	.st0{fill:none;stroke:#ADB9BC;stroke-width:0.75;stroke-miterlimit:10;stroke-dasharray:3;}
	.st1{fill:#F2F2F3;}
	.st2{fill:none;stroke:url(#SVGID_1_);stroke-miterlimit:10;}
	.st3{fill:none;stroke:url(#SVGID_00000101082551114089825230000013097279335484820874_);stroke-miterlimit:10;}
	.st4{fill:none;stroke:url(#SVGID_00000152972847883027786210000009455543547613096126_);stroke-miterlimit:10;}
	.st5{fill:none;stroke:url(#SVGID_00000143578615999046053090000004771660085319005572_);stroke-miterlimit:10;}
	.st6{fill:none;stroke:url(#SVGID_00000142149524152255484090000013964420012446749059_);stroke-miterlimit:10;}
	.st7{fill:none;stroke:url(#SVGID_00000070087824091364627790000013435045143442072455_);stroke-miterlimit:10;}
	.st8{fill:none;stroke:url(#SVGID_00000090973658929154488580000009976799409134019732_);stroke-miterlimit:10;}
	.st9{fill:none;stroke:url(#SVGID_00000145747924695387486780000006211231234858748843_);stroke-miterlimit:10;}
	.st10{fill:none;stroke:url(#SVGID_00000182507139928826500950000017685120072920833926_);stroke-miterlimit:10;}
	.st11{fill:none;stroke:url(#SVGID_00000084488824760088654350000013014111981855645323_);stroke-miterlimit:10;}
	.st12{fill:none;stroke:url(#SVGID_00000038389320802676195270000012073589441047611046_);stroke-miterlimit:10;}
	.st13{fill:none;stroke:url(#SVGID_00000084532403455222184180000002436214201607122098_);stroke-miterlimit:10;}
	.st14{fill:none;stroke:url(#SVGID_00000039129016716313938890000004311457527250123664_);stroke-miterlimit:10;}
	.st15{fill:none;stroke:url(#SVGID_00000091735947459442119670000018049629574763126455_);stroke-miterlimit:10;}
	.st16{fill:none;stroke:url(#SVGID_00000158028220321866149250000003920282755137277094_);stroke-miterlimit:10;}
	.st17{fill:none;stroke:url(#SVGID_00000150789015332306506260000001166775736053079220_);stroke-miterlimit:10;}
	.st18{fill:none;stroke:url(#SVGID_00000110429308870450446480000003923798623018026664_);stroke-miterlimit:10;}
	.st19{fill:none;stroke:url(#SVGID_00000090986443326550904220000006101785866939953847_);stroke-miterlimit:10;}
	.st20{fill:none;stroke:url(#SVGID_00000005268951314123387390000004555728633533987002_);stroke-miterlimit:10;}
	.st21{fill:none;stroke:url(#SVGID_00000157271949098611517880000015982319646747880636_);stroke-miterlimit:10;}
	.st22{fill:none;stroke:url(#SVGID_00000109731832005355935230000014459527442778507152_);stroke-miterlimit:10;}
	.st23{fill:none;stroke:url(#SVGID_00000165920438610601634200000005647646765511436726_);stroke-miterlimit:10;}
	.st24{fill:url(#SVGID_00000000205946424773607570000016661530069579048850_);}
	.st25{fill:url(#SVGID_00000024718456586716745300000016762922581939290254_);}
	.st26{fill:url(#SVGID_00000094592499956375904120000004551926147483376569_);}
	.st27{fill:url(#SVGID_00000163030943907778635040000011220611174469286312_);}
	.st28{fill:url(#SVGID_00000023970516390844224360000017894008227000560801_);}
	.st29{fill:url(#SVGID_00000156547926474762842680000012459538896009942712_);}
	.st30{fill:url(#SVGID_00000115502804627097696180000004805297558585996939_);}
	.st31{fill:url(#SVGID_00000018207887730154167690000017601000004628438940_);}
	.st32{fill:url(#SVGID_00000066510352843924678490000017750262510968427430_);}
	.st33{fill:url(#SVGID_00000090990593895262961950000014104500307935528364_);}
	.st34{fill:url(#SVGID_00000116237010268249840710000002835634050679553424_);}
	.st35{fill:url(#SVGID_00000032629292361913964910000002415531405140650940_);}
	.st36{fill:url(#SVGID_00000075140465195218392780000010759739268075928214_);}
	.st37{fill:url(#SVGID_00000117676973011063375720000004878760988944802212_);}
	.st38{fill:url(#SVGID_00000183206774755083978580000008751690796937059252_);}
	.st39{fill:url(#SVGID_00000114794100851692463440000010291013369893403054_);}
	.st40{fill:url(#SVGID_00000179636754934926327890000012074043447828951175_);}
	.st41{fill:url(#SVGID_00000126316841853442438510000012854121499756459143_);}
	.st42{fill:url(#SVGID_00000102543495078115718800000012957056291187625369_);}
	.st43{fill:url(#SVGID_00000121958439157119680140000016560988575013675931_);}
	.st44{fill:url(#SVGID_00000021799895623499077650000011883045598369612976_);}
	.st45{fill:url(#SVGID_00000148638719855640096430000005892996456334251400_);}
	.st46{opacity:0.9;fill:none;stroke:#FFFFFF;stroke-width:0.5;stroke-miterlimit:10;enable-background:new    ;}
	.st47{fill:#868686;}
	.st48{fill:#3B5059;}
</style>
<g>
	<path class="st0" d="M294.1,108.2H16.5c-5.9,0-10.8-4.8-10.8-10.8v-81c0-5.9,4.8-10.8,10.8-10.8h282.2c5.9,0,10.8,4.8,10.8,10.8
		v76.4C309.5,101.3,302.5,108.2,294.1,108.2z"/>
	<path class="st1" d="M277.4,89.9H27.8c-3.9,0-7-3.1-7-7V32.2c0-3.9,3.1-7,7-7h249.6c3.9,0,7,3.1,7,7v50.7
		C284.4,86.7,281.3,89.9,277.4,89.9z"/>
	
		<linearGradient id="SVGID_1_" gradientUnits="userSpaceOnUse" x1="-283.8084" y1="1812.085" x2="-282.8084" y2="1812.085" gradientTransform="matrix(-1 0 0 1 -177.574 -1791.1851)">
		<stop  offset="4.102398e-07" style="stop-color:#ADB9BC"/>
		<stop  offset="1" style="stop-color:#C0CBCE"/>
	</linearGradient>
	<line class="st2" x1="105.7" y1="24.3" x2="105.7" y2="17.5"/>
	
		<linearGradient id="SVGID_00000113340357748179212000000007045655651439096229_" gradientUnits="userSpaceOnUse" x1="-259.897" y1="1812.085" x2="-258.897" y2="1812.085" gradientTransform="matrix(-1 0 0 1 -177.574 -1791.1851)">
		<stop  offset="4.102398e-07" style="stop-color:#ADB9BC"/>
		<stop  offset="1" style="stop-color:#C0CBCE"/>
	</linearGradient>
	
		<line style="fill:none;stroke:url(#SVGID_00000113340357748179212000000007045655651439096229_);stroke-miterlimit:10;" x1="81.8" y1="24.3" x2="81.8" y2="17.5"/>
	
		<linearGradient id="SVGID_00000031186639508588393890000000324450498383181954_" gradientUnits="userSpaceOnUse" x1="-236.1395" y1="1812.085" x2="-235.1395" y2="1812.085" gradientTransform="matrix(-1 0 0 1 -177.574 -1791.1851)">
		<stop  offset="4.102398e-07" style="stop-color:#ADB9BC"/>
		<stop  offset="1" style="stop-color:#C0CBCE"/>
	</linearGradient>
	
		<line style="fill:none;stroke:url(#SVGID_00000031186639508588393890000000324450498383181954_);stroke-miterlimit:10;" x1="58.1" y1="24.3" x2="58.1" y2="17.5"/>
	
		<linearGradient id="SVGID_00000155832584561814503370000017670079141575176079_" gradientUnits="userSpaceOnUse" x1="-307.574" y1="1811.9351" x2="-211.374" y2="1811.9351" gradientTransform="matrix(-1 0 0 1 -177.574 -1791.1851)">
		<stop  offset="4.102398e-07" style="stop-color:#ADB9BC"/>
		<stop  offset="1" style="stop-color:#C0CBCE"/>
	</linearGradient>
	<path style="fill:none;stroke:url(#SVGID_00000155832584561814503370000017670079141575176079_);stroke-miterlimit:10;" d="
		M129.5,24.3V20c0-1.3-1.1-2.4-2.4-2.4H36.2c-1.3,0-1.9,1.1-1.9,2.4v4.4"/>
	
		<linearGradient id="SVGID_00000116926827968192752360000018074394627347936667_" gradientUnits="userSpaceOnUse" x1="-402.5481" y1="1812.085" x2="-401.5481" y2="1812.085" gradientTransform="matrix(-1 0 0 1 -177.574 -1791.1851)">
		<stop  offset="4.102398e-07" style="stop-color:#ADB9BC"/>
		<stop  offset="1" style="stop-color:#C0CBCE"/>
	</linearGradient>
	
		<line style="fill:none;stroke:url(#SVGID_00000116926827968192752360000018074394627347936667_);stroke-miterlimit:10;" x1="224.5" y1="24.3" x2="224.5" y2="17.5"/>
	
		<linearGradient id="SVGID_00000035495859619551137450000002534086101382644382_" gradientUnits="userSpaceOnUse" x1="-426.2108" y1="1812.085" x2="-425.2108" y2="1812.085" gradientTransform="matrix(-1 0 0 1 -177.574 -1791.1851)">
		<stop  offset="4.102398e-07" style="stop-color:#ADB9BC"/>
		<stop  offset="1" style="stop-color:#C0CBCE"/>
	</linearGradient>
	
		<line style="fill:none;stroke:url(#SVGID_00000035495859619551137450000002534086101382644382_);stroke-miterlimit:10;" x1="248.1" y1="24.3" x2="248.1" y2="17.5"/>
	
		<linearGradient id="SVGID_00000088097050085562866190000004245725159212765859_" gradientUnits="userSpaceOnUse" x1="-448.7374" y1="1812.085" x2="-447.7374" y2="1812.085" gradientTransform="matrix(-1 0 0 1 -177.574 -1791.1851)">
		<stop  offset="4.102398e-07" style="stop-color:#ADB9BC"/>
		<stop  offset="1" style="stop-color:#C0CBCE"/>
	</linearGradient>
	
		<line style="fill:none;stroke:url(#SVGID_00000088097050085562866190000004245725159212765859_);stroke-miterlimit:10;" x1="270.7" y1="24.3" x2="270.7" y2="17.5"/>
	
		<linearGradient id="SVGID_00000178911682326447145570000004248327012494590646_" gradientUnits="userSpaceOnUse" x1="-0.184" y1="162.9684" x2="48.016" y2="162.9684" gradientTransform="matrix(1 0 0 -1 117.284 263.3184)">
		<stop  offset="4.102398e-07" style="stop-color:#ADB9BC"/>
		<stop  offset="1" style="stop-color:#C0CBCE"/>
	</linearGradient>
	<path style="fill:none;stroke:url(#SVGID_00000178911682326447145570000004248327012494590646_);stroke-miterlimit:10;" d="
		M117.6,97.5v2.8c0,1.3,1.1,2.4,2.4,2.4h42.9c1.3,0,1.9-1.1,1.9-2.4v-2.8"/>
	
		<linearGradient id="SVGID_00000100356144303835710300000008745606569872738184_" gradientUnits="userSpaceOnUse" x1="-378.6367" y1="1812.085" x2="-377.6367" y2="1812.085" gradientTransform="matrix(-1 0 0 1 -177.574 -1791.1851)">
		<stop  offset="4.102398e-07" style="stop-color:#ADB9BC"/>
		<stop  offset="1" style="stop-color:#C0CBCE"/>
	</linearGradient>
	
		<line style="fill:none;stroke:url(#SVGID_00000100356144303835710300000008745606569872738184_);stroke-miterlimit:10;" x1="200.6" y1="24.3" x2="200.6" y2="17.5"/>
	
		<linearGradient id="SVGID_00000143586101683894601290000012857560776620381325_" gradientUnits="userSpaceOnUse" x1="-354.8791" y1="1812.085" x2="-353.8791" y2="1812.085" gradientTransform="matrix(-1 0 0 1 -177.574 -1791.1851)">
		<stop  offset="4.102398e-07" style="stop-color:#ADB9BC"/>
		<stop  offset="1" style="stop-color:#C0CBCE"/>
	</linearGradient>
	
		<line style="fill:none;stroke:url(#SVGID_00000143586101683894601290000012857560776620381325_);stroke-miterlimit:10;" x1="176.8" y1="24.3" x2="176.8" y2="17.5"/>
	
		<linearGradient id="SVGID_00000062180040614416631090000012749523423013692858_" gradientUnits="userSpaceOnUse" x1="-342.774" y1="1805.335" x2="-294.574" y2="1805.335" gradientTransform="matrix(-1 0 0 1 -177.574 -1791.1851)">
		<stop  offset="4.102398e-07" style="stop-color:#ADB9BC"/>
		<stop  offset="1" style="stop-color:#C0CBCE"/>
	</linearGradient>
	<path style="fill:none;stroke:url(#SVGID_00000062180040614416631090000012749523423013692858_);stroke-miterlimit:10;" d="
		M164.7,17v-2.8c0-1.3-1.1-2.4-2.4-2.4h-42.9c-1.3,0-1.9,1.1-1.9,2.4V17"/>
	<g>
		<g>
			
				<linearGradient id="SVGID_00000036962101542709752840000000317676966182021049_" gradientUnits="userSpaceOnUse" x1="57.5655" y1="21.3469" x2="58.5655" y2="21.3469" gradientTransform="matrix(1 0 0 -1 0 115.1969)">
				<stop  offset="4.102398e-07" style="stop-color:#ADB9BC"/>
				<stop  offset="1" style="stop-color:#C0CBCE"/>
			</linearGradient>
			
				<line style="fill:none;stroke:url(#SVGID_00000036962101542709752840000000317676966182021049_);stroke-miterlimit:10;" x1="58.1" y1="90.7" x2="58.1" y2="97"/>
			
				<linearGradient id="SVGID_00000128486609809711003170000008092658033111199147_" gradientUnits="userSpaceOnUse" x1="81.3231" y1="21.3469" x2="82.3231" y2="21.3469" gradientTransform="matrix(1 0 0 -1 0 115.1969)">
				<stop  offset="4.102398e-07" style="stop-color:#ADB9BC"/>
				<stop  offset="1" style="stop-color:#C0CBCE"/>
			</linearGradient>
			
				<line style="fill:none;stroke:url(#SVGID_00000128486609809711003170000008092658033111199147_);stroke-miterlimit:10;" x1="81.8" y1="90.7" x2="81.8" y2="97"/>
			
				<linearGradient id="SVGID_00000085215928526074145050000002974338785351850420_" gradientUnits="userSpaceOnUse" x1="105.2345" y1="21.3469" x2="106.2345" y2="21.3469" gradientTransform="matrix(1 0 0 -1 0 115.1969)">
				<stop  offset="4.102398e-07" style="stop-color:#ADB9BC"/>
				<stop  offset="1" style="stop-color:#C0CBCE"/>
			</linearGradient>
			
				<line style="fill:none;stroke:url(#SVGID_00000085215928526074145050000002974338785351850420_);stroke-miterlimit:10;" x1="105.7" y1="90.7" x2="105.7" y2="97"/>
			
				<linearGradient id="SVGID_00000062168220184666193370000000278331462959528890_" gradientUnits="userSpaceOnUse" x1="33.8" y1="21.0969" x2="129.9" y2="21.0969" gradientTransform="matrix(1 0 0 -1 0 115.1969)">
				<stop  offset="4.102398e-07" style="stop-color:#ADB9BC"/>
				<stop  offset="1" style="stop-color:#C0CBCE"/>
			</linearGradient>
			<path style="fill:none;stroke:url(#SVGID_00000062168220184666193370000000278331462959528890_);stroke-miterlimit:10;" d="
				M34.3,90.7v3.9c0,1.3,1.1,2.4,2.4,2.4H127c1.3,0,2.4-1.1,2.4-2.4v-3.9"/>
			<g>
				
					<linearGradient id="SVGID_00000052802695257268102340000017244491010948227982_" gradientUnits="userSpaceOnUse" x1="176.3051" y1="21.3469" x2="177.3051" y2="21.3469" gradientTransform="matrix(1 0 0 -1 0 115.1969)">
					<stop  offset="4.102398e-07" style="stop-color:#ADB9BC"/>
					<stop  offset="1" style="stop-color:#C0CBCE"/>
				</linearGradient>
				
					<line style="fill:none;stroke:url(#SVGID_00000052802695257268102340000017244491010948227982_);stroke-miterlimit:10;" x1="176.8" y1="90.7" x2="176.8" y2="97"/>
				
					<linearGradient id="SVGID_00000006692074269208451620000004183774780894600066_" gradientUnits="userSpaceOnUse" x1="200.0627" y1="21.3469" x2="201.0627" y2="21.3469" gradientTransform="matrix(1 0 0 -1 0 115.1969)">
					<stop  offset="4.102398e-07" style="stop-color:#ADB9BC"/>
					<stop  offset="1" style="stop-color:#C0CBCE"/>
				</linearGradient>
				
					<line style="fill:none;stroke:url(#SVGID_00000006692074269208451620000004183774780894600066_);stroke-miterlimit:10;" x1="200.6" y1="90.7" x2="200.6" y2="97"/>
				
					<linearGradient id="SVGID_00000094600727913407880780000016481372704371650231_" gradientUnits="userSpaceOnUse" x1="223.9741" y1="21.3469" x2="224.9741" y2="21.3469" gradientTransform="matrix(1 0 0 -1 0 115.1969)">
					<stop  offset="4.102398e-07" style="stop-color:#ADB9BC"/>
					<stop  offset="1" style="stop-color:#C0CBCE"/>
				</linearGradient>
				
					<line style="fill:none;stroke:url(#SVGID_00000094600727913407880780000016481372704371650231_);stroke-miterlimit:10;" x1="224.5" y1="90.7" x2="224.5" y2="97"/>
				
					<linearGradient id="SVGID_00000134946294040023804060000009857603458434136228_" gradientUnits="userSpaceOnUse" x1="152.6" y1="34.2968" x2="296.3" y2="34.2968" gradientTransform="matrix(1 0 0 -1 0 115.1969)">
					<stop  offset="4.102398e-07" style="stop-color:#ADB9BC"/>
					<stop  offset="1" style="stop-color:#C0CBCE"/>
				</linearGradient>
				<path style="fill:none;stroke:url(#SVGID_00000134946294040023804060000009857603458434136228_);stroke-miterlimit:10;" d="
					M153.1,90.7v3.9c0,1.3,1.1,2.4,2.4,2.4h137.9c1.3,0,2.4-1.1,2.4-2.4V64.3"/>
				
					<linearGradient id="SVGID_00000020397335141568241340000008157950569807086513_" gradientUnits="userSpaceOnUse" x1="247.264" y1="21.3469" x2="248.264" y2="21.3469" gradientTransform="matrix(1 0 0 -1 0 115.1969)">
					<stop  offset="4.102398e-07" style="stop-color:#ADB9BC"/>
					<stop  offset="1" style="stop-color:#C0CBCE"/>
				</linearGradient>
				
					<line style="fill:none;stroke:url(#SVGID_00000020397335141568241340000008157950569807086513_);stroke-miterlimit:10;" x1="247.8" y1="90.7" x2="247.8" y2="97"/>
				
					<linearGradient id="SVGID_00000057134289733510382720000011380788296645449624_" gradientUnits="userSpaceOnUse" x1="270.98" y1="21.3469" x2="271.98" y2="21.3469" gradientTransform="matrix(1 0 0 -1 0 115.1969)">
					<stop  offset="4.102398e-07" style="stop-color:#ADB9BC"/>
					<stop  offset="1" style="stop-color:#C0CBCE"/>
				</linearGradient>
				
					<line style="fill:none;stroke:url(#SVGID_00000057134289733510382720000011380788296645449624_);stroke-miterlimit:10;" x1="271.5" y1="90.7" x2="271.5" y2="97"/>
			</g>
		</g>
		
			<linearGradient id="SVGID_00000134959006328515471360000003747127699368089245_" gradientUnits="userSpaceOnUse" x1="-473.874" y1="1825.1851" x2="-330.174" y2="1825.1851" gradientTransform="matrix(-1 0 0 1 -177.574 -1791.1851)">
			<stop  offset="4.102398e-07" style="stop-color:#ADB9BC"/>
			<stop  offset="1" style="stop-color:#C0CBCE"/>
		</linearGradient>
		<path style="fill:none;stroke:url(#SVGID_00000134959006328515471360000003747127699368089245_);stroke-miterlimit:10;" d="
			M295.8,50.9V20c0-1.3-1.1-2.4-2.4-2.4H155c-1.3,0-1.9,1.1-1.9,2.4v4.4"/>
	</g>
	<g>
		<g>
			<g>
				
					<linearGradient id="SVGID_00000136395539847891613060000014897605629245653385_" gradientUnits="userSpaceOnUse" x1="18.0048" y1="44.1601" x2="300.5664" y2="73.3198" gradientTransform="matrix(1 0 0 -1 0 115.1969)">
					<stop  offset="4.100000e-07" style="stop-color:#1EBDDC"/>
					<stop  offset="1" style="stop-color:#0E79BF"/>
				</linearGradient>
				<path style="fill:url(#SVGID_00000136395539847891613060000014897605629245653385_);" d="M38.7,80.7H30c-3.9,0-7-3.1-7-7V65
					c0-3.9,3.1-7,7-7h8.7c3.9,0,7,3.1,7,7v8.7C45.7,77.6,42.6,80.7,38.7,80.7z"/>
				
					<linearGradient id="SVGID_00000038415222758874783900000017755980052694433977_" gradientUnits="userSpaceOnUse" x1="41.7077" y1="44.1604" x2="324.2693" y2="73.3201" gradientTransform="matrix(1 0 0 -1 0 115.1969)">
					<stop  offset="4.100000e-07" style="stop-color:#1EBDDC"/>
					<stop  offset="1" style="stop-color:#0E79BF"/>
				</linearGradient>
				<path style="fill:url(#SVGID_00000038415222758874783900000017755980052694433977_);" d="M62.4,80.7h-8.7c-3.9,0-7-3.1-7-7V65
					c0-3.9,3.1-7,7-7h8.7c3.9,0,7,3.1,7,7v8.7C69.4,77.6,66.3,80.7,62.4,80.7z"/>
				
					<linearGradient id="SVGID_00000101807656191971375960000006792155296331800755_" gradientUnits="userSpaceOnUse" x1="65.4656" y1="44.1569" x2="348.0271" y2="73.3166" gradientTransform="matrix(1 0 0 -1 0 115.1969)">
					<stop  offset="4.100000e-07" style="stop-color:#1EBDDC"/>
					<stop  offset="1" style="stop-color:#0E79BF"/>
				</linearGradient>
				<path style="fill:url(#SVGID_00000101807656191971375960000006792155296331800755_);" d="M86.2,80.7h-8.7c-3.9,0-7-3.1-7-7V65
					c0-3.9,3.1-7,7-7h8.7c3.9,0,7,3.1,7,7v8.7C93.2,77.6,90,80.7,86.2,80.7z"/>
				
					<linearGradient id="SVGID_00000014625381870559043640000014326211294706757525_" gradientUnits="userSpaceOnUse" x1="89.3769" y1="44.1572" x2="371.9386" y2="73.3169" gradientTransform="matrix(1 0 0 -1 0 115.1969)">
					<stop  offset="4.100000e-07" style="stop-color:#1EBDDC"/>
					<stop  offset="1" style="stop-color:#0E79BF"/>
				</linearGradient>
				<path style="fill:url(#SVGID_00000014625381870559043640000014326211294706757525_);" d="M110.1,80.7h-8.7c-3.9,0-7-3.1-7-7V65
					c0-3.9,3.1-7,7-7h8.7c3.9,0,7,3.1,7,7v8.7C117.1,77.6,114,80.7,110.1,80.7z"/>
				
					<linearGradient id="SVGID_00000045591309107058863040000003848389180941449887_" gradientUnits="userSpaceOnUse" x1="113.0918" y1="44.1587" x2="395.6535" y2="73.3184" gradientTransform="matrix(1 0 0 -1 0 115.1969)">
					<stop  offset="4.100000e-07" style="stop-color:#1EBDDC"/>
					<stop  offset="1" style="stop-color:#0E79BF"/>
				</linearGradient>
				<path style="fill:url(#SVGID_00000045591309107058863040000003848389180941449887_);" d="M133.8,80.7h-8.7c-3.9,0-7-3.1-7-7V65
					c0-3.9,3.1-7,7-7h8.7c3.9,0,7,3.1,7,7v8.7C140.8,77.6,137.7,80.7,133.8,80.7z"/>
				
					<linearGradient id="SVGID_00000078040336929076298270000002806682857082952583_" gradientUnits="userSpaceOnUse" x1="136.745" y1="44.1548" x2="419.3065" y2="73.3145" gradientTransform="matrix(1 0 0 -1 0 115.1969)">
					<stop  offset="4.100000e-07" style="stop-color:#1EBDDC"/>
					<stop  offset="1" style="stop-color:#0E79BF"/>
				</linearGradient>
				<path style="fill:url(#SVGID_00000078040336929076298270000002806682857082952583_);" d="M157.5,80.7h-8.7c-3.9,0-7-3.1-7-7V65
					c0-3.9,3.1-7,7-7h8.7c3.9,0,7,3.1,7,7v8.7C164.5,77.6,161.3,80.7,157.5,80.7z"/>
				
					<linearGradient id="SVGID_00000126290712694084469280000014107096428453453953_" gradientUnits="userSpaceOnUse" x1="160.4479" y1="44.1551" x2="443.0094" y2="73.3148" gradientTransform="matrix(1 0 0 -1 0 115.1969)">
					<stop  offset="4.100000e-07" style="stop-color:#1EBDDC"/>
					<stop  offset="1" style="stop-color:#0E79BF"/>
				</linearGradient>
				<path style="fill:url(#SVGID_00000126290712694084469280000014107096428453453953_);" d="M181.2,80.7h-8.7c-3.9,0-7-3.1-7-7V65
					c0-3.9,3.1-7,7-7h8.7c3.9,0,7,3.1,7,7v8.7C188.2,77.6,185,80.7,181.2,80.7z"/>
				
					<linearGradient id="SVGID_00000064315112947328723600000007000772227985647027_" gradientUnits="userSpaceOnUse" x1="184.2049" y1="44.1601" x2="466.7665" y2="73.3198" gradientTransform="matrix(1 0 0 -1 0 115.1969)">
					<stop  offset="4.100000e-07" style="stop-color:#1EBDDC"/>
					<stop  offset="1" style="stop-color:#0E79BF"/>
				</linearGradient>
				<path style="fill:url(#SVGID_00000064315112947328723600000007000772227985647027_);" d="M204.9,80.7h-8.7c-3.9,0-7-3.1-7-7V65
					c0-3.9,3.1-7,7-7h8.7c3.9,0,7,3.1,7,7v8.7C211.9,77.6,208.8,80.7,204.9,80.7z"/>
				
					<linearGradient id="SVGID_00000019635842140530010760000012768566206198634396_" gradientUnits="userSpaceOnUse" x1="208.1162" y1="44.1612" x2="490.6778" y2="73.3209" gradientTransform="matrix(1 0 0 -1 0 115.1969)">
					<stop  offset="4.100000e-07" style="stop-color:#1EBDDC"/>
					<stop  offset="1" style="stop-color:#0E79BF"/>
				</linearGradient>
				<path style="fill:url(#SVGID_00000019635842140530010760000012768566206198634396_);" d="M228.8,80.7h-8.7c-3.9,0-7-3.1-7-7V65
					c0-3.9,3.1-7,7-7h8.7c3.9,0,7,3.1,7,7v8.7C235.8,77.6,232.7,80.7,228.8,80.7z"/>
				
					<linearGradient id="SVGID_00000090254238858923556230000002253271971970497974_" gradientUnits="userSpaceOnUse" x1="231.8311" y1="44.1628" x2="514.3926" y2="73.3225" gradientTransform="matrix(1 0 0 -1 0 115.1969)">
					<stop  offset="4.100000e-07" style="stop-color:#1EBDDC"/>
					<stop  offset="1" style="stop-color:#0E79BF"/>
				</linearGradient>
				<path style="fill:url(#SVGID_00000090254238858923556230000002253271971970497974_);" d="M252.5,80.7h-8.7c-3.9,0-7-3.1-7-7V65
					c0-3.9,3.1-7,7-7h8.7c3.9,0,7,3.1,7,7v8.7C259.5,77.6,256.4,80.7,252.5,80.7z"/>
				
					<linearGradient id="SVGID_00000176743044266267236090000000086408420112144535_" gradientUnits="userSpaceOnUse" x1="255.1572" y1="44.156" x2="537.7188" y2="73.3157" gradientTransform="matrix(1 0 0 -1 0 115.1969)">
					<stop  offset="4.100000e-07" style="stop-color:#1EBDDC"/>
					<stop  offset="1" style="stop-color:#0E79BF"/>
				</linearGradient>
				<path style="fill:url(#SVGID_00000176743044266267236090000000086408420112144535_);" d="M275.9,80.7h-8.7c-3.9,0-7-3.1-7-7V65
					c0-3.9,3.1-7,7-7h8.7c3.9,0,7,3.1,7,7v8.7C282.9,77.6,279.7,80.7,275.9,80.7z"/>
			</g>
			<g>
				
					<linearGradient id="SVGID_00000059301926625406141560000010570977285945793437_" gradientUnits="userSpaceOnUse" x1="18.0101" y1="67.8606" x2="300.5717" y2="97.0203" gradientTransform="matrix(1 0 0 -1 0 115.1969)">
					<stop  offset="4.100000e-07" style="stop-color:#1EBDDC"/>
					<stop  offset="1" style="stop-color:#0E79BF"/>
				</linearGradient>
				<path style="fill:url(#SVGID_00000059301926625406141560000010570977285945793437_);" d="M38.7,57H30c-3.9,0-7-3.1-7-7v-8.7
					c0-3.9,3.1-7,7-7h8.7c3.9,0,7,3.1,7,7V50C45.7,53.9,42.6,57,38.7,57z"/>
				
					<linearGradient id="SVGID_00000089569624335159010050000006500408080397950906_" gradientUnits="userSpaceOnUse" x1="41.713" y1="67.8609" x2="324.2746" y2="97.0206" gradientTransform="matrix(1 0 0 -1 0 115.1969)">
					<stop  offset="4.100000e-07" style="stop-color:#1EBDDC"/>
					<stop  offset="1" style="stop-color:#0E79BF"/>
				</linearGradient>
				<path style="fill:url(#SVGID_00000089569624335159010050000006500408080397950906_);" d="M62.4,57h-8.7c-3.9,0-7-3.1-7-7v-8.7
					c0-3.9,3.1-7,7-7h8.7c3.9,0,7,3.1,7,7V50C69.4,53.9,66.3,57,62.4,57z"/>
				
					<linearGradient id="SVGID_00000138565704420571076980000009179403737058087082_" gradientUnits="userSpaceOnUse" x1="65.4708" y1="67.8574" x2="348.0324" y2="97.0171" gradientTransform="matrix(1 0 0 -1 0 115.1969)">
					<stop  offset="4.100000e-07" style="stop-color:#1EBDDC"/>
					<stop  offset="1" style="stop-color:#0E79BF"/>
				</linearGradient>
				<path style="fill:url(#SVGID_00000138565704420571076980000009179403737058087082_);" d="M86.2,57h-8.7c-3.9,0-7-3.1-7-7v-8.7
					c0-3.9,3.1-7,7-7h8.7c3.9,0,7,3.1,7,7V50C93.2,53.9,90,57,86.2,57z"/>
				
					<linearGradient id="SVGID_00000114766224264450166810000004724643255592889774_" gradientUnits="userSpaceOnUse" x1="89.3822" y1="67.8577" x2="371.9438" y2="97.0174" gradientTransform="matrix(1 0 0 -1 0 115.1969)">
					<stop  offset="4.100000e-07" style="stop-color:#1EBDDC"/>
					<stop  offset="1" style="stop-color:#0E79BF"/>
				</linearGradient>
				<path style="fill:url(#SVGID_00000114766224264450166810000004724643255592889774_);" d="M110.1,57h-8.7c-3.9,0-7-3.1-7-7v-8.7
					c0-3.9,3.1-7,7-7h8.7c3.9,0,7,3.1,7,7V50C117.1,53.9,114,57,110.1,57z"/>
				
					<linearGradient id="SVGID_00000074406862814812578110000000251221502699810479_" gradientUnits="userSpaceOnUse" x1="113.097" y1="67.8593" x2="395.6587" y2="97.019" gradientTransform="matrix(1 0 0 -1 0 115.1969)">
					<stop  offset="4.100000e-07" style="stop-color:#1EBDDC"/>
					<stop  offset="1" style="stop-color:#0E79BF"/>
				</linearGradient>
				<path style="fill:url(#SVGID_00000074406862814812578110000000251221502699810479_);" d="M133.8,57h-8.7c-3.9,0-7-3.1-7-7v-8.7
					c0-3.9,3.1-7,7-7h8.7c3.9,0,7,3.1,7,7V50C140.8,53.9,137.7,57,133.8,57z"/>
				
					<linearGradient id="SVGID_00000145740255022024921400000004558076521468846215_" gradientUnits="userSpaceOnUse" x1="136.7502" y1="67.8553" x2="419.3118" y2="97.015" gradientTransform="matrix(1 0 0 -1 0 115.1969)">
					<stop  offset="4.100000e-07" style="stop-color:#1EBDDC"/>
					<stop  offset="1" style="stop-color:#0E79BF"/>
				</linearGradient>
				<path style="fill:url(#SVGID_00000145740255022024921400000004558076521468846215_);" d="M157.5,57h-8.7c-3.9,0-7-3.1-7-7v-8.7
					c0-3.9,3.1-7,7-7h8.7c3.9,0,7,3.1,7,7V50C164.5,53.9,161.3,57,157.5,57z"/>
				
					<linearGradient id="SVGID_00000048501984706566082290000010210813545594002831_" gradientUnits="userSpaceOnUse" x1="160.4531" y1="67.8556" x2="443.0147" y2="97.0153" gradientTransform="matrix(1 0 0 -1 0 115.1969)">
					<stop  offset="4.100000e-07" style="stop-color:#1EBDDC"/>
					<stop  offset="1" style="stop-color:#0E79BF"/>
				</linearGradient>
				<path style="fill:url(#SVGID_00000048501984706566082290000010210813545594002831_);" d="M181.2,57h-8.7c-3.9,0-7-3.1-7-7v-8.7
					c0-3.9,3.1-7,7-7h8.7c3.9,0,7,3.1,7,7V50C188.2,53.9,185,57,181.2,57z"/>
				
					<linearGradient id="SVGID_00000000912264725244445310000012804411184263831940_" gradientUnits="userSpaceOnUse" x1="184.2102" y1="67.8606" x2="466.7718" y2="97.0203" gradientTransform="matrix(1 0 0 -1 0 115.1969)">
					<stop  offset="4.100000e-07" style="stop-color:#1EBDDC"/>
					<stop  offset="1" style="stop-color:#0E79BF"/>
				</linearGradient>
				<path style="fill:url(#SVGID_00000000912264725244445310000012804411184263831940_);" d="M204.9,57h-8.7c-3.9,0-7-3.1-7-7v-8.7
					c0-3.9,3.1-7,7-7h8.7c3.9,0,7,3.1,7,7V50C211.9,53.9,208.8,57,204.9,57z"/>
				
					<linearGradient id="SVGID_00000008830898069003865390000012704991888356334527_" gradientUnits="userSpaceOnUse" x1="208.1215" y1="67.8618" x2="490.6831" y2="97.0215" gradientTransform="matrix(1 0 0 -1 0 115.1969)">
					<stop  offset="4.100000e-07" style="stop-color:#1EBDDC"/>
					<stop  offset="1" style="stop-color:#0E79BF"/>
				</linearGradient>
				<path style="fill:url(#SVGID_00000008830898069003865390000012704991888356334527_);" d="M228.8,57h-8.7c-3.9,0-7-3.1-7-7v-8.7
					c0-3.9,3.1-7,7-7h8.7c3.9,0,7,3.1,7,7V50C235.8,53.9,232.7,57,228.8,57z"/>
				
					<linearGradient id="SVGID_00000114781928378589900730000001862387702089245630_" gradientUnits="userSpaceOnUse" x1="231.8363" y1="67.8633" x2="514.3979" y2="97.023" gradientTransform="matrix(1 0 0 -1 0 115.1969)">
					<stop  offset="4.100000e-07" style="stop-color:#1EBDDC"/>
					<stop  offset="1" style="stop-color:#0E79BF"/>
				</linearGradient>
				<path style="fill:url(#SVGID_00000114781928378589900730000001862387702089245630_);" d="M252.5,57h-8.7c-3.9,0-7-3.1-7-7v-8.7
					c0-3.9,3.1-7,7-7h8.7c3.9,0,7,3.1,7,7V50C259.5,53.9,256.4,57,252.5,57z"/>
				
					<linearGradient id="SVGID_00000127003692691285301280000000168579936080207753_" gradientUnits="userSpaceOnUse" x1="255.1624" y1="67.8566" x2="537.724" y2="97.0163" gradientTransform="matrix(1 0 0 -1 0 115.1969)">
					<stop  offset="4.100000e-07" style="stop-color:#1EBDDC"/>
					<stop  offset="1" style="stop-color:#0E79BF"/>
				</linearGradient>
				<path style="fill:url(#SVGID_00000127003692691285301280000000168579936080207753_);" d="M275.9,57h-8.7c-3.9,0-7-3.1-7-7v-8.7
					c0-3.9,3.1-7,7-7h8.7c3.9,0,7,3.1,7,7V50C282.9,53.9,279.7,57,275.9,57z"/>
			</g>
		</g>
		<g>
			<g>
				<path class="st46" d="M34.4,63c0,2,0,4,0,6c0.2-1.7,1.8-3,3.5-2.8s2.9,1.7,2.8,3.2c-2,0-4,0-6,0c1.8,0.2,3,1.8,2.8,3.5
					s-1.7,2.9-3.2,2.8c0-2,0-4,0-6c-0.2,1.7-1.8,3-3.5,2.8c-1.8-0.2-2.9-1.7-2.9-3.2c2,0,4,0,6,0c-0.9-0.1-1.6-0.5-2.1-1.2
					c-0.6-0.7-0.8-1.5-0.7-2.3C31.4,64.2,32.9,63,34.4,63z"/>
				<path class="st46" d="M58.1,63c0,2,0,4,0,6c0.2-1.7,1.8-3,3.5-2.8s2.9,1.7,2.8,3.2c-2,0-4,0-6,0c1.8,0.2,3,1.8,2.8,3.5
					s-1.7,2.9-3.2,2.8c0-2,0-4,0-6c-0.2,1.7-1.8,3-3.5,2.8c-1.8-0.2-2.9-1.7-2.9-3.2c2,0,4,0,6,0c-0.9-0.1-1.6-0.5-2.1-1.2
					c-0.6-0.7-0.8-1.5-0.7-2.3C55.1,64.2,56.6,63,58.1,63z"/>
				<path class="st46" d="M81.8,63c0,2,0,4,0,6c0.2-1.7,1.8-3,3.5-2.8s2.9,1.7,2.8,3.2c-2,0-4,0-6,0c1.8,0.2,3,1.8,2.8,3.5
					s-1.7,2.9-3.2,2.8c0-2,0-4,0-6c-0.2,1.7-1.8,3-3.5,2.8c-1.8-0.2-2.9-1.7-2.9-3.2c2,0,4,0,6,0c-0.9-0.1-1.6-0.5-2.1-1.2
					c-0.6-0.7-0.8-1.5-0.7-2.3C78.8,64.2,80.3,63,81.8,63z"/>
				<path class="st46" d="M105.7,63c0,2,0,4,0,6c0.2-1.7,1.8-3,3.5-2.8s2.9,1.7,2.8,3.2c-2,0-4,0-6,0c1.8,0.2,3,1.8,2.8,3.5
					s-1.7,2.9-3.2,2.8c0-2,0-4,0-6c-0.2,1.7-1.8,3-3.5,2.8c-1.8-0.2-2.9-1.7-2.9-3.2c2,0,4,0,6,0c-0.9-0.1-1.6-0.5-2.1-1.2
					c-0.6-0.7-0.8-1.5-0.7-2.3C102.7,64.2,104.2,63,105.7,63z"/>
				<path class="st46" d="M129.4,63c0,2,0,4,0,6c0.2-1.7,1.8-3,3.5-2.8s2.9,1.7,2.8,3.2c-2,0-4,0-6,0c1.8,0.2,3,1.8,2.8,3.5
					s-1.7,2.9-3.2,2.8c0-2,0-4,0-6c-0.2,1.7-1.8,3-3.5,2.8c-1.8-0.2-2.9-1.7-2.9-3.2c2,0,4,0,6,0c-0.9-0.1-1.6-0.5-2.1-1.2
					c-0.6-0.7-0.8-1.5-0.7-2.3C126.5,64.2,127.9,63,129.4,63z"/>
				<path class="st46" d="M153.1,63c0,2,0,4,0,6c0.2-1.7,1.8-3,3.5-2.8s2.9,1.7,2.8,3.2c-2,0-4,0-6,0c1.8,0.2,3,1.8,2.8,3.5
					s-1.7,2.9-3.2,2.8c0-2,0-4,0-6c-0.2,1.7-1.8,3-3.5,2.8c-1.8-0.2-2.9-1.7-2.9-3.2c2,0,4,0,6,0c-0.9-0.1-1.6-0.5-2.1-1.2
					c-0.6-0.7-0.8-1.5-0.7-2.3C150.1,64.2,151.6,63,153.1,63z"/>
				<path class="st46" d="M176.8,63c0,2,0,4,0,6c0.2-1.7,1.8-3,3.5-2.8s2.9,1.7,2.8,3.2c-2,0-4,0-6,0c1.8,0.2,3,1.8,2.8,3.5
					s-1.7,2.9-3.2,2.8c0-2,0-4,0-6c-0.2,1.7-1.8,3-3.5,2.8c-1.8-0.2-2.9-1.7-2.9-3.2c2,0,4,0,6,0c-0.9-0.1-1.6-0.5-2.1-1.2
					c-0.6-0.7-0.8-1.5-0.7-2.3C173.8,64.2,175.3,63,176.8,63z"/>
				<path class="st46" d="M200.6,63c0,2,0,4,0,6c0.2-1.7,1.8-3,3.5-2.8s2.9,1.7,2.8,3.2c-2,0-4,0-6,0c1.8,0.2,3,1.8,2.8,3.5
					s-1.7,2.9-3.2,2.8c0-2,0-4,0-6c-0.2,1.7-1.8,3-3.5,2.8c-1.8-0.2-2.9-1.7-2.9-3.2c2,0,4,0,6,0c-0.9-0.1-1.6-0.5-2.1-1.2
					c-0.6-0.7-0.8-1.5-0.7-2.3C197.6,64.2,199.1,63,200.6,63z"/>
				<path class="st46" d="M224.5,63c0,2,0,4,0,6c0.2-1.7,1.8-3,3.5-2.8s2.9,1.7,2.8,3.2c-2,0-4,0-6,0c1.8,0.2,3,1.8,2.8,3.5
					s-1.7,2.9-3.2,2.8c0-2,0-4,0-6c-0.2,1.7-1.8,3-3.5,2.8c-1.8-0.2-2.9-1.7-2.9-3.2c2,0,4,0,6,0c-0.9-0.1-1.6-0.5-2.1-1.2
					c-0.6-0.7-0.8-1.5-0.7-2.3C221.5,64.2,223,63,224.5,63z"/>
				<path class="st46" d="M248.2,63c0,2,0,4,0,6c0.2-1.7,1.8-3,3.5-2.8s2.9,1.7,2.8,3.2c-2,0-4,0-6,0c1.8,0.2,3,1.8,2.8,3.5
					s-1.7,2.9-3.2,2.8c0-2,0-4,0-6c-0.2,1.7-1.8,3-3.5,2.8c-1.8-0.2-2.9-1.7-2.9-3.2c2,0,4,0,6,0c-0.9-0.1-1.6-0.5-2.1-1.2
					c-0.6-0.7-0.8-1.5-0.7-2.3C245.2,64.2,246.7,63,248.2,63z"/>
				<path class="st46" d="M271.5,63c0,2,0,4,0,6c0.2-1.7,1.8-3,3.5-2.8s2.9,1.7,2.8,3.2c-2,0-4,0-6,0c1.8,0.2,3,1.8,2.8,3.5
					s-1.7,2.9-3.2,2.8c0-2,0-4,0-6c-0.2,1.7-1.8,3-3.5,2.8c-1.8-0.2-2.9-1.7-2.9-3.2c2,0,4,0,6,0c-0.9-0.1-1.6-0.5-2.1-1.2
					c-0.6-0.7-0.8-1.5-0.7-2.3C268.5,64.2,270,63,271.5,63z"/>
			</g>
			<g>
				<path class="st46" d="M34.4,39.3c0,2,0,4,0,6c0.2-1.7,1.8-3,3.5-2.8s2.9,1.7,2.8,3.2c-2,0-4,0-6,0c1.8,0.2,3,1.8,2.8,3.5
					s-1.7,2.9-3.2,2.8c0-2,0-4,0-6c-0.2,1.7-1.8,3-3.5,2.8c-1.8-0.2-2.9-1.7-2.9-3.2c2,0,4,0,6,0c-0.9-0.1-1.6-0.5-2.1-1.2
					c-0.6-0.7-0.8-1.5-0.7-2.3C31.4,40.4,32.9,39.3,34.4,39.3z"/>
				<path class="st46" d="M58.1,39.3c0,2,0,4,0,6c0.2-1.7,1.8-3,3.5-2.8s2.9,1.7,2.8,3.2c-2,0-4,0-6,0c1.8,0.2,3,1.8,2.8,3.5
					S59.5,52,58.1,52c0-2,0-4,0-6c-0.2,1.7-1.8,3-3.5,2.8c-1.8-0.2-2.9-1.7-2.9-3.2c2,0,4,0,6,0c-0.9-0.1-1.6-0.5-2.1-1.2
					c-0.6-0.7-0.8-1.5-0.7-2.3C55.1,40.4,56.6,39.3,58.1,39.3z"/>
				<path class="st46" d="M81.8,39.3c0,2,0,4,0,6c0.2-1.7,1.8-3,3.5-2.8s2.9,1.7,2.8,3.2c-2,0-4,0-6,0c1.8,0.2,3,1.8,2.8,3.5
					s-1.7,2.9-3.2,2.8c0-2,0-4,0-6c-0.2,1.7-1.8,3-3.5,2.8c-1.8-0.2-2.9-1.7-2.9-3.2c2,0,4,0,6,0c-0.9-0.1-1.6-0.5-2.1-1.2
					c-0.6-0.7-0.8-1.5-0.7-2.3C78.8,40.4,80.3,39.3,81.8,39.3z"/>
				<path class="st46" d="M105.7,39.3c0,2,0,4,0,6c0.2-1.7,1.8-3,3.5-2.8s2.9,1.7,2.8,3.2c-2,0-4,0-6,0c1.8,0.2,3,1.8,2.8,3.5
					s-1.7,2.9-3.2,2.8c0-2,0-4,0-6c-0.2,1.7-1.8,3-3.5,2.8c-1.8-0.2-2.9-1.7-2.9-3.2c2,0,4,0,6,0c-0.9-0.1-1.6-0.5-2.1-1.2
					c-0.6-0.7-0.8-1.5-0.7-2.3C102.7,40.4,104.2,39.3,105.7,39.3z"/>
				<path class="st46" d="M129.4,39.3c0,2,0,4,0,6c0.2-1.7,1.8-3,3.5-2.8s2.9,1.7,2.8,3.2c-2,0-4,0-6,0c1.8,0.2,3,1.8,2.8,3.5
					s-1.7,2.9-3.2,2.8c0-2,0-4,0-6c-0.2,1.7-1.8,3-3.5,2.8c-1.8-0.2-2.9-1.7-2.9-3.2c2,0,4,0,6,0c-0.9-0.1-1.6-0.5-2.1-1.2
					c-0.6-0.7-0.8-1.5-0.7-2.3C126.5,40.4,127.9,39.3,129.4,39.3z"/>
				<path class="st46" d="M153.1,39.3c0,2,0,4,0,6c0.2-1.7,1.8-3,3.5-2.8s2.9,1.7,2.8,3.2c-2,0-4,0-6,0c1.8,0.2,3,1.8,2.8,3.5
					s-1.7,2.9-3.2,2.8c0-2,0-4,0-6c-0.2,1.7-1.8,3-3.5,2.8c-1.8-0.2-2.9-1.7-2.9-3.2c2,0,4,0,6,0c-0.9-0.1-1.6-0.5-2.1-1.2
					c-0.6-0.7-0.8-1.5-0.7-2.3C150.1,40.4,151.6,39.3,153.1,39.3z"/>
				<path class="st46" d="M176.8,39.3c0,2,0,4,0,6c0.2-1.7,1.8-3,3.5-2.8s2.9,1.7,2.8,3.2c-2,0-4,0-6,0c1.8,0.2,3,1.8,2.8,3.5
					s-1.7,2.9-3.2,2.8c0-2,0-4,0-6c-0.2,1.7-1.8,3-3.5,2.8c-1.8-0.2-2.9-1.7-2.9-3.2c2,0,4,0,6,0c-0.9-0.1-1.6-0.5-2.1-1.2
					c-0.6-0.7-0.8-1.5-0.7-2.3C173.8,40.4,175.3,39.3,176.8,39.3z"/>
				<path class="st46" d="M200.6,39.3c0,2,0,4,0,6c0.2-1.7,1.8-3,3.5-2.8s2.9,1.7,2.8,3.2c-2,0-4,0-6,0c1.8,0.2,3,1.8,2.8,3.5
					s-1.7,2.9-3.2,2.8c0-2,0-4,0-6c-0.2,1.7-1.8,3-3.5,2.8c-1.8-0.2-2.9-1.7-2.9-3.2c2,0,4,0,6,0c-0.9-0.1-1.6-0.5-2.1-1.2
					c-0.6-0.7-0.8-1.5-0.7-2.3C197.6,40.4,199.1,39.3,200.6,39.3z"/>
				<path class="st46" d="M224.5,39.3c0,2,0,4,0,6c0.2-1.7,1.8-3,3.5-2.8s2.9,1.7,2.8,3.2c-2,0-4,0-6,0c1.8,0.2,3,1.8,2.8,3.5
					s-1.7,2.9-3.2,2.8c0-2,0-4,0-6c-0.2,1.7-1.8,3-3.5,2.8c-1.8-0.2-2.9-1.7-2.9-3.2c2,0,4,0,6,0c-0.9-0.1-1.6-0.5-2.1-1.2
					c-0.6-0.7-0.8-1.5-0.7-2.3C221.5,40.4,223,39.3,224.5,39.3z"/>
				<path class="st46" d="M248.2,39.3c0,2,0,4,0,6c0.2-1.7,1.8-3,3.5-2.8s2.9,1.7,2.8,3.2c-2,0-4,0-6,0c1.8,0.2,3,1.8,2.8,3.5
					s-1.7,2.9-3.2,2.8c0-2,0-4,0-6c-0.2,1.7-1.8,3-3.5,2.8c-1.8-0.2-2.9-1.7-2.9-3.2c2,0,4,0,6,0c-0.9-0.1-1.6-0.5-2.1-1.2
					c-0.6-0.7-0.8-1.5-0.7-2.3C245.2,40.4,246.7,39.3,248.2,39.3z"/>
				<path class="st46" d="M271.5,39.3c0,2,0,4,0,6c0.2-1.7,1.8-3,3.5-2.8s2.9,1.7,2.8,3.2c-2,0-4,0-6,0c1.8,0.2,3,1.8,2.8,3.5
					s-1.7,2.9-3.2,2.8c0-2,0-4,0-6c-0.2,1.7-1.8,3-3.5,2.8c-1.8-0.2-2.9-1.7-2.9-3.2c2,0,4,0,6,0c-0.9-0.1-1.6-0.5-2.1-1.2
					c-0.6-0.7-0.8-1.5-0.7-2.3C268.5,40.4,270,39.3,271.5,39.3z"/>
			</g>
		</g>
	</g>
	<g>
		<g>
			<g>
				<path class="st47" d="M30.8,29.3c0-0.2,0-0.3,0-0.5c0-0.1,0-0.3,0-0.5s0.1-0.3,0.1-0.5c0-0.1,0.1-0.3,0.2-0.4s0.2-0.3,0.2-0.4
					c0.1-0.1,0.2-0.2,0.4-0.2c0.1-0.1,0.3-0.1,0.5-0.1s0.3,0,0.5,0.1s0.3,0.1,0.4,0.2c0.1,0.1,0.2,0.2,0.2,0.4
					c0.1,0.1,0.1,0.3,0.2,0.4s0.1,0.3,0.1,0.5s0,0.3,0,0.5c0,0.1,0,0.3,0,0.5c0,0.1,0,0.3,0,0.4s0,0.2,0,0.4c0,0.1,0,0.3,0,0.4
					s0,0.2-0.1,0.3s-0.1,0.2-0.1,0.3s-0.1,0.2-0.1,0.3c0,0.1-0.1,0.2-0.2,0.2s-0.1,0.1-0.2,0.2s-0.2,0.1-0.3,0.1s-0.2,0-0.4,0
					s-0.3,0-0.5-0.1c-0.1-0.1-0.3-0.1-0.4-0.2s-0.2-0.2-0.2-0.4C31,31.1,31,30.9,31,30.8s-0.1-0.3-0.1-0.5s0-0.4,0-0.5
					S30.8,29.5,30.8,29.3z M31.4,29.3c0,0.2,0,0.4,0,0.5s0,0.3,0,0.5s0,0.3,0.1,0.4c0,0.1,0.1,0.2,0.1,0.3s0.1,0.2,0.2,0.2
					s0.2,0.1,0.3,0.1c0.1,0,0.2,0,0.3-0.1s0.1-0.1,0.2-0.2c0.1-0.1,0.1-0.2,0.1-0.3c0-0.1,0.1-0.2,0.1-0.3s0-0.2,0.1-0.4
					c0-0.1,0-0.3,0-0.4s0-0.3,0-0.4s0-0.3,0-0.4s0-0.3,0-0.4s0-0.3-0.1-0.4c0-0.1-0.1-0.2-0.1-0.3c0-0.1-0.1-0.2-0.1-0.3
					s-0.1-0.1-0.2-0.2c-0.1,0-0.2-0.1-0.3-0.1s-0.2,0-0.3,0.1c-0.1,0-0.1,0.1-0.2,0.2s-0.1,0.2-0.1,0.3c0,0.1-0.1,0.2-0.1,0.3
					s0,0.2-0.1,0.4c0,0.1,0,0.3,0,0.4C31.4,29,31.4,29.2,31.4,29.3z"/>
				<path class="st47" d="M34.2,31.8c0-0.2,0-0.4,0-0.6s0.1-0.3,0.2-0.5c0.1-0.2,0.2-0.4,0.4-0.5c0.2-0.2,0.4-0.4,0.7-0.6
					c0.2-0.2,0.4-0.4,0.6-0.6c0.1-0.2,0.2-0.5,0.2-0.8s-0.1-0.5-0.2-0.7c-0.1-0.2-0.3-0.2-0.6-0.2c-0.1,0-0.2,0-0.3,0.1
					c-0.1,0-0.2,0.1-0.2,0.2c-0.1,0.1-0.1,0.2-0.1,0.3c0,0.1,0,0.2-0.1,0.3c0,0.1,0,0.2,0,0.4h-0.6v-0.2c0-0.2,0-0.4,0.1-0.6
					s0.1-0.3,0.2-0.5c0.1-0.1,0.2-0.2,0.4-0.3c0.2-0.1,0.4-0.1,0.6-0.1c0.4,0,0.7,0.1,1,0.4c0.2,0.3,0.3,0.6,0.3,1
					c0,0.2,0,0.4-0.1,0.5c0,0.2-0.1,0.3-0.2,0.4c-0.1,0.1-0.2,0.3-0.3,0.4S36,29.8,35.8,30c-0.2,0.2-0.3,0.3-0.4,0.4
					s-0.2,0.2-0.3,0.3s-0.1,0-0.1,0s-0.1,0.1-0.1,0.2s-0.1,0.1-0.1,0.2s0,0.1,0,0.2h2.1v0.5C36.9,31.8,34.2,31.8,34.2,31.8z"/>
			</g>
		</g>
		<g>
			<g>
				<path class="st47" d="M54.9,29.3c0-0.2,0-0.3,0-0.5c0-0.1,0-0.3,0-0.5S55,28,55,27.8c0-0.1,0.1-0.3,0.2-0.4
					c0.1-0.1,0.2-0.3,0.2-0.4c0.1-0.1,0.2-0.2,0.4-0.2c0.1-0.1,0.3-0.1,0.5-0.1s0.3,0,0.5,0.1s0.3,0.1,0.4,0.2
					c0.1,0.1,0.2,0.2,0.2,0.4c0.1,0.1,0.1,0.3,0.2,0.4s0.1,0.3,0.1,0.5s0,0.3,0,0.5c0,0.1,0,0.3,0,0.5c0,0.1,0,0.3,0,0.4
					s0,0.2,0,0.4c0,0.1,0,0.3,0,0.4s0,0.2-0.1,0.3s-0.1,0.2-0.1,0.3s-0.1,0.2-0.1,0.3c0,0.1-0.1,0.2-0.2,0.2s-0.1,0.1-0.2,0.2
					s-0.2,0.1-0.3,0.1s-0.2,0-0.4,0s-0.3,0-0.5-0.1c-0.1-0.1-0.3-0.1-0.4-0.2c-0.1-0.1-0.2-0.2-0.2-0.4c-0.1-0.1-0.1-0.3-0.2-0.4
					s-0.1-0.3-0.1-0.5s0-0.4,0-0.5S54.9,29.5,54.9,29.3z M55.5,29.3c0,0.2,0,0.4,0,0.5s0,0.3,0,0.5s0,0.3,0.1,0.4
					c0,0.1,0.1,0.2,0.1,0.3s0.1,0.2,0.2,0.2s0.2,0.1,0.3,0.1s0.2,0,0.3-0.1s0.1-0.1,0.2-0.2c0.1-0.1,0.1-0.2,0.1-0.3
					c0-0.1,0.1-0.2,0.1-0.3s0-0.2,0.1-0.4c0-0.1,0-0.3,0-0.4s0-0.3,0-0.4s0-0.3,0-0.4s0-0.3,0-0.4s0-0.3-0.1-0.4
					c0-0.1-0.1-0.2-0.1-0.3c0-0.1-0.1-0.2-0.1-0.3s-0.1-0.1-0.2-0.2c-0.1,0-0.2-0.1-0.3-0.1s-0.2,0-0.3,0.1c-0.1,0-0.1,0.1-0.2,0.2
					c-0.1,0.1-0.1,0.2-0.1,0.3c0,0.1-0.1,0.2-0.1,0.3s0,0.2-0.1,0.4c0,0.1,0,0.3,0,0.4C55.5,29,55.5,29.2,55.5,29.3z"/>
				<path class="st47" d="M58.1,30.5V30l1.9-3.3h0.5V30H61v0.5h-0.5v1.3H60v-1.3H58.1z M58.6,30H60v-2.4L58.6,30z"/>
			</g>
		</g>
		<g>
			<g>
				<path class="st47" d="M79,29.3c0-0.2,0-0.3,0-0.5c0-0.1,0-0.3,0-0.5s0.1-0.3,0.1-0.5c0-0.1,0.1-0.3,0.2-0.4s0.2-0.3,0.2-0.4
					c0.1-0.1,0.2-0.2,0.4-0.2c0.1-0.1,0.3-0.1,0.5-0.1s0.3,0,0.5,0.1s0.3,0.1,0.4,0.2s0.2,0.2,0.2,0.4c0.1,0.1,0.1,0.3,0.2,0.4
					s0.1,0.3,0.1,0.5s0,0.3,0,0.5c0,0.1,0,0.3,0,0.5c0,0.1,0,0.3,0,0.4s0,0.2,0,0.4c0,0.1,0,0.3,0,0.4s0,0.2-0.1,0.3
					s-0.1,0.2-0.1,0.3s-0.1,0.2-0.1,0.3c0,0.1-0.1,0.2-0.2,0.2s-0.1,0.1-0.2,0.2s-0.2,0.1-0.3,0.1c-0.1,0-0.2,0-0.4,0
					c-0.2,0-0.3,0-0.5-0.1c-0.1-0.1-0.3-0.1-0.4-0.2s-0.2-0.2-0.2-0.4c-0.1-0.1-0.1-0.3-0.2-0.4S79,30.5,79,30.3s0-0.4,0-0.5
					S79,29.5,79,29.3z M79.5,29.3c0,0.2,0,0.4,0,0.5s0,0.3,0,0.5s0,0.3,0.1,0.4c0,0.1,0.1,0.2,0.1,0.3s0.1,0.2,0.2,0.2
					s0.2,0.1,0.3,0.1c0.1,0,0.2,0,0.3-0.1s0.1-0.1,0.2-0.2s0.1-0.2,0.1-0.3c0-0.1,0.1-0.2,0.1-0.3s0-0.2,0.1-0.4c0-0.1,0-0.3,0-0.4
					s0-0.3,0-0.4s0-0.3,0-0.4s0-0.3,0-0.4s0-0.3-0.1-0.4c0-0.1-0.1-0.2-0.1-0.3c0-0.1-0.1-0.2-0.1-0.3s-0.1-0.1-0.2-0.2
					c-0.1,0-0.2-0.1-0.3-0.1c-0.1,0-0.2,0-0.3,0.1c-0.1,0-0.1,0.1-0.2,0.2s-0.1,0.2-0.1,0.3c0,0.1-0.1,0.2-0.1,0.3s0,0.2-0.1,0.4
					c0,0.1,0,0.3,0,0.4C79.5,29,79.5,29.2,79.5,29.3z"/>
				<path class="st47" d="M82.3,29.6c0-0.2,0-0.4,0-0.5s0-0.3,0.1-0.5c0-0.2,0.1-0.4,0.1-0.5s0.1-0.3,0.1-0.5
					c0.1-0.2,0.2-0.3,0.3-0.4c0.1-0.1,0.2-0.2,0.4-0.3s0.3-0.1,0.5-0.1c0.3,0,0.6,0.1,0.8,0.3c0.2,0.2,0.3,0.5,0.3,0.9h-0.6
					c0-0.3-0.1-0.4-0.2-0.5s-0.3-0.2-0.5-0.2c-0.1,0-0.2,0-0.3,0.1c-0.1,0.1-0.1,0.1-0.2,0.2S83,27.8,83,27.9c0,0.1-0.1,0.3-0.1,0.5
					s-0.1,0.3-0.1,0.4c0,0,0,0.1,0,0.2s0,0.2,0,0.3l0,0c0.1-0.2,0.2-0.4,0.4-0.5c0.2-0.1,0.4-0.2,0.5-0.2c0.2,0,0.4,0,0.6,0.1
					s0.3,0.2,0.4,0.3c0.1,0.1,0.2,0.3,0.2,0.5c0.1,0.2,0.1,0.4,0.1,0.6c0,0.5-0.1,1-0.4,1.3s-0.6,0.5-1,0.5c-0.1,0-0.3,0-0.4,0
					s-0.2-0.1-0.3-0.1s-0.2-0.1-0.2-0.2c-0.1-0.1-0.1-0.2-0.2-0.3c0-0.1-0.1-0.2-0.1-0.3s-0.1-0.2-0.1-0.3s0-0.2,0-0.4
					c0-0.1,0-0.3,0-0.4C82.3,29.8,82.3,29.7,82.3,29.6z M82.9,30.1c0,0.5,0.1,0.8,0.2,1s0.3,0.3,0.6,0.3c0.2,0,0.3,0,0.4-0.1
					s0.2-0.2,0.2-0.3c0.1-0.1,0.1-0.3,0.1-0.4s0-0.3,0-0.4c0-0.7-0.3-1.1-0.8-1.1C83.2,29.1,82.9,29.4,82.9,30.1z"/>
			</g>
		</g>
		<g>
			<g>
				<path class="st47" d="M103,29.3c0-0.2,0-0.3,0-0.5c0-0.1,0-0.3,0-0.5s0.1-0.3,0.1-0.5c0-0.1,0.1-0.3,0.2-0.4s0.2-0.3,0.2-0.4
					c0.1-0.1,0.2-0.2,0.4-0.2c0.1-0.1,0.3-0.1,0.5-0.1s0.3,0,0.5,0.1s0.3,0.1,0.4,0.2s0.2,0.2,0.2,0.4c0.1,0.1,0.1,0.3,0.2,0.4
					s0.1,0.3,0.1,0.5s0,0.3,0,0.5c0,0.1,0,0.3,0,0.5c0,0.1,0,0.3,0,0.4s0,0.2,0,0.4c0,0.1,0,0.3,0,0.4s0,0.2-0.1,0.3
					s-0.1,0.2-0.1,0.3s-0.1,0.2-0.1,0.3c0,0.1-0.1,0.2-0.2,0.2s-0.1,0.1-0.2,0.2s-0.2,0.1-0.3,0.1c-0.1,0-0.2,0-0.4,0
					c-0.2,0-0.3,0-0.5-0.1c-0.1-0.1-0.3-0.1-0.4-0.2s-0.2-0.2-0.2-0.4c-0.1-0.1-0.1-0.3-0.2-0.4s-0.1-0.3-0.1-0.5s0-0.4,0-0.5
					S103,29.5,103,29.3z M103.6,29.3c0,0.2,0,0.4,0,0.5s0,0.3,0,0.5s0,0.3,0.1,0.4c0,0.1,0.1,0.2,0.1,0.3s0.1,0.2,0.2,0.2
					s0.2,0.1,0.3,0.1c0.1,0,0.2,0,0.3-0.1s0.1-0.1,0.2-0.2s0.1-0.2,0.1-0.3c0-0.1,0.1-0.2,0.1-0.3s0-0.2,0.1-0.4c0-0.1,0-0.3,0-0.4
					s0-0.3,0-0.4s0-0.3,0-0.4s0-0.3,0-0.4s0-0.3-0.1-0.4c0-0.1-0.1-0.2-0.1-0.3c0-0.1-0.1-0.2-0.1-0.3s-0.1-0.1-0.2-0.2
					c-0.1,0-0.2-0.1-0.3-0.1c-0.1,0-0.2,0-0.3,0.1c-0.1,0-0.1,0.1-0.2,0.2s-0.1,0.2-0.1,0.3c0,0.1-0.1,0.2-0.1,0.3s0,0.2-0.1,0.4
					c0,0.1,0,0.3,0,0.4C103.6,29,103.6,29.2,103.6,29.3z"/>
				<path class="st47" d="M106.4,30.4c0-0.2,0-0.4,0.1-0.5c0.1-0.2,0.1-0.3,0.2-0.4s0.2-0.2,0.3-0.3s0.2-0.1,0.3-0.1l0,0
					c-0.3-0.1-0.5-0.2-0.6-0.4s-0.2-0.4-0.2-0.7c0-0.1,0-0.3,0.1-0.4c0-0.1,0.1-0.3,0.2-0.4s0.2-0.2,0.4-0.3
					c0.2-0.1,0.3-0.1,0.6-0.1c0.2,0,0.3,0,0.5,0.1c0.1,0,0.3,0.1,0.3,0.2s0.2,0.2,0.2,0.3c0.1,0.1,0.1,0.2,0.1,0.3s0,0.2,0,0.4
					c0,0.3-0.1,0.5-0.2,0.7s-0.3,0.3-0.6,0.4l0,0c0.3,0,0.5,0.2,0.6,0.4c0.2,0.2,0.3,0.5,0.3,0.9c0,0.5-0.1,0.9-0.4,1.1
					c-0.2,0.3-0.6,0.4-1,0.4c-0.5,0-0.8-0.1-1-0.4C106.5,31.3,106.4,30.9,106.4,30.4z M107,30.4c0,0.2,0,0.3,0,0.4s0.1,0.2,0.1,0.3
					s0.1,0.2,0.2,0.2c0.1,0.1,0.2,0.1,0.4,0.1c0.1,0,0.2,0,0.3-0.1s0.2-0.1,0.2-0.1c0.1-0.1,0.1-0.1,0.1-0.2s0.1-0.2,0.1-0.3
					c0-0.1,0-0.2,0-0.3c0-0.1,0-0.3,0-0.4s-0.1-0.2-0.1-0.3s-0.1-0.2-0.2-0.2c-0.1-0.1-0.2-0.1-0.4-0.1c-0.2,0-0.3,0.1-0.5,0.2
					s-0.2,0.2-0.3,0.4S107,30.2,107,30.4z M107.1,28c0,0.3,0.1,0.5,0.2,0.6s0.3,0.2,0.5,0.2c0.4,0,0.6-0.3,0.6-0.8
					c0-0.2-0.1-0.4-0.2-0.6c-0.1-0.1-0.3-0.2-0.5-0.2C107.3,27.3,107.1,27.5,107.1,28z"/>
			</g>
		</g>
		<g>
			<g>
				<path class="st47" d="M126.7,28.1v-0.4c0.2,0,0.4,0,0.5,0s0.2-0.1,0.4-0.1c0.1-0.1,0.2-0.2,0.2-0.3c0.1-0.1,0.1-0.3,0.1-0.5h0.4
					v5h-0.6v-3.7H126.7z"/>
				<path class="st47" d="M129.8,29.3c0-0.2,0-0.3,0-0.5c0-0.1,0-0.3,0-0.5s0.1-0.3,0.1-0.5c0-0.1,0.1-0.3,0.2-0.4
					c0.1-0.1,0.2-0.3,0.2-0.4c0.1-0.1,0.2-0.2,0.4-0.2c0.1-0.1,0.3-0.1,0.5-0.1s0.3,0,0.5,0.1s0.3,0.1,0.4,0.2
					c0.1,0.1,0.2,0.2,0.2,0.4c0.1,0.1,0.1,0.3,0.2,0.4s0.1,0.3,0.1,0.5s0,0.3,0,0.5c0,0.1,0,0.3,0,0.5c0,0.1,0,0.3,0,0.4
					s0,0.2,0,0.4c0,0.1,0,0.3,0,0.4s0,0.2-0.1,0.3s-0.1,0.2-0.1,0.3s-0.1,0.2-0.1,0.3c0,0.1-0.1,0.2-0.2,0.2s-0.1,0.1-0.2,0.2
					s-0.2,0.1-0.3,0.1s-0.2,0-0.4,0s-0.3,0-0.5-0.1c-0.1-0.1-0.3-0.1-0.4-0.2c-0.1-0.1-0.2-0.2-0.2-0.4c-0.1-0.1-0.1-0.3-0.2-0.4
					s-0.1-0.3-0.1-0.5s0-0.4,0-0.5S129.8,29.5,129.8,29.3z M130.4,29.3c0,0.2,0,0.4,0,0.5s0,0.3,0,0.5s0,0.3,0.1,0.4
					c0,0.1,0.1,0.2,0.1,0.3s0.1,0.2,0.2,0.2s0.2,0.1,0.3,0.1s0.2,0,0.3-0.1s0.1-0.1,0.2-0.2c0.1-0.1,0.1-0.2,0.1-0.3
					c0-0.1,0.1-0.2,0.1-0.3s0-0.2,0.1-0.4c0-0.1,0-0.3,0-0.4s0-0.3,0-0.4s0-0.3,0-0.4s0-0.3,0-0.4s0-0.3-0.1-0.4
					c0-0.1-0.1-0.2-0.1-0.3c0-0.1-0.1-0.2-0.1-0.3s-0.1-0.1-0.2-0.2c-0.1,0-0.2-0.1-0.3-0.1s-0.2,0-0.3,0.1c-0.1,0-0.1,0.1-0.2,0.2
					c-0.1,0.1-0.1,0.2-0.1,0.3c0,0.1-0.1,0.2-0.1,0.3s0,0.2-0.1,0.4c0,0.1,0,0.3,0,0.4C130.4,29,130.4,29.2,130.4,29.3z"/>
			</g>
		</g>
	</g>
	<g>
		<g>
			<g>
				<path class="st47" d="M30.8,84.7c0-0.2,0-0.3,0-0.5c0-0.1,0-0.3,0-0.5s0.1-0.3,0.1-0.5c0-0.1,0.1-0.3,0.2-0.4s0.2-0.3,0.2-0.4
					c0.1-0.1,0.2-0.2,0.4-0.2c0.1-0.1,0.3-0.1,0.5-0.1s0.3,0,0.5,0.1s0.3,0.1,0.4,0.2c0.1,0.1,0.2,0.2,0.2,0.4
					c0.1,0.1,0.1,0.3,0.2,0.4s0.1,0.3,0.1,0.5s0,0.3,0,0.5c0,0.1,0,0.3,0,0.5c0,0.1,0,0.3,0,0.4s0,0.2,0,0.4c0,0.1,0,0.3,0,0.4
					s0,0.2-0.1,0.3s-0.1,0.2-0.1,0.3s-0.1,0.2-0.1,0.3c0,0.1-0.1,0.2-0.2,0.2s-0.1,0.1-0.2,0.2s-0.2,0.1-0.3,0.1s-0.2,0-0.4,0
					s-0.3,0-0.5-0.1c-0.1-0.1-0.3-0.1-0.4-0.2s-0.2-0.2-0.2-0.4C31,86.5,31,86.3,31,86.2s-0.1-0.3-0.1-0.5s0-0.4,0-0.5
					S30.8,84.9,30.8,84.7z M31.4,84.7c0,0.2,0,0.4,0,0.5s0,0.3,0,0.5s0,0.3,0.1,0.4c0,0.1,0.1,0.2,0.1,0.3s0.1,0.2,0.2,0.2
					s0.2,0.1,0.3,0.1c0.1,0,0.2,0,0.3-0.1s0.1-0.1,0.2-0.2c0.1-0.1,0.1-0.2,0.1-0.3c0-0.1,0.1-0.2,0.1-0.3s0-0.2,0.1-0.4
					c0-0.1,0-0.3,0-0.4s0-0.3,0-0.4s0-0.3,0-0.4s0-0.3,0-0.4s0-0.3-0.1-0.4c0-0.1-0.1-0.2-0.1-0.3c0-0.1-0.1-0.2-0.1-0.3
					s-0.1-0.1-0.2-0.2c-0.1,0-0.2-0.1-0.3-0.1s-0.2,0-0.3,0.1c-0.1,0-0.1,0.1-0.2,0.2s-0.1,0.2-0.1,0.3c0,0.1-0.1,0.2-0.1,0.3
					s0,0.2-0.1,0.4c0,0.1,0,0.3,0,0.4C31.4,84.4,31.4,84.6,31.4,84.7z"/>
				<path class="st47" d="M34.4,83.5v-0.4c0.2,0,0.4,0,0.5,0s0.2-0.1,0.4-0.1c0.1-0.1,0.2-0.2,0.2-0.3c0.1-0.1,0.1-0.3,0.1-0.5H36v5
					h-0.6v-3.7H34.4z"/>
			</g>
		</g>
		<g>
			<g>
				<path class="st47" d="M54.9,84.7c0-0.2,0-0.3,0-0.5c0-0.1,0-0.3,0-0.5s0.1-0.3,0.1-0.5c0-0.1,0.1-0.3,0.2-0.4
					c0.1-0.1,0.2-0.3,0.2-0.4c0.1-0.1,0.2-0.2,0.4-0.2c0.1-0.1,0.3-0.1,0.5-0.1s0.3,0,0.5,0.1s0.3,0.1,0.4,0.2
					c0.1,0.1,0.2,0.2,0.2,0.4c0.1,0.1,0.1,0.3,0.2,0.4s0.1,0.3,0.1,0.5s0,0.3,0,0.5c0,0.1,0,0.3,0,0.5c0,0.1,0,0.3,0,0.4
					s0,0.2,0,0.4c0,0.1,0,0.3,0,0.4s0,0.2-0.1,0.3s-0.1,0.2-0.1,0.3s-0.1,0.2-0.1,0.3c0,0.1-0.1,0.2-0.2,0.2s-0.1,0.1-0.2,0.2
					s-0.2,0.1-0.3,0.1s-0.2,0-0.4,0s-0.3,0-0.5-0.1c-0.1-0.1-0.3-0.1-0.4-0.2c-0.1-0.1-0.2-0.2-0.2-0.4c-0.1-0.1-0.1-0.3-0.2-0.4
					s-0.1-0.3-0.1-0.5s0-0.4,0-0.5S54.9,84.9,54.9,84.7z M55.5,84.7c0,0.2,0,0.4,0,0.5s0,0.3,0,0.5s0,0.3,0.1,0.4
					c0,0.1,0.1,0.2,0.1,0.3s0.1,0.2,0.2,0.2s0.2,0.1,0.3,0.1s0.2,0,0.3-0.1s0.1-0.1,0.2-0.2c0.1-0.1,0.1-0.2,0.1-0.3
					c0-0.1,0.1-0.2,0.1-0.3s0-0.2,0.1-0.4c0-0.1,0-0.3,0-0.4s0-0.3,0-0.4s0-0.3,0-0.4s0-0.3,0-0.4s0-0.3-0.1-0.4
					c0-0.1-0.1-0.2-0.1-0.3c0-0.1-0.1-0.2-0.1-0.3s-0.1-0.1-0.2-0.2c-0.1,0-0.2-0.1-0.3-0.1s-0.2,0-0.3,0.1c-0.1,0-0.1,0.1-0.2,0.2
					c-0.1,0.1-0.1,0.2-0.1,0.3c0,0.1-0.1,0.2-0.1,0.3s0,0.2-0.1,0.4c0,0.1,0,0.3,0,0.4C55.5,84.4,55.5,84.6,55.5,84.7z"/>
				<path class="st47" d="M58.2,85.7h0.6c0,0.1,0,0.2,0,0.3c0,0.1,0,0.2,0.1,0.3c0,0.1,0.1,0.2,0.1,0.2c0.1,0.1,0.1,0.1,0.2,0.2
					c0.1,0,0.2,0.1,0.3,0.1c0.3,0,0.5-0.1,0.6-0.2c0.1-0.2,0.2-0.4,0.2-0.7c0-0.2,0-0.4-0.1-0.5c0-0.1-0.1-0.2-0.2-0.3
					c-0.1-0.1-0.2-0.1-0.4-0.2c-0.1,0-0.3,0-0.5,0v-0.5c0.4,0,0.6-0.1,0.8-0.2s0.3-0.3,0.3-0.7c0-0.6-0.2-0.8-0.7-0.8
					c-0.1,0-0.2,0-0.3,0.1S59,82.9,59,83c-0.1,0.1-0.1,0.2-0.1,0.3c0,0.1,0,0.2,0,0.4h-0.5c0-0.4,0.1-0.8,0.3-1.1
					c0.2-0.3,0.5-0.4,0.9-0.4s0.7,0.1,0.9,0.3s0.3,0.5,0.3,0.9c0,0.3-0.1,0.5-0.2,0.7c-0.1,0.2-0.3,0.3-0.6,0.4
					c0.3,0.1,0.5,0.2,0.7,0.4c0.1,0.2,0.2,0.5,0.2,0.8c0,0.4-0.1,0.8-0.3,1.1s-0.6,0.4-1,0.4c-0.2,0-0.4,0-0.6-0.1
					c-0.2-0.1-0.3-0.2-0.4-0.3c-0.1-0.1-0.2-0.3-0.2-0.5S58.2,85.9,58.2,85.7z"/>
			</g>
		</g>
		<g>
			<g>
				<path class="st47" d="M79,84.7c0-0.2,0-0.3,0-0.5c0-0.1,0-0.3,0-0.5s0.1-0.3,0.1-0.5c0-0.1,0.1-0.3,0.2-0.4s0.2-0.3,0.2-0.4
					c0.1-0.1,0.2-0.2,0.4-0.2c0.1-0.1,0.3-0.1,0.5-0.1s0.3,0,0.5,0.1s0.3,0.1,0.4,0.2s0.2,0.2,0.2,0.4c0.1,0.1,0.1,0.3,0.2,0.4
					s0.1,0.3,0.1,0.5s0,0.3,0,0.5c0,0.1,0,0.3,0,0.5c0,0.1,0,0.3,0,0.4s0,0.2,0,0.4c0,0.1,0,0.3,0,0.4s0,0.2-0.1,0.3
					s-0.1,0.2-0.1,0.3s-0.1,0.2-0.1,0.3c0,0.1-0.1,0.2-0.2,0.2s-0.1,0.1-0.2,0.2s-0.2,0.1-0.3,0.1c-0.1,0-0.2,0-0.4,0
					c-0.2,0-0.3,0-0.5-0.1c-0.1-0.1-0.3-0.1-0.4-0.2s-0.2-0.2-0.2-0.4c-0.1-0.1-0.1-0.3-0.2-0.4S79,85.9,79,85.7c0-0.2,0-0.4,0-0.5
					S79,84.9,79,84.7z M79.5,84.7c0,0.2,0,0.4,0,0.5s0,0.3,0,0.5s0,0.3,0.1,0.4c0,0.1,0.1,0.2,0.1,0.3s0.1,0.2,0.2,0.2
					s0.2,0.1,0.3,0.1c0.1,0,0.2,0,0.3-0.1s0.1-0.1,0.2-0.2s0.1-0.2,0.1-0.3c0-0.1,0.1-0.2,0.1-0.3s0-0.2,0.1-0.4c0-0.1,0-0.3,0-0.4
					s0-0.3,0-0.4s0-0.3,0-0.4s0-0.3,0-0.4s0-0.3-0.1-0.4c0-0.1-0.1-0.2-0.1-0.3c0-0.1-0.1-0.2-0.1-0.3s-0.1-0.1-0.2-0.2
					c-0.1,0-0.2-0.1-0.3-0.1c-0.1,0-0.2,0-0.3,0.1c-0.1,0-0.1,0.1-0.2,0.2s-0.1,0.2-0.1,0.3c0,0.1-0.1,0.2-0.1,0.3s0,0.2-0.1,0.4
					c0,0.1,0,0.3,0,0.4C79.5,84.4,79.5,84.6,79.5,84.7z"/>
				<path class="st47" d="M82.3,85.9h0.6c0,0.3,0.1,0.5,0.2,0.7s0.3,0.2,0.6,0.2c0.1,0,0.3,0,0.4-0.1s0.2-0.2,0.3-0.3
					c0.1-0.1,0.1-0.2,0.1-0.4s0-0.3,0-0.5c0-0.1,0-0.2,0-0.3c0-0.1,0-0.2-0.1-0.3s-0.1-0.2-0.1-0.3s-0.1-0.1-0.2-0.2
					c-0.1,0-0.2-0.1-0.4-0.1c-0.3,0-0.6,0.2-0.7,0.5h-0.5l0.3-2.6h2.1v0.5h-1.7L83,84.2c0.1-0.1,0.3-0.2,0.4-0.3
					c0.1-0.1,0.3-0.1,0.4-0.1c0.2,0,0.4,0,0.6,0.1s0.3,0.2,0.4,0.4s0.2,0.3,0.2,0.5s0.1,0.4,0.1,0.6s0,0.4,0,0.5
					c0,0.2-0.1,0.3-0.1,0.5s-0.2,0.3-0.3,0.4c-0.1,0.1-0.2,0.2-0.4,0.3c-0.2,0.1-0.3,0.1-0.5,0.1c-0.4,0-0.8-0.1-1-0.4
					C82.5,86.7,82.3,86.3,82.3,85.9z"/>
			</g>
		</g>
		<g>
			<g>
				<path class="st47" d="M103,84.7c0-0.2,0-0.3,0-0.5c0-0.1,0-0.3,0-0.5s0.1-0.3,0.1-0.5c0-0.1,0.1-0.3,0.2-0.4s0.2-0.3,0.2-0.4
					c0.1-0.1,0.2-0.2,0.4-0.2c0.1-0.1,0.3-0.1,0.5-0.1s0.3,0,0.5,0.1s0.3,0.1,0.4,0.2s0.2,0.2,0.2,0.4c0.1,0.1,0.1,0.3,0.2,0.4
					s0.1,0.3,0.1,0.5s0,0.3,0,0.5c0,0.1,0,0.3,0,0.5c0,0.1,0,0.3,0,0.4s0,0.2,0,0.4c0,0.1,0,0.3,0,0.4s0,0.2-0.1,0.3
					s-0.1,0.2-0.1,0.3s-0.1,0.2-0.1,0.3c0,0.1-0.1,0.2-0.2,0.2s-0.1,0.1-0.2,0.2s-0.2,0.1-0.3,0.1c-0.1,0-0.2,0-0.4,0
					c-0.2,0-0.3,0-0.5-0.1c-0.1-0.1-0.3-0.1-0.4-0.2s-0.2-0.2-0.2-0.4c-0.1-0.1-0.1-0.3-0.2-0.4s-0.1-0.3-0.1-0.5s0-0.4,0-0.5
					S103,84.9,103,84.7z M103.6,84.7c0,0.2,0,0.4,0,0.5s0,0.3,0,0.5s0,0.3,0.1,0.4c0,0.1,0.1,0.2,0.1,0.3s0.1,0.2,0.2,0.2
					s0.2,0.1,0.3,0.1c0.1,0,0.2,0,0.3-0.1s0.1-0.1,0.2-0.2s0.1-0.2,0.1-0.3c0-0.1,0.1-0.2,0.1-0.3s0-0.2,0.1-0.4c0-0.1,0-0.3,0-0.4
					s0-0.3,0-0.4s0-0.3,0-0.4s0-0.3,0-0.4s0-0.3-0.1-0.4c0-0.1-0.1-0.2-0.1-0.3c0-0.1-0.1-0.2-0.1-0.3s-0.1-0.1-0.2-0.2
					c-0.1,0-0.2-0.1-0.3-0.1c-0.1,0-0.2,0-0.3,0.1c-0.1,0-0.1,0.1-0.2,0.2s-0.1,0.2-0.1,0.3c0,0.1-0.1,0.2-0.1,0.3s0,0.2-0.1,0.4
					c0,0.1,0,0.3,0,0.4C103.6,84.4,103.6,84.6,103.6,84.7z"/>
				<path class="st47" d="M106.4,82.7v-0.5h2.8v0.5c-0.5,0.6-0.9,1.3-1.1,2.1c-0.3,0.8-0.5,1.6-0.5,2.4H107c0.1-0.8,0.3-1.6,0.6-2.3
					c0.3-0.8,0.7-1.5,1.2-2.1L106.4,82.7L106.4,82.7z"/>
			</g>
		</g>
		<g>
			<g>
				<path class="st47" d="M126.5,84.7c0-0.2,0-0.3,0-0.5c0-0.1,0-0.3,0-0.5s0.1-0.3,0.1-0.5c0-0.1,0.1-0.3,0.2-0.4s0.2-0.3,0.2-0.4
					c0.1-0.1,0.2-0.2,0.4-0.2c0.1-0.1,0.3-0.1,0.5-0.1s0.3,0,0.5,0.1s0.3,0.1,0.4,0.2c0.1,0.1,0.2,0.2,0.2,0.4
					c0.1,0.1,0.1,0.3,0.2,0.4s0.1,0.3,0.1,0.5s0,0.3,0,0.5c0,0.1,0,0.3,0,0.5c0,0.1,0,0.3,0,0.4s0,0.2,0,0.4c0,0.1,0,0.3,0,0.4
					s0,0.2-0.1,0.3s-0.1,0.2-0.1,0.3s-0.1,0.2-0.1,0.3c0,0.1-0.1,0.2-0.2,0.2s-0.1,0.1-0.2,0.2s-0.2,0.1-0.3,0.1s-0.2,0-0.4,0
					c-0.2,0-0.3,0-0.5-0.1c-0.1-0.1-0.3-0.1-0.4-0.2s-0.2-0.2-0.2-0.4c-0.1-0.1-0.1-0.3-0.2-0.4s-0.1-0.3-0.1-0.5s0-0.4,0-0.5
					S126.5,84.9,126.5,84.7z M127.1,84.7c0,0.2,0,0.4,0,0.5s0,0.3,0,0.5s0,0.3,0.1,0.4c0,0.1,0.1,0.2,0.1,0.3s0.1,0.2,0.2,0.2
					s0.2,0.1,0.3,0.1c0.1,0,0.2,0,0.3-0.1c0.1-0.1,0.1-0.1,0.2-0.2c0.1-0.1,0.1-0.2,0.1-0.3c0-0.1,0.1-0.2,0.1-0.3s0-0.2,0.1-0.4
					c0-0.1,0-0.3,0-0.4s0-0.3,0-0.4s0-0.3,0-0.4s0-0.3,0-0.4s0-0.3-0.1-0.4c0-0.1-0.1-0.2-0.1-0.3c0-0.1-0.1-0.2-0.1-0.3
					s-0.1-0.1-0.2-0.2c-0.1,0-0.2-0.1-0.3-0.1c-0.1,0-0.2,0-0.3,0.1c-0.1,0-0.1,0.1-0.2,0.2s-0.1,0.2-0.1,0.3c0,0.1-0.1,0.2-0.1,0.3
					s0,0.2-0.1,0.4c0,0.1,0,0.3,0,0.4C127.1,84.4,127.1,84.6,127.1,84.7z"/>
				<path class="st47" d="M129.8,83.9c0-0.5,0.1-1,0.4-1.3c0.3-0.3,0.6-0.5,1-0.5c0.2,0,0.4,0,0.5,0.1c0.2,0.1,0.3,0.1,0.4,0.2
					s0.2,0.2,0.3,0.3c0.1,0.1,0.1,0.3,0.2,0.4c0,0.1,0.1,0.3,0.1,0.4s0,0.3,0,0.5s0,0.3,0,0.5s0,0.4,0,0.5s0,0.3,0,0.5
					s0,0.4-0.1,0.5c0,0.1-0.1,0.3-0.2,0.5c-0.1,0.2-0.2,0.3-0.3,0.4s-0.2,0.2-0.4,0.3c-0.2,0.1-0.3,0.1-0.5,0.1
					c-0.4,0-0.7-0.1-0.9-0.3s-0.3-0.5-0.3-0.9h0.6c0,0.2,0.1,0.4,0.2,0.5c0.1,0.1,0.3,0.2,0.5,0.2c0.1,0,0.2,0,0.2,0
					c0.1,0,0.1-0.1,0.2-0.2c0.1-0.1,0.1-0.1,0.1-0.2s0.1-0.2,0.1-0.3c0-0.1,0.1-0.2,0.1-0.3c0-0.1,0-0.2,0.1-0.3s0-0.2,0-0.3
					c0-0.1,0-0.2,0-0.3l0,0c-0.1,0.2-0.2,0.4-0.4,0.5s-0.3,0.2-0.5,0.2s-0.4,0-0.6-0.1c-0.2-0.1-0.3-0.2-0.4-0.3s-0.2-0.3-0.2-0.5
					C129.8,84.3,129.8,84.1,129.8,83.9z M130.4,83.8c0,0.1,0,0.2,0,0.3c0,0.1,0,0.2,0.1,0.3c0,0.1,0.1,0.2,0.1,0.3s0.1,0.1,0.2,0.2
					c0.1,0,0.2,0.1,0.3,0.1c0.2,0,0.3,0,0.4-0.1c0.1-0.1,0.2-0.1,0.3-0.2s0.1-0.2,0.1-0.3c0-0.1,0-0.2,0-0.4c0-0.2,0-0.3,0-0.4
					s-0.1-0.3-0.1-0.4c-0.1-0.1-0.1-0.2-0.3-0.3c-0.1-0.1-0.3-0.1-0.4-0.1c-0.2,0-0.3,0-0.4,0.1c-0.1,0.1-0.2,0.2-0.2,0.3
					c-0.1,0.1-0.1,0.2-0.1,0.4S130.4,83.7,130.4,83.8z"/>
			</g>
		</g>
	</g>
	<g>
		<g>
			<g>
				<path class="st47" d="M150,28.1v-0.4c0.2,0,0.4,0,0.5,0s0.2-0.1,0.4-0.1c0.1-0.1,0.2-0.2,0.2-0.3c0.1-0.1,0.1-0.3,0.1-0.5h0.4v5
					H151v-3.7H150z"/>
				<path class="st47" d="M153.2,31.8c0-0.2,0-0.4,0-0.6s0.1-0.3,0.2-0.5c0.1-0.2,0.2-0.4,0.4-0.5c0.2-0.2,0.4-0.4,0.7-0.6
					c0.2-0.2,0.4-0.4,0.6-0.6c0.1-0.2,0.2-0.5,0.2-0.8s-0.1-0.5-0.2-0.7c-0.1-0.2-0.3-0.2-0.6-0.2c-0.1,0-0.2,0-0.3,0.1
					c-0.1,0-0.2,0.1-0.2,0.2c-0.1,0.1-0.1,0.2-0.1,0.3c0,0.1,0,0.2-0.1,0.3c0,0.1,0,0.2,0,0.4h-0.6v-0.2c0-0.2,0-0.4,0.1-0.6
					s0.1-0.3,0.2-0.5c0.1-0.1,0.2-0.2,0.4-0.3c0.2-0.1,0.4-0.1,0.6-0.1c0.4,0,0.7,0.1,1,0.4c0.2,0.3,0.3,0.6,0.3,1
					c0,0.2,0,0.4-0.1,0.5c0,0.2-0.1,0.3-0.2,0.4c-0.1,0.1-0.2,0.3-0.3,0.4s-0.2,0.2-0.4,0.4c-0.2,0.2-0.3,0.3-0.4,0.4
					s-0.2,0.2-0.3,0.3s-0.2,0.2-0.2,0.2s-0.1,0.1-0.1,0.2s-0.1,0.1-0.1,0.2s0,0.1,0,0.2h2.1V32h-2.6V31.8z"/>
			</g>
		</g>
		<g>
			<g>
				<path class="st47" d="M174.1,28.1v-0.4c0.2,0,0.4,0,0.5,0s0.2-0.1,0.4-0.1c0.1-0.1,0.2-0.2,0.2-0.3c0.1-0.1,0.1-0.3,0.1-0.5h0.4
					v5h-0.6v-3.7H174.1z"/>
				<path class="st47" d="M177.1,30.5V30l1.9-3.3h0.5V30h0.5v0.5h-0.5v1.3H179v-1.3H177.1z M177.6,30h1.4v-2.4L177.6,30z"/>
			</g>
		</g>
		<g>
			<g>
				<path class="st47" d="M198.2,28.1v-0.4c0.2,0,0.4,0,0.5,0s0.2-0.1,0.4-0.1c0.1-0.1,0.2-0.2,0.2-0.3c0.1-0.1,0.1-0.3,0.1-0.5h0.4
					v5h-0.6v-3.7H198.2z"/>
				<path class="st47" d="M201.3,29.6c0-0.2,0-0.4,0-0.5s0-0.3,0.1-0.5c0-0.2,0.1-0.4,0.1-0.5s0.1-0.3,0.1-0.5
					c0.1-0.2,0.2-0.3,0.3-0.4s0.2-0.2,0.4-0.3s0.3-0.1,0.5-0.1c0.3,0,0.6,0.1,0.8,0.3c0.2,0.2,0.3,0.5,0.3,0.9h-0.6
					c0-0.3-0.1-0.4-0.2-0.5s-0.3-0.2-0.5-0.2c-0.1,0-0.2,0-0.3,0.1s-0.1,0.1-0.2,0.2s-0.1,0.2-0.1,0.3c0,0.1-0.1,0.3-0.1,0.5
					s-0.1,0.3-0.1,0.4c0,0,0,0.1,0,0.2s0,0.2,0,0.3l0,0c0.1-0.2,0.2-0.4,0.4-0.5s0.4-0.2,0.5-0.2c0.2,0,0.4,0,0.6,0.1
					c0.2,0.1,0.3,0.2,0.4,0.3c0.1,0.1,0.2,0.3,0.2,0.5c0.1,0.2,0.1,0.4,0.1,0.6c0,0.5-0.1,1-0.4,1.3c-0.3,0.3-0.6,0.5-1,0.5
					c-0.1,0-0.3,0-0.4,0s-0.2-0.1-0.3-0.1c-0.1-0.1-0.2-0.1-0.2-0.2c-0.1-0.1-0.1-0.2-0.2-0.3c0-0.1-0.1-0.2-0.1-0.3
					c0-0.1-0.1-0.2-0.1-0.3s0-0.2,0-0.4c0-0.1,0-0.3,0-0.4S201.3,29.7,201.3,29.6z M201.9,30.1c0,0.5,0.1,0.8,0.2,1
					c0.1,0.2,0.3,0.3,0.6,0.3c0.2,0,0.3,0,0.4-0.1c0.1-0.1,0.2-0.2,0.2-0.3c0.1-0.1,0.1-0.3,0.1-0.4s0-0.3,0-0.4
					c0-0.7-0.3-1.1-0.8-1.1C202.2,29.1,201.9,29.4,201.9,30.1z"/>
			</g>
		</g>
		<g>
			<g>
				<path class="st47" d="M222.2,28.1v-0.4c0.2,0,0.4,0,0.5,0s0.2-0.1,0.4-0.1c0.1-0.1,0.2-0.2,0.2-0.3c0.1-0.1,0.1-0.3,0.1-0.5h0.4
					v5h-0.6v-3.7H222.2z"/>
				<path class="st47" d="M225.4,30.4c0-0.2,0-0.4,0.1-0.5c0.1-0.2,0.1-0.3,0.2-0.4c0.1-0.1,0.2-0.2,0.3-0.3
					c0.1-0.1,0.2-0.1,0.3-0.1l0,0c-0.3-0.1-0.5-0.2-0.6-0.4c-0.1-0.2-0.2-0.4-0.2-0.7c0-0.1,0-0.3,0.1-0.4c0-0.1,0.1-0.3,0.2-0.4
					c0.1-0.1,0.2-0.2,0.4-0.3c0.2-0.1,0.3-0.1,0.6-0.1c0.2,0,0.3,0,0.5,0.1c0.1,0,0.3,0.1,0.3,0.2c0.1,0.1,0.2,0.2,0.2,0.3
					c0.1,0.1,0.1,0.2,0.1,0.3c0,0.1,0,0.2,0,0.4c0,0.3-0.1,0.5-0.2,0.7c-0.1,0.2-0.3,0.3-0.6,0.4l0,0c0.3,0,0.5,0.2,0.6,0.4
					c0.2,0.2,0.3,0.5,0.3,0.9c0,0.5-0.1,0.9-0.4,1.1c-0.2,0.3-0.6,0.4-1,0.4c-0.5,0-0.8-0.1-1-0.4C225.5,31.3,225.4,30.9,225.4,30.4
					z M226,30.4c0,0.2,0,0.3,0,0.4s0.1,0.2,0.1,0.3c0.1,0.1,0.1,0.2,0.2,0.2c0.1,0.1,0.2,0.1,0.4,0.1c0.1,0,0.2,0,0.3-0.1
					c0.1,0,0.2-0.1,0.2-0.1c0.1-0.1,0.1-0.1,0.1-0.2s0.1-0.2,0.1-0.3c0-0.1,0-0.2,0-0.3c0-0.1,0-0.3,0-0.4s-0.1-0.2-0.1-0.3
					c-0.1-0.1-0.1-0.2-0.2-0.2c-0.1-0.1-0.2-0.1-0.4-0.1s-0.3,0.1-0.5,0.2s-0.2,0.2-0.3,0.4S226,30.2,226,30.4z M226.1,28
					c0,0.3,0.1,0.5,0.2,0.6c0.1,0.1,0.3,0.2,0.5,0.2c0.4,0,0.6-0.3,0.6-0.8c0-0.2-0.1-0.4-0.2-0.6c-0.1-0.1-0.3-0.2-0.5-0.2
					C226.4,27.3,226.1,27.5,226.1,28z"/>
			</g>
		</g>
		<g>
			<g>
				<path class="st47" d="M245.5,31.8c0-0.2,0-0.4,0-0.6s0.1-0.3,0.2-0.5c0.1-0.2,0.2-0.4,0.4-0.5c0.2-0.2,0.4-0.4,0.7-0.6
					c0.2-0.2,0.4-0.4,0.6-0.6c0.1-0.2,0.2-0.5,0.2-0.8s-0.1-0.5-0.2-0.7c-0.1-0.2-0.3-0.2-0.6-0.2c-0.1,0-0.2,0-0.3,0.1
					c-0.1,0-0.2,0.1-0.2,0.2c-0.1,0.1-0.1,0.2-0.1,0.3c0,0.1,0,0.2-0.1,0.3c0,0.1,0,0.2,0,0.4h-0.6v-0.2c0-0.2,0-0.4,0.1-0.6
					s0.1-0.3,0.2-0.5c0.1-0.1,0.2-0.2,0.4-0.3c0.2-0.1,0.4-0.1,0.6-0.1c0.4,0,0.7,0.1,1,0.4c0.2,0.3,0.3,0.6,0.3,1
					c0,0.2,0,0.4-0.1,0.5c0,0.2-0.1,0.3-0.2,0.4c-0.1,0.1-0.2,0.3-0.3,0.4s-0.2,0.2-0.4,0.4c-0.2,0.2-0.3,0.3-0.4,0.4
					s-0.2,0.2-0.3,0.3s-0.2,0.2-0.2,0.2s-0.1,0.1-0.1,0.2s-0.1,0.1-0.1,0.2s0,0.1,0,0.2h2.1V32h-2.6V31.8z"/>
				<path class="st47" d="M248.8,29.3c0-0.2,0-0.3,0-0.5c0-0.1,0-0.3,0-0.5s0-0.3,0.1-0.5c0-0.1,0.1-0.3,0.2-0.4
					c0.1-0.1,0.2-0.3,0.2-0.4c0.1-0.1,0.2-0.2,0.4-0.2c0.1-0.1,0.3-0.1,0.5-0.1s0.3,0,0.5,0.1s0.3,0.1,0.4,0.2
					c0.1,0.1,0.2,0.2,0.2,0.4c0.1,0.1,0.1,0.3,0.2,0.4c0,0.1,0.1,0.3,0.1,0.5s0,0.3,0,0.5c0,0.1,0,0.3,0,0.5c0,0.1,0,0.3,0,0.4
					s0,0.2,0,0.4c0,0.1,0,0.3,0,0.4s0,0.2-0.1,0.3c0,0.1-0.1,0.2-0.1,0.3c0,0.1-0.1,0.2-0.1,0.3c0,0.1-0.1,0.2-0.2,0.2
					s-0.1,0.1-0.2,0.2c-0.1,0.1-0.2,0.1-0.3,0.1s-0.2,0-0.4,0s-0.3,0-0.5-0.1c-0.1-0.1-0.3-0.1-0.4-0.2c-0.1-0.1-0.2-0.2-0.2-0.4
					c-0.1-0.1-0.1-0.3-0.2-0.4c0-0.1-0.1-0.3-0.1-0.5s0-0.4,0-0.5C248.8,29.7,248.8,29.5,248.8,29.3z M249.4,29.3c0,0.2,0,0.4,0,0.5
					s0,0.3,0,0.5s0,0.3,0.1,0.4c0,0.1,0.1,0.2,0.1,0.3c0.1,0.1,0.1,0.2,0.2,0.2s0.2,0.1,0.3,0.1s0.2,0,0.3-0.1
					c0.1,0,0.1-0.1,0.2-0.2c0.1-0.1,0.1-0.2,0.1-0.3s0.1-0.2,0.1-0.3c0-0.1,0-0.2,0.1-0.4c0-0.1,0-0.3,0-0.4s0-0.3,0-0.4
					s0-0.3,0-0.4s0-0.3,0-0.4s0-0.3-0.1-0.4c0-0.1-0.1-0.2-0.1-0.3c0-0.1-0.1-0.2-0.1-0.3s-0.1-0.1-0.2-0.2c-0.1,0-0.2-0.1-0.3-0.1
					s-0.2,0-0.3,0.1c-0.1,0-0.1,0.1-0.2,0.2c-0.1,0.1-0.1,0.2-0.1,0.3c0,0.1-0.1,0.2-0.1,0.3c0,0.1,0,0.2-0.1,0.4c0,0.1,0,0.3,0,0.4
					C249.4,29,249.4,29.2,249.4,29.3z"/>
			</g>
		</g>
		<g>
			<g>
				<path class="st47" d="M268,31.8c0-0.2,0-0.4,0-0.6s0.1-0.3,0.2-0.5s0.2-0.4,0.4-0.5c0.2-0.2,0.4-0.4,0.7-0.6
					c0.2-0.2,0.4-0.4,0.6-0.6c0.1-0.2,0.2-0.5,0.2-0.8s-0.1-0.5-0.2-0.7s-0.3-0.2-0.6-0.2c-0.1,0-0.2,0-0.3,0.1
					c-0.1,0-0.2,0.1-0.2,0.2c-0.1,0.1-0.1,0.2-0.1,0.3c0,0.1,0,0.2-0.1,0.3c0,0.1,0,0.2,0,0.4H268v-0.2c0-0.2,0-0.4,0.1-0.6
					s0.1-0.3,0.2-0.5c0.1-0.1,0.2-0.2,0.4-0.3c0.2-0.1,0.4-0.1,0.6-0.1c0.4,0,0.7,0.1,1,0.4c0.2,0.3,0.3,0.6,0.3,1
					c0,0.2,0,0.4-0.1,0.5c0,0.2-0.1,0.3-0.2,0.4s-0.2,0.3-0.3,0.4c-0.1,0.1-0.2,0.2-0.4,0.4c-0.2,0.2-0.3,0.3-0.4,0.4
					s-0.2,0.2-0.3,0.3s-0.2,0.2-0.2,0.2s-0.1,0.1-0.1,0.2s-0.1,0.1-0.1,0.2s0,0.1,0,0.2h2.1V32H268V31.8z"/>
				<path class="st47" d="M271.3,31.8c0-0.2,0-0.4,0-0.6s0.1-0.3,0.2-0.5s0.2-0.4,0.4-0.5c0.2-0.2,0.4-0.4,0.7-0.6
					c0.2-0.2,0.4-0.4,0.6-0.6s0.2-0.5,0.2-0.8s-0.1-0.5-0.2-0.7s-0.3-0.2-0.6-0.2c-0.1,0-0.2,0-0.3,0.1c-0.1,0-0.2,0.1-0.2,0.2
					c-0.1,0.1-0.1,0.2-0.1,0.3c0,0.1,0,0.2-0.1,0.3s0,0.2,0,0.4h-0.6v-0.2c0-0.2,0-0.4,0.1-0.6s0.1-0.3,0.2-0.5
					c0.1-0.1,0.2-0.2,0.4-0.3c0.2-0.1,0.4-0.1,0.6-0.1c0.4,0,0.7,0.1,1,0.4c0.2,0.3,0.3,0.6,0.3,1c0,0.2,0,0.4-0.1,0.5
					c0,0.2-0.1,0.3-0.2,0.4s-0.2,0.3-0.3,0.4c-0.1,0.1-0.2,0.2-0.4,0.4c-0.2,0.2-0.3,0.3-0.4,0.4s-0.2,0.2-0.3,0.3s-0.2,0.2-0.2,0.2
					s-0.1,0.1-0.1,0.2s0.1-0.1,0.1,0s0,0.1,0,0.2h2.1v0.5C274.1,31.8,271.3,31.8,271.3,31.8z"/>
			</g>
		</g>
	</g>
	<g>
		<g>
			<g>
				<path class="st47" d="M150,83.5v-0.4c0.2,0,0.4,0,0.5,0s0.2-0.1,0.4-0.1c0.1-0.1,0.2-0.2,0.2-0.3c0.1-0.1,0.1-0.3,0.1-0.5h0.4v5
					H151v-3.7H150z"/>
				<path class="st47" d="M153.4,83.5v-0.4c0.2,0,0.4,0,0.5,0s0.2-0.1,0.4-0.1c0.1-0.1,0.2-0.2,0.2-0.3c0.1-0.1,0.1-0.3,0.1-0.5h0.4
					v5h-0.6v-3.7H153.4z"/>
			</g>
		</g>
		<g>
			<g>
				<path class="st47" d="M174.1,83.5v-0.4c0.2,0,0.4,0,0.5,0s0.2-0.1,0.4-0.1c0.1-0.1,0.2-0.2,0.2-0.3c0.1-0.1,0.1-0.3,0.1-0.5h0.4
					v5h-0.6v-3.7H174.1z"/>
				<path class="st47" d="M177.2,85.7h0.6c0,0.1,0,0.2,0,0.3c0,0.1,0,0.2,0.1,0.3c0,0.1,0.1,0.2,0.1,0.2c0.1,0.1,0.1,0.1,0.2,0.2
					c0.1,0,0.2,0.1,0.3,0.1c0.3,0,0.5-0.1,0.6-0.2c0.1-0.2,0.2-0.4,0.2-0.7c0-0.2,0-0.4-0.1-0.5c0-0.1-0.1-0.2-0.2-0.3
					s-0.2-0.1-0.4-0.2c-0.1,0-0.3,0-0.5,0v-0.5c0.4,0,0.6-0.1,0.8-0.2s0.3-0.3,0.3-0.7c0-0.6-0.2-0.8-0.7-0.8c-0.1,0-0.2,0-0.3,0.1
					S178,82.9,178,83c-0.1,0.1-0.1,0.2-0.1,0.3s0,0.2,0,0.4h-0.5c0-0.4,0.1-0.8,0.3-1.1c0.2-0.3,0.5-0.4,0.9-0.4s0.7,0.1,0.9,0.3
					c0.2,0.2,0.3,0.5,0.3,0.9c0,0.3-0.1,0.5-0.2,0.7c-0.1,0.2-0.3,0.3-0.6,0.4c0.3,0.1,0.5,0.2,0.7,0.4c0.1,0.2,0.2,0.5,0.2,0.8
					c0,0.4-0.1,0.8-0.3,1.1c-0.2,0.3-0.6,0.4-1,0.4c-0.2,0-0.4,0-0.6-0.1c-0.2-0.1-0.3-0.2-0.4-0.3c-0.1-0.1-0.2-0.3-0.2-0.5
					S177.2,85.9,177.2,85.7z"/>
			</g>
		</g>
		<g>
			<g>
				<path class="st47" d="M198.2,83.5v-0.4c0.2,0,0.4,0,0.5,0s0.2-0.1,0.4-0.1c0.1-0.1,0.2-0.2,0.2-0.3c0.1-0.1,0.1-0.3,0.1-0.5h0.4
					v5h-0.6v-3.7H198.2z"/>
				<path class="st47" d="M201.4,85.9h0.6c0,0.3,0.1,0.5,0.2,0.7c0.1,0.2,0.3,0.2,0.6,0.2c0.1,0,0.3,0,0.4-0.1
					c0.1-0.1,0.2-0.2,0.3-0.3c0.1-0.1,0.1-0.2,0.1-0.4c0-0.1,0-0.3,0-0.5c0-0.1,0-0.2,0-0.3c0-0.1,0-0.2-0.1-0.3
					c0-0.1-0.1-0.2-0.1-0.3c-0.1-0.1-0.1-0.1-0.2-0.2c-0.1,0-0.2-0.1-0.4-0.1c-0.3,0-0.6,0.2-0.7,0.5h-0.5l0.3-2.6h2.1v0.5h-1.7
					l-0.2,1.5c0.1-0.1,0.3-0.2,0.4-0.3c0.1-0.1,0.3-0.1,0.4-0.1c0.2,0,0.4,0,0.6,0.1s0.3,0.2,0.4,0.4c0.1,0.2,0.2,0.3,0.2,0.5
					s0.1,0.4,0.1,0.6s0,0.4,0,0.5c0,0.2-0.1,0.3-0.1,0.5s-0.2,0.3-0.3,0.4s-0.2,0.2-0.4,0.3c-0.2,0.1-0.3,0.1-0.5,0.1
					c-0.4,0-0.8-0.1-1-0.4C201.5,86.7,201.4,86.3,201.4,85.9z"/>
			</g>
		</g>
		<g>
			<g>
				<path class="st47" d="M222.2,83.5v-0.4c0.2,0,0.4,0,0.5,0s0.2-0.1,0.4-0.1c0.1-0.1,0.2-0.2,0.2-0.3c0.1-0.1,0.1-0.3,0.1-0.5h0.4
					v5h-0.6v-3.7H222.2z"/>
				<path class="st47" d="M225.4,82.7v-0.5h2.8v0.5c-0.5,0.6-0.9,1.3-1.1,2.1c-0.3,0.8-0.5,1.6-0.5,2.4H226c0.1-0.8,0.3-1.6,0.6-2.3
					c0.3-0.8,0.7-1.5,1.2-2.1L225.4,82.7L225.4,82.7z"/>
			</g>
		</g>
		<g>
			<g>
				<path class="st47" d="M244.7,83.5v-0.4c0.2,0,0.4,0,0.5,0s0.2-0.1,0.3-0.1c0.1-0.1,0.2-0.2,0.2-0.3s0.1-0.3,0.1-0.5h0.4v5h-0.6
					v-3.7H244.7z"/>
				<path class="st47" d="M247.9,83.9c0-0.5,0.1-1,0.4-1.3s0.6-0.5,1-0.5c0.2,0,0.4,0,0.5,0.1c0.2,0.1,0.3,0.1,0.4,0.2
					c0.1,0.1,0.2,0.2,0.3,0.3c0.1,0.1,0.1,0.3,0.2,0.4c0,0.1,0.1,0.3,0.1,0.4c0,0.2,0,0.3,0,0.5s0,0.3,0,0.5s0,0.4,0,0.5
					s0,0.3,0,0.5s0,0.4-0.1,0.5s-0.1,0.3-0.2,0.5c-0.1,0.2-0.2,0.3-0.3,0.4s-0.2,0.2-0.4,0.3c-0.2,0.1-0.3,0.1-0.5,0.1
					c-0.4,0-0.7-0.1-0.9-0.3s-0.3-0.5-0.3-0.9h0.6c0,0.2,0.1,0.4,0.2,0.5c0.1,0.1,0.3,0.2,0.5,0.2c0.1,0,0.2,0,0.2,0
					c0.1,0,0.1-0.1,0.2-0.2c0.1-0.1,0.1-0.1,0.1-0.2s0.1-0.2,0.1-0.3c0-0.1,0.1-0.2,0.1-0.3c0-0.1,0-0.2,0.1-0.3s0-0.2,0-0.3
					c0-0.1,0-0.2,0-0.3l0,0c-0.1,0.2-0.2,0.4-0.4,0.5s-0.3,0.2-0.5,0.2s-0.4,0-0.6-0.1c-0.2-0.1-0.3-0.2-0.4-0.3
					c-0.1-0.1-0.2-0.3-0.2-0.5C247.9,84.3,247.9,84.1,247.9,83.9z M248.4,83.8c0,0.1,0,0.2,0,0.3c0,0.1,0,0.2,0.1,0.3
					c0,0.1,0.1,0.2,0.1,0.3s0.1,0.1,0.2,0.2c0.1,0,0.2,0.1,0.3,0.1c0.2,0,0.3,0,0.4-0.1c0.1-0.1,0.2-0.1,0.3-0.2s0.1-0.2,0.1-0.3
					c0-0.1,0-0.2,0-0.4c0-0.2,0-0.3,0-0.4s-0.1-0.3-0.1-0.4c-0.1-0.1-0.1-0.2-0.3-0.3c-0.1-0.1-0.2-0.1-0.4-0.1s-0.3,0-0.4,0.1
					c-0.1,0.1-0.2,0.2-0.2,0.3c-0.1,0.1-0.1,0.2-0.1,0.4S248.4,83.7,248.4,83.8z"/>
			</g>
		</g>
		<g>
			<g>
				<path class="st47" d="M268.6,87.2c0-0.2,0-0.4,0-0.6s0.1-0.3,0.2-0.5s0.2-0.4,0.4-0.5c0.2-0.2,0.4-0.4,0.7-0.6
					c0.2-0.2,0.4-0.4,0.6-0.6c0.1-0.2,0.2-0.5,0.2-0.8s-0.1-0.5-0.2-0.7s-0.3-0.2-0.6-0.2c-0.1,0-0.2,0-0.3,0.1
					c-0.1,0-0.2,0.1-0.2,0.2c-0.1,0.1-0.1,0.2-0.1,0.3c0,0.1,0,0.2-0.1,0.3c0,0.1,0,0.2,0,0.4h-0.6v-0.2c0-0.2,0-0.4,0.1-0.6
					s0.1-0.3,0.2-0.5c0.1-0.1,0.2-0.2,0.4-0.3c0.2-0.1,0.4-0.1,0.6-0.1c0.4,0,0.7,0.1,1,0.4c0.2,0.3,0.3,0.6,0.3,1
					c0,0.2,0,0.4-0.1,0.5c0,0.2-0.1,0.3-0.2,0.4s-0.2,0.3-0.3,0.4c-0.1,0.1-0.2,0.2-0.4,0.4c-0.2,0.2-0.3,0.3-0.4,0.4
					s-0.2,0.2-0.3,0.3s-0.2,0.2-0.2,0.2s-0.1,0.1-0.1,0.2s-0.1,0.1-0.1,0.2s0,0.1,0,0.2h2.1v0.5h-2.6V87.2z"/>
				<path class="st47" d="M272.1,83.5v-0.4c0.2,0,0.4,0,0.5,0s0.2-0.1,0.4-0.1c0.1-0.1,0.2-0.2,0.2-0.3c0.1-0.1,0.1-0.3,0.1-0.5h0.4
					v5h-0.6v-3.7H272.1z"/>
			</g>
		</g>
	</g>
	<g>
		<g>
			<path class="st48" d="M16.8,75.7l-6.3-1.8V73l6.3-1.8V72L15,72.5v2l1.8,0.5V75.7z M14.4,74.3v-1.7l-3.3,0.8v0L14.4,74.3z"/>
			<path class="st48" d="M16.9,71.1v1l-1.8,0.5v1.8l1.8,0.5v1L10.5,74v-1.1l0.1,0L16.9,71.1z M16.7,72v-0.6l-6.1,1.7v0.8l6.1,1.7V75
				l-1.8-0.5v-2.1L16.7,72z M14.5,72.6v1.9L11,73.6v-0.1l0.1,0L14.5,72.6z M14.3,74.2v-1.4l-2.9,0.7L14.3,74.2z"/>
		</g>
		<g>
			<path class="st48" d="M16.8,70.5h-6.3v-1.6c0-0.6,0.1-1,0.4-1.3c0.3-0.3,0.7-0.4,1.1-0.4c0.4,0,0.6,0.1,0.9,0.2
				c0.2,0.2,0.4,0.4,0.5,0.7h0c0-0.3,0.2-0.6,0.5-0.8c0.3-0.2,0.6-0.3,1-0.3c0.6,0,1,0.2,1.3,0.5c0.3,0.3,0.5,0.8,0.5,1.3V70.5z
				 M13.2,69.8v-0.9c0-0.4-0.1-0.6-0.2-0.8c-0.2-0.2-0.4-0.3-0.8-0.3c-0.3,0-0.6,0.1-0.7,0.3c-0.2,0.2-0.2,0.4-0.2,0.8v0.9H13.2z
				 M16.2,69.8v-1c0-0.4-0.1-0.6-0.3-0.8c-0.2-0.2-0.5-0.3-0.9-0.3c-0.8,0-1.2,0.4-1.2,1.1v1H16.2z"/>
			<path class="st48" d="M16.9,68.8v1.8h-6.4v-1.7c0-0.6,0.1-1,0.4-1.3c0.3-0.3,0.7-0.5,1.2-0.5c0.4,0,0.7,0.1,0.9,0.3
				c0.2,0.1,0.3,0.3,0.4,0.5c0.1-0.2,0.2-0.4,0.4-0.6c0.3-0.2,0.7-0.3,1.1-0.3c0.6,0,1.1,0.2,1.4,0.5C16.8,67.7,16.9,68.2,16.9,68.8
				z M16.7,70.4v-1.6c0-0.6-0.1-1-0.4-1.3C16,67.2,15.6,67,15,67c-0.4,0-0.7,0.1-1,0.3c-0.3,0.2-0.4,0.4-0.4,0.7l0,0.1h-0.1l0-0.1
				c-0.1-0.3-0.2-0.5-0.4-0.6c-0.2-0.1-0.5-0.2-0.8-0.2c-0.5,0-0.8,0.1-1.1,0.4c-0.3,0.3-0.4,0.7-0.4,1.2v1.6H16.7z M16.3,68.8v1.1
				h-2.5v-1.1c0-0.8,0.4-1.2,1.3-1.2c0.4,0,0.7,0.1,1,0.3C16.2,68.1,16.3,68.4,16.3,68.8z M16.1,69.7v-0.9c0-0.3-0.1-0.6-0.3-0.8
				c-0.2-0.2-0.4-0.2-0.8-0.2c-0.7,0-1.1,0.3-1.1,1.1v0.9H16.1z M13.3,68.9v1h-2.2v-1c0-0.4,0.1-0.6,0.3-0.8
				c0.2-0.2,0.4-0.3,0.8-0.3c0.4,0,0.7,0.1,0.9,0.3C13.2,68.3,13.3,68.5,13.3,68.9z M13.1,69.7v-0.8c0-0.3-0.1-0.6-0.2-0.8
				c-0.1-0.2-0.4-0.2-0.7-0.2c-0.3,0-0.5,0.1-0.7,0.2c-0.1,0.2-0.2,0.4-0.2,0.7v0.8H13.1z"/>
		</g>
		<g>
			<path class="st48" d="M13.7,66c-0.2,0-0.4,0-0.6,0s-0.4,0-0.6-0.1c-0.2,0-0.4-0.1-0.6-0.1c-0.2-0.1-0.4-0.1-0.5-0.2
				c-0.2-0.1-0.3-0.2-0.4-0.4c-0.1-0.1-0.2-0.3-0.3-0.5s-0.1-0.4-0.1-0.7c0-0.2,0-0.4,0.1-0.6c0-0.2,0.1-0.3,0.2-0.4
				s0.2-0.2,0.3-0.3c0.1-0.1,0.2-0.2,0.4-0.3c0.1-0.1,0.3-0.1,0.4-0.2s0.3-0.1,0.5-0.1s0.3-0.1,0.5-0.1s0.3,0,0.5,0
				c0.2,0,0.3,0,0.5,0c0.3,0,0.5,0,0.7,0c0.2,0,0.4,0,0.7,0.1c0.2,0,0.4,0.1,0.6,0.1s0.3,0.1,0.5,0.3c0.2,0.1,0.3,0.2,0.4,0.4
				c0.1,0.1,0.2,0.3,0.3,0.5C17,63.5,17,63.7,17,64c0,0.3,0,0.5-0.1,0.7c-0.1,0.2-0.1,0.4-0.3,0.5c-0.1,0.1-0.2,0.3-0.4,0.4
				c-0.2,0.1-0.3,0.2-0.5,0.2c-0.2,0.1-0.4,0.1-0.6,0.1c-0.2,0-0.5,0.1-0.7,0.1C14.2,66,14,66,13.7,66z M13.6,65.3c0.4,0,0.7,0,1,0
				c0.3,0,0.5-0.1,0.8-0.1c0.2-0.1,0.4-0.1,0.6-0.2c0.1-0.1,0.2-0.2,0.3-0.4c0.1-0.2,0.1-0.4,0.1-0.6c0-0.2,0-0.4-0.1-0.5
				c-0.1-0.1-0.1-0.3-0.2-0.4c-0.1-0.1-0.2-0.2-0.4-0.2c-0.1-0.1-0.3-0.1-0.5-0.1c-0.2,0-0.4-0.1-0.7-0.1c-0.2,0-0.5,0-0.8,0
				c-0.3,0-0.6,0-0.8,0c-0.2,0-0.5,0.1-0.7,0.1c-0.2,0.1-0.4,0.1-0.5,0.2c-0.1,0.1-0.3,0.2-0.3,0.4c-0.1,0.2-0.1,0.3-0.1,0.6
				c0,0.2,0,0.4,0.1,0.5s0.2,0.3,0.3,0.4c0.1,0.1,0.3,0.2,0.5,0.2c0.2,0.1,0.4,0.1,0.7,0.1C13,65.3,13.3,65.3,13.6,65.3z"/>
			<path class="st48" d="M17.1,64c0,0.3,0,0.5-0.1,0.7c-0.1,0.2-0.2,0.4-0.3,0.5c-0.1,0.1-0.3,0.3-0.4,0.4c-0.2,0.1-0.3,0.2-0.5,0.3
				c-0.2,0.1-0.4,0.1-0.6,0.2c-0.2,0-0.5,0.1-0.7,0.1c-0.2,0-0.5,0-0.7,0c-0.2,0-0.4,0-0.6,0c-0.2,0-0.4,0-0.6-0.1
				c-0.2,0-0.4-0.1-0.6-0.1c-0.2-0.1-0.4-0.1-0.6-0.3c-0.2-0.1-0.3-0.2-0.5-0.4c-0.1-0.1-0.2-0.3-0.3-0.5c-0.1-0.2-0.1-0.5-0.1-0.7
				c0-0.2,0-0.4,0.1-0.6c0-0.2,0.1-0.3,0.2-0.5c0.1-0.1,0.2-0.3,0.3-0.4c0.1-0.1,0.2-0.2,0.4-0.3c0.1-0.1,0.3-0.1,0.4-0.2
				c0.2-0.1,0.3-0.1,0.5-0.1c0.2,0,0.3-0.1,0.5-0.1c0.2,0,0.3,0,0.5,0c0.2,0,0.3,0,0.5,0c0.3,0,0.5,0,0.7,0c0.2,0,0.4,0,0.7,0.1
				c0.2,0,0.5,0.1,0.6,0.2c0.2,0.1,0.4,0.2,0.5,0.3c0.2,0.1,0.3,0.2,0.4,0.4c0.1,0.2,0.2,0.3,0.3,0.5C17,63.5,17.1,63.7,17.1,64z
				 M10.6,64c0,0.2,0,0.5,0.1,0.7c0.1,0.2,0.2,0.4,0.3,0.5c0.1,0.1,0.3,0.2,0.4,0.3c0.2,0.1,0.3,0.2,0.5,0.2
				c0.2,0.1,0.4,0.1,0.6,0.1c0.2,0,0.4,0.1,0.6,0.1c0.2,0,0.4,0,0.6,0c0.3,0,0.5,0,0.7,0c0.2,0,0.4,0,0.7-0.1c0.2,0,0.4-0.1,0.6-0.1
				c0.2-0.1,0.3-0.1,0.5-0.2c0.2-0.1,0.3-0.2,0.4-0.3c0.1-0.1,0.2-0.3,0.2-0.5c0.1-0.2,0.1-0.4,0.1-0.7s0-0.5-0.1-0.7
				c-0.1-0.2-0.1-0.4-0.2-0.5c-0.1-0.1-0.2-0.3-0.4-0.3c-0.2-0.1-0.3-0.2-0.5-0.2c-0.2-0.1-0.4-0.1-0.6-0.1c-0.2,0-0.5-0.1-0.7-0.1
				c-0.2,0-0.5,0-0.7,0c-0.2,0-0.3,0-0.5,0c-0.2,0-0.3,0-0.5,0c-0.2,0-0.3,0-0.5,0.1c-0.1,0-0.3,0.1-0.5,0.1
				c-0.2,0.1-0.3,0.1-0.4,0.2c-0.1,0.1-0.2,0.2-0.3,0.3c-0.1,0.1-0.2,0.2-0.3,0.3c-0.1,0.1-0.1,0.3-0.2,0.4
				C10.6,63.6,10.6,63.8,10.6,64z M16.4,64c0,0.2,0,0.4-0.1,0.6c-0.1,0.2-0.2,0.3-0.4,0.4c-0.1,0.1-0.4,0.2-0.6,0.2
				c-0.2,0.1-0.5,0.1-0.8,0.1c-0.3,0-0.6,0-1,0c-0.3,0-0.6,0-0.8,0c-0.2,0-0.5-0.1-0.7-0.1c-0.2-0.1-0.4-0.1-0.6-0.2
				c-0.2-0.1-0.3-0.2-0.4-0.4C11,64.4,11,64.2,11,64c0-0.2,0-0.4,0.1-0.6c0.1-0.2,0.2-0.3,0.4-0.4c0.2-0.1,0.3-0.2,0.6-0.3
				c0.2-0.1,0.5-0.1,0.7-0.1c0.2,0,0.5,0,0.8,0c0.3,0,0.6,0,0.8,0c0.2,0,0.5,0,0.7,0.1c0.2,0,0.4,0.1,0.6,0.2
				c0.2,0.1,0.3,0.2,0.4,0.3c0.1,0.1,0.2,0.2,0.3,0.4C16.4,63.6,16.4,63.8,16.4,64z M11.2,64c0,0.2,0,0.4,0.1,0.5
				c0.1,0.1,0.2,0.3,0.3,0.3c0.1,0.1,0.3,0.2,0.5,0.2c0.2,0.1,0.4,0.1,0.7,0.1c0.2,0,0.5,0,0.8,0c0.4,0,0.7,0,1,0
				c0.3,0,0.5-0.1,0.7-0.1c0.2-0.1,0.4-0.1,0.5-0.2c0.1-0.1,0.2-0.2,0.3-0.4c0.1-0.1,0.1-0.3,0.1-0.5c0-0.2,0-0.3-0.1-0.5
				c0-0.1-0.1-0.2-0.2-0.3c-0.1-0.1-0.2-0.2-0.4-0.2c-0.1-0.1-0.3-0.1-0.5-0.1c-0.2,0-0.4-0.1-0.7-0.1c-0.2,0-0.5,0-0.8,0
				c-0.3,0-0.6,0-0.8,0c-0.2,0-0.5,0.1-0.7,0.1c-0.2,0.1-0.4,0.1-0.5,0.2c-0.1,0.1-0.2,0.2-0.3,0.4C11.2,63.6,11.2,63.8,11.2,64z"/>
		</g>
		<g>
			<path class="st48" d="M16.8,58.7h-6.3v-2.9h0.6V58h5.6V58.7z"/>
			<path class="st48" d="M16.9,57.9v0.9h-6.4v-3.1h0.8v2.2H16.9z M16.7,58.6v-0.5h-5.6v-2.2h-0.4v2.8H16.7z"/>
		</g>
		<g>
			<path class="st48" d="M16.8,56l-6.3-1.8v-0.9l6.3-1.8v0.8L15,52.8v2l1.8,0.5V56z M14.4,54.6V53l-3.3,0.8v0L14.4,54.6z"/>
			<path class="st48" d="M16.9,51.5v1l-1.8,0.5v1.8l1.8,0.5v1l-6.4-1.8v-1.1l0.1,0L16.9,51.5z M16.7,52.3v-0.6l-6.1,1.7v0.8l6.1,1.7
				v-0.6l-1.8-0.5v-2.1L16.7,52.3z M14.5,52.9v1.9L11,53.9v-0.1l0.1,0L14.5,52.9z M14.3,54.5v-1.4l-2.9,0.7L14.3,54.5z"/>
		</g>
		<g>
			<path class="st48" d="M14.9,51v-0.7c0.2,0,0.5,0,0.6-0.1c0.2,0,0.3-0.1,0.5-0.2c0.1-0.1,0.2-0.2,0.3-0.4c0.1-0.2,0.1-0.4,0.1-0.6
				c0-0.2,0-0.4-0.1-0.6c-0.1-0.2-0.2-0.3-0.3-0.4c-0.1-0.1-0.3-0.1-0.4-0.2c-0.1,0-0.3-0.1-0.5-0.1c-0.3,0-0.6,0.1-0.8,0.3
				s-0.4,0.5-0.4,0.8v0.6h-0.6v-0.5c0-0.3-0.1-0.6-0.3-0.8c-0.2-0.2-0.5-0.3-0.8-0.3c-0.3,0-0.6,0.1-0.8,0.3s-0.3,0.4-0.3,0.8
				c0,0.3,0.1,0.5,0.3,0.7s0.5,0.3,0.8,0.4v0.7c-0.6-0.1-1-0.3-1.3-0.6c-0.3-0.3-0.5-0.7-0.5-1.3c0-0.5,0.1-0.9,0.4-1.2
				c0.3-0.3,0.7-0.5,1.1-0.5c0.4,0,0.7,0.1,1,0.3c0.2,0.2,0.4,0.4,0.5,0.7c0.1-0.4,0.3-0.7,0.5-0.9c0.3-0.2,0.7-0.3,1.1-0.3
				c0.2,0,0.3,0,0.5,0s0.3,0.1,0.5,0.2c0.2,0.1,0.3,0.2,0.4,0.3c0.1,0.1,0.2,0.3,0.3,0.6c0.1,0.2,0.1,0.5,0.1,0.8
				c0,0.3,0,0.6-0.1,0.9c-0.1,0.2-0.2,0.4-0.4,0.6c-0.2,0.1-0.4,0.3-0.7,0.3C15.5,50.9,15.2,51,14.9,51z"/>
			<path class="st48" d="M17.1,49.1c0,0.3-0.1,0.7-0.2,0.9c-0.1,0.3-0.3,0.5-0.5,0.6c-0.2,0.2-0.4,0.3-0.7,0.3
				c-0.3,0.1-0.5,0.1-0.9,0.1l-0.1,0v-0.9l0.1,0c0.2,0,0.4,0,0.6-0.1c0.2,0,0.3-0.1,0.4-0.2c0.1-0.1,0.2-0.2,0.3-0.3
				c0.1-0.1,0.1-0.3,0.1-0.6c0-0.2,0-0.4-0.1-0.5c-0.1-0.1-0.2-0.3-0.3-0.3c-0.1-0.1-0.2-0.1-0.4-0.2c-0.1,0-0.3-0.1-0.4-0.1
				c-0.3,0-0.5,0.1-0.8,0.3C14.1,48.5,14,48.7,14,49v0.7h-0.8v-0.6c0-0.3-0.1-0.5-0.2-0.7c-0.2-0.2-0.4-0.2-0.7-0.2
				c-0.3,0-0.6,0.1-0.7,0.2c-0.2,0.2-0.3,0.4-0.3,0.7c0,0.3,0.1,0.5,0.3,0.7c0.2,0.2,0.5,0.3,0.8,0.3l0.1,0V51l-0.1,0
				c-0.6-0.1-1-0.3-1.3-0.6c-0.3-0.3-0.5-0.8-0.5-1.3c0-0.5,0.2-0.9,0.5-1.3c0.3-0.3,0.7-0.5,1.2-0.5c0.4,0,0.7,0.1,1,0.3
				c0.2,0.1,0.3,0.3,0.5,0.5c0.1-0.3,0.3-0.5,0.5-0.7c0.3-0.2,0.7-0.3,1.2-0.3c0.2,0,0.3,0,0.5,0c0.2,0,0.3,0.1,0.5,0.2
				c0.2,0.1,0.3,0.2,0.5,0.4c0.1,0.1,0.3,0.3,0.3,0.6C17,48.5,17.1,48.8,17.1,49.1z M15,50.9c0.3,0,0.5-0.1,0.7-0.1
				c0.2-0.1,0.4-0.2,0.6-0.3c0.2-0.1,0.3-0.3,0.4-0.5c0.1-0.2,0.1-0.5,0.1-0.8c0-0.3,0-0.6-0.1-0.8c-0.1-0.2-0.2-0.4-0.3-0.5
				c-0.1-0.1-0.3-0.2-0.4-0.3c-0.2-0.1-0.3-0.1-0.5-0.2c-0.1,0-0.3,0-0.4,0c-0.4,0-0.8,0.1-1.1,0.3c-0.3,0.2-0.4,0.5-0.5,0.8
				l-0.1,0.3l-0.1-0.3c-0.1-0.3-0.3-0.5-0.5-0.7c-0.2-0.2-0.5-0.2-0.9-0.2c-0.4,0-0.8,0.1-1,0.4c-0.3,0.3-0.4,0.7-0.4,1.1
				c0,0.5,0.1,0.9,0.4,1.2c0.3,0.3,0.7,0.5,1.1,0.5v-0.5c-0.3,0-0.6-0.2-0.8-0.4c-0.2-0.2-0.3-0.5-0.3-0.8c0-0.3,0.1-0.6,0.3-0.8
				c0.2-0.2,0.5-0.3,0.9-0.3c0.4,0,0.7,0.1,0.9,0.3c0.2,0.2,0.3,0.5,0.3,0.8v0.4h0.4V49c0-0.4,0.1-0.7,0.4-0.9
				c0.3-0.2,0.6-0.3,0.9-0.3c0.2,0,0.3,0,0.5,0.1c0.2,0,0.3,0.1,0.4,0.2c0.1,0.1,0.3,0.2,0.3,0.4c0.1,0.2,0.1,0.4,0.1,0.6
				c0,0.2,0,0.4-0.1,0.6c-0.1,0.2-0.2,0.3-0.3,0.4c-0.1,0.1-0.3,0.2-0.5,0.2c-0.2,0-0.3,0.1-0.6,0.1V50.9z"/>
		</g>
		<g>
			<path class="st48" d="M16.8,46.6l-6.3-1.8v-0.9l6.3-1.8v0.8L15,43.4v2l1.8,0.5V46.6z M14.4,45.2v-1.7l-3.3,0.8v0L14.4,45.2z"/>
			<path class="st48" d="M16.9,42v1l-1.8,0.5v1.8l1.8,0.5v1l-6.4-1.8v-1.1l0.1,0L16.9,42z M16.7,42.8v-0.6L10.7,44v0.8l6.1,1.7v-0.6
				l-1.8-0.5v-2.1L16.7,42.8z M14.5,43.4v1.9L11,44.4v-0.1l0.1,0L14.5,43.4z M14.3,45.1v-1.4l-2.9,0.7L14.3,45.1z"/>
		</g>
	</g>
</g>
</svg>
