<?xml version="1.0" encoding="utf-8"?>
<!-- Generator: Adobe Illustrator 27.0.0, SVG Export Plug-In . SVG Version: 6.00 Build 0)  -->
<svg version="1.1" id="Layer_1" xmlns="http://www.w3.org/2000/svg" xmlns:xlink="http://www.w3.org/1999/xlink" x="0px" y="0px"
	 viewBox="0 0 310.1 108.9" style="enable-background:new 0 0 310.1 108.9;" xml:space="preserve">
<style type="text/css">
	.st0{fill:none;stroke:#ADB9BC;stroke-width:0.75;stroke-miterlimit:10;stroke-dasharray:3;}
	.st1{fill:#F2F2F2;}
	.st2{fill:#3B5059;}
	.st3{fill:none;stroke:url(#SVGID_1_);stroke-miterlimit:10;}
	.st4{fill:none;stroke:url(#SVGID_00000150085621909639698430000006034246693706873741_);stroke-miterlimit:10;}
	.st5{fill:none;stroke:url(#SVGID_00000029041464893701066630000016591193458964731794_);stroke-miterlimit:10;}
	.st6{fill:none;stroke:url(#SVGID_00000039839624590505066100000008044623463839197608_);stroke-miterlimit:10;}
	.st7{fill:none;stroke:url(#SVGID_00000075123832582921384240000010408915318986589829_);stroke-miterlimit:10;}
	.st8{fill:none;stroke:url(#SVGID_00000099643732870925310630000010373510223050668973_);stroke-miterlimit:10;}
	.st9{fill:none;stroke:url(#SVGID_00000018946623429218696220000006027788484872761228_);stroke-miterlimit:10;}
	.st10{fill:none;stroke:url(#SVGID_00000017475257761939553630000016428988485829780359_);stroke-miterlimit:10;}
	.st11{fill:none;stroke:url(#SVGID_00000071533693193946102690000013794106564361957530_);stroke-miterlimit:10;}
	.st12{fill:none;stroke:url(#SVGID_00000168085146560338206960000004383568652024628921_);stroke-miterlimit:10;}
	.st13{fill:none;stroke:url(#SVGID_00000083052636033034408060000004510969391476306337_);stroke-miterlimit:10;}
	.st14{fill:none;stroke:url(#SVGID_00000064335309914603057430000002413703873080210839_);stroke-miterlimit:10;}
	.st15{fill:none;stroke:url(#SVGID_00000124129186470154641500000017437282663705433472_);stroke-miterlimit:10;}
	.st16{fill:none;stroke:url(#SVGID_00000049217144689407188220000011845237865640876731_);stroke-miterlimit:10;}
	.st17{fill:none;stroke:url(#SVGID_00000149349506101286379710000008313276231561777321_);stroke-miterlimit:10;}
	.st18{fill:none;stroke:url(#SVGID_00000035530555735266185590000006796679193862119608_);stroke-miterlimit:10;}
	.st19{fill:none;stroke:url(#SVGID_00000004534091432934819760000009140832773214533010_);stroke-miterlimit:10;}
	.st20{fill:none;stroke:url(#SVGID_00000133495974807608853150000018011507952314726297_);stroke-miterlimit:10;}
	.st21{fill:none;stroke:url(#SVGID_00000140731558977307905220000016801440905705944741_);stroke-miterlimit:10;}
	.st22{fill:none;stroke:url(#SVGID_00000002359102002846909570000007569808797236687499_);stroke-miterlimit:10;}
	.st23{fill:none;stroke:url(#SVGID_00000065067501174569394060000001962212771233781394_);stroke-miterlimit:10;}
	.st24{fill:none;stroke:url(#SVGID_00000151519221573804992650000009497812239141911708_);stroke-miterlimit:10;}
	.st25{fill:url(#SVGID_00000128453423549917905170000008499272708685278118_);}
	.st26{fill:url(#SVGID_00000164480066887525980760000013102849503811645086_);}
	.st27{fill:url(#SVGID_00000127742009386196999880000009305638659894098351_);}
	.st28{fill:url(#SVGID_00000089546843165895126130000000046668486351056539_);}
	.st29{fill:url(#SVGID_00000172408461985794189440000012931934181684438417_);}
	.st30{fill:url(#SVGID_00000034075980734965287390000004347936626409234305_);}
	.st31{fill:url(#SVGID_00000006676701406544744500000002787256213059633551_);}
	.st32{fill:url(#SVGID_00000059289252317964152770000008863776988705543345_);}
	.st33{fill:url(#SVGID_00000104669215234143477320000007822260533684432513_);}
	.st34{fill:url(#SVGID_00000056411181297319478560000010080918308884244112_);}
	.st35{fill:url(#SVGID_00000115503884945303819160000004816503629764943496_);}
	.st36{fill:url(#SVGID_00000082339294962986325370000015624485712184229532_);}
	.st37{fill:url(#SVGID_00000068636055080008724150000014031409347958444436_);}
	.st38{fill:url(#SVGID_00000073693631212449053280000010618801262295523484_);}
	.st39{fill:url(#SVGID_00000070093681541303306540000005660158587937060530_);}
	.st40{fill:url(#SVGID_00000177466555558517519320000016548069626271689906_);}
	.st41{fill:url(#SVGID_00000005248665842218604440000009721951829528913313_);}
	.st42{fill:url(#SVGID_00000146498187529845681760000009047908052444979645_);}
	.st43{fill:url(#SVGID_00000172405947680327979790000013606617672514060698_);}
	.st44{fill:url(#SVGID_00000053533183195527426560000012018256788888219778_);}
	.st45{fill:url(#SVGID_00000069377734732239801610000000956622899589526404_);}
	.st46{fill:url(#SVGID_00000003811288181790667690000000994013298046352526_);}
	.st47{opacity:0.9;fill:none;stroke:#FFFFFF;stroke-width:0.5;stroke-miterlimit:10;}
	.st48{fill:#868686;}
</style>
<g>
	<g>
		<path class="st0" d="M290.7,105.8H14.1C8.2,105.8,3.4,101,3.4,95V14.3c0-5.9,4.8-10.7,9.7-10.7h281.2c6.9,0,11.7,4.8,11.7,10.7
			v76.1C306,98.9,299.1,105.8,290.7,105.8z"/>
		<path class="st1" d="M274,87.5H25.3c-3.9,0-7-3.1-7-7V30c0-3.9,3.1-7,7-7H274c3.9,0,7,3.1,7,7v50.5C281,84.4,277.9,87.5,274,87.5z
			"/>
		<g>
			<g>
				<path class="st2" d="M14.5,68.3l-5.7-1.6v-0.8l5.7-1.6v0.7l-1.7,0.5v1.8l1.7,0.4V68.3z M12.3,67v-1.5l-3.1,0.7v0L12.3,67z"/>
				<path class="st2" d="M14.5,63.5H8.7V62c0-0.5,0.1-0.9,0.4-1.2s0.6-0.4,1.1-0.4c0.3,0,0.6,0.1,0.8,0.2s0.4,0.4,0.4,0.6h0
					c0-0.3,0.2-0.5,0.4-0.7c0.3-0.2,0.6-0.3,1-0.3c0.5,0,0.9,0.1,1.2,0.4s0.4,0.7,0.4,1.2V63.5z M11.2,62.8V62
					c0-0.3-0.1-0.6-0.2-0.7c-0.1-0.2-0.4-0.2-0.7-0.2c-0.3,0-0.5,0.1-0.7,0.2c-0.1,0.2-0.2,0.4-0.2,0.7v0.9H11.2z M13.9,62.8v-0.9
					c0-0.3-0.1-0.6-0.3-0.8c-0.2-0.2-0.4-0.2-0.8-0.2c-0.7,0-1.1,0.4-1.1,1.1v0.9H13.9z"/>
				<path class="st2" d="M11.6,59.4c-0.2,0-0.4,0-0.6,0c-0.2,0-0.4,0-0.6-0.1c-0.2,0-0.4-0.1-0.6-0.1c-0.2-0.1-0.3-0.1-0.5-0.2
					c-0.2-0.1-0.3-0.2-0.4-0.3s-0.2-0.3-0.3-0.5c-0.1-0.2-0.1-0.4-0.1-0.6c0-0.2,0-0.4,0.1-0.5c0-0.2,0.1-0.3,0.2-0.4
					c0.1-0.1,0.2-0.2,0.3-0.3c0.1-0.1,0.2-0.2,0.3-0.2c0.1-0.1,0.2-0.1,0.4-0.2s0.3-0.1,0.4-0.1c0.1,0,0.3-0.1,0.5-0.1
					c0.2,0,0.3,0,0.5,0s0.3,0,0.4,0c0.2,0,0.5,0,0.7,0s0.4,0,0.6,0.1c0.2,0,0.4,0.1,0.6,0.1c0.2,0.1,0.3,0.1,0.5,0.2
					c0.2,0.1,0.3,0.2,0.4,0.3s0.2,0.3,0.2,0.5c0.1,0.2,0.1,0.4,0.1,0.6s0,0.4-0.1,0.6c-0.1,0.2-0.1,0.3-0.2,0.5s-0.2,0.2-0.4,0.3
					c-0.2,0.1-0.3,0.2-0.5,0.2c-0.2,0.1-0.4,0.1-0.6,0.1c-0.2,0-0.4,0.1-0.6,0.1C12.1,59.4,11.9,59.4,11.6,59.4z M11.5,58.7
					c0.4,0,0.7,0,0.9,0c0.2,0,0.5-0.1,0.7-0.1c0.2-0.1,0.4-0.1,0.5-0.2c0.1-0.1,0.2-0.2,0.3-0.4c0.1-0.1,0.1-0.3,0.1-0.5
					c0-0.2,0-0.3-0.1-0.5c0-0.1-0.1-0.2-0.2-0.3c-0.1-0.1-0.2-0.2-0.4-0.2c-0.1-0.1-0.3-0.1-0.5-0.1c-0.2,0-0.4-0.1-0.6-0.1
					c-0.2,0-0.5,0-0.8,0c-0.3,0-0.5,0-0.7,0c-0.2,0-0.4,0.1-0.6,0.1c-0.2,0.1-0.4,0.1-0.5,0.2S9.4,56.8,9.3,57
					c-0.1,0.1-0.1,0.3-0.1,0.5c0,0.2,0,0.4,0.1,0.5c0.1,0.1,0.2,0.3,0.3,0.3c0.1,0.1,0.3,0.2,0.5,0.2c0.2,0.1,0.4,0.1,0.6,0.1
					C11,58.7,11.2,58.7,11.5,58.7z"/>
				<path class="st2" d="M14.5,52.7H8.7V50h0.6V52h5.2V52.7z"/>
				<path class="st2" d="M14.5,50.2l-5.7-1.6v-0.8l5.7-1.6v0.7l-1.7,0.5v1.8l1.7,0.4V50.2z M12.3,48.9v-1.5l-3.1,0.7v0L12.3,48.9z"
					/>
				<path class="st2" d="M12.7,45.6V45c0.2,0,0.4,0,0.6-0.1c0.2,0,0.3-0.1,0.4-0.2c0.1-0.1,0.2-0.2,0.3-0.3S14,44,14,43.8
					c0-0.2,0-0.4-0.1-0.5c-0.1-0.1-0.2-0.3-0.3-0.3c-0.1-0.1-0.2-0.1-0.4-0.2c-0.1,0-0.3-0.1-0.4-0.1c-0.3,0-0.5,0.1-0.8,0.3
					c-0.2,0.2-0.3,0.4-0.3,0.8v0.5h-0.6v-0.4c0-0.3-0.1-0.5-0.3-0.7c-0.2-0.2-0.4-0.2-0.7-0.2c-0.3,0-0.6,0.1-0.7,0.2
					c-0.2,0.2-0.3,0.4-0.3,0.7c0,0.3,0.1,0.5,0.3,0.7c0.2,0.2,0.4,0.3,0.8,0.3v0.6c-0.5-0.1-0.9-0.2-1.2-0.5
					c-0.3-0.3-0.4-0.7-0.4-1.2c0-0.4,0.1-0.8,0.4-1.1s0.6-0.4,1-0.4c0.4,0,0.7,0.1,0.9,0.2c0.2,0.2,0.4,0.4,0.5,0.6
					c0.1-0.3,0.2-0.6,0.5-0.8c0.3-0.2,0.6-0.3,1-0.3c0.1,0,0.3,0,0.4,0c0.1,0,0.3,0.1,0.4,0.2c0.2,0.1,0.3,0.2,0.4,0.3
					s0.2,0.3,0.3,0.5c0.1,0.2,0.1,0.5,0.1,0.7c0,0.3,0,0.6-0.1,0.8c-0.1,0.2-0.2,0.4-0.4,0.5c-0.2,0.1-0.4,0.2-0.6,0.3
					C13.3,45.5,13,45.6,12.7,45.6z"/>
				<path class="st2" d="M14.5,41.5l-5.7-1.6v-0.8l5.7-1.6v0.7l-1.7,0.5v1.8l1.7,0.4V41.5z M12.3,40.3v-1.5l-3.1,0.7v0L12.3,40.3z"
					/>
			</g>
		</g>
		
			<linearGradient id="SVGID_1_" gradientUnits="userSpaceOnUse" x1="-281.0407" y1="-1696.7966" x2="-280.0407" y2="-1696.7966" gradientTransform="matrix(-1 0 0 -1 -177.574 -1677.9882)">
			<stop  offset="4.102398e-07" style="stop-color:#ADB9BC"/>
			<stop  offset="1" style="stop-color:#C0CBCE"/>
		</linearGradient>
		<line class="st3" x1="103" y1="22.2" x2="103" y2="15.4"/>
		
			<linearGradient id="SVGID_00000130605100032121633840000010433498598351461046_" gradientUnits="userSpaceOnUse" x1="-257.2141" y1="-1696.7966" x2="-256.2141" y2="-1696.7966" gradientTransform="matrix(-1 0 0 -1 -177.574 -1677.9882)">
			<stop  offset="4.102398e-07" style="stop-color:#ADB9BC"/>
			<stop  offset="1" style="stop-color:#C0CBCE"/>
		</linearGradient>
		
			<line style="fill:none;stroke:url(#SVGID_00000130605100032121633840000010433498598351461046_);stroke-miterlimit:10;" x1="79.1" y1="22.2" x2="79.1" y2="15.4"/>
		
			<linearGradient id="SVGID_00000064324211355302794110000009180047327027441072_" gradientUnits="userSpaceOnUse" x1="-233.5408" y1="-1696.7966" x2="-232.5408" y2="-1696.7966" gradientTransform="matrix(-1 0 0 -1 -177.574 -1677.9882)">
			<stop  offset="4.102398e-07" style="stop-color:#ADB9BC"/>
			<stop  offset="1" style="stop-color:#C0CBCE"/>
		</linearGradient>
		
			<line style="fill:none;stroke:url(#SVGID_00000064324211355302794110000009180047327027441072_);stroke-miterlimit:10;" x1="55.5" y1="22.2" x2="55.5" y2="15.4"/>
		
			<linearGradient id="SVGID_00000029003806175281827690000006268430702769545125_" gradientUnits="userSpaceOnUse" x1="-304.6734" y1="-1696.5466" x2="-208.9013" y2="-1696.5466" gradientTransform="matrix(-1 0 0 -1 -177.574 -1677.9882)">
			<stop  offset="4.102398e-07" style="stop-color:#ADB9BC"/>
			<stop  offset="1" style="stop-color:#C0CBCE"/>
		</linearGradient>
		<path style="fill:none;stroke:url(#SVGID_00000029003806175281827690000006268430702769545125_);stroke-miterlimit:10;" d="
			M126.6,22.2v-4.3c0-1.3-1.1-2.4-2.4-2.4H33.7c-1.3,0-1.9,1.1-1.9,2.4v4.3"/>
		
			<linearGradient id="SVGID_00000041978862709188522740000012408337456416486272_" gradientUnits="userSpaceOnUse" x1="-399.3594" y1="-1696.7966" x2="-398.3594" y2="-1696.7966" gradientTransform="matrix(-1 0 0 -1 -177.574 -1677.9882)">
			<stop  offset="4.102398e-07" style="stop-color:#ADB9BC"/>
			<stop  offset="1" style="stop-color:#C0CBCE"/>
		</linearGradient>
		
			<line style="fill:none;stroke:url(#SVGID_00000041978862709188522740000012408337456416486272_);stroke-miterlimit:10;" x1="221.3" y1="22.2" x2="221.3" y2="15.4"/>
		
			<linearGradient id="SVGID_00000072245062524169560210000013979799241608151449_" gradientUnits="userSpaceOnUse" x1="-422.9383" y1="-1696.7966" x2="-421.9383" y2="-1696.7966" gradientTransform="matrix(-1 0 0 -1 -177.574 -1677.9882)">
			<stop  offset="4.102398e-07" style="stop-color:#ADB9BC"/>
			<stop  offset="1" style="stop-color:#C0CBCE"/>
		</linearGradient>
		
			<line style="fill:none;stroke:url(#SVGID_00000072245062524169560210000013979799241608151449_);stroke-miterlimit:10;" x1="244.9" y1="22.2" x2="244.9" y2="15.4"/>
		
			<linearGradient id="SVGID_00000122693309185919821250000001110734916385092757_" gradientUnits="userSpaceOnUse" x1="-445.385" y1="-1696.7966" x2="-444.385" y2="-1696.7966" gradientTransform="matrix(-1 0 0 -1 -177.574 -1677.9882)">
			<stop  offset="4.102398e-07" style="stop-color:#ADB9BC"/>
			<stop  offset="1" style="stop-color:#C0CBCE"/>
		</linearGradient>
		
			<line style="fill:none;stroke:url(#SVGID_00000122693309185919821250000001110734916385092757_);stroke-miterlimit:10;" x1="267.3" y1="22.2" x2="267.3" y2="15.4"/>
		
			<linearGradient id="SVGID_00000059295956424251788520000015419858713812941748_" gradientUnits="userSpaceOnUse" x1="-375.5328" y1="-1696.7966" x2="-374.5328" y2="-1696.7966" gradientTransform="matrix(-1 0 0 -1 -177.574 -1677.9882)">
			<stop  offset="4.102398e-07" style="stop-color:#ADB9BC"/>
			<stop  offset="1" style="stop-color:#C0CBCE"/>
		</linearGradient>
		
			<line style="fill:none;stroke:url(#SVGID_00000059295956424251788520000015419858713812941748_);stroke-miterlimit:10;" x1="197.5" y1="22.2" x2="197.5" y2="15.4"/>
		
			<linearGradient id="SVGID_00000078017841370613289430000014718994455899849372_" gradientUnits="userSpaceOnUse" x1="-351.8595" y1="-1696.7966" x2="-350.8595" y2="-1696.7966" gradientTransform="matrix(-1 0 0 -1 -177.574 -1677.9882)">
			<stop  offset="4.102398e-07" style="stop-color:#ADB9BC"/>
			<stop  offset="1" style="stop-color:#C0CBCE"/>
		</linearGradient>
		
			<line style="fill:none;stroke:url(#SVGID_00000078017841370613289430000014718994455899849372_);stroke-miterlimit:10;" x1="173.8" y1="22.2" x2="173.8" y2="15.4"/>
		
			<linearGradient id="SVGID_00000086670947472027902830000005645394081994091171_" gradientUnits="userSpaceOnUse" x1="-339.8383" y1="-1690.0608" x2="-291.8398" y2="-1690.0608" gradientTransform="matrix(-1 0 0 -1 -177.574 -1677.9882)">
			<stop  offset="4.102398e-07" style="stop-color:#ADB9BC"/>
			<stop  offset="1" style="stop-color:#C0CBCE"/>
		</linearGradient>
		<path style="fill:none;stroke:url(#SVGID_00000086670947472027902830000005645394081994091171_);stroke-miterlimit:10;" d="
			M161.8,14.9v-2.8c0-1.3-1.1-2.4-2.4-2.4h-42.7c-1.3,0-1.9,1.1-1.9,2.4v2.8"/>
		<g>
			<g>
				
					<linearGradient id="SVGID_00000106133107632079217480000009079722401831838339_" gradientUnits="userSpaceOnUse" x1="54.9668" y1="91.514" x2="55.9668" y2="91.514">
					<stop  offset="4.102398e-07" style="stop-color:#ADB9BC"/>
					<stop  offset="1" style="stop-color:#C0CBCE"/>
				</linearGradient>
				
					<line style="fill:none;stroke:url(#SVGID_00000106133107632079217480000009079722401831838339_);stroke-miterlimit:10;" x1="55.5" y1="88.4" x2="55.5" y2="94.7"/>
				
					<linearGradient id="SVGID_00000018221043597678536340000006576794298578780594_" gradientUnits="userSpaceOnUse" x1="78.6402" y1="91.514" x2="79.6402" y2="91.514">
					<stop  offset="4.102398e-07" style="stop-color:#ADB9BC"/>
					<stop  offset="1" style="stop-color:#C0CBCE"/>
				</linearGradient>
				
					<line style="fill:none;stroke:url(#SVGID_00000018221043597678536340000006576794298578780594_);stroke-miterlimit:10;" x1="79.1" y1="88.4" x2="79.1" y2="94.7"/>
				
					<linearGradient id="SVGID_00000032640583641828642720000004898286580831184010_" gradientUnits="userSpaceOnUse" x1="102.4668" y1="91.514" x2="103.4668" y2="91.514">
					<stop  offset="4.102398e-07" style="stop-color:#ADB9BC"/>
					<stop  offset="1" style="stop-color:#C0CBCE"/>
				</linearGradient>
				
					<line style="fill:none;stroke:url(#SVGID_00000032640583641828642720000004898286580831184010_);stroke-miterlimit:10;" x1="103" y1="88.4" x2="103" y2="94.7"/>
				
					<linearGradient id="SVGID_00000041282559428479681500000017214907547855447449_" gradientUnits="userSpaceOnUse" x1="126.2402" y1="91.514" x2="127.2402" y2="91.514">
					<stop  offset="4.102398e-07" style="stop-color:#ADB9BC"/>
					<stop  offset="1" style="stop-color:#C0CBCE"/>
				</linearGradient>
				
					<line style="fill:none;stroke:url(#SVGID_00000041282559428479681500000017214907547855447449_);stroke-miterlimit:10;" x1="126.7" y1="88.4" x2="126.7" y2="94.7"/>
				
					<linearGradient id="SVGID_00000106107984936876375460000009048824202224287874_" gradientUnits="userSpaceOnUse" x1="31.3273" y1="78.1143" x2="292.9613" y2="78.1143">
					<stop  offset="4.102398e-07" style="stop-color:#ADB9BC"/>
					<stop  offset="1" style="stop-color:#C0CBCE"/>
				</linearGradient>
				<path style="fill:none;stroke:url(#SVGID_00000106107984936876375460000009048824202224287874_);stroke-miterlimit:10;" d="
					M31.8,88.4v3.9c0,1.3,1.1,2.4,2.4,2.4h255.8c1.3,0,2.4-1.1,2.4-2.4V61.1"/>
				
					<linearGradient id="SVGID_00000107589689943265181790000013493765413923948950_" gradientUnits="userSpaceOnUse" x1="173.2855" y1="91.514" x2="174.2855" y2="91.514">
					<stop  offset="4.102398e-07" style="stop-color:#ADB9BC"/>
					<stop  offset="1" style="stop-color:#C0CBCE"/>
				</linearGradient>
				
					<line style="fill:none;stroke:url(#SVGID_00000107589689943265181790000013493765413923948950_);stroke-miterlimit:10;" x1="173.8" y1="88.4" x2="173.8" y2="94.7"/>
				
					<linearGradient id="SVGID_00000152955830071576468300000016117678046428957854_" gradientUnits="userSpaceOnUse" x1="149.5121" y1="91.514" x2="150.5121" y2="91.514">
					<stop  offset="4.102398e-07" style="stop-color:#ADB9BC"/>
					<stop  offset="1" style="stop-color:#C0CBCE"/>
				</linearGradient>
				
					<line style="fill:none;stroke:url(#SVGID_00000152955830071576468300000016117678046428957854_);stroke-miterlimit:10;" x1="150" y1="88.4" x2="150" y2="94.7"/>
				
					<linearGradient id="SVGID_00000066486888364622319010000016104022619486061442_" gradientUnits="userSpaceOnUse" x1="196.9588" y1="91.514" x2="197.9588" y2="91.514">
					<stop  offset="4.102398e-07" style="stop-color:#ADB9BC"/>
					<stop  offset="1" style="stop-color:#C0CBCE"/>
				</linearGradient>
				
					<line style="fill:none;stroke:url(#SVGID_00000066486888364622319010000016104022619486061442_);stroke-miterlimit:10;" x1="197.5" y1="88.4" x2="197.5" y2="94.7"/>
				
					<linearGradient id="SVGID_00000008115059106295584210000015134531981467716244_" gradientUnits="userSpaceOnUse" x1="220.7855" y1="91.514" x2="221.7855" y2="91.514">
					<stop  offset="4.102398e-07" style="stop-color:#ADB9BC"/>
					<stop  offset="1" style="stop-color:#C0CBCE"/>
				</linearGradient>
				
					<line style="fill:none;stroke:url(#SVGID_00000008115059106295584210000015134531981467716244_);stroke-miterlimit:10;" x1="221.3" y1="88.4" x2="221.3" y2="94.7"/>
				
					<linearGradient id="SVGID_00000044862698588056127010000007241021489289071745_" gradientUnits="userSpaceOnUse" x1="243.9928" y1="91.514" x2="244.9928" y2="91.514">
					<stop  offset="4.102398e-07" style="stop-color:#ADB9BC"/>
					<stop  offset="1" style="stop-color:#C0CBCE"/>
				</linearGradient>
				
					<line style="fill:none;stroke:url(#SVGID_00000044862698588056127010000007241021489289071745_);stroke-miterlimit:10;" x1="244.5" y1="88.4" x2="244.5" y2="94.7"/>
				
					<linearGradient id="SVGID_00000121256521091866738530000002625967768910628541_" gradientUnits="userSpaceOnUse" x1="267.6247" y1="91.514" x2="268.6247" y2="91.514">
					<stop  offset="4.102398e-07" style="stop-color:#ADB9BC"/>
					<stop  offset="1" style="stop-color:#C0CBCE"/>
				</linearGradient>
				
					<line style="fill:none;stroke:url(#SVGID_00000121256521091866738530000002625967768910628541_);stroke-miterlimit:10;" x1="268.1" y1="88.4" x2="268.1" y2="94.7"/>
			</g>
			
				<linearGradient id="SVGID_00000005966974166474715130000016710494121064264341_" gradientUnits="userSpaceOnUse" x1="-470.4505" y1="-1709.8013" x2="-327.22" y2="-1709.8013" gradientTransform="matrix(-1 0 0 -1 -177.574 -1677.9882)">
				<stop  offset="4.102398e-07" style="stop-color:#ADB9BC"/>
				<stop  offset="1" style="stop-color:#C0CBCE"/>
			</linearGradient>
			<path style="fill:none;stroke:url(#SVGID_00000005966974166474715130000016710494121064264341_);stroke-miterlimit:10;" d="
				M292.4,48.7V17.8c0-1.3-1.1-2.4-2.4-2.4H152c-1.3,0-1.9,1.1-1.9,2.4v4.3"/>
		</g>
		<g>
			<g>
				<g>
					
						<linearGradient id="SVGID_00000153666405526352293460000008846332300636874638_" gradientUnits="userSpaceOnUse" x1="15.5552" y1="68.7744" x2="297.0571" y2="39.7241">
						<stop  offset="4.100000e-07" style="stop-color:#1FBDDC"/>
						<stop  offset="1" style="stop-color:#0079C2"/>
					</linearGradient>
					<path style="fill:url(#SVGID_00000153666405526352293460000008846332300636874638_);" d="M36.2,78.4h-8.6c-3.9,0-7-3.1-7-7
						v-8.6c0-3.9,3.1-7,7-7h8.6c3.9,0,7,3.1,7,7v8.6C43.2,75.3,40,78.4,36.2,78.4z"/>
					
						<linearGradient id="SVGID_00000088852264844951394970000000799070306296481464_" gradientUnits="userSpaceOnUse" x1="39.1741" y1="68.7744" x2="320.676" y2="39.7241">
						<stop  offset="4.100000e-07" style="stop-color:#1FBDDC"/>
						<stop  offset="1" style="stop-color:#0079C2"/>
					</linearGradient>
					<path style="fill:url(#SVGID_00000088852264844951394970000000799070306296481464_);" d="M59.8,78.4h-8.6c-3.9,0-7-3.1-7-7
						v-8.6c0-3.9,3.1-7,7-7h8.6c3.9,0,7,3.1,7,7v8.6C66.8,75.3,63.7,78.4,59.8,78.4z"/>
					
						<linearGradient id="SVGID_00000054255925819381135460000000115906097451452326_" gradientUnits="userSpaceOnUse" x1="62.8474" y1="68.7744" x2="344.3493" y2="39.7241">
						<stop  offset="4.100000e-07" style="stop-color:#1FBDDC"/>
						<stop  offset="1" style="stop-color:#0079C2"/>
					</linearGradient>
					<path style="fill:url(#SVGID_00000054255925819381135460000000115906097451452326_);" d="M83.5,78.4h-8.6c-3.9,0-7-3.1-7-7
						v-8.6c0-3.9,3.1-7,7-7h8.6c3.9,0,7,3.1,7,7v8.6C90.5,75.3,87.3,78.4,83.5,78.4z"/>
					
						<linearGradient id="SVGID_00000045583271673310905700000013754424034136524708_" gradientUnits="userSpaceOnUse" x1="86.674" y1="68.7744" x2="368.176" y2="39.7241">
						<stop  offset="4.100000e-07" style="stop-color:#1FBDDC"/>
						<stop  offset="1" style="stop-color:#0079C2"/>
					</linearGradient>
					<path style="fill:url(#SVGID_00000045583271673310905700000013754424034136524708_);" d="M107.3,78.4h-8.6c-3.9,0-7-3.1-7-7
						v-8.6c0-3.9,3.1-7,7-7h8.6c3.9,0,7,3.1,7,7v8.6C114.3,75.3,111.2,78.4,107.3,78.4z"/>
					
						<linearGradient id="SVGID_00000183938737010821918370000004280395973850946186_" gradientUnits="userSpaceOnUse" x1="110.3049" y1="68.7744" x2="391.8069" y2="39.7241">
						<stop  offset="4.100000e-07" style="stop-color:#1FBDDC"/>
						<stop  offset="1" style="stop-color:#0079C2"/>
					</linearGradient>
					<path style="fill:url(#SVGID_00000183938737010821918370000004280395973850946186_);" d="M130.9,78.4h-8.6c-3.9,0-7-3.1-7-7
						v-8.6c0-3.9,3.1-7,7-7h8.6c3.9,0,7,3.1,7,7v8.6C137.9,75.3,134.8,78.4,130.9,78.4z"/>
					
						<linearGradient id="SVGID_00000154404894487190609140000011719042352705350320_" gradientUnits="userSpaceOnUse" x1="133.8738" y1="68.7744" x2="415.3758" y2="39.7241">
						<stop  offset="4.100000e-07" style="stop-color:#1FBDDC"/>
						<stop  offset="1" style="stop-color:#0079C2"/>
					</linearGradient>
					<path style="fill:url(#SVGID_00000154404894487190609140000011719042352705350320_);" d="M154.5,78.4h-8.6c-3.9,0-7-3.1-7-7
						v-8.6c0-3.9,3.1-7,7-7h8.6c3.9,0,7,3.1,7,7v8.6C161.5,75.3,158.4,78.4,154.5,78.4z"/>
					
						<linearGradient id="SVGID_00000054263733015054420850000005828355470835882687_" gradientUnits="userSpaceOnUse" x1="157.4927" y1="68.7744" x2="438.9947" y2="39.7241">
						<stop  offset="4.100000e-07" style="stop-color:#1FBDDC"/>
						<stop  offset="1" style="stop-color:#0079C2"/>
					</linearGradient>
					<path style="fill:url(#SVGID_00000054263733015054420850000005828355470835882687_);" d="M178.1,78.4h-8.6c-3.9,0-7-3.1-7-7
						v-8.6c0-3.9,3.1-7,7-7h8.6c3.9,0,7,3.1,7,7v8.6C185.1,75.3,182,78.4,178.1,78.4z"/>
					
						<linearGradient id="SVGID_00000147906179286496920380000013169205221196867999_" gradientUnits="userSpaceOnUse" x1="181.1661" y1="68.7744" x2="462.668" y2="39.7241">
						<stop  offset="4.100000e-07" style="stop-color:#1FBDDC"/>
						<stop  offset="1" style="stop-color:#0079C2"/>
					</linearGradient>
					<path style="fill:url(#SVGID_00000147906179286496920380000013169205221196867999_);" d="M201.8,78.4h-8.6c-3.9,0-7-3.1-7-7
						v-8.6c0-3.9,3.1-7,7-7h8.6c3.9,0,7,3.1,7,7v8.6C208.8,75.3,205.6,78.4,201.8,78.4z"/>
					
						<linearGradient id="SVGID_00000122708943133816148930000003948020372544180128_" gradientUnits="userSpaceOnUse" x1="204.9927" y1="68.7744" x2="486.4947" y2="39.7241">
						<stop  offset="4.100000e-07" style="stop-color:#1FBDDC"/>
						<stop  offset="1" style="stop-color:#0079C2"/>
					</linearGradient>
					<path style="fill:url(#SVGID_00000122708943133816148930000003948020372544180128_);" d="M225.6,78.4H217c-3.9,0-7-3.1-7-7
						v-8.6c0-3.9,3.1-7,7-7h8.6c3.9,0,7,3.1,7,7v8.6C232.6,75.3,229.5,78.4,225.6,78.4z"/>
					
						<linearGradient id="SVGID_00000001630020030904567310000004690412105802214567_" gradientUnits="userSpaceOnUse" x1="228.6236" y1="68.7744" x2="510.1256" y2="39.7241">
						<stop  offset="4.100000e-07" style="stop-color:#1FBDDC"/>
						<stop  offset="1" style="stop-color:#0079C2"/>
					</linearGradient>
					<path style="fill:url(#SVGID_00000001630020030904567310000004690412105802214567_);" d="M249.2,78.4h-8.6c-3.9,0-7-3.1-7-7
						v-8.6c0-3.9,3.1-7,7-7h8.6c3.9,0,7,3.1,7,7v8.6C256.2,75.3,253.1,78.4,249.2,78.4z"/>
					
						<linearGradient id="SVGID_00000042701032037403370470000018361508400382053526_" gradientUnits="userSpaceOnUse" x1="251.8663" y1="68.7744" x2="533.3683" y2="39.7241">
						<stop  offset="4.100000e-07" style="stop-color:#1FBDDC"/>
						<stop  offset="1" style="stop-color:#0079C2"/>
					</linearGradient>
					<path style="fill:url(#SVGID_00000042701032037403370470000018361508400382053526_);" d="M272.5,78.4h-8.6c-3.9,0-7-3.1-7-7
						v-8.6c0-3.9,3.1-7,7-7h8.6c3.9,0,7,3.1,7,7v8.6C279.5,75.3,276.3,78.4,272.5,78.4z"/>
				</g>
				<g>
					
						<linearGradient id="SVGID_00000064318815725186100220000009441919352305783477_" gradientUnits="userSpaceOnUse" x1="15.5552" y1="45.1072" x2="297.0571" y2="16.0568">
						<stop  offset="4.100000e-07" style="stop-color:#1FBDDC"/>
						<stop  offset="1" style="stop-color:#0079C2"/>
					</linearGradient>
					<path style="fill:url(#SVGID_00000064318815725186100220000009441919352305783477_);" d="M36.2,54.7h-8.6c-3.9,0-7-3.1-7-7
						v-8.6c0-3.9,3.1-7,7-7h8.6c3.9,0,7,3.1,7,7v8.6C43.2,51.6,40,54.7,36.2,54.7z"/>
					
						<linearGradient id="SVGID_00000093148357209770300220000000019615988398064786_" gradientUnits="userSpaceOnUse" x1="39.1741" y1="45.1072" x2="320.676" y2="16.0568">
						<stop  offset="4.100000e-07" style="stop-color:#1FBDDC"/>
						<stop  offset="1" style="stop-color:#0079C2"/>
					</linearGradient>
					<path style="fill:url(#SVGID_00000093148357209770300220000000019615988398064786_);" d="M59.8,54.7h-8.6c-3.9,0-7-3.1-7-7
						v-8.6c0-3.9,3.1-7,7-7h8.6c3.9,0,7,3.1,7,7v8.6C66.8,51.6,63.7,54.7,59.8,54.7z"/>
					
						<linearGradient id="SVGID_00000046299554777491296290000008888011716923193532_" gradientUnits="userSpaceOnUse" x1="62.8474" y1="45.1072" x2="344.3493" y2="16.0568">
						<stop  offset="4.100000e-07" style="stop-color:#1FBDDC"/>
						<stop  offset="1" style="stop-color:#0079C2"/>
					</linearGradient>
					<path style="fill:url(#SVGID_00000046299554777491296290000008888011716923193532_);" d="M83.5,54.7h-8.6c-3.9,0-7-3.1-7-7
						v-8.6c0-3.9,3.1-7,7-7h8.6c3.9,0,7,3.1,7,7v8.6C90.5,51.6,87.3,54.7,83.5,54.7z"/>
					
						<linearGradient id="SVGID_00000123411262379933354720000006483477665312495035_" gradientUnits="userSpaceOnUse" x1="86.674" y1="45.1072" x2="368.176" y2="16.0568">
						<stop  offset="4.100000e-07" style="stop-color:#1FBDDC"/>
						<stop  offset="1" style="stop-color:#0079C2"/>
					</linearGradient>
					<path style="fill:url(#SVGID_00000123411262379933354720000006483477665312495035_);" d="M107.3,54.7h-8.6c-3.9,0-7-3.1-7-7
						v-8.6c0-3.9,3.1-7,7-7h8.6c3.9,0,7,3.1,7,7v8.6C114.3,51.6,111.2,54.7,107.3,54.7z"/>
					
						<linearGradient id="SVGID_00000062890155953855611490000012436241850790865075_" gradientUnits="userSpaceOnUse" x1="110.3049" y1="45.1072" x2="391.8069" y2="16.0568">
						<stop  offset="4.100000e-07" style="stop-color:#1FBDDC"/>
						<stop  offset="1" style="stop-color:#0079C2"/>
					</linearGradient>
					<path style="fill:url(#SVGID_00000062890155953855611490000012436241850790865075_);" d="M130.9,54.7h-8.6c-3.9,0-7-3.1-7-7
						v-8.6c0-3.9,3.1-7,7-7h8.6c3.9,0,7,3.1,7,7v8.6C137.9,51.6,134.8,54.7,130.9,54.7z"/>
					
						<linearGradient id="SVGID_00000118363137077520533790000009117624204156711043_" gradientUnits="userSpaceOnUse" x1="133.8738" y1="45.1072" x2="415.3758" y2="16.0568">
						<stop  offset="4.100000e-07" style="stop-color:#1FBDDC"/>
						<stop  offset="1" style="stop-color:#0079C2"/>
					</linearGradient>
					<path style="fill:url(#SVGID_00000118363137077520533790000009117624204156711043_);" d="M154.5,54.7h-8.6c-3.9,0-7-3.1-7-7
						v-8.6c0-3.9,3.1-7,7-7h8.6c3.9,0,7,3.1,7,7v8.6C161.5,51.6,158.4,54.7,154.5,54.7z"/>
					
						<linearGradient id="SVGID_00000183234254659633816440000002901057258702175666_" gradientUnits="userSpaceOnUse" x1="157.4927" y1="45.1072" x2="438.9947" y2="16.0568">
						<stop  offset="4.100000e-07" style="stop-color:#1FBDDC"/>
						<stop  offset="1" style="stop-color:#0079C2"/>
					</linearGradient>
					<path style="fill:url(#SVGID_00000183234254659633816440000002901057258702175666_);" d="M178.1,54.7h-8.6c-3.9,0-7-3.1-7-7
						v-8.6c0-3.9,3.1-7,7-7h8.6c3.9,0,7,3.1,7,7v8.6C185.1,51.6,182,54.7,178.1,54.7z"/>
					
						<linearGradient id="SVGID_00000046320010309220293650000008720439584206514337_" gradientUnits="userSpaceOnUse" x1="181.1661" y1="45.1072" x2="462.668" y2="16.0568">
						<stop  offset="4.100000e-07" style="stop-color:#1FBDDC"/>
						<stop  offset="1" style="stop-color:#0079C2"/>
					</linearGradient>
					<path style="fill:url(#SVGID_00000046320010309220293650000008720439584206514337_);" d="M201.8,54.7h-8.6c-3.9,0-7-3.1-7-7
						v-8.6c0-3.9,3.1-7,7-7h8.6c3.9,0,7,3.1,7,7v8.6C208.8,51.6,205.6,54.7,201.8,54.7z"/>
					
						<linearGradient id="SVGID_00000002351441740968449570000000124675648738865593_" gradientUnits="userSpaceOnUse" x1="204.9927" y1="45.1072" x2="486.4947" y2="16.0568">
						<stop  offset="4.100000e-07" style="stop-color:#1FBDDC"/>
						<stop  offset="1" style="stop-color:#0079C2"/>
					</linearGradient>
					<path style="fill:url(#SVGID_00000002351441740968449570000000124675648738865593_);" d="M225.6,54.7H217c-3.9,0-7-3.1-7-7
						v-8.6c0-3.9,3.1-7,7-7h8.6c3.9,0,7,3.1,7,7v8.6C232.6,51.6,229.5,54.7,225.6,54.7z"/>
					
						<linearGradient id="SVGID_00000033354755884639543930000016660340360022421915_" gradientUnits="userSpaceOnUse" x1="228.6236" y1="45.1072" x2="510.1256" y2="16.0568">
						<stop  offset="4.100000e-07" style="stop-color:#1FBDDC"/>
						<stop  offset="1" style="stop-color:#0079C2"/>
					</linearGradient>
					<path style="fill:url(#SVGID_00000033354755884639543930000016660340360022421915_);" d="M249.2,54.7h-8.6c-3.9,0-7-3.1-7-7
						v-8.6c0-3.9,3.1-7,7-7h8.6c3.9,0,7,3.1,7,7v8.6C256.2,51.6,253.1,54.7,249.2,54.7z"/>
					
						<linearGradient id="SVGID_00000177476156046191314890000014195234619500069281_" gradientUnits="userSpaceOnUse" x1="251.8663" y1="45.1072" x2="533.3683" y2="16.0568">
						<stop  offset="4.100000e-07" style="stop-color:#1FBDDC"/>
						<stop  offset="1" style="stop-color:#0079C2"/>
					</linearGradient>
					<path style="fill:url(#SVGID_00000177476156046191314890000014195234619500069281_);" d="M272.5,54.7h-8.6c-3.9,0-7-3.1-7-7
						v-8.6c0-3.9,3.1-7,7-7h8.6c3.9,0,7,3.1,7,7v8.6C279.5,51.6,276.3,54.7,272.5,54.7z"/>
				</g>
			</g>
			<g>
				<g>
					<path class="st47" d="M31.8,60.7c0,2,0,4,0,6c0.2-1.7,1.8-3,3.5-2.8c1.7,0.2,2.8,1.7,2.8,3.2c-2,0-4,0-6,0
						c1.8,0.2,3,1.8,2.8,3.5c-0.2,1.7-1.7,2.8-3.2,2.8c0-2,0-4,0-6c-0.2,1.7-1.8,3-3.5,2.8c-1.7-0.2-2.9-1.7-2.8-3.2c2,0,4,0,6,0
						c-0.9-0.1-1.6-0.5-2.1-1.2c-0.6-0.7-0.8-1.5-0.7-2.3C28.9,61.9,30.3,60.7,31.8,60.7z"/>
					<path class="st47" d="M55.5,60.7c0,2,0,4,0,6c0.2-1.7,1.8-3,3.5-2.8c1.7,0.2,2.8,1.7,2.8,3.2c-2,0-4,0-6,0
						c1.8,0.2,3,1.8,2.8,3.5c-0.2,1.7-1.7,2.8-3.2,2.8c0-2,0-4,0-6c-0.2,1.7-1.8,3-3.5,2.8c-1.7-0.2-2.9-1.7-2.8-3.2c2,0,4,0,6,0
						c-0.9-0.1-1.6-0.5-2.1-1.2c-0.6-0.7-0.8-1.5-0.7-2.3C52.5,61.9,54,60.7,55.5,60.7z"/>
					<path class="st47" d="M79.1,60.7c0,2,0,4,0,6c0.2-1.7,1.8-3,3.5-2.8c1.7,0.2,2.8,1.7,2.8,3.2c-2,0-4,0-6,0
						c1.8,0.2,3,1.8,2.8,3.5c-0.2,1.7-1.7,2.8-3.2,2.8c0-2,0-4,0-6c-0.2,1.7-1.8,3-3.5,2.8c-1.7-0.2-2.9-1.7-2.8-3.2c2,0,4,0,6,0
						c-0.9-0.1-1.6-0.5-2.1-1.2c-0.6-0.7-0.8-1.5-0.7-2.3C76.2,61.9,77.6,60.7,79.1,60.7z"/>
					<path class="st47" d="M103,60.7c0,2,0,4,0,6c0.2-1.7,1.8-3,3.5-2.8c1.7,0.2,2.8,1.7,2.8,3.2c-2,0-4,0-6,0
						c1.8,0.2,3,1.8,2.8,3.5c-0.2,1.7-1.7,2.8-3.2,2.8c0-2,0-4,0-6c-0.2,1.7-1.8,3-3.5,2.8c-1.7-0.2-2.9-1.7-2.8-3.2c2,0,4,0,6,0
						c-0.9-0.1-1.6-0.5-2.1-1.2c-0.6-0.7-0.8-1.5-0.7-2.3C100,61.9,101.5,60.7,103,60.7z"/>
					<path class="st47" d="M126.6,60.7c0,2,0,4,0,6c0.2-1.7,1.8-3,3.5-2.8c1.7,0.2,2.8,1.7,2.8,3.2c-2,0-4,0-6,0
						c1.8,0.2,3,1.8,2.8,3.5c-0.2,1.7-1.7,2.8-3.2,2.8c0-2,0-4,0-6c-0.2,1.7-1.8,3-3.5,2.8c-1.7-0.2-2.9-1.7-2.8-3.2c2,0,4,0,6,0
						c-0.9-0.1-1.6-0.5-2.1-1.2c-0.6-0.7-0.8-1.5-0.7-2.3C123.6,61.9,125.1,60.7,126.6,60.7z"/>
					<path class="st47" d="M150.2,60.7c0,2,0,4,0,6c0.2-1.7,1.8-3,3.5-2.8c1.7,0.2,2.8,1.7,2.8,3.2c-2,0-4,0-6,0
						c1.8,0.2,3,1.8,2.8,3.5c-0.2,1.7-1.7,2.8-3.2,2.8c0-2,0-4,0-6c-0.2,1.7-1.8,3-3.5,2.8c-1.7-0.2-2.9-1.7-2.8-3.2c2,0,4,0,6,0
						c-0.9-0.1-1.6-0.5-2.1-1.2c-0.6-0.7-0.8-1.5-0.7-2.3C147.2,61.9,148.7,60.7,150.2,60.7z"/>
					<path class="st47" d="M173.8,60.7c0,2,0,4,0,6c0.2-1.7,1.8-3,3.5-2.8c1.7,0.2,2.8,1.7,2.8,3.2c-2,0-4,0-6,0
						c1.8,0.2,3,1.8,2.8,3.5c-0.2,1.7-1.7,2.8-3.2,2.8c0-2,0-4,0-6c-0.2,1.7-1.8,3-3.5,2.8c-1.7-0.2-2.9-1.7-2.8-3.2c2,0,4,0,6,0
						c-0.9-0.1-1.6-0.5-2.1-1.2c-0.6-0.7-0.8-1.5-0.7-2.3C170.8,61.9,172.3,60.7,173.8,60.7z"/>
					<path class="st47" d="M197.5,60.7c0,2,0,4,0,6c0.2-1.7,1.8-3,3.5-2.8c1.7,0.2,2.8,1.7,2.8,3.2c-2,0-4,0-6,0
						c1.8,0.2,3,1.8,2.8,3.5c-0.2,1.7-1.7,2.8-3.2,2.8c0-2,0-4,0-6c-0.2,1.7-1.8,3-3.5,2.8c-1.7-0.2-2.9-1.7-2.8-3.2c2,0,4,0,6,0
						c-0.9-0.1-1.6-0.5-2.1-1.2c-0.6-0.7-0.8-1.5-0.7-2.3C194.5,61.9,196,60.7,197.5,60.7z"/>
					<path class="st47" d="M221.3,60.7c0,2,0,4,0,6c0.2-1.7,1.8-3,3.5-2.8c1.7,0.2,2.8,1.7,2.8,3.2c-2,0-4,0-6,0
						c1.8,0.2,3,1.8,2.8,3.5c-0.2,1.7-1.7,2.8-3.2,2.8c0-2,0-4,0-6c-0.2,1.7-1.8,3-3.5,2.8c-1.7-0.2-2.9-1.7-2.8-3.2c2,0,4,0,6,0
						c-0.9-0.1-1.6-0.5-2.1-1.2c-0.6-0.7-0.8-1.5-0.7-2.3C218.3,61.9,219.8,60.7,221.3,60.7z"/>
					<path class="st47" d="M244.9,60.7c0,2,0,4,0,6c0.2-1.7,1.8-3,3.5-2.8c1.7,0.2,2.8,1.7,2.8,3.2c-2,0-4,0-6,0
						c1.8,0.2,3,1.8,2.8,3.5c-0.2,1.7-1.7,2.8-3.2,2.8c0-2,0-4,0-6c-0.2,1.7-1.8,3-3.5,2.8c-1.7-0.2-2.9-1.7-2.8-3.2c2,0,4,0,6,0
						c-0.9-0.1-1.6-0.5-2.1-1.2c-0.6-0.7-0.8-1.5-0.7-2.3C241.9,61.9,243.4,60.7,244.9,60.7z"/>
					<path class="st47" d="M268.2,60.7c0,2,0,4,0,6c0.2-1.7,1.8-3,3.5-2.8c1.7,0.2,2.8,1.7,2.8,3.2c-2,0-4,0-6,0
						c1.8,0.2,3,1.8,2.8,3.5c-0.2,1.7-1.7,2.8-3.2,2.8c0-2,0-4,0-6c-0.2,1.7-1.8,3-3.5,2.8c-1.7-0.2-2.9-1.7-2.8-3.2c2,0,4,0,6,0
						c-0.9-0.1-1.6-0.5-2.1-1.2c-0.6-0.7-0.8-1.5-0.7-2.3C265.2,61.9,266.7,60.7,268.2,60.7z"/>
				</g>
				<g>
					<path class="st47" d="M31.8,37.1c0,2,0,4,0,6c0.2-1.7,1.8-3,3.5-2.8c1.7,0.2,2.8,1.7,2.8,3.2c-2,0-4,0-6,0
						c1.8,0.2,3,1.8,2.8,3.5c-0.2,1.7-1.7,2.8-3.2,2.8c0-2,0-4,0-6c-0.2,1.7-1.8,3-3.5,2.8c-1.7-0.2-2.9-1.7-2.8-3.2c2,0,4,0,6,0
						c-0.9-0.1-1.6-0.5-2.1-1.2c-0.6-0.7-0.8-1.5-0.7-2.3C28.9,38.2,30.3,37.1,31.8,37.1z"/>
					<path class="st47" d="M55.5,37.1c0,2,0,4,0,6c0.2-1.7,1.8-3,3.5-2.8c1.7,0.2,2.8,1.7,2.8,3.2c-2,0-4,0-6,0
						c1.8,0.2,3,1.8,2.8,3.5c-0.2,1.7-1.7,2.8-3.2,2.8c0-2,0-4,0-6c-0.2,1.7-1.8,3-3.5,2.8c-1.7-0.2-2.9-1.7-2.8-3.2c2,0,4,0,6,0
						c-0.9-0.1-1.6-0.5-2.1-1.2c-0.6-0.7-0.8-1.5-0.7-2.3C52.5,38.2,54,37.1,55.5,37.1z"/>
					<path class="st47" d="M79.1,37.1c0,2,0,4,0,6c0.2-1.7,1.8-3,3.5-2.8c1.7,0.2,2.8,1.7,2.8,3.2c-2,0-4,0-6,0
						c1.8,0.2,3,1.8,2.8,3.5c-0.2,1.7-1.7,2.8-3.2,2.8c0-2,0-4,0-6c-0.2,1.7-1.8,3-3.5,2.8c-1.7-0.2-2.9-1.7-2.8-3.2c2,0,4,0,6,0
						c-0.9-0.1-1.6-0.5-2.1-1.2c-0.6-0.7-0.8-1.5-0.7-2.3C76.2,38.2,77.6,37.1,79.1,37.1z"/>
					<path class="st47" d="M103,37.1c0,2,0,4,0,6c0.2-1.7,1.8-3,3.5-2.8c1.7,0.2,2.8,1.7,2.8,3.2c-2,0-4,0-6,0
						c1.8,0.2,3,1.8,2.8,3.5c-0.2,1.7-1.7,2.8-3.2,2.8c0-2,0-4,0-6c-0.2,1.7-1.8,3-3.5,2.8c-1.7-0.2-2.9-1.7-2.8-3.2c2,0,4,0,6,0
						c-0.9-0.1-1.6-0.5-2.1-1.2c-0.6-0.7-0.8-1.5-0.7-2.3C100,38.2,101.5,37.1,103,37.1z"/>
					<path class="st47" d="M126.6,37.1c0,2,0,4,0,6c0.2-1.7,1.8-3,3.5-2.8c1.7,0.2,2.8,1.7,2.8,3.2c-2,0-4,0-6,0
						c1.8,0.2,3,1.8,2.8,3.5c-0.2,1.7-1.7,2.8-3.2,2.8c0-2,0-4,0-6c-0.2,1.7-1.8,3-3.5,2.8c-1.7-0.2-2.9-1.7-2.8-3.2c2,0,4,0,6,0
						c-0.9-0.1-1.6-0.5-2.1-1.2c-0.6-0.7-0.8-1.5-0.7-2.3C123.6,38.2,125.1,37.1,126.6,37.1z"/>
					<path class="st47" d="M150.2,37.1c0,2,0,4,0,6c0.2-1.7,1.8-3,3.5-2.8c1.7,0.2,2.8,1.7,2.8,3.2c-2,0-4,0-6,0
						c1.8,0.2,3,1.8,2.8,3.5c-0.2,1.7-1.7,2.8-3.2,2.8c0-2,0-4,0-6c-0.2,1.7-1.8,3-3.5,2.8c-1.7-0.2-2.9-1.7-2.8-3.2c2,0,4,0,6,0
						c-0.9-0.1-1.6-0.5-2.1-1.2c-0.6-0.7-0.8-1.5-0.7-2.3C147.2,38.2,148.7,37.1,150.2,37.1z"/>
					<path class="st47" d="M173.8,37.1c0,2,0,4,0,6c0.2-1.7,1.8-3,3.5-2.8c1.7,0.2,2.8,1.7,2.8,3.2c-2,0-4,0-6,0
						c1.8,0.2,3,1.8,2.8,3.5c-0.2,1.7-1.7,2.8-3.2,2.8c0-2,0-4,0-6c-0.2,1.7-1.8,3-3.5,2.8c-1.7-0.2-2.9-1.7-2.8-3.2c2,0,4,0,6,0
						c-0.9-0.1-1.6-0.5-2.1-1.2c-0.6-0.7-0.8-1.5-0.7-2.3C170.8,38.2,172.3,37.1,173.8,37.1z"/>
					<path class="st47" d="M197.5,37.1c0,2,0,4,0,6c0.2-1.7,1.8-3,3.5-2.8c1.7,0.2,2.8,1.7,2.8,3.2c-2,0-4,0-6,0
						c1.8,0.2,3,1.8,2.8,3.5c-0.2,1.7-1.7,2.8-3.2,2.8c0-2,0-4,0-6c-0.2,1.7-1.8,3-3.5,2.8c-1.7-0.2-2.9-1.7-2.8-3.2c2,0,4,0,6,0
						c-0.9-0.1-1.6-0.5-2.1-1.2c-0.6-0.7-0.8-1.5-0.7-2.3C194.5,38.2,196,37.1,197.5,37.1z"/>
					<path class="st47" d="M221.3,37.1c0,2,0,4,0,6c0.2-1.7,1.8-3,3.5-2.8c1.7,0.2,2.8,1.7,2.8,3.2c-2,0-4,0-6,0
						c1.8,0.2,3,1.8,2.8,3.5c-0.2,1.7-1.7,2.8-3.2,2.8c0-2,0-4,0-6c-0.2,1.7-1.8,3-3.5,2.8c-1.7-0.2-2.9-1.7-2.8-3.2c2,0,4,0,6,0
						c-0.9-0.1-1.6-0.5-2.1-1.2c-0.6-0.7-0.8-1.5-0.7-2.3C218.3,38.2,219.8,37.1,221.3,37.1z"/>
					<path class="st47" d="M244.9,37.1c0,2,0,4,0,6c0.2-1.7,1.8-3,3.5-2.8c1.7,0.2,2.8,1.7,2.8,3.2c-2,0-4,0-6,0
						c1.8,0.2,3,1.8,2.8,3.5c-0.2,1.7-1.7,2.8-3.2,2.8c0-2,0-4,0-6c-0.2,1.7-1.8,3-3.5,2.8c-1.7-0.2-2.9-1.7-2.8-3.2c2,0,4,0,6,0
						c-0.9-0.1-1.6-0.5-2.1-1.2c-0.6-0.7-0.8-1.5-0.7-2.3C241.9,38.2,243.4,37.1,244.9,37.1z"/>
					<path class="st47" d="M268.2,37.1c0,2,0,4,0,6c0.2-1.7,1.8-3,3.5-2.8c1.7,0.2,2.8,1.7,2.8,3.2c-2,0-4,0-6,0
						c1.8,0.2,3,1.8,2.8,3.5c-0.2,1.7-1.7,2.8-3.2,2.8c0-2,0-4,0-6c-0.2,1.7-1.8,3-3.5,2.8c-1.7-0.2-2.9-1.7-2.8-3.2c2,0,4,0,6,0
						c-0.9-0.1-1.6-0.5-2.1-1.2c-0.6-0.7-0.8-1.5-0.7-2.3C265.2,38.2,266.7,37.1,268.2,37.1z"/>
				</g>
			</g>
		</g>
		<g>
			<g>
				<g>
					<path class="st48" d="M28.3,27.2c0-0.2,0-0.3,0-0.5c0-0.1,0-0.3,0-0.5c0-0.2,0.1-0.3,0.1-0.5c0-0.1,0.1-0.3,0.2-0.4
						c0.1-0.1,0.2-0.3,0.2-0.4c0.1-0.1,0.2-0.2,0.4-0.2c0.1-0.1,0.3-0.1,0.5-0.1s0.3,0,0.5,0.1c0.1,0.1,0.3,0.1,0.4,0.2
						c0.1,0.1,0.2,0.2,0.2,0.4c0.1,0.1,0.1,0.3,0.2,0.4S31,26,31,26.2c0,0.2,0,0.3,0,0.5c0,0.1,0,0.3,0,0.5c0,0.1,0,0.3,0,0.4
						c0,0.1,0,0.2,0,0.4c0,0.1,0,0.3,0,0.4c0,0.1,0,0.2-0.1,0.3c0,0.1-0.1,0.2-0.1,0.3s-0.1,0.2-0.1,0.3c0,0.1-0.1,0.2-0.2,0.2
						c-0.1,0.1-0.1,0.1-0.2,0.2c-0.1,0.1-0.2,0.1-0.3,0.1c-0.1,0-0.2,0-0.4,0c-0.2,0-0.3,0-0.5-0.1c-0.1-0.1-0.3-0.1-0.4-0.2
						c-0.1-0.1-0.2-0.2-0.2-0.4c-0.1-0.1-0.1-0.3-0.2-0.4s-0.1-0.3-0.1-0.5c0-0.2,0-0.4,0-0.5C28.3,27.5,28.3,27.4,28.3,27.2z
						 M28.9,27.2c0,0.2,0,0.4,0,0.5c0,0.1,0,0.3,0,0.5c0,0.2,0,0.3,0.1,0.4c0,0.1,0.1,0.2,0.1,0.3c0.1,0.1,0.1,0.2,0.2,0.2
						s0.2,0.1,0.3,0.1c0.1,0,0.2,0,0.3-0.1c0.1,0,0.1-0.1,0.2-0.2c0.1-0.1,0.1-0.2,0.1-0.3c0-0.1,0.1-0.2,0.1-0.3s0-0.2,0.1-0.4
						c0-0.1,0-0.3,0-0.4c0-0.1,0-0.3,0-0.4c0-0.1,0-0.3,0-0.4c0-0.1,0-0.3,0-0.4c0-0.1,0-0.3-0.1-0.4c0-0.1-0.1-0.2-0.1-0.3
						c0-0.1-0.1-0.2-0.1-0.3c-0.1-0.1-0.1-0.1-0.2-0.2c-0.1,0-0.2-0.1-0.3-0.1c-0.1,0-0.2,0-0.3,0.1c-0.1,0-0.1,0.1-0.2,0.2
						c-0.1,0.1-0.1,0.2-0.1,0.3c0,0.1-0.1,0.2-0.1,0.3c0,0.1,0,0.2-0.1,0.4c0,0.1,0,0.3,0,0.4C28.9,26.9,28.9,27,28.9,27.2z"/>
					<path class="st48" d="M31.7,29.6c0-0.2,0-0.4,0-0.6c0-0.2,0.1-0.3,0.2-0.5c0.1-0.2,0.2-0.3,0.4-0.5c0.2-0.2,0.4-0.4,0.7-0.6
						c0.2-0.2,0.4-0.4,0.6-0.6c0.1-0.2,0.2-0.5,0.2-0.8c0-0.3-0.1-0.5-0.2-0.7c-0.1-0.2-0.3-0.2-0.6-0.2c-0.1,0-0.2,0-0.3,0.1
						c-0.1,0-0.2,0.1-0.2,0.2c-0.1,0.1-0.1,0.2-0.1,0.3c0,0.1,0,0.2-0.1,0.3c0,0.1,0,0.2,0,0.4h-0.6v-0.2c0-0.2,0-0.4,0.1-0.6
						c0.1-0.2,0.1-0.3,0.2-0.5c0.1-0.1,0.2-0.2,0.4-0.3c0.2-0.1,0.4-0.1,0.6-0.1c0.4,0,0.7,0.1,1,0.4c0.2,0.3,0.3,0.6,0.3,1
						c0,0.2,0,0.4-0.1,0.5c0,0.2-0.1,0.3-0.2,0.4c-0.1,0.1-0.2,0.3-0.3,0.4c-0.1,0.1-0.2,0.2-0.4,0.3C33.2,27.8,33.1,28,33,28
						c-0.1,0.1-0.2,0.2-0.3,0.3s-0.2,0.2-0.2,0.2c0,0-0.1,0.1-0.1,0.2c0,0.1-0.1,0.1-0.1,0.2c0,0.1,0,0.1,0,0.2h2.1v0.5H31.7z"/>
				</g>
			</g>
			<g>
				<g>
					<path class="st48" d="M52.3,27.2c0-0.2,0-0.3,0-0.5c0-0.1,0-0.3,0-0.5c0-0.2,0.1-0.3,0.1-0.5c0-0.1,0.1-0.3,0.2-0.4
						c0.1-0.1,0.2-0.3,0.2-0.4c0.1-0.1,0.2-0.2,0.4-0.2c0.1-0.1,0.3-0.1,0.5-0.1c0.2,0,0.3,0,0.5,0.1c0.1,0.1,0.3,0.1,0.4,0.2
						c0.1,0.1,0.2,0.2,0.2,0.4c0.1,0.1,0.1,0.3,0.2,0.4S55,26,55,26.2c0,0.2,0,0.3,0,0.5c0,0.1,0,0.3,0,0.5c0,0.1,0,0.3,0,0.4
						c0,0.1,0,0.2,0,0.4c0,0.1,0,0.3,0,0.4c0,0.1,0,0.2-0.1,0.3s-0.1,0.2-0.1,0.3s-0.1,0.2-0.1,0.3c0,0.1-0.1,0.2-0.2,0.2
						c-0.1,0.1-0.1,0.1-0.2,0.2c-0.1,0.1-0.2,0.1-0.3,0.1c-0.1,0-0.2,0-0.4,0c-0.2,0-0.3,0-0.5-0.1c-0.1-0.1-0.3-0.1-0.4-0.2
						c-0.1-0.1-0.2-0.2-0.2-0.4c-0.1-0.1-0.1-0.3-0.2-0.4s-0.1-0.3-0.1-0.5c0-0.2,0-0.4,0-0.5C52.3,27.5,52.3,27.4,52.3,27.2z
						 M52.9,27.2c0,0.2,0,0.4,0,0.5c0,0.1,0,0.3,0,0.5c0,0.2,0,0.3,0.1,0.4c0,0.1,0.1,0.2,0.1,0.3c0.1,0.1,0.1,0.2,0.2,0.2
						c0.1,0.1,0.2,0.1,0.3,0.1c0.1,0,0.2,0,0.3-0.1c0.1,0,0.1-0.1,0.2-0.2c0.1-0.1,0.1-0.2,0.1-0.3c0-0.1,0.1-0.2,0.1-0.3
						s0-0.2,0.1-0.4c0-0.1,0-0.3,0-0.4c0-0.1,0-0.3,0-0.4c0-0.1,0-0.3,0-0.4s0-0.3,0-0.4c0-0.1,0-0.3-0.1-0.4c0-0.1-0.1-0.2-0.1-0.3
						c0-0.1-0.1-0.2-0.1-0.3c-0.1-0.1-0.1-0.1-0.2-0.2c-0.1,0-0.2-0.1-0.3-0.1c-0.1,0-0.2,0-0.3,0.1c-0.1,0-0.1,0.1-0.2,0.2
						c-0.1,0.1-0.1,0.2-0.1,0.3c0,0.1-0.1,0.2-0.1,0.3c0,0.1,0,0.2-0.1,0.4c0,0.1,0,0.3,0,0.4C52.9,26.9,52.9,27,52.9,27.2z"/>
					<path class="st48" d="M55.5,28.4v-0.5l1.9-3.3h0.5v3.3h0.4v0.5h-0.4v1.3h-0.6v-1.3H55.5z M56,27.9h1.4v-2.4L56,27.9z"/>
				</g>
			</g>
			<g>
				<g>
					<path class="st48" d="M76.3,27.2c0-0.2,0-0.3,0-0.5c0-0.1,0-0.3,0-0.5c0-0.2,0.1-0.3,0.1-0.5c0-0.1,0.1-0.3,0.2-0.4
						c0.1-0.1,0.2-0.3,0.2-0.4c0.1-0.1,0.2-0.2,0.4-0.2c0.1-0.1,0.3-0.1,0.5-0.1s0.3,0,0.5,0.1c0.1,0.1,0.3,0.1,0.4,0.2
						c0.1,0.1,0.2,0.2,0.2,0.4c0.1,0.1,0.1,0.3,0.2,0.4S79,26,79,26.2c0,0.2,0,0.3,0,0.5c0,0.1,0,0.3,0,0.5c0,0.1,0,0.3,0,0.4
						c0,0.1,0,0.2,0,0.4c0,0.1,0,0.3,0,0.4c0,0.1,0,0.2-0.1,0.3s-0.1,0.2-0.1,0.3s-0.1,0.2-0.1,0.3c0,0.1-0.1,0.2-0.2,0.2
						c-0.1,0.1-0.1,0.1-0.2,0.2c-0.1,0.1-0.2,0.1-0.3,0.1c-0.1,0-0.2,0-0.4,0c-0.2,0-0.3,0-0.5-0.1c-0.1-0.1-0.3-0.1-0.4-0.2
						c-0.1-0.1-0.2-0.2-0.2-0.4c-0.1-0.1-0.1-0.3-0.2-0.4c0-0.1-0.1-0.3-0.1-0.5c0-0.2,0-0.4,0-0.5C76.3,27.5,76.3,27.4,76.3,27.2z
						 M76.9,27.2c0,0.2,0,0.4,0,0.5c0,0.1,0,0.3,0,0.5c0,0.2,0,0.3,0.1,0.4c0,0.1,0.1,0.2,0.1,0.3c0.1,0.1,0.1,0.2,0.2,0.2
						s0.2,0.1,0.3,0.1c0.1,0,0.2,0,0.3-0.1c0.1,0,0.1-0.1,0.2-0.2c0.1-0.1,0.1-0.2,0.1-0.3c0-0.1,0.1-0.2,0.1-0.3
						c0-0.1,0-0.2,0.1-0.4c0-0.1,0-0.3,0-0.4c0-0.1,0-0.3,0-0.4c0-0.1,0-0.3,0-0.4s0-0.3,0-0.4c0-0.1,0-0.3-0.1-0.4
						c0-0.1-0.1-0.2-0.1-0.3c0-0.1-0.1-0.2-0.1-0.3c-0.1-0.1-0.1-0.1-0.2-0.2c-0.1,0-0.2-0.1-0.3-0.1c-0.1,0-0.2,0-0.3,0.1
						c-0.1,0-0.1,0.1-0.2,0.2c-0.1,0.1-0.1,0.2-0.1,0.3c0,0.1-0.1,0.2-0.1,0.3c0,0.1,0,0.2-0.1,0.4c0,0.1,0,0.3,0,0.4
						C76.9,26.9,76.9,27,76.9,27.2z"/>
					<path class="st48" d="M79.6,27.4c0-0.2,0-0.4,0-0.5c0-0.1,0-0.3,0.1-0.5c0-0.2,0.1-0.4,0.1-0.5c0-0.1,0.1-0.3,0.1-0.5
						c0.1-0.2,0.2-0.3,0.3-0.4c0.1-0.1,0.2-0.2,0.4-0.3c0.2-0.1,0.3-0.1,0.5-0.1c0.3,0,0.6,0.1,0.8,0.3c0.2,0.2,0.3,0.5,0.3,0.9
						h-0.6c0-0.3-0.1-0.4-0.2-0.5c-0.1-0.1-0.3-0.2-0.5-0.2c-0.1,0-0.2,0-0.3,0.1c-0.1,0.1-0.1,0.1-0.2,0.2
						c-0.1,0.1-0.1,0.2-0.1,0.3c0,0.1-0.1,0.3-0.1,0.5c0,0.2-0.1,0.3-0.1,0.4c0,0,0,0.1,0,0.2c0,0.1,0,0.2,0,0.3h0
						c0.1-0.2,0.2-0.4,0.4-0.5c0.2-0.1,0.4-0.2,0.5-0.2c0.2,0,0.4,0,0.6,0.1c0.2,0.1,0.3,0.2,0.4,0.3c0.1,0.1,0.2,0.3,0.2,0.5
						c0.1,0.2,0.1,0.4,0.1,0.6c0,0.5-0.1,1-0.4,1.3c-0.3,0.3-0.6,0.5-1,0.5c-0.1,0-0.3,0-0.4,0c-0.1,0-0.2-0.1-0.3-0.1
						c-0.1-0.1-0.2-0.1-0.2-0.2c-0.1-0.1-0.1-0.2-0.2-0.3c0-0.1-0.1-0.2-0.1-0.3s-0.1-0.2-0.1-0.3c0-0.1,0-0.2,0-0.4
						c0-0.1,0-0.3,0-0.4C79.6,27.7,79.6,27.5,79.6,27.4z M80.2,28c0,0.5,0.1,0.8,0.2,1c0.1,0.2,0.3,0.3,0.6,0.3c0.2,0,0.3,0,0.4-0.1
						c0.1-0.1,0.2-0.2,0.2-0.3c0.1-0.1,0.1-0.3,0.1-0.4c0-0.1,0-0.3,0-0.4c0-0.7-0.3-1.1-0.8-1.1C80.5,26.9,80.2,27.3,80.2,28z"/>
				</g>
			</g>
			<g>
				<g>
					<path class="st48" d="M100.3,27.2c0-0.2,0-0.3,0-0.5c0-0.1,0-0.3,0-0.5c0-0.2,0.1-0.3,0.1-0.5c0-0.1,0.1-0.3,0.2-0.4
						c0.1-0.1,0.2-0.3,0.2-0.4c0.1-0.1,0.2-0.2,0.4-0.2c0.1-0.1,0.3-0.1,0.5-0.1c0.2,0,0.3,0,0.5,0.1c0.1,0.1,0.3,0.1,0.4,0.2
						c0.1,0.1,0.2,0.2,0.2,0.4c0.1,0.1,0.1,0.3,0.2,0.4s0.1,0.3,0.1,0.5c0,0.2,0,0.3,0,0.5c0,0.1,0,0.3,0,0.5c0,0.1,0,0.3,0,0.4
						c0,0.1,0,0.2,0,0.4c0,0.1,0,0.3,0,0.4c0,0.1,0,0.2-0.1,0.3c0,0.1-0.1,0.2-0.1,0.3s-0.1,0.2-0.1,0.3c0,0.1-0.1,0.2-0.2,0.2
						c-0.1,0.1-0.1,0.1-0.2,0.2c-0.1,0.1-0.2,0.1-0.3,0.1c-0.1,0-0.2,0-0.4,0c-0.2,0-0.3,0-0.5-0.1c-0.1-0.1-0.3-0.1-0.4-0.2
						c-0.1-0.1-0.2-0.2-0.2-0.4c-0.1-0.1-0.1-0.3-0.2-0.4s-0.1-0.3-0.1-0.5c0-0.2,0-0.4,0-0.5C100.3,27.5,100.3,27.4,100.3,27.2z
						 M100.9,27.2c0,0.2,0,0.4,0,0.5c0,0.1,0,0.3,0,0.5c0,0.2,0,0.3,0.1,0.4c0,0.1,0.1,0.2,0.1,0.3c0.1,0.1,0.1,0.2,0.2,0.2
						c0.1,0.1,0.2,0.1,0.3,0.1c0.1,0,0.2,0,0.3-0.1c0.1,0,0.1-0.1,0.2-0.2c0.1-0.1,0.1-0.2,0.1-0.3c0-0.1,0.1-0.2,0.1-0.3
						c0-0.1,0-0.2,0.1-0.4c0-0.1,0-0.3,0-0.4c0-0.1,0-0.3,0-0.4c0-0.1,0-0.3,0-0.4s0-0.3,0-0.4c0-0.1,0-0.3-0.1-0.4
						c0-0.1-0.1-0.2-0.1-0.3c0-0.1-0.1-0.2-0.1-0.3c-0.1-0.1-0.1-0.1-0.2-0.2c-0.1,0-0.2-0.1-0.3-0.1c-0.1,0-0.2,0-0.3,0.1
						c-0.1,0-0.1,0.1-0.2,0.2c-0.1,0.1-0.1,0.2-0.1,0.3c0,0.1-0.1,0.2-0.1,0.3c0,0.1,0,0.2-0.1,0.4c0,0.1,0,0.3,0,0.4
						C100.9,26.9,100.9,27,100.9,27.2z"/>
					<path class="st48" d="M103.6,28.2c0-0.2,0-0.4,0.1-0.5c0.1-0.2,0.1-0.3,0.2-0.4c0.1-0.1,0.2-0.2,0.3-0.3
						c0.1-0.1,0.2-0.1,0.3-0.1v0c-0.3-0.1-0.5-0.2-0.6-0.4c-0.1-0.2-0.2-0.4-0.2-0.7c0-0.1,0-0.3,0.1-0.4c0-0.1,0.1-0.3,0.2-0.4
						c0.1-0.1,0.2-0.2,0.4-0.3c0.2-0.1,0.3-0.1,0.6-0.1c0.2,0,0.3,0,0.5,0.1c0.1,0,0.3,0.1,0.3,0.2c0.1,0.1,0.2,0.2,0.2,0.3
						c0.1,0.1,0.1,0.2,0.1,0.3c0,0.1,0,0.2,0,0.4c0,0.3-0.1,0.5-0.2,0.7c-0.1,0.2-0.3,0.3-0.6,0.4v0c0.3,0,0.5,0.2,0.6,0.4
						c0.2,0.2,0.3,0.5,0.3,0.9c0,0.5-0.1,0.9-0.4,1.1c-0.2,0.3-0.6,0.4-1,0.4c-0.5,0-0.8-0.1-1-0.4
						C103.7,29.1,103.6,28.7,103.6,28.2z M104.2,28.2c0,0.2,0,0.3,0,0.4c0,0.1,0.1,0.2,0.1,0.3c0.1,0.1,0.1,0.2,0.2,0.2
						c0.1,0.1,0.2,0.1,0.4,0.1c0.1,0,0.2,0,0.3-0.1c0.1,0,0.2-0.1,0.2-0.1c0.1-0.1,0.1-0.1,0.1-0.2c0-0.1,0.1-0.2,0.1-0.3
						c0-0.1,0-0.2,0-0.3c0-0.1,0-0.3,0-0.4c0-0.1-0.1-0.2-0.1-0.3c-0.1-0.1-0.1-0.2-0.2-0.2c-0.1-0.1-0.2-0.1-0.4-0.1
						c-0.2,0-0.3,0.1-0.5,0.2c-0.1,0.1-0.2,0.2-0.3,0.4C104.2,27.9,104.2,28,104.2,28.2z M104.4,25.9c0,0.3,0.1,0.5,0.2,0.6
						c0.1,0.1,0.3,0.2,0.5,0.2c0.4,0,0.6-0.3,0.6-0.8c0-0.2-0.1-0.4-0.2-0.6c-0.1-0.1-0.3-0.2-0.5-0.2
						C104.6,25.1,104.4,25.4,104.4,25.9z"/>
				</g>
			</g>
			<g>
				<g>
					<path class="st48" d="M123.8,26v-0.4c0.2,0,0.4,0,0.5,0c0.1,0,0.2-0.1,0.3-0.1c0.1-0.1,0.2-0.2,0.2-0.3
						c0.1-0.1,0.1-0.3,0.1-0.5h0.4v5h-0.6V26H123.8z"/>
					<path class="st48" d="M127,27.2c0-0.2,0-0.3,0-0.5c0-0.1,0-0.3,0-0.5c0-0.2,0.1-0.3,0.1-0.5c0-0.1,0.1-0.3,0.2-0.4
						c0.1-0.1,0.2-0.3,0.2-0.4c0.1-0.1,0.2-0.2,0.4-0.2c0.1-0.1,0.3-0.1,0.5-0.1c0.2,0,0.3,0,0.5,0.1c0.1,0.1,0.3,0.1,0.4,0.2
						c0.1,0.1,0.2,0.2,0.2,0.4c0.1,0.1,0.1,0.3,0.2,0.4c0,0.1,0.1,0.3,0.1,0.5c0,0.2,0,0.3,0,0.5c0,0.1,0,0.3,0,0.5
						c0,0.1,0,0.3,0,0.4c0,0.1,0,0.2,0,0.4c0,0.1,0,0.3,0,0.4c0,0.1,0,0.2-0.1,0.3s-0.1,0.2-0.1,0.3c0,0.1-0.1,0.2-0.1,0.3
						c0,0.1-0.1,0.2-0.2,0.2c-0.1,0.1-0.1,0.1-0.2,0.2c-0.1,0.1-0.2,0.1-0.3,0.1c-0.1,0-0.2,0-0.4,0c-0.2,0-0.3,0-0.5-0.1
						c-0.1-0.1-0.3-0.1-0.4-0.2c-0.1-0.1-0.2-0.2-0.2-0.4c-0.1-0.1-0.1-0.3-0.2-0.4s-0.1-0.3-0.1-0.5c0-0.2,0-0.4,0-0.5
						C127,27.5,127,27.4,127,27.2z M127.6,27.2c0,0.2,0,0.4,0,0.5c0,0.1,0,0.3,0,0.5c0,0.2,0,0.3,0.1,0.4c0,0.1,0.1,0.2,0.1,0.3
						c0.1,0.1,0.1,0.2,0.2,0.2c0.1,0.1,0.2,0.1,0.3,0.1c0.1,0,0.2,0,0.3-0.1c0.1,0,0.1-0.1,0.2-0.2c0.1-0.1,0.1-0.2,0.1-0.3
						c0-0.1,0.1-0.2,0.1-0.3s0-0.2,0.1-0.4c0-0.1,0-0.3,0-0.4c0-0.1,0-0.3,0-0.4c0-0.1,0-0.3,0-0.4s0-0.3,0-0.4c0-0.1,0-0.3-0.1-0.4
						c0-0.1-0.1-0.2-0.1-0.3c0-0.1-0.1-0.2-0.1-0.3c-0.1-0.1-0.1-0.1-0.2-0.2c-0.1,0-0.2-0.1-0.3-0.1c-0.1,0-0.2,0-0.3,0.1
						c-0.1,0-0.1,0.1-0.2,0.2c-0.1,0.1-0.1,0.2-0.1,0.3c0,0.1-0.1,0.2-0.1,0.3c0,0.1,0,0.2-0.1,0.4c0,0.1,0,0.3,0,0.4
						C127.6,26.9,127.6,27,127.6,27.2z"/>
				</g>
			</g>
		</g>
		<g>
			<g>
				<g>
					<path class="st48" d="M28.3,82.4c0-0.2,0-0.3,0-0.5c0-0.1,0-0.3,0-0.5c0-0.2,0.1-0.3,0.1-0.5c0-0.1,0.1-0.3,0.2-0.4
						c0.1-0.1,0.2-0.3,0.2-0.4c0.1-0.1,0.2-0.2,0.4-0.2c0.1-0.1,0.3-0.1,0.5-0.1s0.3,0,0.5,0.1c0.1,0.1,0.3,0.1,0.4,0.2
						c0.1,0.1,0.2,0.2,0.2,0.4c0.1,0.1,0.1,0.3,0.2,0.4c0,0.1,0.1,0.3,0.1,0.5c0,0.2,0,0.3,0,0.5c0,0.1,0,0.3,0,0.5
						c0,0.1,0,0.3,0,0.4c0,0.1,0,0.2,0,0.4c0,0.1,0,0.3,0,0.4c0,0.1,0,0.2-0.1,0.3c0,0.1-0.1,0.2-0.1,0.3c0,0.1-0.1,0.2-0.1,0.3
						c0,0.1-0.1,0.2-0.2,0.2c-0.1,0.1-0.1,0.1-0.2,0.2s-0.2,0.1-0.3,0.1c-0.1,0-0.2,0-0.4,0c-0.2,0-0.3,0-0.5-0.1
						c-0.1-0.1-0.3-0.1-0.4-0.2c-0.1-0.1-0.2-0.2-0.2-0.4c-0.1-0.1-0.1-0.3-0.2-0.4c0-0.1-0.1-0.3-0.1-0.5c0-0.2,0-0.4,0-0.5
						C28.3,82.7,28.3,82.5,28.3,82.4z M28.9,82.4c0,0.2,0,0.4,0,0.5c0,0.1,0,0.3,0,0.5c0,0.2,0,0.3,0.1,0.4c0,0.1,0.1,0.2,0.1,0.3
						c0.1,0.1,0.1,0.2,0.2,0.2s0.2,0.1,0.3,0.1c0.1,0,0.2,0,0.3-0.1s0.1-0.1,0.2-0.2c0.1-0.1,0.1-0.2,0.1-0.3c0-0.1,0.1-0.2,0.1-0.3
						s0-0.2,0.1-0.4c0-0.1,0-0.3,0-0.4c0-0.1,0-0.3,0-0.4c0-0.1,0-0.3,0-0.4c0-0.1,0-0.3,0-0.4c0-0.1,0-0.3-0.1-0.4
						c0-0.1-0.1-0.2-0.1-0.3c0-0.1-0.1-0.2-0.1-0.3c-0.1-0.1-0.1-0.1-0.2-0.2c-0.1,0-0.2-0.1-0.3-0.1c-0.1,0-0.2,0-0.3,0.1
						c-0.1,0-0.1,0.1-0.2,0.2c-0.1,0.1-0.1,0.2-0.1,0.3c0,0.1-0.1,0.2-0.1,0.3c0,0.1,0,0.2-0.1,0.4c0,0.1,0,0.3,0,0.4
						C28.9,82.1,28.9,82.2,28.9,82.4z"/>
					<path class="st48" d="M31.9,81.2v-0.4c0.2,0,0.4,0,0.5,0c0.1,0,0.2-0.1,0.3-0.1c0.1-0.1,0.2-0.2,0.2-0.3C33,80.1,33,80,33,79.8
						h0.4v5h-0.6v-3.7H31.9z"/>
				</g>
			</g>
			<g>
				<g>
					<path class="st48" d="M52.3,82.4c0-0.2,0-0.3,0-0.5c0-0.1,0-0.3,0-0.5c0-0.2,0.1-0.3,0.1-0.5c0-0.1,0.1-0.3,0.2-0.4
						c0.1-0.1,0.2-0.3,0.2-0.4c0.1-0.1,0.2-0.2,0.4-0.2c0.1-0.1,0.3-0.1,0.5-0.1c0.2,0,0.3,0,0.5,0.1c0.1,0.1,0.3,0.1,0.4,0.2
						c0.1,0.1,0.2,0.2,0.2,0.4c0.1,0.1,0.1,0.3,0.2,0.4c0,0.1,0.1,0.3,0.1,0.5c0,0.2,0,0.3,0,0.5c0,0.1,0,0.3,0,0.5
						c0,0.1,0,0.3,0,0.4c0,0.1,0,0.2,0,0.4c0,0.1,0,0.3,0,0.4c0,0.1,0,0.2-0.1,0.3s-0.1,0.2-0.1,0.3c0,0.1-0.1,0.2-0.1,0.3
						c0,0.1-0.1,0.2-0.2,0.2c-0.1,0.1-0.1,0.1-0.2,0.2c-0.1,0.1-0.2,0.1-0.3,0.1c-0.1,0-0.2,0-0.4,0c-0.2,0-0.3,0-0.5-0.1
						c-0.1-0.1-0.3-0.1-0.4-0.2c-0.1-0.1-0.2-0.2-0.2-0.4c-0.1-0.1-0.1-0.3-0.2-0.4c0-0.1-0.1-0.3-0.1-0.5c0-0.2,0-0.4,0-0.5
						S52.3,82.5,52.3,82.4z M52.9,82.4c0,0.2,0,0.4,0,0.5c0,0.1,0,0.3,0,0.5c0,0.2,0,0.3,0.1,0.4c0,0.1,0.1,0.2,0.1,0.3
						s0.1,0.2,0.2,0.2c0.1,0.1,0.2,0.1,0.3,0.1c0.1,0,0.2,0,0.3-0.1s0.1-0.1,0.2-0.2c0.1-0.1,0.1-0.2,0.1-0.3c0-0.1,0.1-0.2,0.1-0.3
						s0-0.2,0.1-0.4c0-0.1,0-0.3,0-0.4c0-0.1,0-0.3,0-0.4c0-0.1,0-0.3,0-0.4s0-0.3,0-0.4c0-0.1,0-0.3-0.1-0.4c0-0.1-0.1-0.2-0.1-0.3
						c0-0.1-0.1-0.2-0.1-0.3s-0.1-0.1-0.2-0.2c-0.1,0-0.2-0.1-0.3-0.1c-0.1,0-0.2,0-0.3,0.1c-0.1,0-0.1,0.1-0.2,0.2
						c-0.1,0.1-0.1,0.2-0.1,0.3c0,0.1-0.1,0.2-0.1,0.3s0,0.2-0.1,0.4c0,0.1,0,0.3,0,0.4C52.9,82.1,52.9,82.2,52.9,82.4z"/>
					<path class="st48" d="M55.6,83.3h0.6c0,0.1,0,0.2,0,0.3c0,0.1,0,0.2,0.1,0.3c0,0.1,0.1,0.2,0.1,0.2c0.1,0.1,0.1,0.1,0.2,0.2
						c0.1,0,0.2,0.1,0.3,0.1c0.3,0,0.5-0.1,0.6-0.2c0.1-0.2,0.2-0.4,0.2-0.7c0-0.2,0-0.4-0.1-0.5c0-0.1-0.1-0.2-0.2-0.3
						c-0.1-0.1-0.2-0.1-0.4-0.2c-0.1,0-0.3,0-0.5,0V82c0.4,0,0.6-0.1,0.8-0.2c0.2-0.1,0.3-0.3,0.3-0.7c0-0.5-0.2-0.8-0.7-0.8
						c-0.1,0-0.2,0-0.3,0.1c-0.1,0.1-0.2,0.1-0.2,0.2c-0.1,0.1-0.1,0.2-0.1,0.3c0,0.1,0,0.2,0,0.4h-0.5c0-0.4,0.1-0.8,0.3-1.1
						c0.2-0.3,0.5-0.4,0.9-0.4c0.4,0,0.7,0.1,0.9,0.3c0.2,0.2,0.3,0.5,0.3,0.9c0,0.3-0.1,0.5-0.2,0.7c-0.1,0.2-0.3,0.3-0.6,0.4
						c0.3,0.1,0.5,0.2,0.7,0.4c0.1,0.2,0.2,0.5,0.2,0.8c0,0.4-0.1,0.8-0.3,1.1s-0.6,0.4-1,0.4c-0.2,0-0.4,0-0.6-0.1
						c-0.2-0.1-0.3-0.2-0.4-0.3c-0.1-0.1-0.2-0.3-0.2-0.5S55.6,83.6,55.6,83.3z"/>
				</g>
			</g>
			<g>
				<g>
					<path class="st48" d="M76.3,82.4c0-0.2,0-0.3,0-0.5c0-0.1,0-0.3,0-0.5c0-0.2,0.1-0.3,0.1-0.5c0-0.1,0.1-0.3,0.2-0.4
						c0.1-0.1,0.2-0.3,0.2-0.4c0.1-0.1,0.2-0.2,0.4-0.2c0.1-0.1,0.3-0.1,0.5-0.1s0.3,0,0.5,0.1c0.1,0.1,0.3,0.1,0.4,0.2
						c0.1,0.1,0.2,0.2,0.2,0.4c0.1,0.1,0.1,0.3,0.2,0.4c0,0.1,0.1,0.3,0.1,0.5c0,0.2,0,0.3,0,0.5c0,0.1,0,0.3,0,0.5
						c0,0.1,0,0.3,0,0.4c0,0.1,0,0.2,0,0.4c0,0.1,0,0.3,0,0.4c0,0.1,0,0.2-0.1,0.3s-0.1,0.2-0.1,0.3c0,0.1-0.1,0.2-0.1,0.3
						c0,0.1-0.1,0.2-0.2,0.2c-0.1,0.1-0.1,0.1-0.2,0.2s-0.2,0.1-0.3,0.1c-0.1,0-0.2,0-0.4,0c-0.2,0-0.3,0-0.5-0.1
						c-0.1-0.1-0.3-0.1-0.4-0.2c-0.1-0.1-0.2-0.2-0.2-0.4c-0.1-0.1-0.1-0.3-0.2-0.4c0-0.1-0.1-0.3-0.1-0.5c0-0.2,0-0.4,0-0.5
						S76.3,82.5,76.3,82.4z M76.9,82.4c0,0.2,0,0.4,0,0.5c0,0.1,0,0.3,0,0.5c0,0.2,0,0.3,0.1,0.4c0,0.1,0.1,0.2,0.1,0.3
						c0.1,0.1,0.1,0.2,0.2,0.2s0.2,0.1,0.3,0.1c0.1,0,0.2,0,0.3-0.1c0.1,0,0.1-0.1,0.2-0.2c0.1-0.1,0.1-0.2,0.1-0.3
						c0-0.1,0.1-0.2,0.1-0.3c0-0.1,0-0.2,0.1-0.4c0-0.1,0-0.3,0-0.4c0-0.1,0-0.3,0-0.4c0-0.1,0-0.3,0-0.4s0-0.3,0-0.4
						c0-0.1,0-0.3-0.1-0.4c0-0.1-0.1-0.2-0.1-0.3c0-0.1-0.1-0.2-0.1-0.3c-0.1-0.1-0.1-0.1-0.2-0.2c-0.1,0-0.2-0.1-0.3-0.1
						c-0.1,0-0.2,0-0.3,0.1c-0.1,0-0.1,0.1-0.2,0.2c-0.1,0.1-0.1,0.2-0.1,0.3c0,0.1-0.1,0.2-0.1,0.3c0,0.1,0,0.2-0.1,0.4
						c0,0.1,0,0.3,0,0.4C76.9,82.1,76.9,82.2,76.9,82.4z"/>
					<path class="st48" d="M79.7,83.5h0.6c0,0.3,0.1,0.5,0.2,0.7c0.1,0.2,0.3,0.2,0.6,0.2c0.1,0,0.3,0,0.4-0.1
						c0.1-0.1,0.2-0.2,0.3-0.3c0.1-0.1,0.1-0.2,0.1-0.4c0-0.1,0-0.3,0-0.5c0-0.1,0-0.2,0-0.3c0-0.1,0-0.2-0.1-0.3s-0.1-0.2-0.1-0.3
						c-0.1-0.1-0.1-0.1-0.2-0.2c-0.1,0-0.2-0.1-0.4-0.1c-0.3,0-0.6,0.2-0.7,0.5h-0.5l0.3-2.6h2.1v0.5h-1.7l-0.2,1.5
						c0.1-0.1,0.3-0.2,0.4-0.3c0.1-0.1,0.3-0.1,0.4-0.1c0.2,0,0.4,0,0.6,0.1c0.2,0.1,0.3,0.2,0.4,0.4c0.1,0.2,0.2,0.3,0.2,0.5
						c0,0.2,0.1,0.4,0.1,0.6c0,0.2,0,0.4,0,0.5c0,0.2-0.1,0.3-0.1,0.5s-0.2,0.3-0.3,0.4c-0.1,0.1-0.2,0.2-0.4,0.3
						c-0.2,0.1-0.3,0.1-0.5,0.1c-0.4,0-0.8-0.1-1-0.4C79.8,84.3,79.7,84,79.7,83.5z"/>
				</g>
			</g>
			<g>
				<g>
					<path class="st48" d="M100.3,82.4c0-0.2,0-0.3,0-0.5c0-0.1,0-0.3,0-0.5c0-0.2,0.1-0.3,0.1-0.5c0-0.1,0.1-0.3,0.2-0.4
						c0.1-0.1,0.2-0.3,0.2-0.4c0.1-0.1,0.2-0.2,0.4-0.2c0.1-0.1,0.3-0.1,0.5-0.1c0.2,0,0.3,0,0.5,0.1c0.1,0.1,0.3,0.1,0.4,0.2
						c0.1,0.1,0.2,0.2,0.2,0.4c0.1,0.1,0.1,0.3,0.2,0.4c0,0.1,0.1,0.3,0.1,0.5c0,0.2,0,0.3,0,0.5c0,0.1,0,0.3,0,0.5
						c0,0.1,0,0.3,0,0.4c0,0.1,0,0.2,0,0.4c0,0.1,0,0.3,0,0.4c0,0.1,0,0.2-0.1,0.3c0,0.1-0.1,0.2-0.1,0.3c0,0.1-0.1,0.2-0.1,0.3
						c0,0.1-0.1,0.2-0.2,0.2c-0.1,0.1-0.1,0.1-0.2,0.2c-0.1,0.1-0.2,0.1-0.3,0.1c-0.1,0-0.2,0-0.4,0c-0.2,0-0.3,0-0.5-0.1
						c-0.1-0.1-0.3-0.1-0.4-0.2c-0.1-0.1-0.2-0.2-0.2-0.4c-0.1-0.1-0.1-0.3-0.2-0.4c0-0.1-0.1-0.3-0.1-0.5c0-0.2,0-0.4,0-0.5
						S100.3,82.5,100.3,82.4z M100.9,82.4c0,0.2,0,0.4,0,0.5c0,0.1,0,0.3,0,0.5c0,0.2,0,0.3,0.1,0.4c0,0.1,0.1,0.2,0.1,0.3
						s0.1,0.2,0.2,0.2c0.1,0.1,0.2,0.1,0.3,0.1c0.1,0,0.2,0,0.3-0.1s0.1-0.1,0.2-0.2c0.1-0.1,0.1-0.2,0.1-0.3c0-0.1,0.1-0.2,0.1-0.3
						c0-0.1,0-0.2,0.1-0.4c0-0.1,0-0.3,0-0.4c0-0.1,0-0.3,0-0.4c0-0.1,0-0.3,0-0.4s0-0.3,0-0.4c0-0.1,0-0.3-0.1-0.4
						c0-0.1-0.1-0.2-0.1-0.3c0-0.1-0.1-0.2-0.1-0.3c-0.1-0.1-0.1-0.1-0.2-0.2c-0.1,0-0.2-0.1-0.3-0.1c-0.1,0-0.2,0-0.3,0.1
						c-0.1,0-0.1,0.1-0.2,0.2c-0.1,0.1-0.1,0.2-0.1,0.3c0,0.1-0.1,0.2-0.1,0.3c0,0.1,0,0.2-0.1,0.4c0,0.1,0,0.3,0,0.4
						C100.9,82.1,100.9,82.2,100.9,82.4z"/>
					<path class="st48" d="M103.6,80.4v-0.5h2.8v0.5c-0.5,0.6-0.9,1.3-1.1,2.1c-0.3,0.8-0.5,1.5-0.5,2.4h-0.6
						c0.1-0.8,0.3-1.6,0.6-2.3c0.3-0.8,0.7-1.5,1.2-2.1H103.6z"/>
				</g>
			</g>
			<g>
				<g>
					<path class="st48" d="M123.6,82.4c0-0.2,0-0.3,0-0.5c0-0.1,0-0.3,0-0.5c0-0.2,0.1-0.3,0.1-0.5c0-0.1,0.1-0.3,0.2-0.4
						c0.1-0.1,0.2-0.3,0.2-0.4c0.1-0.1,0.2-0.2,0.4-0.2c0.1-0.1,0.3-0.1,0.5-0.1c0.2,0,0.3,0,0.5,0.1c0.1,0.1,0.3,0.1,0.4,0.2
						c0.1,0.1,0.2,0.2,0.2,0.4c0.1,0.1,0.1,0.3,0.2,0.4c0,0.1,0.1,0.3,0.1,0.5c0,0.2,0,0.3,0,0.5c0,0.1,0,0.3,0,0.5
						c0,0.1,0,0.3,0,0.4c0,0.1,0,0.2,0,0.4c0,0.1,0,0.3,0,0.4c0,0.1,0,0.2-0.1,0.3c0,0.1-0.1,0.2-0.1,0.3c0,0.1-0.1,0.2-0.1,0.3
						c0,0.1-0.1,0.2-0.2,0.2c-0.1,0.1-0.1,0.1-0.2,0.2c-0.1,0.1-0.2,0.1-0.3,0.1c-0.1,0-0.2,0-0.4,0c-0.2,0-0.3,0-0.5-0.1
						c-0.1-0.1-0.3-0.1-0.4-0.2c-0.1-0.1-0.2-0.2-0.2-0.4c-0.1-0.1-0.1-0.3-0.2-0.4c0-0.1-0.1-0.3-0.1-0.5c0-0.2,0-0.4,0-0.5
						C123.6,82.7,123.6,82.5,123.6,82.4z M124.2,82.4c0,0.2,0,0.4,0,0.5c0,0.1,0,0.3,0,0.5c0,0.2,0,0.3,0.1,0.4
						c0,0.1,0.1,0.2,0.1,0.3c0.1,0.1,0.1,0.2,0.2,0.2s0.2,0.1,0.3,0.1c0.1,0,0.2,0,0.3-0.1s0.1-0.1,0.2-0.2c0.1-0.1,0.1-0.2,0.1-0.3
						c0-0.1,0.1-0.2,0.1-0.3c0-0.1,0-0.2,0.1-0.4c0-0.1,0-0.3,0-0.4c0-0.1,0-0.3,0-0.4c0-0.1,0-0.3,0-0.4s0-0.3,0-0.4
						c0-0.1,0-0.3-0.1-0.4c0-0.1-0.1-0.2-0.1-0.3c0-0.1-0.1-0.2-0.1-0.3s-0.1-0.1-0.2-0.2c-0.1,0-0.2-0.1-0.3-0.1
						c-0.1,0-0.2,0-0.3,0.1c-0.1,0-0.1,0.1-0.2,0.2c-0.1,0.1-0.1,0.2-0.1,0.3c0,0.1-0.1,0.2-0.1,0.3s0,0.2-0.1,0.4
						c0,0.1,0,0.3,0,0.4C124.2,82.1,124.2,82.2,124.2,82.4z"/>
					<path class="st48" d="M127,81.6c0-0.5,0.1-1,0.4-1.3c0.3-0.3,0.6-0.5,1-0.5c0.2,0,0.4,0,0.5,0.1c0.2,0.1,0.3,0.1,0.4,0.2
						c0.1,0.1,0.2,0.2,0.3,0.3c0.1,0.1,0.1,0.3,0.2,0.4c0,0.1,0.1,0.3,0.1,0.4c0,0.2,0,0.3,0,0.5c0,0.1,0,0.3,0,0.5
						c0,0.2,0,0.4,0,0.5c0,0.1,0,0.3,0,0.5c0,0.2,0,0.4-0.1,0.5c0,0.1-0.1,0.3-0.2,0.5c-0.1,0.2-0.2,0.3-0.3,0.4
						c-0.1,0.1-0.2,0.2-0.4,0.3c-0.2,0.1-0.3,0.1-0.5,0.1c-0.4,0-0.7-0.1-0.9-0.3c-0.2-0.2-0.3-0.5-0.3-0.9h0.6
						c0,0.2,0.1,0.4,0.2,0.5c0.1,0.1,0.3,0.2,0.5,0.2c0.1,0,0.2,0,0.2,0c0.1,0,0.1-0.1,0.2-0.2c0.1-0.1,0.1-0.1,0.1-0.2
						c0-0.1,0.1-0.2,0.1-0.3c0-0.1,0.1-0.2,0.1-0.3c0-0.1,0-0.2,0.1-0.3c0-0.1,0-0.2,0-0.3c0-0.1,0-0.2,0-0.3h0
						c-0.1,0.2-0.2,0.4-0.4,0.5c-0.2,0.1-0.3,0.2-0.5,0.2c-0.2,0-0.4,0-0.6-0.1c-0.2-0.1-0.3-0.2-0.4-0.3c-0.1-0.1-0.2-0.3-0.2-0.5
						C127,82,127,81.8,127,81.6z M127.5,81.5c0,0.1,0,0.2,0,0.3c0,0.1,0,0.2,0.1,0.3c0,0.1,0.1,0.2,0.1,0.3c0.1,0.1,0.1,0.1,0.2,0.2
						c0.1,0,0.2,0.1,0.3,0.1c0.1,0,0.3,0,0.4-0.1c0.1-0.1,0.2-0.1,0.3-0.2c0.1-0.1,0.1-0.2,0.1-0.3c0-0.1,0-0.2,0-0.4
						c0-0.1,0-0.3,0-0.4c0-0.1-0.1-0.3-0.1-0.4c-0.1-0.1-0.1-0.2-0.3-0.3c-0.1-0.1-0.2-0.1-0.4-0.1c-0.1,0-0.3,0-0.4,0.1
						c-0.1,0.1-0.2,0.2-0.2,0.3c-0.1,0.1-0.1,0.2-0.1,0.4C127.5,81.2,127.5,81.3,127.5,81.5z"/>
				</g>
			</g>
		</g>
		<g>
			<g>
				<g>
					<path class="st48" d="M147.1,26v-0.4c0.2,0,0.4,0,0.5,0c0.1,0,0.2-0.1,0.3-0.1c0.1-0.1,0.2-0.2,0.2-0.3
						c0.1-0.1,0.1-0.3,0.1-0.5h0.4v5h-0.6V26H147.1z"/>
					<path class="st48" d="M150.2,29.6c0-0.2,0-0.4,0-0.6c0-0.2,0.1-0.3,0.2-0.5c0.1-0.2,0.2-0.3,0.4-0.5c0.2-0.2,0.4-0.4,0.7-0.6
						c0.2-0.2,0.4-0.4,0.6-0.6c0.1-0.2,0.2-0.5,0.2-0.8c0-0.3-0.1-0.5-0.2-0.7c-0.1-0.2-0.3-0.2-0.6-0.2c-0.1,0-0.2,0-0.3,0.1
						c-0.1,0-0.2,0.1-0.2,0.2c-0.1,0.1-0.1,0.2-0.1,0.3c0,0.1,0,0.2-0.1,0.3c0,0.1,0,0.2,0,0.4h-0.6v-0.2c0-0.2,0-0.4,0.1-0.6
						c0.1-0.2,0.1-0.3,0.2-0.5c0.1-0.1,0.2-0.2,0.4-0.3c0.2-0.1,0.4-0.1,0.6-0.1c0.4,0,0.7,0.1,1,0.4c0.2,0.3,0.3,0.6,0.3,1
						c0,0.2,0,0.4-0.1,0.5c0,0.2-0.1,0.3-0.2,0.4c-0.1,0.1-0.2,0.3-0.3,0.4c-0.1,0.1-0.2,0.2-0.4,0.3c-0.2,0.2-0.3,0.3-0.4,0.4
						c-0.1,0.1-0.2,0.2-0.3,0.3s-0.2,0.2-0.2,0.2c0,0-0.1,0.1-0.1,0.2c0,0.1-0.1,0.1-0.1,0.2c0,0.1,0,0.1,0,0.2h2.1v0.5H150.2z"/>
				</g>
			</g>
			<g>
				<g>
					<path class="st48" d="M171.1,26v-0.4c0.2,0,0.4,0,0.5,0c0.1,0,0.2-0.1,0.3-0.1c0.1-0.1,0.2-0.2,0.2-0.3
						c0.1-0.1,0.1-0.3,0.1-0.5h0.4v5h-0.6V26H171.1z"/>
					<path class="st48" d="M174.1,28.4v-0.5l1.9-3.3h0.5v3.3h0.4v0.5h-0.4v1.3H176v-1.3H174.1z M174.6,27.9h1.4v-2.4L174.6,27.9z"/>
				</g>
			</g>
			<g>
				<g>
					<path class="st48" d="M195.1,26v-0.4c0.2,0,0.4,0,0.5,0c0.1,0,0.2-0.1,0.3-0.1c0.1-0.1,0.2-0.2,0.2-0.3
						c0.1-0.1,0.1-0.3,0.1-0.5h0.4v5h-0.6V26H195.1z"/>
					<path class="st48" d="M198.2,27.4c0-0.2,0-0.4,0-0.5c0-0.1,0-0.3,0.1-0.5c0-0.2,0.1-0.4,0.1-0.5c0-0.1,0.1-0.3,0.1-0.5
						c0.1-0.2,0.2-0.3,0.3-0.4c0.1-0.1,0.2-0.2,0.4-0.3c0.2-0.1,0.3-0.1,0.5-0.1c0.3,0,0.6,0.1,0.8,0.3c0.2,0.2,0.3,0.5,0.3,0.9
						h-0.6c0-0.3-0.1-0.4-0.2-0.5c-0.1-0.1-0.3-0.2-0.5-0.2c-0.1,0-0.2,0-0.3,0.1c-0.1,0.1-0.1,0.1-0.2,0.2
						c-0.1,0.1-0.1,0.2-0.1,0.3c0,0.1-0.1,0.3-0.1,0.5c0,0.2-0.1,0.3-0.1,0.4c0,0,0,0.1,0,0.2c0,0.1,0,0.2,0,0.3h0
						c0.1-0.2,0.2-0.4,0.4-0.5c0.2-0.1,0.4-0.2,0.5-0.2c0.2,0,0.4,0,0.6,0.1c0.2,0.1,0.3,0.2,0.4,0.3c0.1,0.1,0.2,0.3,0.2,0.5
						c0.1,0.2,0.1,0.4,0.1,0.6c0,0.5-0.1,1-0.4,1.3c-0.3,0.3-0.6,0.5-1,0.5c-0.1,0-0.3,0-0.4,0c-0.1,0-0.2-0.1-0.3-0.1
						s-0.2-0.1-0.2-0.2c-0.1-0.1-0.1-0.2-0.2-0.3c0-0.1-0.1-0.2-0.1-0.3c0-0.1-0.1-0.2-0.1-0.3c0-0.1,0-0.2,0-0.4c0-0.1,0-0.3,0-0.4
						C198.2,27.7,198.2,27.5,198.2,27.4z M198.8,28c0,0.5,0.1,0.8,0.2,1c0.1,0.2,0.3,0.3,0.6,0.3c0.2,0,0.3,0,0.4-0.1
						c0.1-0.1,0.2-0.2,0.2-0.3c0.1-0.1,0.1-0.3,0.1-0.4c0-0.1,0-0.3,0-0.4c0-0.7-0.3-1.1-0.8-1.1C199.1,26.9,198.8,27.3,198.8,28z"
						/>
				</g>
			</g>
			<g>
				<g>
					<path class="st48" d="M219,26v-0.4c0.2,0,0.4,0,0.5,0c0.1,0,0.2-0.1,0.3-0.1c0.1-0.1,0.2-0.2,0.2-0.3c0.1-0.1,0.1-0.3,0.1-0.5
						h0.4v5h-0.6V26H219z"/>
					<path class="st48" d="M222.2,28.2c0-0.2,0-0.4,0.1-0.5c0.1-0.2,0.1-0.3,0.2-0.4c0.1-0.1,0.2-0.2,0.3-0.3
						c0.1-0.1,0.2-0.1,0.3-0.1v0c-0.3-0.1-0.5-0.2-0.6-0.4c-0.1-0.2-0.2-0.4-0.2-0.7c0-0.1,0-0.3,0.1-0.4c0-0.1,0.1-0.3,0.2-0.4
						c0.1-0.1,0.2-0.2,0.4-0.3c0.2-0.1,0.3-0.1,0.6-0.1c0.2,0,0.3,0,0.5,0.1c0.1,0,0.3,0.1,0.3,0.2c0.1,0.1,0.2,0.2,0.2,0.3
						c0.1,0.1,0.1,0.2,0.1,0.3c0,0.1,0,0.2,0,0.4c0,0.3-0.1,0.5-0.2,0.7c-0.1,0.2-0.3,0.3-0.6,0.4v0c0.3,0,0.5,0.2,0.6,0.4
						c0.2,0.2,0.3,0.5,0.3,0.9c0,0.5-0.1,0.9-0.4,1.1c-0.2,0.3-0.6,0.4-1,0.4c-0.5,0-0.8-0.1-1-0.4
						C222.3,29.1,222.2,28.7,222.2,28.2z M222.8,28.2c0,0.2,0,0.3,0,0.4c0,0.1,0.1,0.2,0.1,0.3c0.1,0.1,0.1,0.2,0.2,0.2
						c0.1,0.1,0.2,0.1,0.4,0.1c0.1,0,0.2,0,0.3-0.1c0.1,0,0.2-0.1,0.2-0.1c0.1-0.1,0.1-0.1,0.1-0.2c0-0.1,0.1-0.2,0.1-0.3
						c0-0.1,0-0.2,0-0.3c0-0.1,0-0.3,0-0.4c0-0.1-0.1-0.2-0.1-0.3c-0.1-0.1-0.1-0.2-0.2-0.2c-0.1-0.1-0.2-0.1-0.4-0.1
						c-0.2,0-0.3,0.1-0.5,0.2c-0.1,0.1-0.2,0.2-0.3,0.4S222.8,28,222.8,28.2z M222.9,25.9c0,0.3,0.1,0.5,0.2,0.6s0.3,0.2,0.5,0.2
						c0.4,0,0.6-0.3,0.6-0.8c0-0.2-0.1-0.4-0.2-0.6c-0.1-0.1-0.3-0.2-0.5-0.2C223.2,25.1,222.9,25.4,222.9,25.9z"/>
				</g>
			</g>
			<g>
				<g>
					<path class="st48" d="M242.2,29.6c0-0.2,0-0.4,0-0.6c0-0.2,0.1-0.3,0.2-0.5c0.1-0.2,0.2-0.3,0.4-0.5c0.2-0.2,0.4-0.4,0.7-0.6
						c0.2-0.2,0.4-0.4,0.6-0.6c0.1-0.2,0.2-0.5,0.2-0.8c0-0.3-0.1-0.5-0.2-0.7c-0.1-0.2-0.3-0.2-0.6-0.2c-0.1,0-0.2,0-0.3,0.1
						c-0.1,0-0.2,0.1-0.2,0.2c-0.1,0.1-0.1,0.2-0.1,0.3c0,0.1,0,0.2-0.1,0.3c0,0.1,0,0.2,0,0.4h-0.6v-0.2c0-0.2,0-0.4,0.1-0.6
						c0.1-0.2,0.1-0.3,0.2-0.5c0.1-0.1,0.2-0.2,0.4-0.3c0.2-0.1,0.4-0.1,0.6-0.1c0.4,0,0.7,0.1,1,0.4c0.2,0.3,0.3,0.6,0.3,1
						c0,0.2,0,0.4-0.1,0.5c0,0.2-0.1,0.3-0.2,0.4c-0.1,0.1-0.2,0.3-0.3,0.4c-0.1,0.1-0.2,0.2-0.4,0.3c-0.2,0.2-0.3,0.3-0.4,0.4
						c-0.1,0.1-0.2,0.2-0.3,0.3c-0.1,0.1-0.2,0.2-0.2,0.2c0,0-0.1,0.1-0.1,0.2c0,0.1-0.1,0.1-0.1,0.2c0,0.1,0,0.1,0,0.2h2.1v0.5
						H242.2z"/>
					<path class="st48" d="M245.6,27.2c0-0.2,0-0.3,0-0.5c0-0.1,0-0.3,0-0.5c0-0.2,0.1-0.3,0.1-0.5c0-0.1,0.1-0.3,0.2-0.4
						c0.1-0.1,0.2-0.3,0.2-0.4c0.1-0.1,0.2-0.2,0.4-0.2c0.1-0.1,0.3-0.1,0.5-0.1c0.2,0,0.3,0,0.5,0.1c0.1,0.1,0.3,0.1,0.4,0.2
						c0.1,0.1,0.2,0.2,0.2,0.4c0.1,0.1,0.1,0.3,0.2,0.4c0,0.1,0.1,0.3,0.1,0.5c0,0.2,0,0.3,0,0.5c0,0.1,0,0.3,0,0.5
						c0,0.1,0,0.3,0,0.4c0,0.1,0,0.2,0,0.4c0,0.1,0,0.3,0,0.4c0,0.1,0,0.2-0.1,0.3s-0.1,0.2-0.1,0.3c0,0.1-0.1,0.2-0.1,0.3
						c0,0.1-0.1,0.2-0.2,0.2c-0.1,0.1-0.1,0.1-0.2,0.2c-0.1,0.1-0.2,0.1-0.3,0.1c-0.1,0-0.2,0-0.4,0c-0.2,0-0.3,0-0.5-0.1
						c-0.1-0.1-0.3-0.1-0.4-0.2c-0.1-0.1-0.2-0.2-0.2-0.4c-0.1-0.1-0.1-0.3-0.2-0.4c0-0.1-0.1-0.3-0.1-0.5c0-0.2,0-0.4,0-0.5
						C245.6,27.5,245.6,27.4,245.6,27.2z M246.1,27.2c0,0.2,0,0.4,0,0.5c0,0.1,0,0.3,0,0.5c0,0.2,0,0.3,0.1,0.4
						c0,0.1,0.1,0.2,0.1,0.3c0.1,0.1,0.1,0.2,0.2,0.2s0.2,0.1,0.3,0.1c0.1,0,0.2,0,0.3-0.1c0.1,0,0.1-0.1,0.2-0.2
						c0.1-0.1,0.1-0.2,0.1-0.3c0-0.1,0.1-0.2,0.1-0.3s0-0.2,0.1-0.4c0-0.1,0-0.3,0-0.4c0-0.1,0-0.3,0-0.4c0-0.1,0-0.3,0-0.4
						s0-0.3,0-0.4c0-0.1,0-0.3-0.1-0.4c0-0.1-0.1-0.2-0.1-0.3c0-0.1-0.1-0.2-0.1-0.3c-0.1-0.1-0.1-0.1-0.2-0.2
						c-0.1,0-0.2-0.1-0.3-0.1c-0.1,0-0.2,0-0.3,0.1c-0.1,0-0.1,0.1-0.2,0.2c-0.1,0.1-0.1,0.2-0.1,0.3c0,0.1-0.1,0.2-0.1,0.3
						c0,0.1,0,0.2-0.1,0.4c0,0.1,0,0.3,0,0.4C246.1,26.9,246.1,27,246.1,27.2z"/>
				</g>
			</g>
			<g>
				<g>
					<path class="st48" d="M264.6,29.6c0-0.2,0-0.4,0-0.6c0-0.2,0.1-0.3,0.2-0.5c0.1-0.2,0.2-0.3,0.4-0.5c0.2-0.2,0.4-0.4,0.7-0.6
						c0.2-0.2,0.4-0.4,0.6-0.6c0.1-0.2,0.2-0.5,0.2-0.8c0-0.3-0.1-0.5-0.2-0.7c-0.1-0.2-0.3-0.2-0.6-0.2c-0.1,0-0.2,0-0.3,0.1
						c-0.1,0-0.2,0.1-0.2,0.2c-0.1,0.1-0.1,0.2-0.1,0.3c0,0.1,0,0.2-0.1,0.3c0,0.1,0,0.2,0,0.4h-0.6v-0.2c0-0.2,0-0.4,0.1-0.6
						c0.1-0.2,0.1-0.3,0.2-0.5c0.1-0.1,0.2-0.2,0.4-0.3c0.2-0.1,0.4-0.1,0.6-0.1c0.4,0,0.7,0.1,1,0.4c0.2,0.3,0.3,0.6,0.3,1
						c0,0.2,0,0.4-0.1,0.5c0,0.2-0.1,0.3-0.2,0.4c-0.1,0.1-0.2,0.3-0.3,0.4c-0.1,0.1-0.2,0.2-0.4,0.3c-0.2,0.2-0.3,0.3-0.4,0.4
						c-0.1,0.1-0.2,0.2-0.3,0.3s-0.2,0.2-0.2,0.2c0,0-0.1,0.1-0.1,0.2c0,0.1-0.1,0.1-0.1,0.2c0,0.1,0,0.1,0,0.2h2.1v0.5H264.6z"/>
					<path class="st48" d="M268,29.6c0-0.2,0-0.4,0-0.6c0-0.2,0.1-0.3,0.2-0.5c0.1-0.2,0.2-0.3,0.4-0.5c0.2-0.2,0.4-0.4,0.7-0.6
						c0.2-0.2,0.4-0.4,0.6-0.6c0.1-0.2,0.2-0.5,0.2-0.8c0-0.3-0.1-0.5-0.2-0.7c-0.1-0.2-0.3-0.2-0.6-0.2c-0.1,0-0.2,0-0.3,0.1
						c-0.1,0-0.2,0.1-0.2,0.2c-0.1,0.1-0.1,0.2-0.1,0.3c0,0.1,0,0.2-0.1,0.3c0,0.1,0,0.2,0,0.4H268v-0.2c0-0.2,0-0.4,0.1-0.6
						c0.1-0.2,0.1-0.3,0.2-0.5c0.1-0.1,0.2-0.2,0.4-0.3c0.2-0.1,0.4-0.1,0.6-0.1c0.4,0,0.7,0.1,1,0.4c0.2,0.3,0.3,0.6,0.3,1
						c0,0.2,0,0.4-0.1,0.5c0,0.2-0.1,0.3-0.2,0.4c-0.1,0.1-0.2,0.3-0.3,0.4c-0.1,0.1-0.2,0.2-0.4,0.3c-0.2,0.2-0.3,0.3-0.4,0.4
						c-0.1,0.1-0.2,0.2-0.3,0.3c-0.1,0.1-0.2,0.2-0.2,0.2c0,0-0.1,0.1-0.1,0.2c0,0.1-0.1,0.1-0.1,0.2c0,0.1,0,0.1,0,0.2h2.1v0.5H268
						z"/>
				</g>
			</g>
		</g>
		<g>
			<g>
				<g>
					<path class="st48" d="M147.1,81.2v-0.4c0.2,0,0.4,0,0.5,0c0.1,0,0.2-0.1,0.3-0.1c0.1-0.1,0.2-0.2,0.2-0.3
						c0.1-0.1,0.1-0.3,0.1-0.5h0.4v5h-0.6v-3.7H147.1z"/>
					<path class="st48" d="M150.4,81.2v-0.4c0.2,0,0.4,0,0.5,0c0.1,0,0.2-0.1,0.3-0.1c0.1-0.1,0.2-0.2,0.2-0.3
						c0.1-0.1,0.1-0.3,0.1-0.5h0.4v5h-0.6v-3.7H150.4z"/>
				</g>
			</g>
			<g>
				<g>
					<path class="st48" d="M171.1,81.2v-0.4c0.2,0,0.4,0,0.5,0c0.1,0,0.2-0.1,0.3-0.1c0.1-0.1,0.2-0.2,0.2-0.3
						c0.1-0.1,0.1-0.3,0.1-0.5h0.4v5h-0.6v-3.7H171.1z"/>
					<path class="st48" d="M174.2,83.3h0.6c0,0.1,0,0.2,0,0.3c0,0.1,0,0.2,0.1,0.3c0,0.1,0.1,0.2,0.1,0.2c0.1,0.1,0.1,0.1,0.2,0.2
						c0.1,0,0.2,0.1,0.3,0.1c0.3,0,0.5-0.1,0.6-0.2c0.1-0.2,0.2-0.4,0.2-0.7c0-0.2,0-0.4-0.1-0.5c0-0.1-0.1-0.2-0.2-0.3
						c-0.1-0.1-0.2-0.1-0.4-0.2c-0.1,0-0.3,0-0.5,0V82c0.4,0,0.6-0.1,0.8-0.2c0.2-0.1,0.3-0.3,0.3-0.7c0-0.5-0.2-0.8-0.7-0.8
						c-0.1,0-0.2,0-0.3,0.1c-0.1,0.1-0.2,0.1-0.2,0.2c-0.1,0.1-0.1,0.2-0.1,0.3c0,0.1,0,0.2,0,0.4h-0.5c0-0.4,0.1-0.8,0.3-1.1
						c0.2-0.3,0.5-0.4,0.9-0.4c0.4,0,0.7,0.1,0.9,0.3s0.3,0.5,0.3,0.9c0,0.3-0.1,0.5-0.2,0.7c-0.1,0.2-0.3,0.3-0.6,0.4
						c0.3,0.1,0.5,0.2,0.7,0.4c0.1,0.2,0.2,0.5,0.2,0.8c0,0.4-0.1,0.8-0.3,1.1c-0.2,0.3-0.6,0.4-1,0.4c-0.2,0-0.4,0-0.6-0.1
						c-0.2-0.1-0.3-0.2-0.4-0.3c-0.1-0.1-0.2-0.3-0.2-0.5C174.2,83.8,174.2,83.6,174.2,83.3z"/>
				</g>
			</g>
			<g>
				<g>
					<path class="st48" d="M195.1,81.2v-0.4c0.2,0,0.4,0,0.5,0c0.1,0,0.2-0.1,0.3-0.1c0.1-0.1,0.2-0.2,0.2-0.3
						c0.1-0.1,0.1-0.3,0.1-0.5h0.4v5h-0.6v-3.7H195.1z"/>
					<path class="st48" d="M198.2,83.5h0.6c0,0.3,0.1,0.5,0.2,0.7c0.1,0.2,0.3,0.2,0.6,0.2c0.1,0,0.3,0,0.4-0.1
						c0.1-0.1,0.2-0.2,0.3-0.3c0.1-0.1,0.1-0.2,0.1-0.4c0-0.1,0-0.3,0-0.5c0-0.1,0-0.2,0-0.3c0-0.1,0-0.2-0.1-0.3
						c0-0.1-0.1-0.2-0.1-0.3c-0.1-0.1-0.1-0.1-0.2-0.2c-0.1,0-0.2-0.1-0.4-0.1c-0.3,0-0.6,0.2-0.7,0.5h-0.5l0.3-2.6h2.1v0.5h-1.7
						l-0.2,1.5c0.1-0.1,0.3-0.2,0.4-0.3c0.1-0.1,0.3-0.1,0.4-0.1c0.2,0,0.4,0,0.6,0.1c0.2,0.1,0.3,0.2,0.4,0.4
						c0.1,0.2,0.2,0.3,0.2,0.5c0,0.2,0.1,0.4,0.1,0.6c0,0.2,0,0.4,0,0.5c0,0.2-0.1,0.3-0.1,0.5s-0.2,0.3-0.3,0.4
						c-0.1,0.1-0.2,0.2-0.4,0.3c-0.2,0.1-0.3,0.1-0.5,0.1c-0.4,0-0.8-0.1-1-0.4C198.4,84.3,198.2,84,198.2,83.5z"/>
				</g>
			</g>
			<g>
				<g>
					<path class="st48" d="M219,81.2v-0.4c0.2,0,0.4,0,0.5,0c0.1,0,0.2-0.1,0.3-0.1c0.1-0.1,0.2-0.2,0.2-0.3
						c0.1-0.1,0.1-0.3,0.1-0.5h0.4v5h-0.6v-3.7H219z"/>
					<path class="st48" d="M222.2,80.4v-0.5h2.8v0.5c-0.5,0.6-0.9,1.3-1.1,2.1c-0.3,0.8-0.5,1.5-0.5,2.4h-0.6
						c0.1-0.8,0.3-1.6,0.6-2.3c0.3-0.8,0.7-1.5,1.2-2.1H222.2z"/>
				</g>
			</g>
			<g>
				<g>
					<path class="st48" d="M241.4,81.2v-0.4c0.2,0,0.4,0,0.5,0c0.1,0,0.2-0.1,0.3-0.1c0.1-0.1,0.2-0.2,0.2-0.3
						c0.1-0.1,0.1-0.3,0.1-0.5h0.4v5h-0.6v-3.7H241.4z"/>
					<path class="st48" d="M244.6,81.6c0-0.5,0.1-1,0.4-1.3c0.3-0.3,0.6-0.5,1-0.5c0.2,0,0.4,0,0.5,0.1c0.2,0.1,0.3,0.1,0.4,0.2
						c0.1,0.1,0.2,0.2,0.3,0.3c0.1,0.1,0.1,0.3,0.2,0.4c0,0.1,0.1,0.3,0.1,0.4c0,0.2,0,0.3,0,0.5c0,0.1,0,0.3,0,0.5
						c0,0.2,0,0.4,0,0.5c0,0.1,0,0.3,0,0.5c0,0.2,0,0.4-0.1,0.5c0,0.1-0.1,0.3-0.2,0.5c-0.1,0.2-0.2,0.3-0.3,0.4
						c-0.1,0.1-0.2,0.2-0.4,0.3c-0.2,0.1-0.3,0.1-0.5,0.1c-0.4,0-0.7-0.1-0.9-0.3c-0.2-0.2-0.3-0.5-0.3-0.9h0.6
						c0,0.2,0.1,0.4,0.2,0.5c0.1,0.1,0.3,0.2,0.5,0.2c0.1,0,0.2,0,0.2,0c0.1,0,0.1-0.1,0.2-0.2c0.1-0.1,0.1-0.1,0.1-0.2
						c0-0.1,0.1-0.2,0.1-0.3c0-0.1,0.1-0.2,0.1-0.3c0-0.1,0-0.2,0.1-0.3c0-0.1,0-0.2,0-0.3c0-0.1,0-0.2,0-0.3h0
						c-0.1,0.2-0.2,0.4-0.4,0.5c-0.2,0.1-0.3,0.2-0.5,0.2c-0.2,0-0.4,0-0.6-0.1c-0.2-0.1-0.3-0.2-0.4-0.3c-0.1-0.1-0.2-0.3-0.2-0.5
						C244.6,82,244.6,81.8,244.6,81.6z M245.2,81.5c0,0.1,0,0.2,0,0.3c0,0.1,0,0.2,0.1,0.3c0,0.1,0.1,0.2,0.1,0.3
						c0.1,0.1,0.1,0.1,0.2,0.2c0.1,0,0.2,0.1,0.3,0.1c0.1,0,0.3,0,0.4-0.1c0.1-0.1,0.2-0.1,0.3-0.2c0.1-0.1,0.1-0.2,0.1-0.3
						c0-0.1,0-0.2,0-0.4c0-0.1,0-0.3,0-0.4c0-0.1-0.1-0.3-0.1-0.4c-0.1-0.1-0.1-0.2-0.3-0.3c-0.1-0.1-0.2-0.1-0.4-0.1
						c-0.1,0-0.3,0-0.4,0.1c-0.1,0.1-0.2,0.2-0.2,0.3c-0.1,0.1-0.1,0.2-0.1,0.4C245.2,81.2,245.2,81.3,245.2,81.5z"/>
				</g>
			</g>
			<g>
				<g>
					<path class="st48" d="M265.2,84.8c0-0.2,0-0.4,0-0.6c0-0.2,0.1-0.3,0.2-0.5c0.1-0.2,0.2-0.3,0.4-0.5c0.2-0.2,0.4-0.4,0.7-0.6
						c0.2-0.2,0.4-0.4,0.6-0.6c0.1-0.2,0.2-0.5,0.2-0.8c0-0.3-0.1-0.5-0.2-0.7c-0.1-0.2-0.3-0.2-0.6-0.2c-0.1,0-0.2,0-0.3,0.1
						c-0.1,0-0.2,0.1-0.2,0.2c-0.1,0.1-0.1,0.2-0.1,0.3c0,0.1,0,0.2-0.1,0.3c0,0.1,0,0.2,0,0.4h-0.6v-0.2c0-0.2,0-0.4,0.1-0.6
						s0.1-0.3,0.2-0.5c0.1-0.1,0.2-0.2,0.4-0.3c0.2-0.1,0.4-0.1,0.6-0.1c0.4,0,0.7,0.1,1,0.4c0.2,0.3,0.3,0.6,0.3,1
						c0,0.2,0,0.4-0.1,0.5c0,0.2-0.1,0.3-0.2,0.4c-0.1,0.1-0.2,0.3-0.3,0.4c-0.1,0.1-0.2,0.2-0.4,0.3c-0.2,0.2-0.3,0.3-0.4,0.4
						c-0.1,0.1-0.2,0.2-0.3,0.3c-0.1,0.1-0.2,0.2-0.2,0.2c0,0-0.1,0.1-0.1,0.2c0,0.1-0.1,0.1-0.1,0.2c0,0.1,0,0.1,0,0.2h2.1v0.5
						H265.2z"/>
					<path class="st48" d="M268.8,81.2v-0.4c0.2,0,0.4,0,0.5,0c0.1,0,0.2-0.1,0.3-0.1c0.1-0.1,0.2-0.2,0.2-0.3
						c0.1-0.1,0.1-0.3,0.1-0.5h0.4v5h-0.6v-3.7H268.8z"/>
				</g>
			</g>
		</g>
	</g>
</g>
</svg>
