<?xml version="1.0" encoding="utf-8"?>
<!-- Generator: Adobe Illustrator 27.0.0, SVG Export Plug-In . SVG Version: 6.00 Build 0)  -->
<svg version="1.1" id="Layer_1" xmlns="http://www.w3.org/2000/svg" xmlns:xlink="http://www.w3.org/1999/xlink" x="0px" y="0px"
	 viewBox="0 0 458.6 114.1" style="enable-background:new 0 0 458.6 114.1;" xml:space="preserve">
<style type="text/css">
	.st0{fill:none;stroke:#ADB9BC;stroke-width:0.75;stroke-miterlimit:10;stroke-dasharray:3;}
	.st1{fill:#F2F2F2;}
	.st2{fill:none;stroke:url(#SVGID_1_);stroke-miterlimit:10;}
	.st3{fill:none;stroke:url(#SVGID_00000114767733905931720700000016132203557355863227_);stroke-miterlimit:10;}
	.st4{fill:none;stroke:url(#SVGID_00000157275906453210119580000017316959411890505662_);stroke-miterlimit:10;}
	.st5{fill:none;stroke:url(#SVGID_00000067227630120065007300000004340503198401565100_);stroke-miterlimit:10;}
	.st6{fill:none;stroke:url(#SVGID_00000057848576660347888260000005463485593358573448_);stroke-miterlimit:10;}
	.st7{fill:none;stroke:url(#SVGID_00000110436575691499594270000002040610004185439663_);stroke-miterlimit:10;}
	.st8{fill:none;stroke:url(#SVGID_00000021821586853466993740000010820599602758049192_);stroke-miterlimit:10;}
	.st9{fill:none;stroke:url(#SVGID_00000114786919665259984340000008111820527190692021_);stroke-miterlimit:10;}
	.st10{fill:none;stroke:url(#SVGID_00000132805888411930782680000006933775139136088204_);stroke-miterlimit:10;}
	.st11{fill:none;stroke:url(#SVGID_00000092436191426816625310000016163210839512380044_);stroke-miterlimit:10;}
	.st12{fill:none;stroke:url(#SVGID_00000010307972488207753190000016562577033591744441_);stroke-miterlimit:10;}
	.st13{fill:none;stroke:url(#SVGID_00000076563698665033446150000010419873857543781508_);stroke-miterlimit:10;}
	.st14{fill:none;stroke:url(#SVGID_00000020385887820310479740000010268740248693584288_);stroke-miterlimit:10;}
	.st15{fill:none;stroke:url(#SVGID_00000121990753978981793510000012412623046607016355_);stroke-miterlimit:10;}
	.st16{fill:none;stroke:url(#SVGID_00000039856554692783155480000014353311879384594834_);stroke-miterlimit:10;}
	.st17{fill:none;stroke:url(#SVGID_00000176727311107937123450000006006150289939016638_);stroke-miterlimit:10;}
	.st18{fill:url(#SVGID_00000183247772679384901630000007982597476084466564_);}
	.st19{fill:url(#SVGID_00000085219266722835767580000001813452771594605982_);}
	.st20{fill:url(#SVGID_00000009547952015970011500000010276591683675698571_);}
	.st21{fill:url(#SVGID_00000032650127142572303720000011195375580340650174_);}
	.st22{fill:url(#SVGID_00000138575475376298695950000003593558984672550274_);}
	.st23{fill:url(#SVGID_00000167389341054334287240000005182712430036270224_);}
	.st24{fill:url(#SVGID_00000023970483830416775710000017175904691533574333_);}
	.st25{fill:url(#SVGID_00000082336211099127667010000001481390045191993486_);}
	.st26{fill:url(#SVGID_00000042703403341499863730000015195691957854472852_);}
	.st27{fill:url(#SVGID_00000150076794297780698060000001032702676603476875_);}
	.st28{fill:url(#SVGID_00000093159284989147638610000012574536652035064498_);}
	.st29{fill:url(#SVGID_00000145761357779840809610000011009550837065244084_);}
	.st30{fill:url(#SVGID_00000183970399031498782480000002483073389027772086_);}
	.st31{fill:url(#SVGID_00000058578191637541110790000013647690283350798987_);}
	.st32{fill:url(#SVGID_00000010268446252808213490000018169854347412013741_);}
	.st33{fill:url(#SVGID_00000031924408228380950520000010271168479142763454_);}
	.st34{opacity:0.9;fill:none;stroke:#FFFFFF;stroke-width:0.5;stroke-miterlimit:10;}
	.st35{fill:#868686;}
	.st36{fill:#3B5059;}
	.st37{fill:none;stroke:url(#SVGID_00000162314132548057001570000012532338191838633101_);stroke-miterlimit:10;}
	.st38{fill:none;stroke:url(#SVGID_00000022551018237058997130000011903606019328307862_);stroke-miterlimit:10;}
	.st39{fill:none;stroke:url(#SVGID_00000095321855315642755630000007679993650204376997_);stroke-miterlimit:10;}
	.st40{fill:none;stroke:url(#SVGID_00000143616809082812323690000011458276743145727674_);stroke-miterlimit:10;}
	.st41{fill:none;stroke:url(#SVGID_00000081642674949744803800000001478308384845892758_);stroke-miterlimit:10;}
	.st42{fill:none;stroke:url(#SVGID_00000124844701777069544810000008598962559600393374_);stroke-miterlimit:10;}
	.st43{fill:none;stroke:url(#SVGID_00000010994523766698161400000007007653622544256443_);stroke-miterlimit:10;}
	.st44{fill:none;stroke:url(#SVGID_00000152242552451798862520000012781882333725477032_);stroke-miterlimit:10;}
	.st45{fill:none;stroke:url(#SVGID_00000175294332310742503220000001433289547935609756_);stroke-miterlimit:10;}
	.st46{fill:none;stroke:url(#SVGID_00000174601534507432771920000010879328377600997293_);stroke-miterlimit:10;}
	.st47{fill:none;stroke:url(#SVGID_00000036214421548893722160000001462759253959909292_);stroke-miterlimit:10;}
	.st48{fill:none;stroke:url(#SVGID_00000084493232409518982460000004623843377666199446_);stroke-miterlimit:10;}
	.st49{fill:none;stroke:url(#SVGID_00000073701490174549403360000000637871579189756070_);stroke-miterlimit:10;}
	.st50{fill:none;stroke:url(#SVGID_00000070114307023636679080000015017741613113831346_);stroke-miterlimit:10;}
	.st51{fill:url(#SVGID_00000079462501914225866430000012481887964020545965_);}
	.st52{fill:url(#SVGID_00000123401891416490227820000017587682666333831103_);}
	.st53{fill:url(#SVGID_00000046301906145707533900000007171651583969708216_);}
	.st54{fill:url(#SVGID_00000021083982659815585910000000053676432941640606_);}
	.st55{fill:url(#SVGID_00000075159826254201006550000011953862119520627093_);}
	.st56{fill:url(#SVGID_00000039112534578539312410000017849870749805672836_);}
	.st57{fill:url(#SVGID_00000111152532054978737650000002240230546889235108_);}
	.st58{fill:url(#SVGID_00000137121638611545697330000012353083262740462992_);}
	.st59{fill:url(#SVGID_00000173862437982658079370000010437779857480954769_);}
	.st60{fill:url(#SVGID_00000096782091873263348570000000816022858314150069_);}
	.st61{fill:url(#SVGID_00000132800158453738247240000010071246485679046535_);}
	.st62{fill:url(#SVGID_00000053542439543836385850000008660854827347277461_);}
	.st63{fill:url(#SVGID_00000168089220074771748580000015291803713441971621_);}
	.st64{fill:url(#SVGID_00000173881335506116319140000015390557360292432040_);}
	.st65{fill:url(#SVGID_00000127733796826529335120000009084325699329031316_);}
	.st66{fill:url(#SVGID_00000013900516814183392780000017237533559989641874_);}
	.st67{fill:none;stroke:#A986FF;stroke-width:3;stroke-miterlimit:10;}
</style>
<g>
	<g>
		<path class="st0" d="M441.4,108.3H17.3c-5.5,0-10-4.5-10-10V16.5c0-5.9,4.8-10.8,9.8-10.8h422.6c6.9,0,11.8,4.8,11.8,10.8v81.8
			C451.4,103.8,446.9,108.3,441.4,108.3z"/>
		<path class="st1" d="M419.4,90H240.5c-3.9,0-7-3.1-7-7V32.3c0-3.9,3.1-7,7-7h178.9c3.9,0,7,3.1,7,7V83
			C426.4,86.9,423.2,90,419.4,90z"/>
		
			<linearGradient id="SVGID_1_" gradientUnits="userSpaceOnUse" x1="-449.3687" y1="-1699.0516" x2="-448.3687" y2="-1699.0516" gradientTransform="matrix(-1 0 0 -1 -177.574 -1677.9882)">
			<stop  offset="4.102398e-07" style="stop-color:#ADB9BC"/>
			<stop  offset="1" style="stop-color:#C0CBCE"/>
		</linearGradient>
		<line class="st2" x1="271.3" y1="24.4" x2="271.3" y2="17.7"/>
		
			<linearGradient id="SVGID_00000017488575205682912500000017148133629389013420_" gradientUnits="userSpaceOnUse" x1="-473.3687" y1="-1699.0516" x2="-472.3687" y2="-1699.0516" gradientTransform="matrix(-1 0 0 -1 -177.574 -1677.9882)">
			<stop  offset="4.102398e-07" style="stop-color:#ADB9BC"/>
			<stop  offset="1" style="stop-color:#C0CBCE"/>
		</linearGradient>
		
			<line style="fill:none;stroke:url(#SVGID_00000017488575205682912500000017148133629389013420_);stroke-miterlimit:10;" x1="295.3" y1="24.4" x2="295.3" y2="17.7"/>
		
			<linearGradient id="SVGID_00000122688707478231755860000015072515825056107682_" gradientUnits="userSpaceOnUse" x1="-544.5344" y1="-1699.0516" x2="-543.5344" y2="-1699.0516" gradientTransform="matrix(-1 0 0 -1 -177.574 -1677.9882)">
			<stop  offset="4.102398e-07" style="stop-color:#ADB9BC"/>
			<stop  offset="1" style="stop-color:#C0CBCE"/>
		</linearGradient>
		
			<line style="fill:none;stroke:url(#SVGID_00000122688707478231755860000015072515825056107682_);stroke-miterlimit:10;" x1="366.5" y1="24.4" x2="366.5" y2="17.7"/>
		
			<linearGradient id="SVGID_00000036226171270247842210000007079977123731634833_" gradientUnits="userSpaceOnUse" x1="-568.1971" y1="-1699.0516" x2="-567.1971" y2="-1699.0516" gradientTransform="matrix(-1 0 0 -1 -177.574 -1677.9882)">
			<stop  offset="4.102398e-07" style="stop-color:#ADB9BC"/>
			<stop  offset="1" style="stop-color:#C0CBCE"/>
		</linearGradient>
		
			<line style="fill:none;stroke:url(#SVGID_00000036226171270247842210000007079977123731634833_);stroke-miterlimit:10;" x1="390.1" y1="24.4" x2="390.1" y2="17.7"/>
		
			<linearGradient id="SVGID_00000014605422566887540480000014964368069420127675_" gradientUnits="userSpaceOnUse" x1="-590.7238" y1="-1699.0516" x2="-589.7238" y2="-1699.0516" gradientTransform="matrix(-1 0 0 -1 -177.574 -1677.9882)">
			<stop  offset="4.102398e-07" style="stop-color:#ADB9BC"/>
			<stop  offset="1" style="stop-color:#C0CBCE"/>
		</linearGradient>
		
			<line style="fill:none;stroke:url(#SVGID_00000014605422566887540480000014964368069420127675_);stroke-miterlimit:10;" x1="412.6" y1="24.4" x2="412.6" y2="17.7"/>
		
			<linearGradient id="SVGID_00000013164661688246400180000017466246243576553364_" gradientUnits="userSpaceOnUse" x1="-520.623" y1="-1699.0516" x2="-519.623" y2="-1699.0516" gradientTransform="matrix(-1 0 0 -1 -177.574 -1677.9882)">
			<stop  offset="4.102398e-07" style="stop-color:#ADB9BC"/>
			<stop  offset="1" style="stop-color:#C0CBCE"/>
		</linearGradient>
		
			<line style="fill:none;stroke:url(#SVGID_00000013164661688246400180000017466246243576553364_);stroke-miterlimit:10;" x1="342.5" y1="24.4" x2="342.5" y2="17.7"/>
		
			<linearGradient id="SVGID_00000158013673495174218550000001626308098669859213_" gradientUnits="userSpaceOnUse" x1="-496.8655" y1="-1699.0516" x2="-495.8655" y2="-1699.0516" gradientTransform="matrix(-1 0 0 -1 -177.574 -1677.9882)">
			<stop  offset="4.102398e-07" style="stop-color:#ADB9BC"/>
			<stop  offset="1" style="stop-color:#C0CBCE"/>
		</linearGradient>
		
			<line style="fill:none;stroke:url(#SVGID_00000158013673495174218550000001626308098669859213_);stroke-miterlimit:10;" x1="318.8" y1="24.4" x2="318.8" y2="17.7"/>
		<g>
			<g>
				
					<linearGradient id="SVGID_00000024696860984249335000000002414857927016685755_" gradientUnits="userSpaceOnUse" x1="271.0788" y1="94.0277" x2="272.0788" y2="94.0277">
					<stop  offset="4.102398e-07" style="stop-color:#ADB9BC"/>
					<stop  offset="1" style="stop-color:#C0CBCE"/>
				</linearGradient>
				
					<line style="fill:none;stroke:url(#SVGID_00000024696860984249335000000002414857927016685755_);stroke-miterlimit:10;" x1="271.6" y1="90.9" x2="271.6" y2="97.2"/>
				
					<linearGradient id="SVGID_00000099646338181515815290000017967990366987627679_" gradientUnits="userSpaceOnUse" x1="247.1678" y1="80.5794" x2="438.3896" y2="80.5794">
					<stop  offset="4.102398e-07" style="stop-color:#ADB9BC"/>
					<stop  offset="1" style="stop-color:#C0CBCE"/>
				</linearGradient>
				<path style="fill:none;stroke:url(#SVGID_00000099646338181515815290000017967990366987627679_);stroke-miterlimit:10;" d="
					M247.7,90.9v3.9c0,1.3,1.1,2.4,2.4,2.4h185.4c1.3,0,2.4-1.1,2.4-2.4V63.5"/>
				
					<linearGradient id="SVGID_00000013185793985101653930000005667917720590151840_" gradientUnits="userSpaceOnUse" x1="318.2915" y1="94.0277" x2="319.2915" y2="94.0277">
					<stop  offset="4.102398e-07" style="stop-color:#ADB9BC"/>
					<stop  offset="1" style="stop-color:#C0CBCE"/>
				</linearGradient>
				
					<line style="fill:none;stroke:url(#SVGID_00000013185793985101653930000005667917720590151840_);stroke-miterlimit:10;" x1="318.8" y1="90.9" x2="318.8" y2="97.2"/>
				
					<linearGradient id="SVGID_00000083071988089850306460000012827334599004231815_" gradientUnits="userSpaceOnUse" x1="294.4335" y1="94.0277" x2="295.4335" y2="94.0277">
					<stop  offset="4.102398e-07" style="stop-color:#ADB9BC"/>
					<stop  offset="1" style="stop-color:#C0CBCE"/>
				</linearGradient>
				
					<line style="fill:none;stroke:url(#SVGID_00000083071988089850306460000012827334599004231815_);stroke-miterlimit:10;" x1="294.9" y1="90.9" x2="294.9" y2="97.2"/>
				
					<linearGradient id="SVGID_00000009589468721014016560000013993113825627106221_" gradientUnits="userSpaceOnUse" x1="342.0491" y1="94.0277" x2="343.0491" y2="94.0277">
					<stop  offset="4.102398e-07" style="stop-color:#ADB9BC"/>
					<stop  offset="1" style="stop-color:#C0CBCE"/>
				</linearGradient>
				
					<line style="fill:none;stroke:url(#SVGID_00000009589468721014016560000013993113825627106221_);stroke-miterlimit:10;" x1="342.5" y1="90.9" x2="342.5" y2="97.2"/>
				
					<linearGradient id="SVGID_00000033362402778712252020000001936186579772888964_" gradientUnits="userSpaceOnUse" x1="365.9605" y1="94.0277" x2="366.9605" y2="94.0277">
					<stop  offset="4.102398e-07" style="stop-color:#ADB9BC"/>
					<stop  offset="1" style="stop-color:#C0CBCE"/>
				</linearGradient>
				
					<line style="fill:none;stroke:url(#SVGID_00000033362402778712252020000001936186579772888964_);stroke-miterlimit:10;" x1="366.5" y1="90.9" x2="366.5" y2="97.2"/>
				
					<linearGradient id="SVGID_00000116230789589738994980000008008319548581259656_" gradientUnits="userSpaceOnUse" x1="389.2504" y1="94.0277" x2="390.2504" y2="94.0277">
					<stop  offset="4.102398e-07" style="stop-color:#ADB9BC"/>
					<stop  offset="1" style="stop-color:#C0CBCE"/>
				</linearGradient>
				
					<line style="fill:none;stroke:url(#SVGID_00000116230789589738994980000008008319548581259656_);stroke-miterlimit:10;" x1="389.8" y1="90.9" x2="389.8" y2="97.2"/>
				
					<linearGradient id="SVGID_00000151543089337083196310000003568002376211394464_" gradientUnits="userSpaceOnUse" x1="412.9664" y1="94.0277" x2="413.9664" y2="94.0277">
					<stop  offset="4.102398e-07" style="stop-color:#ADB9BC"/>
					<stop  offset="1" style="stop-color:#C0CBCE"/>
				</linearGradient>
				
					<line style="fill:none;stroke:url(#SVGID_00000151543089337083196310000003568002376211394464_);stroke-miterlimit:10;" x1="413.5" y1="90.9" x2="413.5" y2="97.2"/>
			</g>
			
				<linearGradient id="SVGID_00000104686338306397199020000007607841304268122543_" gradientUnits="userSpaceOnUse" x1="-615.8784" y1="-1712.1034" x2="-425.4488" y2="-1712.1034" gradientTransform="matrix(-1 0 0 -1 -177.574 -1677.9882)">
				<stop  offset="4.102398e-07" style="stop-color:#ADB9BC"/>
				<stop  offset="1" style="stop-color:#C0CBCE"/>
			</linearGradient>
			<path style="fill:none;stroke:url(#SVGID_00000104686338306397199020000007607841304268122543_);stroke-miterlimit:10;" d="
				M437.8,51v-31c0-1.3-1.1-2.4-2.4-2.4H250.3c-1.3,0-1.9,1.1-1.9,2.4v4.4"/>
		</g>
		<g>
			<g>
				
					<linearGradient id="SVGID_00000162320376298261621580000012552281748182638234_" gradientUnits="userSpaceOnUse" x1="231.3667" y1="71.2076" x2="513.9283" y2="42.0479">
					<stop  offset="4.100000e-07" style="stop-color:#1FBDDC"/>
					<stop  offset="1" style="stop-color:#0079C2"/>
				</linearGradient>
				<path style="fill:url(#SVGID_00000162320376298261621580000012552281748182638234_);" d="M252.1,80.9h-8.7c-3.9,0-7-3.1-7-7
					v-8.7c0-3.9,3.1-7,7-7h8.7c3.9,0,7,3.1,7,7v8.7C259.1,77.7,255.9,80.9,252.1,80.9z"/>
				
					<linearGradient id="SVGID_00000117656346940162950160000012289748680989663158_" gradientUnits="userSpaceOnUse" x1="255.0817" y1="71.2076" x2="537.6433" y2="42.0479">
					<stop  offset="4.100000e-07" style="stop-color:#1FBDDC"/>
					<stop  offset="1" style="stop-color:#0079C2"/>
				</linearGradient>
				<path style="fill:url(#SVGID_00000117656346940162950160000012289748680989663158_);" d="M275.8,80.9h-8.7c-3.9,0-7-3.1-7-7
					v-8.7c0-3.9,3.1-7,7-7h8.7c3.9,0,7,3.1,7,7v8.7C282.8,77.7,279.7,80.9,275.8,80.9z"/>
				
					<linearGradient id="SVGID_00000128474077769114190400000010224641856548902033_" gradientUnits="userSpaceOnUse" x1="278.7345" y1="71.2076" x2="561.2961" y2="42.0479">
					<stop  offset="4.100000e-07" style="stop-color:#1FBDDC"/>
					<stop  offset="1" style="stop-color:#0079C2"/>
				</linearGradient>
				<path style="fill:url(#SVGID_00000128474077769114190400000010224641856548902033_);" d="M299.4,80.9h-8.7c-3.9,0-7-3.1-7-7
					v-8.7c0-3.9,3.1-7,7-7h8.7c3.9,0,7,3.1,7,7v8.7C306.4,77.7,303.3,80.9,299.4,80.9z"/>
				
					<linearGradient id="SVGID_00000017483985128517847500000008528333027627702698_" gradientUnits="userSpaceOnUse" x1="302.4374" y1="71.2076" x2="584.999" y2="42.0479">
					<stop  offset="4.100000e-07" style="stop-color:#1FBDDC"/>
					<stop  offset="1" style="stop-color:#0079C2"/>
				</linearGradient>
				<path style="fill:url(#SVGID_00000017483985128517847500000008528333027627702698_);" d="M323.2,80.9h-8.7c-3.9,0-7-3.1-7-7
					v-8.7c0-3.9,3.1-7,7-7h8.7c3.9,0,7,3.1,7,7v8.7C330.2,77.7,327,80.9,323.2,80.9z"/>
				
					<linearGradient id="SVGID_00000137817889349120456520000005871281548361477262_" gradientUnits="userSpaceOnUse" x1="326.195" y1="71.2076" x2="608.7566" y2="42.0479">
					<stop  offset="4.100000e-07" style="stop-color:#1FBDDC"/>
					<stop  offset="1" style="stop-color:#0079C2"/>
				</linearGradient>
				<path style="fill:url(#SVGID_00000137817889349120456520000005871281548361477262_);" d="M346.9,80.9h-8.7c-3.9,0-7-3.1-7-7
					v-8.7c0-3.9,3.1-7,7-7h8.7c3.9,0,7,3.1,7,7v8.7C353.9,77.7,350.8,80.9,346.9,80.9z"/>
				
					<linearGradient id="SVGID_00000088093313533368677620000010718075770994341777_" gradientUnits="userSpaceOnUse" x1="350.1064" y1="71.2076" x2="632.668" y2="42.0479">
					<stop  offset="4.100000e-07" style="stop-color:#1FBDDC"/>
					<stop  offset="1" style="stop-color:#0079C2"/>
				</linearGradient>
				<path style="fill:url(#SVGID_00000088093313533368677620000010718075770994341777_);" d="M370.8,80.9h-8.7c-3.9,0-7-3.1-7-7
					v-8.7c0-3.9,3.1-7,7-7h8.7c3.9,0,7,3.1,7,7v8.7C377.8,77.7,374.7,80.9,370.8,80.9z"/>
				
					<linearGradient id="SVGID_00000142177904230722954270000016341578788130250145_" gradientUnits="userSpaceOnUse" x1="373.8214" y1="71.2076" x2="656.3829" y2="42.0479">
					<stop  offset="4.100000e-07" style="stop-color:#1FBDDC"/>
					<stop  offset="1" style="stop-color:#0079C2"/>
				</linearGradient>
				<path style="fill:url(#SVGID_00000142177904230722954270000016341578788130250145_);" d="M394.5,80.9h-8.7c-3.9,0-7-3.1-7-7
					v-8.7c0-3.9,3.1-7,7-7h8.7c3.9,0,7,3.1,7,7v8.7C401.5,77.7,398.4,80.9,394.5,80.9z"/>
				
					<linearGradient id="SVGID_00000075859161790663707940000011248642163581604259_" gradientUnits="userSpaceOnUse" x1="397.1468" y1="71.2076" x2="679.7084" y2="42.0479">
					<stop  offset="4.100000e-07" style="stop-color:#1FBDDC"/>
					<stop  offset="1" style="stop-color:#0079C2"/>
				</linearGradient>
				<path style="fill:url(#SVGID_00000075859161790663707940000011248642163581604259_);" d="M417.9,80.9h-8.7c-3.9,0-7-3.1-7-7
					v-8.7c0-3.9,3.1-7,7-7h8.7c3.9,0,7,3.1,7,7v8.7C424.9,77.7,421.7,80.9,417.9,80.9z"/>
				
					<linearGradient id="SVGID_00000120525658685515129000000010018184420913292683_" gradientUnits="userSpaceOnUse" x1="231.3667" y1="47.4561" x2="513.9283" y2="18.2964">
					<stop  offset="4.100000e-07" style="stop-color:#1FBDDC"/>
					<stop  offset="1" style="stop-color:#0079C2"/>
				</linearGradient>
				<path style="fill:url(#SVGID_00000120525658685515129000000010018184420913292683_);" d="M252.1,57.1h-8.7c-3.9,0-7-3.1-7-7
					v-8.7c0-3.9,3.1-7,7-7h8.7c3.9,0,7,3.1,7,7v8.7C259.1,54,255.9,57.1,252.1,57.1z"/>
				
					<linearGradient id="SVGID_00000137114350748651328900000008875450281156832186_" gradientUnits="userSpaceOnUse" x1="255.0817" y1="47.4561" x2="537.6433" y2="18.2964">
					<stop  offset="4.100000e-07" style="stop-color:#1FBDDC"/>
					<stop  offset="1" style="stop-color:#0079C2"/>
				</linearGradient>
				<path style="fill:url(#SVGID_00000137114350748651328900000008875450281156832186_);" d="M275.8,57.1h-8.7c-3.9,0-7-3.1-7-7
					v-8.7c0-3.9,3.1-7,7-7h8.7c3.9,0,7,3.1,7,7v8.7C282.8,54,279.7,57.1,275.8,57.1z"/>
				
					<linearGradient id="SVGID_00000100378836997035819840000005275382722157014716_" gradientUnits="userSpaceOnUse" x1="278.7345" y1="47.4561" x2="561.2961" y2="18.2964">
					<stop  offset="4.100000e-07" style="stop-color:#1FBDDC"/>
					<stop  offset="1" style="stop-color:#0079C2"/>
				</linearGradient>
				<path style="fill:url(#SVGID_00000100378836997035819840000005275382722157014716_);" d="M299.4,57.1h-8.7c-3.9,0-7-3.1-7-7
					v-8.7c0-3.9,3.1-7,7-7h8.7c3.9,0,7,3.1,7,7v8.7C306.4,54,303.3,57.1,299.4,57.1z"/>
				
					<linearGradient id="SVGID_00000037665932390510576360000007723529530951618977_" gradientUnits="userSpaceOnUse" x1="302.4374" y1="47.4561" x2="584.999" y2="18.2964">
					<stop  offset="4.100000e-07" style="stop-color:#1FBDDC"/>
					<stop  offset="1" style="stop-color:#0079C2"/>
				</linearGradient>
				<path style="fill:url(#SVGID_00000037665932390510576360000007723529530951618977_);" d="M323.2,57.1h-8.7c-3.9,0-7-3.1-7-7
					v-8.7c0-3.9,3.1-7,7-7h8.7c3.9,0,7,3.1,7,7v8.7C330.2,54,327,57.1,323.2,57.1z"/>
				
					<linearGradient id="SVGID_00000002348906960364984870000011316941172615654574_" gradientUnits="userSpaceOnUse" x1="326.195" y1="47.4561" x2="608.7566" y2="18.2964">
					<stop  offset="4.100000e-07" style="stop-color:#1FBDDC"/>
					<stop  offset="1" style="stop-color:#0079C2"/>
				</linearGradient>
				<path style="fill:url(#SVGID_00000002348906960364984870000011316941172615654574_);" d="M346.9,57.1h-8.7c-3.9,0-7-3.1-7-7
					v-8.7c0-3.9,3.1-7,7-7h8.7c3.9,0,7,3.1,7,7v8.7C353.9,54,350.8,57.1,346.9,57.1z"/>
				
					<linearGradient id="SVGID_00000044883052738991060730000008692290917986654119_" gradientUnits="userSpaceOnUse" x1="350.1064" y1="47.4561" x2="632.668" y2="18.2964">
					<stop  offset="4.100000e-07" style="stop-color:#1FBDDC"/>
					<stop  offset="1" style="stop-color:#0079C2"/>
				</linearGradient>
				<path style="fill:url(#SVGID_00000044883052738991060730000008692290917986654119_);" d="M370.8,57.1h-8.7c-3.9,0-7-3.1-7-7
					v-8.7c0-3.9,3.1-7,7-7h8.7c3.9,0,7,3.1,7,7v8.7C377.8,54,374.7,57.1,370.8,57.1z"/>
				
					<linearGradient id="SVGID_00000078015673606755386800000000779430939246742155_" gradientUnits="userSpaceOnUse" x1="373.8214" y1="47.4561" x2="656.3829" y2="18.2964">
					<stop  offset="4.100000e-07" style="stop-color:#1FBDDC"/>
					<stop  offset="1" style="stop-color:#0079C2"/>
				</linearGradient>
				<path style="fill:url(#SVGID_00000078015673606755386800000000779430939246742155_);" d="M394.5,57.1h-8.7c-3.9,0-7-3.1-7-7
					v-8.7c0-3.9,3.1-7,7-7h8.7c3.9,0,7,3.1,7,7v8.7C401.5,54,398.4,57.1,394.5,57.1z"/>
				
					<linearGradient id="SVGID_00000112610652859591591510000015420940829942440639_" gradientUnits="userSpaceOnUse" x1="397.1468" y1="47.4561" x2="679.7084" y2="18.2964">
					<stop  offset="4.100000e-07" style="stop-color:#1FBDDC"/>
					<stop  offset="1" style="stop-color:#0079C2"/>
				</linearGradient>
				<path style="fill:url(#SVGID_00000112610652859591591510000015420940829942440639_);" d="M417.9,57.1h-8.7c-3.9,0-7-3.1-7-7
					v-8.7c0-3.9,3.1-7,7-7h8.7c3.9,0,7,3.1,7,7v8.7C424.9,54,421.7,57.1,417.9,57.1z"/>
			</g>
			<path class="st34" d="M247.7,63.2c0,2,0,4,0,6c0.2-1.7,1.8-3,3.5-2.8c1.7,0.2,2.9,1.7,2.8,3.2c-2,0-4,0-6,0
				c1.8,0.2,3,1.8,2.8,3.5c-0.2,1.7-1.7,2.9-3.2,2.8c0-2,0-4,0-6c-0.2,1.7-1.8,3-3.5,2.8c-1.8-0.2-2.9-1.7-2.9-3.2c2,0,4,0,6,0
				c-0.9-0.1-1.6-0.5-2.1-1.2c-0.6-0.7-0.8-1.5-0.7-2.3C244.7,64.3,246.2,63.1,247.7,63.2z"/>
			<path class="st34" d="M271.4,63.2c0,2,0,4,0,6c0.2-1.7,1.8-3,3.5-2.8c1.7,0.2,2.9,1.7,2.8,3.2c-2,0-4,0-6,0
				c1.8,0.2,3,1.8,2.8,3.5c-0.2,1.7-1.7,2.9-3.2,2.8c0-2,0-4,0-6c-0.2,1.7-1.8,3-3.5,2.8c-1.8-0.2-2.9-1.7-2.9-3.2c2,0,4,0,6,0
				c-0.9-0.1-1.6-0.5-2.1-1.2c-0.6-0.7-0.8-1.5-0.7-2.3C268.4,64.3,269.9,63.1,271.4,63.2z"/>
			<path class="st34" d="M295.1,63.2c0,2,0,4,0,6c0.2-1.7,1.8-3,3.5-2.8c1.7,0.2,2.9,1.7,2.8,3.2c-2,0-4,0-6,0
				c1.8,0.2,3,1.8,2.8,3.5c-0.2,1.7-1.7,2.9-3.2,2.8c0-2,0-4,0-6c-0.2,1.7-1.8,3-3.5,2.8c-1.8-0.2-2.9-1.7-2.9-3.2c2,0,4,0,6,0
				c-0.9-0.1-1.6-0.5-2.1-1.2c-0.6-0.7-0.8-1.5-0.7-2.3C292.1,64.3,293.6,63.1,295.1,63.2z"/>
			<path class="st34" d="M318.8,63.2c0,2,0,4,0,6c0.2-1.7,1.8-3,3.5-2.8c1.7,0.2,2.9,1.7,2.8,3.2c-2,0-4,0-6,0
				c1.8,0.2,3,1.8,2.8,3.5c-0.2,1.7-1.7,2.9-3.2,2.8c0-2,0-4,0-6c-0.2,1.7-1.8,3-3.5,2.8c-1.8-0.2-2.9-1.7-2.9-3.2c2,0,4,0,6,0
				c-0.9-0.1-1.6-0.5-2.1-1.2c-0.6-0.7-0.8-1.5-0.7-2.3C315.8,64.3,317.3,63.1,318.8,63.2z"/>
			<path class="st34" d="M342.5,63.2c0,2,0,4,0,6c0.2-1.7,1.8-3,3.5-2.8c1.7,0.2,2.9,1.7,2.8,3.2c-2,0-4,0-6,0
				c1.8,0.2,3,1.8,2.8,3.5c-0.2,1.7-1.7,2.9-3.2,2.8c0-2,0-4,0-6c-0.2,1.7-1.8,3-3.5,2.8c-1.8-0.2-2.9-1.7-2.9-3.2c2,0,4,0,6,0
				c-0.9-0.1-1.6-0.5-2.1-1.2c-0.6-0.7-0.8-1.5-0.7-2.3C339.6,64.3,341,63.1,342.5,63.2z"/>
			<path class="st34" d="M366.5,63.2c0,2,0,4,0,6c0.2-1.7,1.8-3,3.5-2.8c1.7,0.2,2.9,1.7,2.8,3.2c-2,0-4,0-6,0
				c1.8,0.2,3,1.8,2.8,3.5c-0.2,1.7-1.7,2.9-3.2,2.8c0-2,0-4,0-6c-0.2,1.7-1.8,3-3.5,2.8c-1.8-0.2-2.9-1.7-2.9-3.2c2,0,4,0,6,0
				c-0.9-0.1-1.6-0.5-2.1-1.2c-0.6-0.7-0.8-1.5-0.7-2.3C363.5,64.3,365,63.1,366.5,63.2z"/>
			<path class="st34" d="M390.2,63.2c0,2,0,4,0,6c0.2-1.7,1.8-3,3.5-2.8c1.7,0.2,2.9,1.7,2.8,3.2c-2,0-4,0-6,0
				c1.8,0.2,3,1.8,2.8,3.5c-0.2,1.7-1.7,2.9-3.2,2.8c0-2,0-4,0-6c-0.2,1.7-1.8,3-3.5,2.8c-1.8-0.2-2.9-1.7-2.9-3.2c2,0,4,0,6,0
				c-0.9-0.1-1.6-0.5-2.1-1.2c-0.6-0.7-0.8-1.5-0.7-2.3C387.2,64.3,388.7,63.1,390.2,63.2z"/>
			<path class="st34" d="M413.5,63.2c0,2,0,4,0,6c0.2-1.7,1.8-3,3.5-2.8c1.7,0.2,2.9,1.7,2.8,3.2c-2,0-4,0-6,0
				c1.8,0.2,3,1.8,2.8,3.5c-0.2,1.7-1.7,2.9-3.2,2.8c0-2,0-4,0-6c-0.2,1.7-1.8,3-3.5,2.8c-1.8-0.2-2.9-1.7-2.9-3.2c2,0,4,0,6,0
				c-0.9-0.1-1.6-0.5-2.1-1.2c-0.6-0.7-0.8-1.5-0.7-2.3C410.5,64.3,412,63.1,413.5,63.2z"/>
			<path class="st34" d="M247.7,39.4c0,2,0,4,0,6c0.2-1.7,1.8-3,3.5-2.8c1.7,0.2,2.9,1.7,2.8,3.2c-2,0-4,0-6,0
				c1.8,0.2,3,1.8,2.8,3.5c-0.2,1.7-1.7,2.9-3.2,2.8c0-2,0-4,0-6c-0.2,1.7-1.8,3-3.5,2.8c-1.8-0.2-2.9-1.7-2.9-3.2c2,0,4,0,6,0
				c-0.9-0.1-1.6-0.5-2.1-1.2c-0.6-0.7-0.8-1.5-0.7-2.3C244.7,40.5,246.2,39.4,247.7,39.4z"/>
			<path class="st34" d="M271.4,39.4c0,2,0,4,0,6c0.2-1.7,1.8-3,3.5-2.8c1.7,0.2,2.9,1.7,2.8,3.2c-2,0-4,0-6,0
				c1.8,0.2,3,1.8,2.8,3.5c-0.2,1.7-1.7,2.9-3.2,2.8c0-2,0-4,0-6c-0.2,1.7-1.8,3-3.5,2.8c-1.8-0.2-2.9-1.7-2.9-3.2c2,0,4,0,6,0
				c-0.9-0.1-1.6-0.5-2.1-1.2c-0.6-0.7-0.8-1.5-0.7-2.3C268.4,40.5,269.9,39.4,271.4,39.4z"/>
			<path class="st34" d="M295.1,39.4c0,2,0,4,0,6c0.2-1.7,1.8-3,3.5-2.8c1.7,0.2,2.9,1.7,2.8,3.2c-2,0-4,0-6,0
				c1.8,0.2,3,1.8,2.8,3.5c-0.2,1.7-1.7,2.9-3.2,2.8c0-2,0-4,0-6c-0.2,1.7-1.8,3-3.5,2.8c-1.8-0.2-2.9-1.7-2.9-3.2c2,0,4,0,6,0
				c-0.9-0.1-1.6-0.5-2.1-1.2c-0.6-0.7-0.8-1.5-0.7-2.3C292.1,40.5,293.6,39.4,295.1,39.4z"/>
			<path class="st34" d="M318.8,39.4c0,2,0,4,0,6c0.2-1.7,1.8-3,3.5-2.8c1.7,0.2,2.9,1.7,2.8,3.2c-2,0-4,0-6,0
				c1.8,0.2,3,1.8,2.8,3.5c-0.2,1.7-1.7,2.9-3.2,2.8c0-2,0-4,0-6c-0.2,1.7-1.8,3-3.5,2.8c-1.8-0.2-2.9-1.7-2.9-3.2c2,0,4,0,6,0
				c-0.9-0.1-1.6-0.5-2.1-1.2c-0.6-0.7-0.8-1.5-0.7-2.3C315.8,40.5,317.3,39.4,318.8,39.4z"/>
			<path class="st34" d="M342.5,39.4c0,2,0,4,0,6c0.2-1.7,1.8-3,3.5-2.8c1.7,0.2,2.9,1.7,2.8,3.2c-2,0-4,0-6,0
				c1.8,0.2,3,1.8,2.8,3.5c-0.2,1.7-1.7,2.9-3.2,2.8c0-2,0-4,0-6c-0.2,1.7-1.8,3-3.5,2.8c-1.8-0.2-2.9-1.7-2.9-3.2c2,0,4,0,6,0
				c-0.9-0.1-1.6-0.5-2.1-1.2c-0.6-0.7-0.8-1.5-0.7-2.3C339.6,40.5,341,39.4,342.5,39.4z"/>
			<path class="st34" d="M366.5,39.4c0,2,0,4,0,6c0.2-1.7,1.8-3,3.5-2.8c1.7,0.2,2.9,1.7,2.8,3.2c-2,0-4,0-6,0
				c1.8,0.2,3,1.8,2.8,3.5c-0.2,1.7-1.7,2.9-3.2,2.8c0-2,0-4,0-6c-0.2,1.7-1.8,3-3.5,2.8c-1.8-0.2-2.9-1.7-2.9-3.2c2,0,4,0,6,0
				c-0.9-0.1-1.6-0.5-2.1-1.2c-0.6-0.7-0.8-1.5-0.7-2.3C363.5,40.5,365,39.4,366.5,39.4z"/>
			<path class="st34" d="M390.2,39.4c0,2,0,4,0,6c0.2-1.7,1.8-3,3.5-2.8c1.7,0.2,2.9,1.7,2.8,3.2c-2,0-4,0-6,0
				c1.8,0.2,3,1.8,2.8,3.5c-0.2,1.7-1.7,2.9-3.2,2.8c0-2,0-4,0-6c-0.2,1.7-1.8,3-3.5,2.8c-1.8-0.2-2.9-1.7-2.9-3.2c2,0,4,0,6,0
				c-0.9-0.1-1.6-0.5-2.1-1.2c-0.6-0.7-0.8-1.5-0.7-2.3C387.2,40.5,388.7,39.4,390.2,39.4z"/>
			<path class="st34" d="M413.5,39.4c0,2,0,4,0,6c0.2-1.7,1.8-3,3.5-2.8c1.7,0.2,2.9,1.7,2.8,3.2c-2,0-4,0-6,0
				c1.8,0.2,3,1.8,2.8,3.5c-0.2,1.7-1.7,2.9-3.2,2.8c0-2,0-4,0-6c-0.2,1.7-1.8,3-3.5,2.8c-1.8-0.2-2.9-1.7-2.9-3.2c2,0,4,0,6,0
				c-0.9-0.1-1.6-0.5-2.1-1.2c-0.6-0.7-0.8-1.5-0.7-2.3C410.5,40.5,412,39.4,413.5,39.4z"/>
		</g>
		<g>
			<g>
				<g>
					<path class="st35" d="M245,29.4c0-0.2,0-0.3,0-0.5c0-0.1,0-0.3,0-0.5c0-0.2,0.1-0.3,0.1-0.5c0-0.1,0.1-0.3,0.2-0.4
						c0.1-0.1,0.2-0.3,0.2-0.4c0.1-0.1,0.2-0.2,0.4-0.2c0.1-0.1,0.3-0.1,0.5-0.1s0.3,0,0.5,0.1s0.3,0.1,0.4,0.2
						c0.1,0.1,0.2,0.2,0.2,0.4c0.1,0.1,0.1,0.3,0.2,0.4s0.1,0.3,0.1,0.5c0,0.2,0,0.3,0,0.5c0,0.1,0,0.3,0,0.5c0,0.1,0,0.3,0,0.4
						s0,0.2,0,0.4c0,0.1,0,0.3,0,0.4c0,0.1,0,0.2-0.1,0.3s-0.1,0.2-0.1,0.3s-0.1,0.2-0.1,0.3c0,0.1-0.1,0.2-0.2,0.2
						s-0.1,0.1-0.2,0.2s-0.2,0.1-0.3,0.1c-0.1,0-0.2,0-0.4,0c-0.2,0-0.3,0-0.5-0.1c-0.1-0.1-0.3-0.1-0.4-0.2
						c-0.1-0.1-0.2-0.2-0.2-0.4c-0.1-0.1-0.1-0.3-0.2-0.4s-0.1-0.3-0.1-0.5c0-0.2,0-0.4,0-0.5S245,29.6,245,29.4z M245.6,29.4
						c0,0.2,0,0.4,0,0.5c0,0.1,0,0.3,0,0.5s0,0.3,0.1,0.4c0,0.1,0.1,0.2,0.1,0.3s0.1,0.2,0.2,0.2s0.2,0.1,0.3,0.1
						c0.1,0,0.2,0,0.3-0.1s0.1-0.1,0.2-0.2c0.1-0.1,0.1-0.2,0.1-0.3c0-0.1,0.1-0.2,0.1-0.3s0-0.2,0.1-0.4c0-0.1,0-0.3,0-0.4
						c0-0.1,0-0.3,0-0.4c0-0.1,0-0.3,0-0.4s0-0.3,0-0.4c0-0.1,0-0.3-0.1-0.4c0-0.1-0.1-0.2-0.1-0.3c0-0.1-0.1-0.2-0.1-0.3
						s-0.1-0.1-0.2-0.2c-0.1,0-0.2-0.1-0.3-0.1c-0.1,0-0.2,0-0.3,0.1c-0.1,0-0.1,0.1-0.2,0.2c-0.1,0.1-0.1,0.2-0.1,0.3
						c0,0.1-0.1,0.2-0.1,0.3s0,0.2-0.1,0.4c0,0.1,0,0.3,0,0.4C245.6,29.2,245.6,29.3,245.6,29.4z"/>
					<path class="st35" d="M248.4,31.9c0-0.2,0-0.4,0-0.6c0-0.2,0.1-0.3,0.2-0.5c0.1-0.2,0.2-0.4,0.4-0.5c0.2-0.2,0.4-0.4,0.7-0.6
						c0.2-0.2,0.4-0.4,0.6-0.6c0.1-0.2,0.2-0.5,0.2-0.8c0-0.3-0.1-0.5-0.2-0.7c-0.1-0.2-0.3-0.2-0.6-0.2c-0.1,0-0.2,0-0.3,0.1
						c-0.1,0-0.2,0.1-0.2,0.2c-0.1,0.1-0.1,0.2-0.1,0.3c0,0.1,0,0.2-0.1,0.3c0,0.1,0,0.2,0,0.4h-0.6v-0.2c0-0.2,0-0.4,0.1-0.6
						s0.1-0.3,0.2-0.5c0.1-0.1,0.2-0.2,0.4-0.3c0.2-0.1,0.4-0.1,0.6-0.1c0.4,0,0.7,0.1,1,0.4c0.2,0.3,0.3,0.6,0.3,1
						c0,0.2,0,0.4-0.1,0.5c0,0.2-0.1,0.3-0.2,0.4c-0.1,0.1-0.2,0.3-0.3,0.4c-0.1,0.1-0.2,0.2-0.4,0.4c-0.2,0.2-0.3,0.3-0.4,0.4
						s-0.2,0.2-0.3,0.3s-0.2,0.2-0.2,0.2c0,0-0.1,0.1-0.1,0.2c0,0.1-0.1,0.1-0.1,0.2c0,0.1,0,0.1,0,0.2h2.1v0.5H248.4z"/>
				</g>
			</g>
			<g>
				<g>
					<path class="st35" d="M268.5,29.4c0-0.2,0-0.3,0-0.5c0-0.1,0-0.3,0-0.5c0-0.2,0.1-0.3,0.1-0.5c0-0.1,0.1-0.3,0.2-0.4
						c0.1-0.1,0.2-0.3,0.2-0.4c0.1-0.1,0.2-0.2,0.4-0.2c0.1-0.1,0.3-0.1,0.5-0.1s0.3,0,0.5,0.1s0.3,0.1,0.4,0.2
						c0.1,0.1,0.2,0.2,0.2,0.4c0.1,0.1,0.1,0.3,0.2,0.4s0.1,0.3,0.1,0.5c0,0.2,0,0.3,0,0.5c0,0.1,0,0.3,0,0.5c0,0.1,0,0.3,0,0.4
						s0,0.2,0,0.4c0,0.1,0,0.3,0,0.4c0,0.1,0,0.2-0.1,0.3s-0.1,0.2-0.1,0.3s-0.1,0.2-0.1,0.3c0,0.1-0.1,0.2-0.2,0.2
						s-0.1,0.1-0.2,0.2s-0.2,0.1-0.3,0.1c-0.1,0-0.2,0-0.4,0c-0.2,0-0.3,0-0.5-0.1c-0.1-0.1-0.3-0.1-0.4-0.2
						c-0.1-0.1-0.2-0.2-0.2-0.4c-0.1-0.1-0.1-0.3-0.2-0.4s-0.1-0.3-0.1-0.5c0-0.2,0-0.4,0-0.5S268.5,29.6,268.5,29.4z M269,29.4
						c0,0.2,0,0.4,0,0.5c0,0.1,0,0.3,0,0.5s0,0.3,0.1,0.4c0,0.1,0.1,0.2,0.1,0.3s0.1,0.2,0.2,0.2s0.2,0.1,0.3,0.1
						c0.1,0,0.2,0,0.3-0.1s0.1-0.1,0.2-0.2c0.1-0.1,0.1-0.2,0.1-0.3c0-0.1,0.1-0.2,0.1-0.3s0-0.2,0.1-0.4c0-0.1,0-0.3,0-0.4
						c0-0.1,0-0.3,0-0.4c0-0.1,0-0.3,0-0.4s0-0.3,0-0.4c0-0.1,0-0.3-0.1-0.4c0-0.1-0.1-0.2-0.1-0.3c0-0.1-0.1-0.2-0.1-0.3
						s-0.1-0.1-0.2-0.2c-0.1,0-0.2-0.1-0.3-0.1c-0.1,0-0.2,0-0.3,0.1c-0.1,0-0.1,0.1-0.2,0.2c-0.1,0.1-0.1,0.2-0.1,0.3
						c0,0.1-0.1,0.2-0.1,0.3s0,0.2-0.1,0.4c0,0.1,0,0.3,0,0.4C269,29.2,269,29.3,269,29.4z"/>
					<path class="st35" d="M271.7,30.7v-0.5l1.9-3.3h0.5v3.3h0.5v0.5h-0.5v1.3h-0.6v-1.3H271.7z M272.1,30.2h1.4v-2.4L272.1,30.2z"
						/>
				</g>
			</g>
		</g>
		<g>
			<g>
				<g>
					<path class="st35" d="M245,84.8c0-0.2,0-0.3,0-0.5c0-0.1,0-0.3,0-0.5c0-0.2,0.1-0.3,0.1-0.5c0-0.1,0.1-0.3,0.2-0.4
						c0.1-0.1,0.2-0.3,0.2-0.4c0.1-0.1,0.2-0.2,0.4-0.2c0.1-0.1,0.3-0.1,0.5-0.1s0.3,0,0.5,0.1s0.3,0.1,0.4,0.2
						c0.1,0.1,0.2,0.2,0.2,0.4c0.1,0.1,0.1,0.3,0.2,0.4s0.1,0.3,0.1,0.5c0,0.2,0,0.3,0,0.5c0,0.1,0,0.3,0,0.5c0,0.1,0,0.3,0,0.4
						s0,0.2,0,0.4c0,0.1,0,0.3,0,0.4c0,0.1,0,0.2-0.1,0.3s-0.1,0.2-0.1,0.3s-0.1,0.2-0.1,0.3c0,0.1-0.1,0.2-0.2,0.2
						s-0.1,0.1-0.2,0.2s-0.2,0.1-0.3,0.1c-0.1,0-0.2,0-0.4,0c-0.2,0-0.3,0-0.5-0.1c-0.1-0.1-0.3-0.1-0.4-0.2
						c-0.1-0.1-0.2-0.2-0.2-0.4c-0.1-0.1-0.1-0.3-0.2-0.4s-0.1-0.3-0.1-0.5c0-0.2,0-0.4,0-0.5S245,85,245,84.8z M245.6,84.8
						c0,0.2,0,0.4,0,0.5c0,0.1,0,0.3,0,0.5s0,0.3,0.1,0.4c0,0.1,0.1,0.2,0.1,0.3s0.1,0.2,0.2,0.2s0.2,0.1,0.3,0.1
						c0.1,0,0.2,0,0.3-0.1s0.1-0.1,0.2-0.2c0.1-0.1,0.1-0.2,0.1-0.3c0-0.1,0.1-0.2,0.1-0.3s0-0.2,0.1-0.4c0-0.1,0-0.3,0-0.4
						c0-0.1,0-0.3,0-0.4c0-0.1,0-0.3,0-0.4s0-0.3,0-0.4c0-0.1,0-0.3-0.1-0.4c0-0.1-0.1-0.2-0.1-0.3c0-0.1-0.1-0.2-0.1-0.3
						s-0.1-0.1-0.2-0.2c-0.1,0-0.2-0.1-0.3-0.1c-0.1,0-0.2,0-0.3,0.1c-0.1,0-0.1,0.1-0.2,0.2c-0.1,0.1-0.1,0.2-0.1,0.3
						c0,0.1-0.1,0.2-0.1,0.3s0,0.2-0.1,0.4c0,0.1,0,0.3,0,0.4C245.6,84.6,245.6,84.7,245.6,84.8z"/>
					<path class="st35" d="M248.6,83.6v-0.4c0.2,0,0.4,0,0.5,0c0.1,0,0.2-0.1,0.4-0.1c0.1-0.1,0.2-0.2,0.2-0.3
						c0.1-0.1,0.1-0.3,0.1-0.5h0.4v5h-0.6v-3.7H248.6z"/>
				</g>
			</g>
			<g>
				<g>
					<path class="st35" d="M268.5,84.8c0-0.2,0-0.3,0-0.5c0-0.1,0-0.3,0-0.5c0-0.2,0.1-0.3,0.1-0.5c0-0.1,0.1-0.3,0.2-0.4
						c0.1-0.1,0.2-0.3,0.2-0.4c0.1-0.1,0.2-0.2,0.4-0.2c0.1-0.1,0.3-0.1,0.5-0.1s0.3,0,0.5,0.1s0.3,0.1,0.4,0.2
						c0.1,0.1,0.2,0.2,0.2,0.4c0.1,0.1,0.1,0.3,0.2,0.4s0.1,0.3,0.1,0.5c0,0.2,0,0.3,0,0.5c0,0.1,0,0.3,0,0.5c0,0.1,0,0.3,0,0.4
						s0,0.2,0,0.4c0,0.1,0,0.3,0,0.4c0,0.1,0,0.2-0.1,0.3s-0.1,0.2-0.1,0.3s-0.1,0.2-0.1,0.3c0,0.1-0.1,0.2-0.2,0.2
						s-0.1,0.1-0.2,0.2s-0.2,0.1-0.3,0.1c-0.1,0-0.2,0-0.4,0c-0.2,0-0.3,0-0.5-0.1c-0.1-0.1-0.3-0.1-0.4-0.2
						c-0.1-0.1-0.2-0.2-0.2-0.4c-0.1-0.1-0.1-0.3-0.2-0.4s-0.1-0.3-0.1-0.5c0-0.2,0-0.4,0-0.5S268.5,85,268.5,84.8z M269,84.8
						c0,0.2,0,0.4,0,0.5c0,0.1,0,0.3,0,0.5s0,0.3,0.1,0.4c0,0.1,0.1,0.2,0.1,0.3s0.1,0.2,0.2,0.2s0.2,0.1,0.3,0.1
						c0.1,0,0.2,0,0.3-0.1s0.1-0.1,0.2-0.2c0.1-0.1,0.1-0.2,0.1-0.3c0-0.1,0.1-0.2,0.1-0.3s0-0.2,0.1-0.4c0-0.1,0-0.3,0-0.4
						c0-0.1,0-0.3,0-0.4c0-0.1,0-0.3,0-0.4s0-0.3,0-0.4c0-0.1,0-0.3-0.1-0.4c0-0.1-0.1-0.2-0.1-0.3c0-0.1-0.1-0.2-0.1-0.3
						s-0.1-0.1-0.2-0.2c-0.1,0-0.2-0.1-0.3-0.1c-0.1,0-0.2,0-0.3,0.1c-0.1,0-0.1,0.1-0.2,0.2c-0.1,0.1-0.1,0.2-0.1,0.3
						c0,0.1-0.1,0.2-0.1,0.3s0,0.2-0.1,0.4c0,0.1,0,0.3,0,0.4C269,84.6,269,84.7,269,84.8z"/>
					<path class="st35" d="M271.8,85.8h0.6c0,0.1,0,0.2,0,0.3c0,0.1,0,0.2,0.1,0.3c0,0.1,0.1,0.2,0.1,0.2c0.1,0.1,0.1,0.1,0.2,0.2
						c0.1,0,0.2,0.1,0.3,0.1c0.3,0,0.5-0.1,0.6-0.2c0.1-0.2,0.2-0.4,0.2-0.7c0-0.2,0-0.4-0.1-0.5c0-0.1-0.1-0.2-0.2-0.3
						c-0.1-0.1-0.2-0.1-0.4-0.2c-0.1,0-0.3,0-0.5,0v-0.5c0.4,0,0.6-0.1,0.8-0.2c0.2-0.1,0.3-0.3,0.3-0.7c0-0.6-0.2-0.8-0.7-0.8
						c-0.1,0-0.2,0-0.3,0.1c-0.1,0.1-0.2,0.1-0.2,0.2c-0.1,0.1-0.1,0.2-0.1,0.3c0,0.1,0,0.2,0,0.4h-0.5c0-0.4,0.1-0.8,0.3-1.1
						c0.2-0.3,0.5-0.4,0.9-0.4c0.4,0,0.7,0.1,0.9,0.3s0.3,0.5,0.3,0.9c0,0.3-0.1,0.5-0.2,0.7c-0.1,0.2-0.3,0.3-0.6,0.4
						c0.3,0.1,0.5,0.2,0.7,0.4c0.1,0.2,0.2,0.5,0.2,0.8c0,0.4-0.1,0.8-0.3,1.1s-0.6,0.4-1,0.4c-0.2,0-0.4,0-0.6-0.1
						c-0.2-0.1-0.3-0.2-0.4-0.3c-0.1-0.1-0.2-0.3-0.2-0.5S271.8,86,271.8,85.8z"/>
				</g>
			</g>
		</g>
		<g>
			<g>
				<g>
					<path class="st35" d="M291.8,29.4c0-0.2,0-0.3,0-0.5c0-0.1,0-0.3,0-0.5c0-0.2,0.1-0.3,0.1-0.5c0-0.1,0.1-0.3,0.2-0.4
						c0.1-0.1,0.2-0.3,0.2-0.4c0.1-0.1,0.2-0.2,0.4-0.2c0.1-0.1,0.3-0.1,0.5-0.1s0.3,0,0.5,0.1s0.3,0.1,0.4,0.2
						c0.1,0.1,0.2,0.2,0.2,0.4c0.1,0.1,0.1,0.3,0.2,0.4s0.1,0.3,0.1,0.5c0,0.2,0,0.3,0,0.5c0,0.1,0,0.3,0,0.5c0,0.1,0,0.3,0,0.4
						s0,0.2,0,0.4c0,0.1,0,0.3,0,0.4c0,0.1,0,0.2-0.1,0.3s-0.1,0.2-0.1,0.3s-0.1,0.2-0.1,0.3c0,0.1-0.1,0.2-0.2,0.2
						s-0.1,0.1-0.2,0.2s-0.2,0.1-0.3,0.1c-0.1,0-0.2,0-0.4,0c-0.2,0-0.3,0-0.5-0.1c-0.1-0.1-0.3-0.1-0.4-0.2
						c-0.1-0.1-0.2-0.2-0.2-0.4c-0.1-0.1-0.1-0.3-0.2-0.4s-0.1-0.3-0.1-0.5c0-0.2,0-0.4,0-0.5S291.8,29.6,291.8,29.4z M292.4,29.4
						c0,0.2,0,0.4,0,0.5c0,0.1,0,0.3,0,0.5s0,0.3,0.1,0.4c0,0.1,0.1,0.2,0.1,0.3s0.1,0.2,0.2,0.2s0.2,0.1,0.3,0.1
						c0.1,0,0.2,0,0.3-0.1s0.1-0.1,0.2-0.2c0.1-0.1,0.1-0.2,0.1-0.3c0-0.1,0.1-0.2,0.1-0.3s0-0.2,0.1-0.4c0-0.1,0-0.3,0-0.4
						c0-0.1,0-0.3,0-0.4c0-0.1,0-0.3,0-0.4s0-0.3,0-0.4c0-0.1,0-0.3-0.1-0.4c0-0.1-0.1-0.2-0.1-0.3c0-0.1-0.1-0.2-0.1-0.3
						s-0.1-0.1-0.2-0.2c-0.1,0-0.2-0.1-0.3-0.1c-0.1,0-0.2,0-0.3,0.1c-0.1,0-0.1,0.1-0.2,0.2c-0.1,0.1-0.1,0.2-0.1,0.3
						c0,0.1-0.1,0.2-0.1,0.3s0,0.2-0.1,0.4c0,0.1,0,0.3,0,0.4C292.4,29.2,292.4,29.3,292.4,29.4z"/>
					<path class="st35" d="M295.2,29.7c0-0.2,0-0.4,0-0.5c0-0.1,0-0.3,0.1-0.5c0-0.2,0.1-0.4,0.1-0.5c0-0.1,0.1-0.3,0.1-0.5
						c0.1-0.2,0.2-0.3,0.3-0.4c0.1-0.1,0.2-0.2,0.4-0.3s0.3-0.1,0.5-0.1c0.3,0,0.6,0.1,0.8,0.3c0.2,0.2,0.3,0.5,0.3,0.9h-0.6
						c0-0.3-0.1-0.4-0.2-0.5c-0.1-0.1-0.3-0.2-0.5-0.2c-0.1,0-0.2,0-0.3,0.1c-0.1,0.1-0.1,0.1-0.2,0.2c-0.1,0.1-0.1,0.2-0.1,0.3
						c0,0.1-0.1,0.3-0.1,0.5c0,0.2-0.1,0.3-0.1,0.4c0,0,0,0.1,0,0.2c0,0.1,0,0.2,0,0.3h0c0.1-0.2,0.2-0.4,0.4-0.5
						c0.2-0.1,0.4-0.2,0.5-0.2c0.2,0,0.4,0,0.6,0.1c0.2,0.1,0.3,0.2,0.4,0.3c0.1,0.1,0.2,0.3,0.2,0.5c0.1,0.2,0.1,0.4,0.1,0.6
						c0,0.5-0.1,1-0.4,1.3c-0.3,0.3-0.6,0.5-1,0.5c-0.1,0-0.3,0-0.4,0c-0.1,0-0.2-0.1-0.3-0.1s-0.2-0.1-0.2-0.2
						c-0.1-0.1-0.1-0.2-0.2-0.3c0-0.1-0.1-0.2-0.1-0.3s-0.1-0.2-0.1-0.3s0-0.2,0-0.4c0-0.1,0-0.3,0-0.4
						C295.2,29.9,295.2,29.8,295.2,29.7z M295.8,30.2c0,0.5,0.1,0.8,0.2,1c0.1,0.2,0.3,0.3,0.6,0.3c0.2,0,0.3,0,0.4-0.1
						c0.1-0.1,0.2-0.2,0.2-0.3c0.1-0.1,0.1-0.3,0.1-0.4c0-0.1,0-0.3,0-0.4c0-0.7-0.3-1.1-0.8-1.1C296,29.2,295.8,29.6,295.8,30.2z"
						/>
				</g>
			</g>
			<g>
				<g>
					<path class="st35" d="M315.9,29.4c0-0.2,0-0.3,0-0.5c0-0.1,0-0.3,0-0.5c0-0.2,0.1-0.3,0.1-0.5c0-0.1,0.1-0.3,0.2-0.4
						c0.1-0.1,0.2-0.3,0.2-0.4c0.1-0.1,0.2-0.2,0.4-0.2c0.1-0.1,0.3-0.1,0.5-0.1s0.3,0,0.5,0.1s0.3,0.1,0.4,0.2
						c0.1,0.1,0.2,0.2,0.2,0.4c0.1,0.1,0.1,0.3,0.2,0.4s0.1,0.3,0.1,0.5c0,0.2,0,0.3,0,0.5c0,0.1,0,0.3,0,0.5c0,0.1,0,0.3,0,0.4
						s0,0.2,0,0.4c0,0.1,0,0.3,0,0.4c0,0.1,0,0.2-0.1,0.3s-0.1,0.2-0.1,0.3s-0.1,0.2-0.1,0.3c0,0.1-0.1,0.2-0.2,0.2
						s-0.1,0.1-0.2,0.2s-0.2,0.1-0.3,0.1c-0.1,0-0.2,0-0.4,0c-0.2,0-0.3,0-0.5-0.1c-0.1-0.1-0.3-0.1-0.4-0.2
						c-0.1-0.1-0.2-0.2-0.2-0.4c-0.1-0.1-0.1-0.3-0.2-0.4s-0.1-0.3-0.1-0.5c0-0.2,0-0.4,0-0.5S315.9,29.6,315.9,29.4z M316.5,29.4
						c0,0.2,0,0.4,0,0.5c0,0.1,0,0.3,0,0.5s0,0.3,0.1,0.4c0,0.1,0.1,0.2,0.1,0.3s0.1,0.2,0.2,0.2s0.2,0.1,0.3,0.1
						c0.1,0,0.2,0,0.3-0.1s0.1-0.1,0.2-0.2c0.1-0.1,0.1-0.2,0.1-0.3c0-0.1,0.1-0.2,0.1-0.3s0-0.2,0.1-0.4c0-0.1,0-0.3,0-0.4
						c0-0.1,0-0.3,0-0.4c0-0.1,0-0.3,0-0.4s0-0.3,0-0.4c0-0.1,0-0.3-0.1-0.4c0-0.1-0.1-0.2-0.1-0.3c0-0.1-0.1-0.2-0.1-0.3
						s-0.1-0.1-0.2-0.2c-0.1,0-0.2-0.1-0.3-0.1c-0.1,0-0.2,0-0.3,0.1c-0.1,0-0.1,0.1-0.2,0.2c-0.1,0.1-0.1,0.2-0.1,0.3
						c0,0.1-0.1,0.2-0.1,0.3s0,0.2-0.1,0.4c0,0.1,0,0.3,0,0.4C316.5,29.2,316.5,29.3,316.5,29.4z"/>
					<path class="st35" d="M319.2,30.5c0-0.2,0-0.4,0.1-0.5c0.1-0.2,0.1-0.3,0.2-0.4c0.1-0.1,0.2-0.2,0.3-0.3s0.2-0.1,0.3-0.1v0
						c-0.3-0.1-0.5-0.2-0.6-0.4s-0.2-0.4-0.2-0.7c0-0.1,0-0.3,0.1-0.4c0-0.1,0.1-0.3,0.2-0.4s0.2-0.2,0.4-0.3
						c0.2-0.1,0.3-0.1,0.6-0.1c0.2,0,0.3,0,0.5,0.1c0.1,0,0.3,0.1,0.3,0.2s0.2,0.2,0.2,0.3c0.1,0.1,0.1,0.2,0.1,0.3s0,0.2,0,0.4
						c0,0.3-0.1,0.5-0.2,0.7c-0.1,0.2-0.3,0.3-0.6,0.4v0c0.3,0,0.5,0.2,0.6,0.4c0.2,0.2,0.3,0.5,0.3,0.9c0,0.5-0.1,0.9-0.4,1.1
						c-0.2,0.3-0.6,0.4-1,0.4c-0.5,0-0.8-0.1-1-0.4C319.4,31.4,319.2,31,319.2,30.5z M319.8,30.5c0,0.2,0,0.3,0,0.4
						c0,0.1,0.1,0.2,0.1,0.3s0.1,0.2,0.2,0.2c0.1,0.1,0.2,0.1,0.4,0.1c0.1,0,0.2,0,0.3-0.1s0.2-0.1,0.2-0.1c0.1-0.1,0.1-0.1,0.1-0.2
						c0-0.1,0.1-0.2,0.1-0.3c0-0.1,0-0.2,0-0.3c0-0.1,0-0.3,0-0.4c0-0.1-0.1-0.2-0.1-0.3s-0.1-0.2-0.2-0.2c-0.1-0.1-0.2-0.1-0.4-0.1
						c-0.2,0-0.3,0.1-0.5,0.2s-0.2,0.2-0.3,0.4S319.8,30.3,319.8,30.5z M320,28.2c0,0.3,0.1,0.5,0.2,0.6s0.3,0.2,0.5,0.2
						c0.4,0,0.6-0.3,0.6-0.8c0-0.2-0.1-0.4-0.2-0.6c-0.1-0.1-0.3-0.2-0.5-0.2C320.2,27.4,320,27.6,320,28.2z"/>
				</g>
			</g>
			<g>
				<g>
					<path class="st35" d="M340.1,28.3v-0.4c0.2,0,0.4,0,0.5,0c0.1,0,0.2-0.1,0.4-0.1c0.1-0.1,0.2-0.2,0.2-0.3
						c0.1-0.1,0.1-0.3,0.1-0.5h0.4v5h-0.6v-3.7H340.1z"/>
					<path class="st35" d="M343.3,29.4c0-0.2,0-0.3,0-0.5c0-0.1,0-0.3,0-0.5c0-0.2,0.1-0.3,0.1-0.5c0-0.1,0.1-0.3,0.2-0.4
						c0.1-0.1,0.2-0.3,0.2-0.4c0.1-0.1,0.2-0.2,0.4-0.2c0.1-0.1,0.3-0.1,0.5-0.1s0.3,0,0.5,0.1s0.3,0.1,0.4,0.2
						c0.1,0.1,0.2,0.2,0.2,0.4c0.1,0.1,0.1,0.3,0.2,0.4s0.1,0.3,0.1,0.5c0,0.2,0,0.3,0,0.5c0,0.1,0,0.3,0,0.5c0,0.1,0,0.3,0,0.4
						s0,0.2,0,0.4c0,0.1,0,0.3,0,0.4c0,0.1,0,0.2-0.1,0.3s-0.1,0.2-0.1,0.3s-0.1,0.2-0.1,0.3c0,0.1-0.1,0.2-0.2,0.2
						s-0.1,0.1-0.2,0.2s-0.2,0.1-0.3,0.1c-0.1,0-0.2,0-0.4,0c-0.2,0-0.3,0-0.5-0.1c-0.1-0.1-0.3-0.1-0.4-0.2
						c-0.1-0.1-0.2-0.2-0.2-0.4c-0.1-0.1-0.1-0.3-0.2-0.4s-0.1-0.3-0.1-0.5c0-0.2,0-0.4,0-0.5S343.3,29.6,343.3,29.4z M343.9,29.4
						c0,0.2,0,0.4,0,0.5c0,0.1,0,0.3,0,0.5s0,0.3,0.1,0.4c0,0.1,0.1,0.2,0.1,0.3s0.1,0.2,0.2,0.2s0.2,0.1,0.3,0.1
						c0.1,0,0.2,0,0.3-0.1s0.1-0.1,0.2-0.2c0.1-0.1,0.1-0.2,0.1-0.3c0-0.1,0.1-0.2,0.1-0.3s0-0.2,0.1-0.4c0-0.1,0-0.3,0-0.4
						c0-0.1,0-0.3,0-0.4c0-0.1,0-0.3,0-0.4s0-0.3,0-0.4c0-0.1,0-0.3-0.1-0.4c0-0.1-0.1-0.2-0.1-0.3c0-0.1-0.1-0.2-0.1-0.3
						s-0.1-0.1-0.2-0.2c-0.1,0-0.2-0.1-0.3-0.1c-0.1,0-0.2,0-0.3,0.1c-0.1,0-0.1,0.1-0.2,0.2c-0.1,0.1-0.1,0.2-0.1,0.3
						c0,0.1-0.1,0.2-0.1,0.3s0,0.2-0.1,0.4c0,0.1,0,0.3,0,0.4C343.9,29.2,343.9,29.3,343.9,29.4z"/>
				</g>
			</g>
			<g>
				<g>
					<path class="st35" d="M364.2,28.3v-0.4c0.2,0,0.4,0,0.5,0c0.1,0,0.2-0.1,0.4-0.1c0.1-0.1,0.2-0.2,0.2-0.3
						c0.1-0.1,0.1-0.3,0.1-0.5h0.4v5h-0.6v-3.7H364.2z"/>
					<path class="st35" d="M367.4,31.9c0-0.2,0-0.4,0-0.6c0-0.2,0.1-0.3,0.2-0.5c0.1-0.2,0.2-0.4,0.4-0.5c0.2-0.2,0.4-0.4,0.7-0.6
						c0.2-0.2,0.4-0.4,0.6-0.6c0.1-0.2,0.2-0.5,0.2-0.8c0-0.3-0.1-0.5-0.2-0.7c-0.1-0.2-0.3-0.2-0.6-0.2c-0.1,0-0.2,0-0.3,0.1
						c-0.1,0-0.2,0.1-0.2,0.2c-0.1,0.1-0.1,0.2-0.1,0.3c0,0.1,0,0.2-0.1,0.3c0,0.1,0,0.2,0,0.4h-0.6v-0.2c0-0.2,0-0.4,0.1-0.6
						s0.1-0.3,0.2-0.5c0.1-0.1,0.2-0.2,0.4-0.3c0.2-0.1,0.4-0.1,0.6-0.1c0.4,0,0.7,0.1,1,0.4c0.2,0.3,0.3,0.6,0.3,1
						c0,0.2,0,0.4-0.1,0.5c0,0.2-0.1,0.3-0.2,0.4c-0.1,0.1-0.2,0.3-0.3,0.4c-0.1,0.1-0.2,0.2-0.4,0.4c-0.2,0.2-0.3,0.3-0.4,0.4
						s-0.2,0.2-0.3,0.3s-0.2,0.2-0.2,0.2c0,0-0.1,0.1-0.1,0.2c0,0.1-0.1,0.1-0.1,0.2c0,0.1,0,0.1,0,0.2h2.1v0.5H367.4z"/>
				</g>
			</g>
			<g>
				<g>
					<path class="st35" d="M387.6,28.3v-0.4c0.2,0,0.4,0,0.5,0c0.1,0,0.2-0.1,0.4-0.1c0.1-0.1,0.2-0.2,0.2-0.3
						c0.1-0.1,0.1-0.3,0.1-0.5h0.4v5h-0.6v-3.7H387.6z"/>
					<path class="st35" d="M390.7,30.7v-0.5l1.9-3.3h0.5v3.3h0.5v0.5h-0.5v1.3h-0.6v-1.3H390.7z M391.1,30.2h1.4v-2.4L391.1,30.2z"
						/>
				</g>
			</g>
			<g>
				<g>
					<path class="st35" d="M410.2,28.3v-0.4c0.2,0,0.4,0,0.5,0c0.1,0,0.2-0.1,0.4-0.1c0.1-0.1,0.2-0.2,0.2-0.3
						c0.1-0.1,0.1-0.3,0.1-0.5h0.4v5h-0.6v-3.7H410.2z"/>
					<path class="st35" d="M413.3,29.7c0-0.2,0-0.4,0-0.5c0-0.1,0-0.3,0.1-0.5c0-0.2,0.1-0.4,0.1-0.5c0-0.1,0.1-0.3,0.1-0.5
						c0.1-0.2,0.2-0.3,0.3-0.4c0.1-0.1,0.2-0.2,0.4-0.3s0.3-0.1,0.5-0.1c0.3,0,0.6,0.1,0.8,0.3c0.2,0.2,0.3,0.5,0.3,0.9h-0.6
						c0-0.3-0.1-0.4-0.2-0.5c-0.1-0.1-0.3-0.2-0.5-0.2c-0.1,0-0.2,0-0.3,0.1c-0.1,0.1-0.1,0.1-0.2,0.2c-0.1,0.1-0.1,0.2-0.1,0.3
						c0,0.1-0.1,0.3-0.1,0.5c0,0.2-0.1,0.3-0.1,0.4c0,0,0,0.1,0,0.2c0,0.1,0,0.2,0,0.3h0c0.1-0.2,0.2-0.4,0.4-0.5
						c0.2-0.1,0.4-0.2,0.5-0.2c0.2,0,0.4,0,0.6,0.1c0.2,0.1,0.3,0.2,0.4,0.3c0.1,0.1,0.2,0.3,0.2,0.5c0.1,0.2,0.1,0.4,0.1,0.6
						c0,0.5-0.1,1-0.4,1.3c-0.3,0.3-0.6,0.5-1,0.5c-0.1,0-0.3,0-0.4,0c-0.1,0-0.2-0.1-0.3-0.1s-0.2-0.1-0.2-0.2
						c-0.1-0.1-0.1-0.2-0.2-0.3c0-0.1-0.1-0.2-0.1-0.3s-0.1-0.2-0.1-0.3s0-0.2,0-0.4c0-0.1,0-0.3,0-0.4
						C413.3,29.9,413.3,29.8,413.3,29.7z M413.9,30.2c0,0.5,0.1,0.8,0.2,1c0.1,0.2,0.3,0.3,0.6,0.3c0.2,0,0.3,0,0.4-0.1
						c0.1-0.1,0.2-0.2,0.2-0.3c0.1-0.1,0.1-0.3,0.1-0.4c0-0.1,0-0.3,0-0.4c0-0.7-0.3-1.1-0.8-1.1C414.2,29.2,413.9,29.6,413.9,30.2z
						"/>
				</g>
			</g>
		</g>
		<g>
			<g>
				<g>
					<path class="st35" d="M291.8,84.8c0-0.2,0-0.3,0-0.5c0-0.1,0-0.3,0-0.5c0-0.2,0.1-0.3,0.1-0.5c0-0.1,0.1-0.3,0.2-0.4
						c0.1-0.1,0.2-0.3,0.2-0.4c0.1-0.1,0.2-0.2,0.4-0.2c0.1-0.1,0.3-0.1,0.5-0.1s0.3,0,0.5,0.1s0.3,0.1,0.4,0.2
						c0.1,0.1,0.2,0.2,0.2,0.4c0.1,0.1,0.1,0.3,0.2,0.4s0.1,0.3,0.1,0.5c0,0.2,0,0.3,0,0.5c0,0.1,0,0.3,0,0.5c0,0.1,0,0.3,0,0.4
						s0,0.2,0,0.4c0,0.1,0,0.3,0,0.4c0,0.1,0,0.2-0.1,0.3s-0.1,0.2-0.1,0.3s-0.1,0.2-0.1,0.3c0,0.1-0.1,0.2-0.2,0.2
						s-0.1,0.1-0.2,0.2s-0.2,0.1-0.3,0.1c-0.1,0-0.2,0-0.4,0c-0.2,0-0.3,0-0.5-0.1c-0.1-0.1-0.3-0.1-0.4-0.2
						c-0.1-0.1-0.2-0.2-0.2-0.4c-0.1-0.1-0.1-0.3-0.2-0.4s-0.1-0.3-0.1-0.5c0-0.2,0-0.4,0-0.5S291.8,85,291.8,84.8z M292.4,84.8
						c0,0.2,0,0.4,0,0.5c0,0.1,0,0.3,0,0.5s0,0.3,0.1,0.4c0,0.1,0.1,0.2,0.1,0.3s0.1,0.2,0.2,0.2s0.2,0.1,0.3,0.1
						c0.1,0,0.2,0,0.3-0.1s0.1-0.1,0.2-0.2c0.1-0.1,0.1-0.2,0.1-0.3c0-0.1,0.1-0.2,0.1-0.3s0-0.2,0.1-0.4c0-0.1,0-0.3,0-0.4
						c0-0.1,0-0.3,0-0.4c0-0.1,0-0.3,0-0.4s0-0.3,0-0.4c0-0.1,0-0.3-0.1-0.4c0-0.1-0.1-0.2-0.1-0.3c0-0.1-0.1-0.2-0.1-0.3
						s-0.1-0.1-0.2-0.2c-0.1,0-0.2-0.1-0.3-0.1c-0.1,0-0.2,0-0.3,0.1c-0.1,0-0.1,0.1-0.2,0.2c-0.1,0.1-0.1,0.2-0.1,0.3
						c0,0.1-0.1,0.2-0.1,0.3s0,0.2-0.1,0.4c0,0.1,0,0.3,0,0.4C292.4,84.6,292.4,84.7,292.4,84.8z"/>
					<path class="st35" d="M295.2,86h0.6c0,0.3,0.1,0.5,0.2,0.7c0.1,0.2,0.3,0.2,0.6,0.2c0.1,0,0.3,0,0.4-0.1
						c0.1-0.1,0.2-0.2,0.3-0.3c0.1-0.1,0.1-0.2,0.1-0.4s0-0.3,0-0.5c0-0.1,0-0.2,0-0.3c0-0.1,0-0.2-0.1-0.3s-0.1-0.2-0.1-0.3
						s-0.1-0.1-0.2-0.2c-0.1,0-0.2-0.1-0.4-0.1c-0.3,0-0.6,0.2-0.7,0.5h-0.5l0.3-2.6h2.1v0.5H296l-0.2,1.5c0.1-0.1,0.3-0.2,0.4-0.3
						c0.1-0.1,0.3-0.1,0.4-0.1c0.2,0,0.4,0,0.6,0.1s0.3,0.2,0.4,0.4s0.2,0.3,0.2,0.5c0,0.2,0.1,0.4,0.1,0.6c0,0.2,0,0.4,0,0.5
						c0,0.2-0.1,0.3-0.1,0.5s-0.2,0.3-0.3,0.4c-0.1,0.1-0.2,0.2-0.4,0.3c-0.2,0.1-0.3,0.1-0.5,0.1c-0.4,0-0.8-0.1-1-0.4
						C295.3,86.8,295.2,86.5,295.2,86z"/>
				</g>
			</g>
			<g>
				<g>
					<path class="st35" d="M315.9,84.8c0-0.2,0-0.3,0-0.5c0-0.1,0-0.3,0-0.5c0-0.2,0.1-0.3,0.1-0.5c0-0.1,0.1-0.3,0.2-0.4
						c0.1-0.1,0.2-0.3,0.2-0.4c0.1-0.1,0.2-0.2,0.4-0.2c0.1-0.1,0.3-0.1,0.5-0.1s0.3,0,0.5,0.1s0.3,0.1,0.4,0.2
						c0.1,0.1,0.2,0.2,0.2,0.4c0.1,0.1,0.1,0.3,0.2,0.4s0.1,0.3,0.1,0.5c0,0.2,0,0.3,0,0.5c0,0.1,0,0.3,0,0.5c0,0.1,0,0.3,0,0.4
						s0,0.2,0,0.4c0,0.1,0,0.3,0,0.4c0,0.1,0,0.2-0.1,0.3s-0.1,0.2-0.1,0.3s-0.1,0.2-0.1,0.3c0,0.1-0.1,0.2-0.2,0.2
						s-0.1,0.1-0.2,0.2s-0.2,0.1-0.3,0.1c-0.1,0-0.2,0-0.4,0c-0.2,0-0.3,0-0.5-0.1c-0.1-0.1-0.3-0.1-0.4-0.2
						c-0.1-0.1-0.2-0.2-0.2-0.4c-0.1-0.1-0.1-0.3-0.2-0.4s-0.1-0.3-0.1-0.5c0-0.2,0-0.4,0-0.5S315.9,85,315.9,84.8z M316.5,84.8
						c0,0.2,0,0.4,0,0.5c0,0.1,0,0.3,0,0.5s0,0.3,0.1,0.4c0,0.1,0.1,0.2,0.1,0.3s0.1,0.2,0.2,0.2s0.2,0.1,0.3,0.1
						c0.1,0,0.2,0,0.3-0.1s0.1-0.1,0.2-0.2c0.1-0.1,0.1-0.2,0.1-0.3c0-0.1,0.1-0.2,0.1-0.3s0-0.2,0.1-0.4c0-0.1,0-0.3,0-0.4
						c0-0.1,0-0.3,0-0.4c0-0.1,0-0.3,0-0.4s0-0.3,0-0.4c0-0.1,0-0.3-0.1-0.4c0-0.1-0.1-0.2-0.1-0.3c0-0.1-0.1-0.2-0.1-0.3
						s-0.1-0.1-0.2-0.2c-0.1,0-0.2-0.1-0.3-0.1c-0.1,0-0.2,0-0.3,0.1c-0.1,0-0.1,0.1-0.2,0.2c-0.1,0.1-0.1,0.2-0.1,0.3
						c0,0.1-0.1,0.2-0.1,0.3s0,0.2-0.1,0.4c0,0.1,0,0.3,0,0.4C316.5,84.6,316.5,84.7,316.5,84.8z"/>
					<path class="st35" d="M319.2,82.9v-0.5h2.8v0.5c-0.5,0.6-0.9,1.3-1.1,2.1c-0.3,0.8-0.5,1.6-0.5,2.4h-0.6
						c0.1-0.8,0.3-1.6,0.6-2.3c0.3-0.8,0.7-1.5,1.2-2.1H319.2z"/>
				</g>
			</g>
			<g>
				<g>
					<path class="st35" d="M340,84.8c0-0.2,0-0.3,0-0.5c0-0.1,0-0.3,0-0.5c0-0.2,0.1-0.3,0.1-0.5c0-0.1,0.1-0.3,0.2-0.4
						c0.1-0.1,0.2-0.3,0.2-0.4c0.1-0.1,0.2-0.2,0.4-0.2c0.1-0.1,0.3-0.1,0.5-0.1s0.3,0,0.5,0.1s0.3,0.1,0.4,0.2
						c0.1,0.1,0.2,0.2,0.2,0.4c0.1,0.1,0.1,0.3,0.2,0.4s0.1,0.3,0.1,0.5c0,0.2,0,0.3,0,0.5c0,0.1,0,0.3,0,0.5c0,0.1,0,0.3,0,0.4
						s0,0.2,0,0.4c0,0.1,0,0.3,0,0.4c0,0.1,0,0.2-0.1,0.3s-0.1,0.2-0.1,0.3s-0.1,0.2-0.1,0.3c0,0.1-0.1,0.2-0.2,0.2
						s-0.1,0.1-0.2,0.2s-0.2,0.1-0.3,0.1c-0.1,0-0.2,0-0.4,0c-0.2,0-0.3,0-0.5-0.1c-0.1-0.1-0.3-0.1-0.4-0.2
						c-0.1-0.1-0.2-0.2-0.2-0.4c-0.1-0.1-0.1-0.3-0.2-0.4S340,86,340,85.8c0-0.2,0-0.4,0-0.5S340,85,340,84.8z M340.5,84.8
						c0,0.2,0,0.4,0,0.5c0,0.1,0,0.3,0,0.5s0,0.3,0.1,0.4c0,0.1,0.1,0.2,0.1,0.3s0.1,0.2,0.2,0.2s0.2,0.1,0.3,0.1
						c0.1,0,0.2,0,0.3-0.1s0.1-0.1,0.2-0.2c0.1-0.1,0.1-0.2,0.1-0.3c0-0.1,0.1-0.2,0.1-0.3s0-0.2,0.1-0.4c0-0.1,0-0.3,0-0.4
						c0-0.1,0-0.3,0-0.4c0-0.1,0-0.3,0-0.4s0-0.3,0-0.4c0-0.1,0-0.3-0.1-0.4c0-0.1-0.1-0.2-0.1-0.3c0-0.1-0.1-0.2-0.1-0.3
						s-0.1-0.1-0.2-0.2c-0.1,0-0.2-0.1-0.3-0.1c-0.1,0-0.2,0-0.3,0.1c-0.1,0-0.1,0.1-0.2,0.2c-0.1,0.1-0.1,0.2-0.1,0.3
						c0,0.1-0.1,0.2-0.1,0.3s0,0.2-0.1,0.4c0,0.1,0,0.3,0,0.4C340.5,84.6,340.5,84.7,340.5,84.8z"/>
					<path class="st35" d="M343.3,84c0-0.5,0.1-1,0.4-1.3c0.3-0.3,0.6-0.5,1-0.5c0.2,0,0.4,0,0.5,0.1c0.2,0.1,0.3,0.1,0.4,0.2
						s0.2,0.2,0.3,0.3c0.1,0.1,0.1,0.3,0.2,0.4c0,0.1,0.1,0.3,0.1,0.4s0,0.3,0,0.5s0,0.3,0,0.5c0,0.2,0,0.4,0,0.5s0,0.3,0,0.5
						c0,0.2,0,0.4-0.1,0.5c0,0.1-0.1,0.3-0.2,0.5c-0.1,0.2-0.2,0.3-0.3,0.4c-0.1,0.1-0.2,0.2-0.4,0.3c-0.2,0.1-0.3,0.1-0.5,0.1
						c-0.4,0-0.7-0.1-0.9-0.3s-0.3-0.5-0.3-0.9h0.6c0,0.2,0.1,0.4,0.2,0.5c0.1,0.1,0.3,0.2,0.5,0.2c0.1,0,0.2,0,0.2,0
						c0.1,0,0.1-0.1,0.2-0.2c0.1-0.1,0.1-0.1,0.1-0.2c0-0.1,0.1-0.2,0.1-0.3c0-0.1,0.1-0.2,0.1-0.3c0-0.1,0-0.2,0.1-0.3s0-0.2,0-0.3
						c0-0.1,0-0.2,0-0.3h0c-0.1,0.2-0.2,0.4-0.4,0.5c-0.2,0.1-0.3,0.2-0.5,0.2c-0.2,0-0.4,0-0.6-0.1c-0.2-0.1-0.3-0.2-0.4-0.3
						s-0.2-0.3-0.2-0.5C343.3,84.4,343.3,84.2,343.3,84z M343.9,83.9c0,0.1,0,0.2,0,0.3c0,0.1,0,0.2,0.1,0.3c0,0.1,0.1,0.2,0.1,0.3
						s0.1,0.1,0.2,0.2c0.1,0,0.2,0.1,0.3,0.1c0.2,0,0.3,0,0.4-0.1c0.1-0.1,0.2-0.1,0.3-0.2c0.1-0.1,0.1-0.2,0.1-0.3
						c0-0.1,0-0.2,0-0.4c0-0.2,0-0.3,0-0.4c0-0.1-0.1-0.3-0.1-0.4c-0.1-0.1-0.1-0.2-0.3-0.3c-0.1-0.1-0.3-0.1-0.4-0.1
						c-0.2,0-0.3,0-0.4,0.1c-0.1,0.1-0.2,0.2-0.2,0.3c-0.1,0.1-0.1,0.2-0.1,0.4S343.9,83.8,343.9,83.9z"/>
				</g>
			</g>
			<g>
				<g>
					<path class="st35" d="M364.2,83.6v-0.4c0.2,0,0.4,0,0.5,0c0.1,0,0.2-0.1,0.4-0.1c0.1-0.1,0.2-0.2,0.2-0.3
						c0.1-0.1,0.1-0.3,0.1-0.5h0.4v5h-0.6v-3.7H364.2z"/>
					<path class="st35" d="M367.6,83.6v-0.4c0.2,0,0.4,0,0.5,0c0.1,0,0.2-0.1,0.4-0.1c0.1-0.1,0.2-0.2,0.2-0.3
						c0.1-0.1,0.1-0.3,0.1-0.5h0.4v5h-0.6v-3.7H367.6z"/>
				</g>
			</g>
			<g>
				<g>
					<path class="st35" d="M386.7,83.6v-0.4c0.2,0,0.4,0,0.5,0c0.1,0,0.2-0.1,0.4-0.1c0.1-0.1,0.2-0.2,0.2-0.3
						c0.1-0.1,0.1-0.3,0.1-0.5h0.4v5h-0.6v-3.7H386.7z"/>
					<path class="st35" d="M389.8,85.8h0.6c0,0.1,0,0.2,0,0.3c0,0.1,0,0.2,0.1,0.3c0,0.1,0.1,0.2,0.1,0.2c0.1,0.1,0.1,0.1,0.2,0.2
						c0.1,0,0.2,0.1,0.3,0.1c0.3,0,0.5-0.1,0.6-0.2c0.1-0.2,0.2-0.4,0.2-0.7c0-0.2,0-0.4-0.1-0.5c0-0.1-0.1-0.2-0.2-0.3
						c-0.1-0.1-0.2-0.1-0.4-0.2c-0.1,0-0.3,0-0.5,0v-0.5c0.4,0,0.6-0.1,0.8-0.2c0.2-0.1,0.3-0.3,0.3-0.7c0-0.6-0.2-0.8-0.7-0.8
						c-0.1,0-0.2,0-0.3,0.1c-0.1,0.1-0.2,0.1-0.2,0.2c-0.1,0.1-0.1,0.2-0.1,0.3c0,0.1,0,0.2,0,0.4h-0.5c0-0.4,0.1-0.8,0.3-1.1
						c0.2-0.3,0.5-0.4,0.9-0.4c0.4,0,0.7,0.1,0.9,0.3s0.3,0.5,0.3,0.9c0,0.3-0.1,0.5-0.2,0.7c-0.1,0.2-0.3,0.3-0.6,0.4
						c0.3,0.1,0.5,0.2,0.7,0.4c0.1,0.2,0.2,0.5,0.2,0.8c0,0.4-0.1,0.8-0.3,1.1s-0.6,0.4-1,0.4c-0.2,0-0.4,0-0.6-0.1
						c-0.2-0.1-0.3-0.2-0.4-0.3c-0.1-0.1-0.2-0.3-0.2-0.5S389.8,86,389.8,85.8z"/>
				</g>
			</g>
			<g>
				<g>
					<path class="st35" d="M410.8,83.6v-0.4c0.2,0,0.4,0,0.5,0c0.1,0,0.2-0.1,0.4-0.1c0.1-0.1,0.2-0.2,0.2-0.3
						c0.1-0.1,0.1-0.3,0.1-0.5h0.4v5h-0.6v-3.7H410.8z"/>
					<path class="st35" d="M414,86h0.6c0,0.3,0.1,0.5,0.2,0.7c0.1,0.2,0.3,0.2,0.6,0.2c0.1,0,0.3,0,0.4-0.1c0.1-0.1,0.2-0.2,0.3-0.3
						c0.1-0.1,0.1-0.2,0.1-0.4s0-0.3,0-0.5c0-0.1,0-0.2,0-0.3c0-0.1,0-0.2-0.1-0.3s-0.1-0.2-0.1-0.3s-0.1-0.1-0.2-0.2
						c-0.1,0-0.2-0.1-0.4-0.1c-0.3,0-0.6,0.2-0.7,0.5H414l0.3-2.6h2.1v0.5h-1.7l-0.2,1.5c0.1-0.1,0.3-0.2,0.4-0.3
						c0.1-0.1,0.3-0.1,0.4-0.1c0.2,0,0.4,0,0.6,0.1s0.3,0.2,0.4,0.4s0.2,0.3,0.2,0.5c0,0.2,0.1,0.4,0.1,0.6c0,0.2,0,0.4,0,0.5
						c0,0.2-0.1,0.3-0.1,0.5s-0.2,0.3-0.3,0.4c-0.1,0.1-0.2,0.2-0.4,0.3c-0.2,0.1-0.3,0.1-0.5,0.1c-0.4,0-0.8-0.1-1-0.4
						C414.1,86.8,414,86.5,414,86z"/>
				</g>
			</g>
		</g>
		<g>
			<path class="st1" d="M212.2,90H32.3c-3.9,0-7-3.1-7-7V32.3c0-3.9,3.1-7,7-7h179.9c3.9,0,7,3.1,7,7V83
				C219.2,86.9,216.1,90,212.2,90z"/>
			<g>
				<g>
					<path class="st36" d="M21.4,70.7l-5.8-1.6v-0.8l5.8-1.6v0.7l-1.7,0.5v1.8l1.7,0.4V70.7z M19.2,69.4v-1.5l-3.1,0.7v0L19.2,69.4z
						"/>
					<path class="st36" d="M21.4,65.9h-5.8v-1.5c0-0.5,0.1-0.9,0.4-1.2c0.3-0.3,0.6-0.4,1.1-0.4c0.3,0,0.6,0.1,0.8,0.2
						s0.4,0.4,0.4,0.6h0c0-0.3,0.2-0.5,0.4-0.7s0.6-0.3,1-0.3c0.5,0,0.9,0.1,1.2,0.4s0.4,0.7,0.4,1.2V65.9z M18.1,65.2v-0.8
						c0-0.3-0.1-0.6-0.2-0.8s-0.4-0.2-0.8-0.2c-0.3,0-0.5,0.1-0.7,0.2s-0.2,0.4-0.2,0.7v0.9H18.1z M20.9,65.2v-1
						c0-0.3-0.1-0.6-0.3-0.8s-0.4-0.2-0.8-0.2c-0.7,0-1.1,0.4-1.1,1.1v0.9H20.9z"/>
					<path class="st36" d="M18.6,61.8c-0.2,0-0.4,0-0.6,0s-0.4,0-0.6-0.1s-0.4-0.1-0.6-0.1s-0.3-0.1-0.5-0.2S16,61.1,15.9,61
						c-0.1-0.1-0.2-0.3-0.3-0.5s-0.1-0.4-0.1-0.6c0-0.2,0-0.4,0.1-0.5s0.1-0.3,0.2-0.4s0.2-0.2,0.3-0.3c0.1-0.1,0.2-0.2,0.3-0.2
						s0.2-0.1,0.4-0.2s0.3-0.1,0.4-0.1s0.3-0.1,0.5-0.1s0.3,0,0.5,0s0.3,0,0.5,0c0.2,0,0.5,0,0.7,0s0.4,0,0.6,0.1s0.4,0.1,0.6,0.1
						s0.3,0.1,0.5,0.2s0.3,0.2,0.4,0.3s0.2,0.3,0.2,0.5s0.1,0.4,0.1,0.6s0,0.4-0.1,0.6s-0.1,0.3-0.2,0.5s-0.2,0.2-0.4,0.3
						s-0.3,0.2-0.5,0.2s-0.4,0.1-0.6,0.1s-0.4,0.1-0.6,0.1S18.8,61.8,18.6,61.8z M18.5,61.1c0.4,0,0.7,0,0.9,0s0.5-0.1,0.7-0.1
						s0.4-0.1,0.5-0.2s0.2-0.2,0.3-0.4s0.1-0.3,0.1-0.5c0-0.2,0-0.3-0.1-0.5s-0.1-0.2-0.2-0.3s-0.2-0.2-0.4-0.2s-0.3-0.1-0.5-0.1
						s-0.4-0.1-0.6-0.1s-0.5,0-0.8,0c-0.3,0-0.5,0-0.7,0s-0.4,0.1-0.6,0.1s-0.4,0.1-0.5,0.2s-0.2,0.2-0.3,0.4s-0.1,0.3-0.1,0.5
						c0,0.2,0,0.4,0.1,0.5s0.2,0.3,0.3,0.3s0.3,0.2,0.5,0.2s0.4,0.1,0.6,0.1S18.2,61.1,18.5,61.1z"/>
					<path class="st36" d="M21.4,55h-5.8v-2.7h0.6v2.1h5.2V55z"/>
					<path class="st36" d="M21.4,52.6l-5.8-1.6v-0.8l5.8-1.6v0.7l-1.7,0.5v1.8l1.7,0.4V52.6z M19.2,51.3v-1.5l-3.1,0.7v0L19.2,51.3z
						"/>
					<path class="st36" d="M19.7,48v-0.6c0.2,0,0.4,0,0.6-0.1c0.2,0,0.3-0.1,0.4-0.2s0.2-0.2,0.3-0.4s0.1-0.3,0.1-0.5
						c0-0.2,0-0.4-0.1-0.5c-0.1-0.1-0.2-0.3-0.3-0.3c-0.1-0.1-0.2-0.1-0.4-0.2c-0.1,0-0.3-0.1-0.4-0.1c-0.3,0-0.5,0.1-0.8,0.3
						s-0.3,0.4-0.3,0.8v0.5h-0.6v-0.4c0-0.3-0.1-0.5-0.3-0.7s-0.4-0.2-0.7-0.2c-0.3,0-0.6,0.1-0.7,0.2s-0.3,0.4-0.3,0.7
						c0,0.3,0.1,0.5,0.3,0.7c0.2,0.2,0.4,0.3,0.8,0.3v0.6c-0.5-0.1-0.9-0.2-1.2-0.5c-0.3-0.3-0.4-0.7-0.4-1.2c0-0.5,0.1-0.8,0.4-1.1
						c0.3-0.3,0.6-0.4,1-0.4c0.4,0,0.7,0.1,0.9,0.2s0.4,0.4,0.5,0.6c0.1-0.3,0.2-0.6,0.5-0.8s0.6-0.3,1-0.3c0.1,0,0.3,0,0.4,0
						s0.3,0.1,0.4,0.2c0.2,0.1,0.3,0.2,0.4,0.3s0.2,0.3,0.3,0.5s0.1,0.5,0.1,0.7c0,0.3,0,0.6-0.1,0.8s-0.2,0.4-0.4,0.5
						s-0.4,0.2-0.6,0.3C20.2,47.9,20,47.9,19.7,48z"/>
					<path class="st36" d="M21.4,43.9l-5.8-1.6v-0.8l5.8-1.6v0.7l-1.7,0.5v1.8l1.7,0.4V43.9z M19.2,42.6v-1.5l-3.1,0.7v0L19.2,42.6z
						"/>
				</g>
			</g>
			<g>
				
					<linearGradient id="SVGID_00000065787480807955878830000010195958269563023805_" gradientUnits="userSpaceOnUse" x1="-359.3872" y1="-1699.0516" x2="-358.3872" y2="-1699.0516" gradientTransform="matrix(-1 0 0 -1 -177.574 -1677.9882)">
					<stop  offset="4.102398e-07" style="stop-color:#ADB9BC"/>
					<stop  offset="1" style="stop-color:#C0CBCE"/>
				</linearGradient>
				
					<line style="fill:none;stroke:url(#SVGID_00000065787480807955878830000010195958269563023805_);stroke-miterlimit:10;" x1="181.3" y1="24.4" x2="181.3" y2="17.7"/>
				
					<linearGradient id="SVGID_00000023988078489631511210000007032460412753556909_" gradientUnits="userSpaceOnUse" x1="-335.5292" y1="-1699.0516" x2="-334.5292" y2="-1699.0516" gradientTransform="matrix(-1 0 0 -1 -177.574 -1677.9882)">
					<stop  offset="4.102398e-07" style="stop-color:#ADB9BC"/>
					<stop  offset="1" style="stop-color:#C0CBCE"/>
				</linearGradient>
				
					<line style="fill:none;stroke:url(#SVGID_00000023988078489631511210000007032460412753556909_);stroke-miterlimit:10;" x1="157.5" y1="24.4" x2="157.5" y2="17.7"/>
				
					<linearGradient id="SVGID_00000023243445859188143690000004661659108497007504_" gradientUnits="userSpaceOnUse" x1="-312.3636" y1="-1699.0516" x2="-311.3636" y2="-1699.0516" gradientTransform="matrix(-1 0 0 -1 -177.574 -1677.9882)">
					<stop  offset="4.102398e-07" style="stop-color:#ADB9BC"/>
					<stop  offset="1" style="stop-color:#C0CBCE"/>
				</linearGradient>
				
					<line style="fill:none;stroke:url(#SVGID_00000023243445859188143690000004661659108497007504_);stroke-miterlimit:10;" x1="134.3" y1="24.4" x2="134.3" y2="17.7"/>
				
					<linearGradient id="SVGID_00000062150917820527231260000000675300724089948860_" gradientUnits="userSpaceOnUse" x1="-288.3165" y1="-1699.0516" x2="-287.3165" y2="-1699.0516" gradientTransform="matrix(-1 0 0 -1 -177.574 -1677.9882)">
					<stop  offset="4.102398e-07" style="stop-color:#ADB9BC"/>
					<stop  offset="1" style="stop-color:#C0CBCE"/>
				</linearGradient>
				
					<line style="fill:none;stroke:url(#SVGID_00000062150917820527231260000000675300724089948860_);stroke-miterlimit:10;" x1="110.2" y1="24.4" x2="110.2" y2="17.7"/>
				
					<linearGradient id="SVGID_00000139263709677279281410000004374322377660896650_" gradientUnits="userSpaceOnUse" x1="-264.4051" y1="-1699.0516" x2="-263.4051" y2="-1699.0516" gradientTransform="matrix(-1 0 0 -1 -177.574 -1677.9882)">
					<stop  offset="4.102398e-07" style="stop-color:#ADB9BC"/>
					<stop  offset="1" style="stop-color:#C0CBCE"/>
				</linearGradient>
				
					<line style="fill:none;stroke:url(#SVGID_00000139263709677279281410000004374322377660896650_);stroke-miterlimit:10;" x1="86.3" y1="24.4" x2="86.3" y2="17.7"/>
				
					<linearGradient id="SVGID_00000028299823939562098230000005127846341653494186_" gradientUnits="userSpaceOnUse" x1="-240.6476" y1="-1699.0516" x2="-239.6476" y2="-1699.0516" gradientTransform="matrix(-1 0 0 -1 -177.574 -1677.9882)">
					<stop  offset="4.102398e-07" style="stop-color:#ADB9BC"/>
					<stop  offset="1" style="stop-color:#C0CBCE"/>
				</linearGradient>
				
					<line style="fill:none;stroke:url(#SVGID_00000028299823939562098230000005127846341653494186_);stroke-miterlimit:10;" x1="62.6" y1="24.4" x2="62.6" y2="17.7"/>
				
					<linearGradient id="SVGID_00000085220461099804394630000000310034854911430018_" gradientUnits="userSpaceOnUse" x1="-383.4084" y1="-1698.8016" x2="-215.924" y2="-1698.8016" gradientTransform="matrix(-1 0 0 -1 -177.574 -1677.9882)">
					<stop  offset="4.102398e-07" style="stop-color:#ADB9BC"/>
					<stop  offset="1" style="stop-color:#C0CBCE"/>
				</linearGradient>
				<path style="fill:none;stroke:url(#SVGID_00000085220461099804394630000000310034854911430018_);stroke-miterlimit:10;" d="
					M205.3,24.4v-4.4c0-1.3-1.1-2.4-2.4-2.4H40.7c-1.3,0-1.9,1.1-1.9,2.4v4.4"/>
			</g>
			<g>
				
					<linearGradient id="SVGID_00000035531059886356998190000005057683796974006968_" gradientUnits="userSpaceOnUse" x1="-36.5646" y1="-261.3943" x2="-35.5646" y2="-261.3943" gradientTransform="matrix(1 0 0 1 98.9357 355.7359)">
					<stop  offset="4.102398e-07" style="stop-color:#ADB9BC"/>
					<stop  offset="1" style="stop-color:#C0CBCE"/>
				</linearGradient>
				
					<line style="fill:none;stroke:url(#SVGID_00000035531059886356998190000005057683796974006968_);stroke-miterlimit:10;" x1="62.9" y1="91" x2="62.9" y2="97.7"/>
				
					<linearGradient id="SVGID_00000119803958155740871800000018017268282034177691_" gradientUnits="userSpaceOnUse" x1="-12.7066" y1="-261.3943" x2="-11.7066" y2="-261.3943" gradientTransform="matrix(1 0 0 1 98.9357 355.7359)">
					<stop  offset="4.102398e-07" style="stop-color:#ADB9BC"/>
					<stop  offset="1" style="stop-color:#C0CBCE"/>
				</linearGradient>
				
					<line style="fill:none;stroke:url(#SVGID_00000119803958155740871800000018017268282034177691_);stroke-miterlimit:10;" x1="86.7" y1="91" x2="86.7" y2="97.7"/>
				
					<linearGradient id="SVGID_00000077308595585439789640000005926666695524533134_" gradientUnits="userSpaceOnUse" x1="10.4591" y1="-261.3943" x2="11.4591" y2="-261.3943" gradientTransform="matrix(1 0 0 1 98.9357 355.7359)">
					<stop  offset="4.102398e-07" style="stop-color:#ADB9BC"/>
					<stop  offset="1" style="stop-color:#C0CBCE"/>
				</linearGradient>
				
					<line style="fill:none;stroke:url(#SVGID_00000077308595585439789640000005926666695524533134_);stroke-miterlimit:10;" x1="109.9" y1="91" x2="109.9" y2="97.7"/>
				
					<linearGradient id="SVGID_00000018947383216845738760000001896424325247457161_" gradientUnits="userSpaceOnUse" x1="34.5061" y1="-261.3943" x2="35.5061" y2="-261.3943" gradientTransform="matrix(1 0 0 1 98.9357 355.7359)">
					<stop  offset="4.102398e-07" style="stop-color:#ADB9BC"/>
					<stop  offset="1" style="stop-color:#C0CBCE"/>
				</linearGradient>
				
					<line style="fill:none;stroke:url(#SVGID_00000018947383216845738760000001896424325247457161_);stroke-miterlimit:10;" x1="133.9" y1="91" x2="133.9" y2="97.7"/>
				
					<linearGradient id="SVGID_00000165224313823623185700000002264484023207898035_" gradientUnits="userSpaceOnUse" x1="58.4175" y1="-261.3943" x2="59.4175" y2="-261.3943" gradientTransform="matrix(1 0 0 1 98.9357 355.7359)">
					<stop  offset="4.102398e-07" style="stop-color:#ADB9BC"/>
					<stop  offset="1" style="stop-color:#C0CBCE"/>
				</linearGradient>
				
					<line style="fill:none;stroke:url(#SVGID_00000165224313823623185700000002264484023207898035_);stroke-miterlimit:10;" x1="157.9" y1="91" x2="157.9" y2="97.7"/>
				
					<linearGradient id="SVGID_00000140695105013900433380000004821375386049264311_" gradientUnits="userSpaceOnUse" x1="82.1751" y1="-261.3943" x2="83.1751" y2="-261.3943" gradientTransform="matrix(1 0 0 1 98.9357 355.7359)">
					<stop  offset="4.102398e-07" style="stop-color:#ADB9BC"/>
					<stop  offset="1" style="stop-color:#C0CBCE"/>
				</linearGradient>
				
					<line style="fill:none;stroke:url(#SVGID_00000140695105013900433380000004821375386049264311_);stroke-miterlimit:10;" x1="181.6" y1="91" x2="181.6" y2="97.7"/>
				
					<linearGradient id="SVGID_00000010293483156322475890000001346490825578879400_" gradientUnits="userSpaceOnUse" x1="-60.5857" y1="-261.1443" x2="106.8987" y2="-261.1443" gradientTransform="matrix(1 0 0 1 98.9357 355.7359)">
					<stop  offset="4.102398e-07" style="stop-color:#ADB9BC"/>
					<stop  offset="1" style="stop-color:#C0CBCE"/>
				</linearGradient>
				<path style="fill:none;stroke:url(#SVGID_00000010293483156322475890000001346490825578879400_);stroke-miterlimit:10;" d="
					M38.9,91v4.4c0,1.3,1.1,2.4,2.4,2.4h162.2c1.3,0,1.9-1.1,1.9-2.4V91"/>
			</g>
			<g>
				
					<linearGradient id="SVGID_00000158739822720004441060000017552910894811559046_" gradientUnits="userSpaceOnUse" x1="22.5166" y1="71.2076" x2="305.0782" y2="42.0479">
					<stop  offset="4.100000e-07" style="stop-color:#1FBDDC"/>
					<stop  offset="1" style="stop-color:#0079C2"/>
				</linearGradient>
				<path style="fill:url(#SVGID_00000158739822720004441060000017552910894811559046_);" d="M43.2,80.9h-8.7c-3.9,0-7-3.1-7-7v-8.7
					c0-3.9,3.1-7,7-7h8.7c3.9,0,7,3.1,7,7v8.7C50.2,77.7,47.1,80.9,43.2,80.9z"/>
				
					<linearGradient id="SVGID_00000022526397664774982800000003831782145403022012_" gradientUnits="userSpaceOnUse" x1="46.2195" y1="71.2076" x2="328.7811" y2="42.0479">
					<stop  offset="4.100000e-07" style="stop-color:#1FBDDC"/>
					<stop  offset="1" style="stop-color:#0079C2"/>
				</linearGradient>
				<path style="fill:url(#SVGID_00000022526397664774982800000003831782145403022012_);" d="M66.9,80.9h-8.7c-3.9,0-7-3.1-7-7v-8.7
					c0-3.9,3.1-7,7-7h8.7c3.9,0,7,3.1,7,7v8.7C73.9,77.7,70.8,80.9,66.9,80.9z"/>
				
					<linearGradient id="SVGID_00000181801206917753588160000009279355723292442766_" gradientUnits="userSpaceOnUse" x1="69.9771" y1="71.2076" x2="352.5387" y2="42.0479">
					<stop  offset="4.100000e-07" style="stop-color:#1FBDDC"/>
					<stop  offset="1" style="stop-color:#0079C2"/>
				</linearGradient>
				<path style="fill:url(#SVGID_00000181801206917753588160000009279355723292442766_);" d="M90.7,80.9H82c-3.9,0-7-3.1-7-7v-8.7
					c0-3.9,3.1-7,7-7h8.7c3.9,0,7,3.1,7,7v8.7C97.7,77.7,94.6,80.9,90.7,80.9z"/>
				
					<linearGradient id="SVGID_00000137840283974220852100000003418228149487816610_" gradientUnits="userSpaceOnUse" x1="93.8885" y1="71.2076" x2="376.4501" y2="42.0479">
					<stop  offset="4.100000e-07" style="stop-color:#1FBDDC"/>
					<stop  offset="1" style="stop-color:#0079C2"/>
				</linearGradient>
				<path style="fill:url(#SVGID_00000137840283974220852100000003418228149487816610_);" d="M114.6,80.9h-8.7c-3.9,0-7-3.1-7-7
					v-8.7c0-3.9,3.1-7,7-7h8.7c3.9,0,7,3.1,7,7v8.7C121.6,77.7,118.5,80.9,114.6,80.9z"/>
				
					<linearGradient id="SVGID_00000149363433858927717930000004358153770767068314_" gradientUnits="userSpaceOnUse" x1="117.6034" y1="71.2076" x2="400.1651" y2="42.0479">
					<stop  offset="4.100000e-07" style="stop-color:#1FBDDC"/>
					<stop  offset="1" style="stop-color:#0079C2"/>
				</linearGradient>
				<path style="fill:url(#SVGID_00000149363433858927717930000004358153770767068314_);" d="M138.3,80.9h-8.7c-3.9,0-7-3.1-7-7
					v-8.7c0-3.9,3.1-7,7-7h8.7c3.9,0,7,3.1,7,7v8.7C145.3,77.7,142.2,80.9,138.3,80.9z"/>
				
					<linearGradient id="SVGID_00000096777971522401690620000013960544248678676106_" gradientUnits="userSpaceOnUse" x1="141.2562" y1="71.2076" x2="423.8178" y2="42.0479">
					<stop  offset="4.100000e-07" style="stop-color:#1FBDDC"/>
					<stop  offset="1" style="stop-color:#0079C2"/>
				</linearGradient>
				<path style="fill:url(#SVGID_00000096777971522401690620000013960544248678676106_);" d="M162,80.9h-8.7c-3.9,0-7-3.1-7-7v-8.7
					c0-3.9,3.1-7,7-7h8.7c3.9,0,7,3.1,7,7v8.7C169,77.7,165.8,80.9,162,80.9z"/>
				
					<linearGradient id="SVGID_00000135693324207383746200000001896549054422933132_" gradientUnits="userSpaceOnUse" x1="164.9592" y1="71.2076" x2="447.5208" y2="42.0479">
					<stop  offset="4.100000e-07" style="stop-color:#1FBDDC"/>
					<stop  offset="1" style="stop-color:#0079C2"/>
				</linearGradient>
				<path style="fill:url(#SVGID_00000135693324207383746200000001896549054422933132_);" d="M185.7,80.9H177c-3.9,0-7-3.1-7-7v-8.7
					c0-3.9,3.1-7,7-7h8.7c3.9,0,7,3.1,7,7v8.7C192.7,77.7,189.5,80.9,185.7,80.9z"/>
				
					<linearGradient id="SVGID_00000142871511566408659930000017145114449823580840_" gradientUnits="userSpaceOnUse" x1="188.7167" y1="71.2076" x2="471.2783" y2="42.0479">
					<stop  offset="4.100000e-07" style="stop-color:#1FBDDC"/>
					<stop  offset="1" style="stop-color:#0079C2"/>
				</linearGradient>
				<path style="fill:url(#SVGID_00000142871511566408659930000017145114449823580840_);" d="M209.4,80.9h-8.7c-3.9,0-7-3.1-7-7
					v-8.7c0-3.9,3.1-7,7-7h8.7c3.9,0,7,3.1,7,7v8.7C216.4,77.7,213.3,80.9,209.4,80.9z"/>
				
					<linearGradient id="SVGID_00000079458417036446303020000009589188995759969943_" gradientUnits="userSpaceOnUse" x1="22.5166" y1="47.4561" x2="305.0782" y2="18.2964">
					<stop  offset="4.100000e-07" style="stop-color:#1FBDDC"/>
					<stop  offset="1" style="stop-color:#0079C2"/>
				</linearGradient>
				<path style="fill:url(#SVGID_00000079458417036446303020000009589188995759969943_);" d="M43.2,57.1h-8.7c-3.9,0-7-3.1-7-7v-8.7
					c0-3.9,3.1-7,7-7h8.7c3.9,0,7,3.1,7,7v8.7C50.2,54,47.1,57.1,43.2,57.1z"/>
				
					<linearGradient id="SVGID_00000019668018773787672810000002811433493324724359_" gradientUnits="userSpaceOnUse" x1="46.2195" y1="47.4561" x2="328.7811" y2="18.2964">
					<stop  offset="4.100000e-07" style="stop-color:#1FBDDC"/>
					<stop  offset="1" style="stop-color:#0079C2"/>
				</linearGradient>
				<path style="fill:url(#SVGID_00000019668018773787672810000002811433493324724359_);" d="M66.9,57.1h-8.7c-3.9,0-7-3.1-7-7v-8.7
					c0-3.9,3.1-7,7-7h8.7c3.9,0,7,3.1,7,7v8.7C73.9,54,70.8,57.1,66.9,57.1z"/>
				
					<linearGradient id="SVGID_00000057125296222052029160000017027712063934131900_" gradientUnits="userSpaceOnUse" x1="69.9771" y1="47.4561" x2="352.5387" y2="18.2964">
					<stop  offset="4.100000e-07" style="stop-color:#1FBDDC"/>
					<stop  offset="1" style="stop-color:#0079C2"/>
				</linearGradient>
				<path style="fill:url(#SVGID_00000057125296222052029160000017027712063934131900_);" d="M90.7,57.1H82c-3.9,0-7-3.1-7-7v-8.7
					c0-3.9,3.1-7,7-7h8.7c3.9,0,7,3.1,7,7v8.7C97.7,54,94.6,57.1,90.7,57.1z"/>
				
					<linearGradient id="SVGID_00000145048562998069423440000000384526459629693829_" gradientUnits="userSpaceOnUse" x1="93.8885" y1="47.4561" x2="376.4501" y2="18.2964">
					<stop  offset="4.100000e-07" style="stop-color:#1FBDDC"/>
					<stop  offset="1" style="stop-color:#0079C2"/>
				</linearGradient>
				<path style="fill:url(#SVGID_00000145048562998069423440000000384526459629693829_);" d="M114.6,57.1h-8.7c-3.9,0-7-3.1-7-7
					v-8.7c0-3.9,3.1-7,7-7h8.7c3.9,0,7,3.1,7,7v8.7C121.6,54,118.5,57.1,114.6,57.1z"/>
				
					<linearGradient id="SVGID_00000028291971978362448260000000164786287684068245_" gradientUnits="userSpaceOnUse" x1="117.6034" y1="47.4561" x2="400.1651" y2="18.2964">
					<stop  offset="4.100000e-07" style="stop-color:#1FBDDC"/>
					<stop  offset="1" style="stop-color:#0079C2"/>
				</linearGradient>
				<path style="fill:url(#SVGID_00000028291971978362448260000000164786287684068245_);" d="M138.3,57.1h-8.7c-3.9,0-7-3.1-7-7
					v-8.7c0-3.9,3.1-7,7-7h8.7c3.9,0,7,3.1,7,7v8.7C145.3,54,142.2,57.1,138.3,57.1z"/>
				
					<linearGradient id="SVGID_00000024004049674794575310000001621269990039234229_" gradientUnits="userSpaceOnUse" x1="141.2562" y1="47.4561" x2="423.8178" y2="18.2964">
					<stop  offset="4.100000e-07" style="stop-color:#1FBDDC"/>
					<stop  offset="1" style="stop-color:#0079C2"/>
				</linearGradient>
				<path style="fill:url(#SVGID_00000024004049674794575310000001621269990039234229_);" d="M162,57.1h-8.7c-3.9,0-7-3.1-7-7v-8.7
					c0-3.9,3.1-7,7-7h8.7c3.9,0,7,3.1,7,7v8.7C169,54,165.8,57.1,162,57.1z"/>
				
					<linearGradient id="SVGID_00000139282551642243081010000002325394438624965777_" gradientUnits="userSpaceOnUse" x1="164.9592" y1="47.4561" x2="447.5208" y2="18.2964">
					<stop  offset="4.100000e-07" style="stop-color:#1FBDDC"/>
					<stop  offset="1" style="stop-color:#0079C2"/>
				</linearGradient>
				<path style="fill:url(#SVGID_00000139282551642243081010000002325394438624965777_);" d="M185.7,57.1H177c-3.9,0-7-3.1-7-7v-8.7
					c0-3.9,3.1-7,7-7h8.7c3.9,0,7,3.1,7,7v8.7C192.7,54,189.5,57.1,185.7,57.1z"/>
				
					<linearGradient id="SVGID_00000144298010474567918590000012134142922447765435_" gradientUnits="userSpaceOnUse" x1="188.7167" y1="47.4561" x2="471.2783" y2="18.2964">
					<stop  offset="4.100000e-07" style="stop-color:#1FBDDC"/>
					<stop  offset="1" style="stop-color:#0079C2"/>
				</linearGradient>
				<path style="fill:url(#SVGID_00000144298010474567918590000012134142922447765435_);" d="M209.4,57.1h-8.7c-3.9,0-7-3.1-7-7
					v-8.7c0-3.9,3.1-7,7-7h8.7c3.9,0,7,3.1,7,7v8.7C216.4,54,213.3,57.1,209.4,57.1z"/>
				<path class="st34" d="M38.9,63.2c0,2,0,4,0,6c0.2-1.7,1.8-3,3.5-2.8c1.7,0.2,2.9,1.7,2.8,3.2c-2,0-4,0-6,0
					c1.8,0.2,3,1.8,2.8,3.5c-0.2,1.7-1.7,2.9-3.2,2.8c0-2,0-4,0-6c-0.2,1.7-1.8,3-3.5,2.8c-1.8-0.2-2.9-1.7-2.9-3.2c2,0,4,0,6,0
					c-0.9-0.1-1.6-0.5-2.1-1.2c-0.6-0.7-0.8-1.5-0.7-2.3C35.9,64.3,37.4,63.1,38.9,63.2z"/>
				<path class="st34" d="M62.6,63.2c0,2,0,4,0,6c0.2-1.7,1.8-3,3.5-2.8c1.7,0.2,2.9,1.7,2.8,3.2c-2,0-4,0-6,0
					c1.8,0.2,3,1.8,2.8,3.5c-0.2,1.7-1.7,2.9-3.2,2.8c0-2,0-4,0-6c-0.2,1.7-1.8,3-3.5,2.8c-1.8-0.2-2.9-1.7-2.9-3.2c2,0,4,0,6,0
					c-0.9-0.1-1.6-0.5-2.1-1.2c-0.6-0.7-0.8-1.5-0.7-2.3C59.6,64.3,61.1,63.1,62.6,63.2z"/>
				<path class="st34" d="M86.3,63.2c0,2,0,4,0,6c0.2-1.7,1.8-3,3.5-2.8c1.7,0.2,2.9,1.7,2.8,3.2c-2,0-4,0-6,0
					c1.8,0.2,3,1.8,2.8,3.5c-0.2,1.7-1.7,2.9-3.2,2.8c0-2,0-4,0-6c-0.2,1.7-1.8,3-3.5,2.8c-1.8-0.2-2.9-1.7-2.9-3.2c2,0,4,0,6,0
					c-0.9-0.1-1.6-0.5-2.1-1.2c-0.6-0.7-0.8-1.5-0.7-2.3C83.3,64.3,84.8,63.1,86.3,63.2z"/>
				<path class="st34" d="M110.2,63.2c0,2,0,4,0,6c0.2-1.7,1.8-3,3.5-2.8c1.7,0.2,2.9,1.7,2.8,3.2c-2,0-4,0-6,0
					c1.8,0.2,3,1.8,2.8,3.5c-0.2,1.7-1.7,2.9-3.2,2.8c0-2,0-4,0-6c-0.2,1.7-1.8,3-3.5,2.8c-1.8-0.2-2.9-1.7-2.9-3.2c2,0,4,0,6,0
					c-0.9-0.1-1.6-0.5-2.1-1.2c-0.6-0.7-0.8-1.5-0.7-2.3C107.3,64.3,108.7,63.1,110.2,63.2z"/>
				<path class="st34" d="M134,63.2c0,2,0,4,0,6c0.2-1.7,1.8-3,3.5-2.8c1.7,0.2,2.9,1.7,2.8,3.2c-2,0-4,0-6,0c1.8,0.2,3,1.8,2.8,3.5
					c-0.2,1.7-1.7,2.9-3.2,2.8c0-2,0-4,0-6c-0.2,1.7-1.8,3-3.5,2.8c-1.8-0.2-2.9-1.7-2.9-3.2c2,0,4,0,6,0c-0.9-0.1-1.6-0.5-2.1-1.2
					c-0.6-0.7-0.8-1.5-0.7-2.3C131,64.3,132.5,63.1,134,63.2z"/>
				<path class="st34" d="M157.6,63.2c0,2,0,4,0,6c0.2-1.7,1.8-3,3.5-2.8c1.7,0.2,2.9,1.7,2.8,3.2c-2,0-4,0-6,0
					c1.8,0.2,3,1.8,2.8,3.5c-0.2,1.7-1.7,2.9-3.2,2.8c0-2,0-4,0-6c-0.2,1.7-1.8,3-3.5,2.8c-1.8-0.2-2.9-1.7-2.9-3.2c2,0,4,0,6,0
					c-0.9-0.1-1.6-0.5-2.1-1.2c-0.6-0.7-0.8-1.5-0.7-2.3C154.6,64.3,156.1,63.1,157.6,63.2z"/>
				<path class="st34" d="M181.3,63.2c0,2,0,4,0,6c0.2-1.7,1.8-3,3.5-2.8c1.7,0.2,2.9,1.7,2.8,3.2c-2,0-4,0-6,0
					c1.8,0.2,3,1.8,2.8,3.5c-0.2,1.7-1.7,2.9-3.2,2.8c0-2,0-4,0-6c-0.2,1.7-1.8,3-3.5,2.8c-1.8-0.2-2.9-1.7-2.9-3.2c2,0,4,0,6,0
					c-0.9-0.1-1.6-0.5-2.1-1.2c-0.6-0.7-0.8-1.5-0.7-2.3C178.3,64.3,179.8,63.1,181.3,63.2z"/>
				<path class="st34" d="M205.1,63.2c0,2,0,4,0,6c0.2-1.7,1.8-3,3.5-2.8c1.7,0.2,2.9,1.7,2.8,3.2c-2,0-4,0-6,0
					c1.8,0.2,3,1.8,2.8,3.5c-0.2,1.7-1.7,2.9-3.2,2.8c0-2,0-4,0-6c-0.2,1.7-1.8,3-3.5,2.8c-1.8-0.2-2.9-1.7-2.9-3.2c2,0,4,0,6,0
					c-0.9-0.1-1.6-0.5-2.1-1.2c-0.6-0.7-0.8-1.5-0.7-2.3C202.1,64.3,203.6,63.1,205.1,63.2z"/>
				<path class="st34" d="M38.9,39.4c0,2,0,4,0,6c0.2-1.7,1.8-3,3.5-2.8c1.7,0.2,2.9,1.7,2.8,3.2c-2,0-4,0-6,0
					c1.8,0.2,3,1.8,2.8,3.5c-0.2,1.7-1.7,2.9-3.2,2.8c0-2,0-4,0-6c-0.2,1.7-1.8,3-3.5,2.8c-1.8-0.2-2.9-1.7-2.9-3.2c2,0,4,0,6,0
					c-0.9-0.1-1.6-0.5-2.1-1.2c-0.6-0.7-0.8-1.5-0.7-2.3C35.9,40.5,37.4,39.4,38.9,39.4z"/>
				<path class="st34" d="M62.6,39.4c0,2,0,4,0,6c0.2-1.7,1.8-3,3.5-2.8c1.7,0.2,2.9,1.7,2.8,3.2c-2,0-4,0-6,0
					c1.8,0.2,3,1.8,2.8,3.5c-0.2,1.7-1.7,2.9-3.2,2.8c0-2,0-4,0-6c-0.2,1.7-1.8,3-3.5,2.8c-1.8-0.2-2.9-1.7-2.9-3.2c2,0,4,0,6,0
					c-0.9-0.1-1.6-0.5-2.1-1.2c-0.6-0.7-0.8-1.5-0.7-2.3C59.6,40.5,61.1,39.4,62.6,39.4z"/>
				<path class="st34" d="M86.3,39.4c0,2,0,4,0,6c0.2-1.7,1.8-3,3.5-2.8c1.7,0.2,2.9,1.7,2.8,3.2c-2,0-4,0-6,0
					c1.8,0.2,3,1.8,2.8,3.5c-0.2,1.7-1.7,2.9-3.2,2.8c0-2,0-4,0-6c-0.2,1.7-1.8,3-3.5,2.8c-1.8-0.2-2.9-1.7-2.9-3.2c2,0,4,0,6,0
					c-0.9-0.1-1.6-0.5-2.1-1.2c-0.6-0.7-0.8-1.5-0.7-2.3C83.3,40.5,84.8,39.4,86.3,39.4z"/>
				<path class="st34" d="M110.2,39.4c0,2,0,4,0,6c0.2-1.7,1.8-3,3.5-2.8c1.7,0.2,2.9,1.7,2.8,3.2c-2,0-4,0-6,0
					c1.8,0.2,3,1.8,2.8,3.5c-0.2,1.7-1.7,2.9-3.2,2.8c0-2,0-4,0-6c-0.2,1.7-1.8,3-3.5,2.8c-1.8-0.2-2.9-1.7-2.9-3.2c2,0,4,0,6,0
					c-0.9-0.1-1.6-0.5-2.1-1.2c-0.6-0.7-0.8-1.5-0.7-2.3C107.3,40.5,108.7,39.4,110.2,39.4z"/>
				<path class="st34" d="M134,39.4c0,2,0,4,0,6c0.2-1.7,1.8-3,3.5-2.8c1.7,0.2,2.9,1.7,2.8,3.2c-2,0-4,0-6,0c1.8,0.2,3,1.8,2.8,3.5
					c-0.2,1.7-1.7,2.9-3.2,2.8c0-2,0-4,0-6c-0.2,1.7-1.8,3-3.5,2.8c-1.8-0.2-2.9-1.7-2.9-3.2c2,0,4,0,6,0c-0.9-0.1-1.6-0.5-2.1-1.2
					c-0.6-0.7-0.8-1.5-0.7-2.3C131,40.5,132.5,39.4,134,39.4z"/>
				<path class="st34" d="M157.6,39.4c0,2,0,4,0,6c0.2-1.7,1.8-3,3.5-2.8c1.7,0.2,2.9,1.7,2.8,3.2c-2,0-4,0-6,0
					c1.8,0.2,3,1.8,2.8,3.5c-0.2,1.7-1.7,2.9-3.2,2.8c0-2,0-4,0-6c-0.2,1.7-1.8,3-3.5,2.8c-1.8-0.2-2.9-1.7-2.9-3.2c2,0,4,0,6,0
					c-0.9-0.1-1.6-0.5-2.1-1.2c-0.6-0.7-0.8-1.5-0.7-2.3C154.6,40.5,156.1,39.4,157.6,39.4z"/>
				<path class="st34" d="M181.3,39.4c0,2,0,4,0,6c0.2-1.7,1.8-3,3.5-2.8c1.7,0.2,2.9,1.7,2.8,3.2c-2,0-4,0-6,0
					c1.8,0.2,3,1.8,2.8,3.5c-0.2,1.7-1.7,2.9-3.2,2.8c0-2,0-4,0-6c-0.2,1.7-1.8,3-3.5,2.8c-1.8-0.2-2.9-1.7-2.9-3.2c2,0,4,0,6,0
					c-0.9-0.1-1.6-0.5-2.1-1.2c-0.6-0.7-0.8-1.5-0.7-2.3C178.3,40.5,179.8,39.4,181.3,39.4z"/>
				<path class="st34" d="M205.1,39.4c0,2,0,4,0,6c0.2-1.7,1.8-3,3.5-2.8c1.7,0.2,2.9,1.7,2.8,3.2c-2,0-4,0-6,0
					c1.8,0.2,3,1.8,2.8,3.5c-0.2,1.7-1.7,2.9-3.2,2.8c0-2,0-4,0-6c-0.2,1.7-1.8,3-3.5,2.8c-1.8-0.2-2.9-1.7-2.9-3.2c2,0,4,0,6,0
					c-0.9-0.1-1.6-0.5-2.1-1.2c-0.6-0.7-0.8-1.5-0.7-2.3C202.1,40.5,203.6,39.4,205.1,39.4z"/>
			</g>
			<g>
				<g>
					<g>
						<path class="st35" d="M35.5,28.3v-0.4c0.2,0,0.4,0,0.5,0c0.1,0,0.2-0.1,0.4-0.1c0.1-0.1,0.2-0.2,0.2-0.3
							c0.1-0.1,0.1-0.3,0.1-0.5h0.4v5h-0.6v-3.7H35.5z"/>
						<path class="st35" d="M38.7,30.5c0-0.2,0-0.4,0.1-0.5c0.1-0.2,0.1-0.3,0.2-0.4c0.1-0.1,0.2-0.2,0.3-0.3s0.2-0.1,0.3-0.1v0
							c-0.3-0.1-0.5-0.2-0.6-0.4s-0.2-0.4-0.2-0.7c0-0.1,0-0.3,0.1-0.4c0-0.1,0.1-0.3,0.2-0.4s0.2-0.2,0.4-0.3
							c0.2-0.1,0.3-0.1,0.6-0.1c0.2,0,0.3,0,0.5,0.1c0.1,0,0.3,0.1,0.3,0.2s0.2,0.2,0.2,0.3c0.1,0.1,0.1,0.2,0.1,0.3s0,0.2,0,0.4
							c0,0.3-0.1,0.5-0.2,0.7c-0.1,0.2-0.3,0.3-0.6,0.4v0c0.3,0,0.5,0.2,0.6,0.4c0.2,0.2,0.3,0.5,0.3,0.9c0,0.5-0.1,0.9-0.4,1.1
							c-0.2,0.3-0.6,0.4-1,0.4c-0.5,0-0.8-0.1-1-0.4C38.8,31.4,38.7,31,38.7,30.5z M39.3,30.5c0,0.2,0,0.3,0,0.4
							c0,0.1,0.1,0.2,0.1,0.3s0.1,0.2,0.2,0.2c0.1,0.1,0.2,0.1,0.4,0.1c0.1,0,0.2,0,0.3-0.1s0.2-0.1,0.2-0.1
							c0.1-0.1,0.1-0.1,0.1-0.2c0-0.1,0.1-0.2,0.1-0.3c0-0.1,0-0.2,0-0.3c0-0.1,0-0.3,0-0.4c0-0.1-0.1-0.2-0.1-0.3s-0.1-0.2-0.2-0.2
							c-0.1-0.1-0.2-0.1-0.4-0.1c-0.2,0-0.3,0.1-0.5,0.2s-0.2,0.2-0.3,0.4S39.3,30.3,39.3,30.5z M39.4,28.2c0,0.3,0.1,0.5,0.2,0.6
							s0.3,0.2,0.5,0.2c0.4,0,0.6-0.3,0.6-0.8c0-0.2-0.1-0.4-0.2-0.6c-0.1-0.1-0.3-0.2-0.5-0.2C39.6,27.4,39.4,27.6,39.4,28.2z"/>
					</g>
				</g>
				<g>
					<g>
						<path class="st35" d="M59.4,31.9c0-0.2,0-0.4,0-0.6c0-0.2,0.1-0.3,0.2-0.5c0.1-0.2,0.2-0.4,0.4-0.5c0.2-0.2,0.4-0.4,0.7-0.6
							c0.2-0.2,0.4-0.4,0.6-0.6c0.1-0.2,0.2-0.5,0.2-0.8c0-0.3-0.1-0.5-0.2-0.7c-0.1-0.2-0.3-0.2-0.6-0.2c-0.1,0-0.2,0-0.3,0.1
							c-0.1,0-0.2,0.1-0.2,0.2c-0.1,0.1-0.1,0.2-0.1,0.3c0,0.1,0,0.2-0.1,0.3c0,0.1,0,0.2,0,0.4h-0.6v-0.2c0-0.2,0-0.4,0.1-0.6
							s0.1-0.3,0.2-0.5c0.1-0.1,0.2-0.2,0.4-0.3c0.2-0.1,0.4-0.1,0.6-0.1c0.4,0,0.7,0.1,1,0.4c0.2,0.3,0.3,0.6,0.3,1
							c0,0.2,0,0.4-0.1,0.5c0,0.2-0.1,0.3-0.2,0.4c-0.1,0.1-0.2,0.3-0.3,0.4c-0.1,0.1-0.2,0.2-0.4,0.4c-0.2,0.2-0.3,0.3-0.4,0.4
							s-0.2,0.2-0.3,0.3s-0.2,0.2-0.2,0.2c0,0-0.1,0.1-0.1,0.2c0,0.1-0.1,0.1-0.1,0.2c0,0.1,0,0.1,0,0.2h2.1v0.5H59.4z"/>
						<path class="st35" d="M62.8,29.4c0-0.2,0-0.3,0-0.5c0-0.1,0-0.3,0-0.5c0-0.2,0.1-0.3,0.1-0.5c0-0.1,0.1-0.3,0.2-0.4
							c0.1-0.1,0.2-0.3,0.2-0.4c0.1-0.1,0.2-0.2,0.4-0.2c0.1-0.1,0.3-0.1,0.5-0.1s0.3,0,0.5,0.1s0.3,0.1,0.4,0.2
							c0.1,0.1,0.2,0.2,0.2,0.4c0.1,0.1,0.1,0.3,0.2,0.4s0.1,0.3,0.1,0.5c0,0.2,0,0.3,0,0.5c0,0.1,0,0.3,0,0.5c0,0.1,0,0.3,0,0.4
							s0,0.2,0,0.4c0,0.1,0,0.3,0,0.4c0,0.1,0,0.2-0.1,0.3s-0.1,0.2-0.1,0.3s-0.1,0.2-0.1,0.3c0,0.1-0.1,0.2-0.2,0.2
							s-0.1,0.1-0.2,0.2S64.6,32,64.5,32c-0.1,0-0.2,0-0.4,0c-0.2,0-0.3,0-0.5-0.1c-0.1-0.1-0.3-0.1-0.4-0.2
							c-0.1-0.1-0.2-0.2-0.2-0.4c-0.1-0.1-0.1-0.3-0.2-0.4s-0.1-0.3-0.1-0.5c0-0.2,0-0.4,0-0.5S62.8,29.6,62.8,29.4z M63.3,29.4
							c0,0.2,0,0.4,0,0.5c0,0.1,0,0.3,0,0.5s0,0.3,0.1,0.4c0,0.1,0.1,0.2,0.1,0.3s0.1,0.2,0.2,0.2s0.2,0.1,0.3,0.1
							c0.1,0,0.2,0,0.3-0.1s0.1-0.1,0.2-0.2c0.1-0.1,0.1-0.2,0.1-0.3c0-0.1,0.1-0.2,0.1-0.3s0-0.2,0.1-0.4c0-0.1,0-0.3,0-0.4
							c0-0.1,0-0.3,0-0.4c0-0.1,0-0.3,0-0.4s0-0.3,0-0.4c0-0.1,0-0.3-0.1-0.4c0-0.1-0.1-0.2-0.1-0.3c0-0.1-0.1-0.2-0.1-0.3
							s-0.1-0.1-0.2-0.2c-0.1,0-0.2-0.1-0.3-0.1c-0.1,0-0.2,0-0.3,0.1c-0.1,0-0.1,0.1-0.2,0.2c-0.1,0.1-0.1,0.2-0.1,0.3
							c0,0.1-0.1,0.2-0.1,0.3s0,0.2-0.1,0.4c0,0.1,0,0.3,0,0.4C63.3,29.2,63.3,29.3,63.3,29.4z"/>
					</g>
				</g>
				<g>
					<g>
						<path class="st35" d="M83.5,31.9c0-0.2,0-0.4,0-0.6c0-0.2,0.1-0.3,0.2-0.5c0.1-0.2,0.2-0.4,0.4-0.5c0.2-0.2,0.4-0.4,0.7-0.6
							c0.2-0.2,0.4-0.4,0.6-0.6c0.1-0.2,0.2-0.5,0.2-0.8c0-0.3-0.1-0.5-0.2-0.7c-0.1-0.2-0.3-0.2-0.6-0.2c-0.1,0-0.2,0-0.3,0.1
							c-0.1,0-0.2,0.1-0.2,0.2c-0.1,0.1-0.1,0.2-0.1,0.3c0,0.1,0,0.2-0.1,0.3c0,0.1,0,0.2,0,0.4h-0.6v-0.2c0-0.2,0-0.4,0.1-0.6
							s0.1-0.3,0.2-0.5c0.1-0.1,0.2-0.2,0.4-0.3c0.2-0.1,0.4-0.1,0.6-0.1c0.4,0,0.7,0.1,1,0.4c0.2,0.3,0.3,0.6,0.3,1
							c0,0.2,0,0.4-0.1,0.5c0,0.2-0.1,0.3-0.2,0.4c-0.1,0.1-0.2,0.3-0.3,0.4c-0.1,0.1-0.2,0.2-0.4,0.4c-0.2,0.2-0.3,0.3-0.4,0.4
							s-0.2,0.2-0.3,0.3s-0.2,0.2-0.2,0.2c0,0-0.1,0.1-0.1,0.2c0,0.1-0.1,0.1-0.1,0.2c0,0.1,0,0.1,0,0.2h2.1v0.5H83.5z"/>
						<path class="st35" d="M86.8,31.9c0-0.2,0-0.4,0-0.6c0-0.2,0.1-0.3,0.2-0.5c0.1-0.2,0.2-0.4,0.4-0.5c0.2-0.2,0.4-0.4,0.7-0.6
							c0.2-0.2,0.4-0.4,0.6-0.6c0.1-0.2,0.2-0.5,0.2-0.8c0-0.3-0.1-0.5-0.2-0.7c-0.1-0.2-0.3-0.2-0.6-0.2c-0.1,0-0.2,0-0.3,0.1
							c-0.1,0-0.2,0.1-0.2,0.2c-0.1,0.1-0.1,0.2-0.1,0.3c0,0.1,0,0.2-0.1,0.3c0,0.1,0,0.2,0,0.4h-0.6v-0.2c0-0.2,0-0.4,0.1-0.6
							s0.1-0.3,0.2-0.5c0.1-0.1,0.2-0.2,0.4-0.3c0.2-0.1,0.4-0.1,0.6-0.1c0.4,0,0.7,0.1,1,0.4c0.2,0.3,0.3,0.6,0.3,1
							c0,0.2,0,0.4-0.1,0.5c0,0.2-0.1,0.3-0.2,0.4c-0.1,0.1-0.2,0.3-0.3,0.4c-0.1,0.1-0.2,0.2-0.4,0.4c-0.2,0.2-0.3,0.3-0.4,0.4
							s-0.2,0.2-0.3,0.3s-0.2,0.2-0.2,0.2c0,0-0.1,0.1-0.1,0.2c0,0.1-0.1,0.1-0.1,0.2c0,0.1,0,0.1,0,0.2h2.1v0.5H86.8z"/>
					</g>
				</g>
				<g>
					<g>
						<path class="st35" d="M107.5,31.9c0-0.2,0-0.4,0-0.6c0-0.2,0.1-0.3,0.2-0.5c0.1-0.2,0.2-0.4,0.4-0.5c0.2-0.2,0.4-0.4,0.7-0.6
							c0.2-0.2,0.4-0.4,0.6-0.6c0.1-0.2,0.2-0.5,0.2-0.8c0-0.3-0.1-0.5-0.2-0.7c-0.1-0.2-0.3-0.2-0.6-0.2c-0.1,0-0.2,0-0.3,0.1
							c-0.1,0-0.2,0.1-0.2,0.2c-0.1,0.1-0.1,0.2-0.1,0.3c0,0.1,0,0.2-0.1,0.3c0,0.1,0,0.2,0,0.4h-0.6v-0.2c0-0.2,0-0.4,0.1-0.6
							s0.1-0.3,0.2-0.5c0.1-0.1,0.2-0.2,0.4-0.3c0.2-0.1,0.4-0.1,0.6-0.1c0.4,0,0.7,0.1,1,0.4c0.2,0.3,0.3,0.6,0.3,1
							c0,0.2,0,0.4-0.1,0.5c0,0.2-0.1,0.3-0.2,0.4c-0.1,0.1-0.2,0.3-0.3,0.4c-0.1,0.1-0.2,0.2-0.4,0.4c-0.2,0.2-0.3,0.3-0.4,0.4
							s-0.2,0.2-0.3,0.3s-0.2,0.2-0.2,0.2c0,0-0.1,0.1-0.1,0.2c0,0.1-0.1,0.1-0.1,0.2c0,0.1,0,0.1,0,0.2h2.1v0.5H107.5z"/>
						<path class="st35" d="M110.8,30.7v-0.5l1.9-3.3h0.5v3.3h0.5v0.5h-0.5v1.3h-0.6v-1.3H110.8z M111.2,30.2h1.4v-2.4L111.2,30.2z"
							/>
					</g>
				</g>
				<g>
					<g>
						<path class="st35" d="M131,31.9c0-0.2,0-0.4,0-0.6c0-0.2,0.1-0.3,0.2-0.5c0.1-0.2,0.2-0.4,0.4-0.5c0.2-0.2,0.4-0.4,0.7-0.6
							c0.2-0.2,0.4-0.4,0.6-0.6c0.1-0.2,0.2-0.5,0.2-0.8c0-0.3-0.1-0.5-0.2-0.7c-0.1-0.2-0.3-0.2-0.6-0.2c-0.1,0-0.2,0-0.3,0.1
							c-0.1,0-0.2,0.1-0.2,0.2c-0.1,0.1-0.1,0.2-0.1,0.3c0,0.1,0,0.2-0.1,0.3c0,0.1,0,0.2,0,0.4H131v-0.2c0-0.2,0-0.4,0.1-0.6
							s0.1-0.3,0.2-0.5c0.1-0.1,0.2-0.2,0.4-0.3c0.2-0.1,0.4-0.1,0.6-0.1c0.4,0,0.7,0.1,1,0.4c0.2,0.3,0.3,0.6,0.3,1
							c0,0.2,0,0.4-0.1,0.5c0,0.2-0.1,0.3-0.2,0.4c-0.1,0.1-0.2,0.3-0.3,0.4c-0.1,0.1-0.2,0.2-0.4,0.4c-0.2,0.2-0.3,0.3-0.4,0.4
							s-0.2,0.2-0.3,0.3s-0.2,0.2-0.2,0.2c0,0-0.1,0.1-0.1,0.2c0,0.1-0.1,0.1-0.1,0.2c0,0.1,0,0.1,0,0.2h2.1v0.5H131z"/>
						<path class="st35" d="M134.3,29.7c0-0.2,0-0.4,0-0.5c0-0.1,0-0.3,0.1-0.5c0-0.2,0.1-0.4,0.1-0.5c0-0.1,0.1-0.3,0.1-0.5
							c0.1-0.2,0.2-0.3,0.3-0.4c0.1-0.1,0.2-0.2,0.4-0.3s0.3-0.1,0.5-0.1c0.3,0,0.6,0.1,0.8,0.3c0.2,0.2,0.3,0.5,0.3,0.9h-0.6
							c0-0.3-0.1-0.4-0.2-0.5c-0.1-0.1-0.3-0.2-0.5-0.2c-0.1,0-0.2,0-0.3,0.1c-0.1,0.1-0.1,0.1-0.2,0.2c-0.1,0.1-0.1,0.2-0.1,0.3
							c0,0.1-0.1,0.3-0.1,0.5c0,0.2-0.1,0.3-0.1,0.4c0,0,0,0.1,0,0.2c0,0.1,0,0.2,0,0.3h0c0.1-0.2,0.2-0.4,0.4-0.5
							c0.2-0.1,0.4-0.2,0.5-0.2c0.2,0,0.4,0,0.6,0.1c0.2,0.1,0.3,0.2,0.4,0.3c0.1,0.1,0.2,0.3,0.2,0.5c0.1,0.2,0.1,0.4,0.1,0.6
							c0,0.5-0.1,1-0.4,1.3c-0.3,0.3-0.6,0.5-1,0.5c-0.1,0-0.3,0-0.4,0c-0.1,0-0.2-0.1-0.3-0.1s-0.2-0.1-0.2-0.2
							c-0.1-0.1-0.1-0.2-0.2-0.3c0-0.1-0.1-0.2-0.1-0.3s-0.1-0.2-0.1-0.3s0-0.2,0-0.4c0-0.1,0-0.3,0-0.4
							C134.3,29.9,134.3,29.8,134.3,29.7z M134.9,30.2c0,0.5,0.1,0.8,0.2,1c0.1,0.2,0.3,0.3,0.6,0.3c0.2,0,0.3,0,0.4-0.1
							c0.1-0.1,0.2-0.2,0.2-0.3c0.1-0.1,0.1-0.3,0.1-0.4c0-0.1,0-0.3,0-0.4c0-0.7-0.3-1.1-0.8-1.1C135.2,29.2,134.9,29.6,134.9,30.2
							z"/>
					</g>
				</g>
			</g>
			<g>
				<g>
					<g>
						<path class="st35" d="M35.5,83.6v-0.4c0.2,0,0.4,0,0.5,0c0.1,0,0.2-0.1,0.4-0.1c0.1-0.1,0.2-0.2,0.2-0.3
							c0.1-0.1,0.1-0.3,0.1-0.5h0.4v5h-0.6v-3.7H35.5z"/>
						<path class="st35" d="M38.7,82.9v-0.5h2.8v0.5c-0.5,0.6-0.9,1.3-1.1,2.1c-0.3,0.8-0.5,1.6-0.5,2.4h-0.6
							c0.1-0.8,0.3-1.6,0.6-2.3c0.3-0.8,0.7-1.5,1.2-2.1H38.7z"/>
					</g>
				</g>
				<g>
					<g>
						<path class="st35" d="M59.6,83.6v-0.4c0.2,0,0.4,0,0.5,0c0.1,0,0.2-0.1,0.4-0.1c0.1-0.1,0.2-0.2,0.2-0.3
							c0.1-0.1,0.1-0.3,0.1-0.5h0.4v5h-0.6v-3.7H59.6z"/>
						<path class="st35" d="M62.7,84c0-0.5,0.1-1,0.4-1.3c0.3-0.3,0.6-0.5,1-0.5c0.2,0,0.4,0,0.5,0.1c0.2,0.1,0.3,0.1,0.4,0.2
							s0.2,0.2,0.3,0.3c0.1,0.1,0.1,0.3,0.2,0.4c0,0.1,0.1,0.3,0.1,0.4s0,0.3,0,0.5s0,0.3,0,0.5c0,0.2,0,0.4,0,0.5s0,0.3,0,0.5
							c0,0.2,0,0.4-0.1,0.5c0,0.1-0.1,0.3-0.2,0.5c-0.1,0.2-0.2,0.3-0.3,0.4c-0.1,0.1-0.2,0.2-0.4,0.3c-0.2,0.1-0.3,0.1-0.5,0.1
							c-0.4,0-0.7-0.1-0.9-0.3s-0.3-0.5-0.3-0.9h0.6c0,0.2,0.1,0.4,0.2,0.5c0.1,0.1,0.3,0.2,0.5,0.2c0.1,0,0.2,0,0.2,0
							c0.1,0,0.1-0.1,0.2-0.2c0.1-0.1,0.1-0.1,0.1-0.2c0-0.1,0.1-0.2,0.1-0.3c0-0.1,0.1-0.2,0.1-0.3c0-0.1,0-0.2,0.1-0.3
							s0-0.2,0-0.3c0-0.1,0-0.2,0-0.3h0c-0.1,0.2-0.2,0.4-0.4,0.5c-0.2,0.1-0.3,0.2-0.5,0.2c-0.2,0-0.4,0-0.6-0.1
							c-0.2-0.1-0.3-0.2-0.4-0.3s-0.2-0.3-0.2-0.5C62.8,84.4,62.7,84.2,62.7,84z M63.3,83.9c0,0.1,0,0.2,0,0.3c0,0.1,0,0.2,0.1,0.3
							c0,0.1,0.1,0.2,0.1,0.3s0.1,0.1,0.2,0.2c0.1,0,0.2,0.1,0.3,0.1c0.2,0,0.3,0,0.4-0.1c0.1-0.1,0.2-0.1,0.3-0.2
							c0.1-0.1,0.1-0.2,0.1-0.3c0-0.1,0-0.2,0-0.4c0-0.2,0-0.3,0-0.4c0-0.1-0.1-0.3-0.1-0.4c-0.1-0.1-0.1-0.2-0.3-0.3
							c-0.1-0.1-0.3-0.1-0.4-0.1c-0.2,0-0.3,0-0.4,0.1c-0.1,0.1-0.2,0.2-0.2,0.3c-0.1,0.1-0.1,0.2-0.1,0.4S63.3,83.8,63.3,83.9z"/>
					</g>
				</g>
				<g>
					<g>
						<path class="st35" d="M83.5,87.3c0-0.2,0-0.4,0-0.6c0-0.2,0.1-0.3,0.2-0.5c0.1-0.2,0.2-0.4,0.4-0.5c0.2-0.2,0.4-0.4,0.7-0.6
							c0.2-0.2,0.4-0.4,0.6-0.6c0.1-0.2,0.2-0.5,0.2-0.8c0-0.3-0.1-0.5-0.2-0.7c-0.1-0.2-0.3-0.2-0.6-0.2c-0.1,0-0.2,0-0.3,0.1
							c-0.1,0-0.2,0.1-0.2,0.2c-0.1,0.1-0.1,0.2-0.1,0.3c0,0.1,0,0.2-0.1,0.3c0,0.1,0,0.2,0,0.4h-0.6v-0.2c0-0.2,0-0.4,0.1-0.6
							s0.1-0.3,0.2-0.5c0.1-0.1,0.2-0.2,0.4-0.3c0.2-0.1,0.4-0.1,0.6-0.1c0.4,0,0.7,0.1,1,0.4c0.2,0.3,0.3,0.6,0.3,1
							c0,0.2,0,0.4-0.1,0.5c0,0.2-0.1,0.3-0.2,0.4c-0.1,0.1-0.2,0.3-0.3,0.4c-0.1,0.1-0.2,0.2-0.4,0.4c-0.2,0.2-0.3,0.3-0.4,0.4
							s-0.2,0.2-0.3,0.3s-0.2,0.2-0.2,0.2c0,0-0.1,0.1-0.1,0.2c0,0.1-0.1,0.1-0.1,0.2c0,0.1,0,0.1,0,0.2h2.1v0.5H83.5z"/>
						<path class="st35" d="M87,83.6v-0.4c0.2,0,0.4,0,0.5,0c0.1,0,0.2-0.1,0.4-0.1c0.1-0.1,0.2-0.2,0.2-0.3
							c0.1-0.1,0.1-0.3,0.1-0.5h0.4v5h-0.6v-3.7H87z"/>
					</g>
				</g>
				<g>
					<g>
						<path class="st35" d="M107.5,87.3c0-0.2,0-0.4,0-0.6c0-0.2,0.1-0.3,0.2-0.5c0.1-0.2,0.2-0.4,0.4-0.5c0.2-0.2,0.4-0.4,0.7-0.6
							c0.2-0.2,0.4-0.4,0.6-0.6c0.1-0.2,0.2-0.5,0.2-0.8c0-0.3-0.1-0.5-0.2-0.7c-0.1-0.2-0.3-0.2-0.6-0.2c-0.1,0-0.2,0-0.3,0.1
							c-0.1,0-0.2,0.1-0.2,0.2c-0.1,0.1-0.1,0.2-0.1,0.3c0,0.1,0,0.2-0.1,0.3c0,0.1,0,0.2,0,0.4h-0.6v-0.2c0-0.2,0-0.4,0.1-0.6
							s0.1-0.3,0.2-0.5c0.1-0.1,0.2-0.2,0.4-0.3c0.2-0.1,0.4-0.1,0.6-0.1c0.4,0,0.7,0.1,1,0.4c0.2,0.3,0.3,0.6,0.3,1
							c0,0.2,0,0.4-0.1,0.5c0,0.2-0.1,0.3-0.2,0.4c-0.1,0.1-0.2,0.3-0.3,0.4c-0.1,0.1-0.2,0.2-0.4,0.4c-0.2,0.2-0.3,0.3-0.4,0.4
							s-0.2,0.2-0.3,0.3s-0.2,0.2-0.2,0.2c0,0-0.1,0.1-0.1,0.2c0,0.1-0.1,0.1-0.1,0.2c0,0.1,0,0.1,0,0.2h2.1v0.5H107.5z"/>
						<path class="st35" d="M110.9,85.8h0.6c0,0.1,0,0.2,0,0.3c0,0.1,0,0.2,0.1,0.3c0,0.1,0.1,0.2,0.1,0.2c0.1,0.1,0.1,0.1,0.2,0.2
							c0.1,0,0.2,0.1,0.3,0.1c0.3,0,0.5-0.1,0.6-0.2c0.1-0.2,0.2-0.4,0.2-0.7c0-0.2,0-0.4-0.1-0.5c0-0.1-0.1-0.2-0.2-0.3
							c-0.1-0.1-0.2-0.1-0.4-0.2c-0.1,0-0.3,0-0.5,0v-0.5c0.4,0,0.6-0.1,0.8-0.2c0.2-0.1,0.3-0.3,0.3-0.7c0-0.6-0.2-0.8-0.7-0.8
							c-0.1,0-0.2,0-0.3,0.1c-0.1,0.1-0.2,0.1-0.2,0.2c-0.1,0.1-0.1,0.2-0.1,0.3c0,0.1,0,0.2,0,0.4H111c0-0.4,0.1-0.8,0.3-1.1
							c0.2-0.3,0.5-0.4,0.9-0.4c0.4,0,0.7,0.1,0.9,0.3s0.3,0.5,0.3,0.9c0,0.3-0.1,0.5-0.2,0.7c-0.1,0.2-0.3,0.3-0.6,0.4
							c0.3,0.1,0.5,0.2,0.7,0.4c0.1,0.2,0.2,0.5,0.2,0.8c0,0.4-0.1,0.8-0.3,1.1s-0.6,0.4-1,0.4c-0.2,0-0.4,0-0.6-0.1
							c-0.2-0.1-0.3-0.2-0.4-0.3c-0.1-0.1-0.2-0.3-0.2-0.5S110.9,86,110.9,85.8z"/>
					</g>
				</g>
				<g>
					<g>
						<path class="st35" d="M131,87.3c0-0.2,0-0.4,0-0.6c0-0.2,0.1-0.3,0.2-0.5c0.1-0.2,0.2-0.4,0.4-0.5c0.2-0.2,0.4-0.4,0.7-0.6
							c0.2-0.2,0.4-0.4,0.6-0.6c0.1-0.2,0.2-0.5,0.2-0.8c0-0.3-0.1-0.5-0.2-0.7c-0.1-0.2-0.3-0.2-0.6-0.2c-0.1,0-0.2,0-0.3,0.1
							c-0.1,0-0.2,0.1-0.2,0.2c-0.1,0.1-0.1,0.2-0.1,0.3c0,0.1,0,0.2-0.1,0.3c0,0.1,0,0.2,0,0.4H131v-0.2c0-0.2,0-0.4,0.1-0.6
							s0.1-0.3,0.2-0.5c0.1-0.1,0.2-0.2,0.4-0.3c0.2-0.1,0.4-0.1,0.6-0.1c0.4,0,0.7,0.1,1,0.4c0.2,0.3,0.3,0.6,0.3,1
							c0,0.2,0,0.4-0.1,0.5c0,0.2-0.1,0.3-0.2,0.4c-0.1,0.1-0.2,0.3-0.3,0.4c-0.1,0.1-0.2,0.2-0.4,0.4c-0.2,0.2-0.3,0.3-0.4,0.4
							s-0.2,0.2-0.3,0.3s-0.2,0.2-0.2,0.2c0,0-0.1,0.1-0.1,0.2c0,0.1-0.1,0.1-0.1,0.2c0,0.1,0,0.1,0,0.2h2.1v0.5H131z"/>
						<path class="st35" d="M134.4,86h0.6c0,0.3,0.1,0.5,0.2,0.7c0.1,0.2,0.3,0.2,0.6,0.2c0.1,0,0.3,0,0.4-0.1
							c0.1-0.1,0.2-0.2,0.3-0.3c0.1-0.1,0.1-0.2,0.1-0.4s0-0.3,0-0.5c0-0.1,0-0.2,0-0.3c0-0.1,0-0.2-0.1-0.3s-0.1-0.2-0.1-0.3
							s-0.1-0.1-0.2-0.2c-0.1,0-0.2-0.1-0.4-0.1c-0.3,0-0.6,0.2-0.7,0.5h-0.5l0.3-2.6h2.1v0.5h-1.7l-0.2,1.5
							c0.1-0.1,0.3-0.2,0.4-0.3c0.1-0.1,0.3-0.1,0.4-0.1c0.2,0,0.4,0,0.6,0.1s0.3,0.2,0.4,0.4s0.2,0.3,0.2,0.5
							c0,0.2,0.1,0.4,0.1,0.6c0,0.2,0,0.4,0,0.5c0,0.2-0.1,0.3-0.1,0.5s-0.2,0.3-0.3,0.4c-0.1,0.1-0.2,0.2-0.4,0.3
							c-0.2,0.1-0.3,0.1-0.5,0.1c-0.4,0-0.8-0.1-1-0.4C134.5,86.8,134.4,86.5,134.4,86z"/>
					</g>
				</g>
			</g>
			<g>
				<g>
					<g>
						<path class="st35" d="M154.3,31.9c0-0.2,0-0.4,0-0.6c0-0.2,0.1-0.3,0.2-0.5c0.1-0.2,0.2-0.4,0.4-0.5c0.2-0.2,0.4-0.4,0.7-0.6
							c0.2-0.2,0.4-0.4,0.6-0.6c0.1-0.2,0.2-0.5,0.2-0.8c0-0.3-0.1-0.5-0.2-0.7c-0.1-0.2-0.3-0.2-0.6-0.2c-0.1,0-0.2,0-0.3,0.1
							c-0.1,0-0.2,0.1-0.2,0.2c-0.1,0.1-0.1,0.2-0.1,0.3c0,0.1,0,0.2-0.1,0.3c0,0.1,0,0.2,0,0.4h-0.6v-0.2c0-0.2,0-0.4,0.1-0.6
							s0.1-0.3,0.2-0.5c0.1-0.1,0.2-0.2,0.4-0.3c0.2-0.1,0.4-0.1,0.6-0.1c0.4,0,0.7,0.1,1,0.4c0.2,0.3,0.3,0.6,0.3,1
							c0,0.2,0,0.4-0.1,0.5c0,0.2-0.1,0.3-0.2,0.4c-0.1,0.1-0.2,0.3-0.3,0.4c-0.1,0.1-0.2,0.2-0.4,0.4c-0.2,0.2-0.3,0.3-0.4,0.4
							s-0.2,0.2-0.3,0.3s-0.2,0.2-0.2,0.2c0,0-0.1,0.1-0.1,0.2c0,0.1-0.1,0.1-0.1,0.2c0,0.1,0,0.1,0,0.2h2.1v0.5H154.3z"/>
						<path class="st35" d="M157.7,30.5c0-0.2,0-0.4,0.1-0.5c0.1-0.2,0.1-0.3,0.2-0.4c0.1-0.1,0.2-0.2,0.3-0.3s0.2-0.1,0.3-0.1v0
							c-0.3-0.1-0.5-0.2-0.6-0.4s-0.2-0.4-0.2-0.7c0-0.1,0-0.3,0.1-0.4c0-0.1,0.1-0.3,0.2-0.4s0.2-0.2,0.4-0.3
							c0.2-0.1,0.3-0.1,0.6-0.1c0.2,0,0.3,0,0.5,0.1c0.1,0,0.3,0.1,0.3,0.2s0.2,0.2,0.2,0.3c0.1,0.1,0.1,0.2,0.1,0.3s0,0.2,0,0.4
							c0,0.3-0.1,0.5-0.2,0.7c-0.1,0.2-0.3,0.3-0.6,0.4v0c0.3,0,0.5,0.2,0.6,0.4c0.2,0.2,0.3,0.5,0.3,0.9c0,0.5-0.1,0.9-0.4,1.1
							c-0.2,0.3-0.6,0.4-1,0.4c-0.5,0-0.8-0.1-1-0.4C157.8,31.4,157.7,31,157.7,30.5z M158.3,30.5c0,0.2,0,0.3,0,0.4
							c0,0.1,0.1,0.2,0.1,0.3s0.1,0.2,0.2,0.2c0.1,0.1,0.2,0.1,0.4,0.1c0.1,0,0.2,0,0.3-0.1s0.2-0.1,0.2-0.1
							c0.1-0.1,0.1-0.1,0.1-0.2c0-0.1,0.1-0.2,0.1-0.3c0-0.1,0-0.2,0-0.3c0-0.1,0-0.3,0-0.4c0-0.1-0.1-0.2-0.1-0.3s-0.1-0.2-0.2-0.2
							c-0.1-0.1-0.2-0.1-0.4-0.1c-0.2,0-0.3,0.1-0.5,0.2s-0.2,0.2-0.3,0.4S158.3,30.3,158.3,30.5z M158.4,28.2
							c0,0.3,0.1,0.5,0.2,0.6s0.3,0.2,0.5,0.2c0.4,0,0.6-0.3,0.6-0.8c0-0.2-0.1-0.4-0.2-0.6c-0.1-0.1-0.3-0.2-0.5-0.2
							C158.6,27.4,158.4,27.6,158.4,28.2z"/>
					</g>
				</g>
				<g>
					<g>
						<path class="st35" d="M178.4,30.4h0.6c0,0.1,0,0.2,0,0.3c0,0.1,0,0.2,0.1,0.3c0,0.1,0.1,0.2,0.1,0.2c0.1,0.1,0.1,0.1,0.2,0.2
							c0.1,0,0.2,0.1,0.3,0.1c0.3,0,0.5-0.1,0.6-0.2c0.1-0.2,0.2-0.4,0.2-0.7c0-0.2,0-0.4-0.1-0.5c0-0.1-0.1-0.2-0.2-0.3
							c-0.1-0.1-0.2-0.1-0.4-0.2c-0.1,0-0.3,0-0.5,0v-0.5c0.4,0,0.6-0.1,0.8-0.2c0.2-0.1,0.3-0.3,0.3-0.7c0-0.6-0.2-0.8-0.7-0.8
							c-0.1,0-0.2,0-0.3,0.1c-0.1,0.1-0.2,0.1-0.2,0.2c-0.1,0.1-0.1,0.2-0.1,0.3c0,0.1,0,0.2,0,0.4h-0.5c0-0.4,0.1-0.8,0.3-1.1
							c0.2-0.3,0.5-0.4,0.9-0.4c0.4,0,0.7,0.1,0.9,0.3s0.3,0.5,0.3,0.9c0,0.3-0.1,0.5-0.2,0.7c-0.1,0.2-0.3,0.3-0.6,0.4
							c0.3,0.1,0.5,0.2,0.7,0.4c0.1,0.2,0.2,0.5,0.2,0.8c0,0.4-0.1,0.8-0.3,1.1s-0.6,0.4-1,0.4c-0.2,0-0.4,0-0.6-0.1
							c-0.2-0.1-0.3-0.2-0.4-0.3c-0.1-0.1-0.2-0.3-0.2-0.5S178.4,30.7,178.4,30.4z"/>
						<path class="st35" d="M181.8,29.4c0-0.2,0-0.3,0-0.5c0-0.1,0-0.3,0-0.5c0-0.2,0.1-0.3,0.1-0.5c0-0.1,0.1-0.3,0.2-0.4
							c0.1-0.1,0.2-0.3,0.2-0.4c0.1-0.1,0.2-0.2,0.4-0.2c0.1-0.1,0.3-0.1,0.5-0.1s0.3,0,0.5,0.1s0.3,0.1,0.4,0.2
							c0.1,0.1,0.2,0.2,0.2,0.4c0.1,0.1,0.1,0.3,0.2,0.4s0.1,0.3,0.1,0.5c0,0.2,0,0.3,0,0.5c0,0.1,0,0.3,0,0.5c0,0.1,0,0.3,0,0.4
							s0,0.2,0,0.4c0,0.1,0,0.3,0,0.4c0,0.1,0,0.2-0.1,0.3s-0.1,0.2-0.1,0.3s-0.1,0.2-0.1,0.3c0,0.1-0.1,0.2-0.2,0.2
							s-0.1,0.1-0.2,0.2s-0.2,0.1-0.3,0.1c-0.1,0-0.2,0-0.4,0c-0.2,0-0.3,0-0.5-0.1c-0.1-0.1-0.3-0.1-0.4-0.2
							c-0.1-0.1-0.2-0.2-0.2-0.4c-0.1-0.1-0.1-0.3-0.2-0.4s-0.1-0.3-0.1-0.5c0-0.2,0-0.4,0-0.5S181.8,29.6,181.8,29.4z M182.4,29.4
							c0,0.2,0,0.4,0,0.5c0,0.1,0,0.3,0,0.5s0,0.3,0.1,0.4c0,0.1,0.1,0.2,0.1,0.3s0.1,0.2,0.2,0.2s0.2,0.1,0.3,0.1
							c0.1,0,0.2,0,0.3-0.1s0.1-0.1,0.2-0.2c0.1-0.1,0.1-0.2,0.1-0.3c0-0.1,0.1-0.2,0.1-0.3s0-0.2,0.1-0.4c0-0.1,0-0.3,0-0.4
							c0-0.1,0-0.3,0-0.4c0-0.1,0-0.3,0-0.4s0-0.3,0-0.4c0-0.1,0-0.3-0.1-0.4c0-0.1-0.1-0.2-0.1-0.3c0-0.1-0.1-0.2-0.1-0.3
							s-0.1-0.1-0.2-0.2c-0.1,0-0.2-0.1-0.3-0.1c-0.1,0-0.2,0-0.3,0.1c-0.1,0-0.1,0.1-0.2,0.2c-0.1,0.1-0.1,0.2-0.1,0.3
							c0,0.1-0.1,0.2-0.1,0.3s0,0.2-0.1,0.4c0,0.1,0,0.3,0,0.4C182.4,29.2,182.4,29.3,182.4,29.4z"/>
					</g>
				</g>
				<g>
					<g>
						<path class="st35" d="M202.4,30.4h0.6c0,0.1,0,0.2,0,0.3c0,0.1,0,0.2,0.1,0.3c0,0.1,0.1,0.2,0.1,0.2c0.1,0.1,0.1,0.1,0.2,0.2
							c0.1,0,0.2,0.1,0.3,0.1c0.3,0,0.5-0.1,0.6-0.2c0.1-0.2,0.2-0.4,0.2-0.7c0-0.2,0-0.4-0.1-0.5c0-0.1-0.1-0.2-0.2-0.3
							c-0.1-0.1-0.2-0.1-0.4-0.2c-0.1,0-0.3,0-0.5,0v-0.5c0.4,0,0.6-0.1,0.8-0.2c0.2-0.1,0.3-0.3,0.3-0.7c0-0.6-0.2-0.8-0.7-0.8
							c-0.1,0-0.2,0-0.3,0.1c-0.1,0.1-0.2,0.1-0.2,0.2c-0.1,0.1-0.1,0.2-0.1,0.3c0,0.1,0,0.2,0,0.4h-0.5c0-0.4,0.1-0.8,0.3-1.1
							c0.2-0.3,0.5-0.4,0.9-0.4c0.4,0,0.7,0.1,0.9,0.3s0.3,0.5,0.3,0.9c0,0.3-0.1,0.5-0.2,0.7c-0.1,0.2-0.3,0.3-0.6,0.4
							c0.3,0.1,0.5,0.2,0.7,0.4c0.1,0.2,0.2,0.5,0.2,0.8c0,0.4-0.1,0.8-0.3,1.1s-0.6,0.4-1,0.4c-0.2,0-0.4,0-0.6-0.1
							c-0.2-0.1-0.3-0.2-0.4-0.3c-0.1-0.1-0.2-0.3-0.2-0.5S202.4,30.7,202.4,30.4z"/>
						<path class="st35" d="M205.8,31.9c0-0.2,0-0.4,0-0.6c0-0.2,0.1-0.3,0.2-0.5c0.1-0.2,0.2-0.4,0.4-0.5c0.2-0.2,0.4-0.4,0.7-0.6
							c0.2-0.2,0.4-0.4,0.6-0.6c0.1-0.2,0.2-0.5,0.2-0.8c0-0.3-0.1-0.5-0.2-0.7c-0.1-0.2-0.3-0.2-0.6-0.2c-0.1,0-0.2,0-0.3,0.1
							c-0.1,0-0.2,0.1-0.2,0.2c-0.1,0.1-0.1,0.2-0.1,0.3c0,0.1,0,0.2-0.1,0.3c0,0.1,0,0.2,0,0.4h-0.6v-0.2c0-0.2,0-0.4,0.1-0.6
							s0.1-0.3,0.2-0.5c0.1-0.1,0.2-0.2,0.4-0.3c0.2-0.1,0.4-0.1,0.6-0.1c0.4,0,0.7,0.1,1,0.4c0.2,0.3,0.3,0.6,0.3,1
							c0,0.2,0,0.4-0.1,0.5c0,0.2-0.1,0.3-0.2,0.4c-0.1,0.1-0.2,0.3-0.3,0.4c-0.1,0.1-0.2,0.2-0.4,0.4c-0.2,0.2-0.3,0.3-0.4,0.4
							s-0.2,0.2-0.3,0.3s-0.2,0.2-0.2,0.2c0,0-0.1,0.1-0.1,0.2c0,0.1-0.1,0.1-0.1,0.2c0,0.1,0,0.1,0,0.2h2.1v0.5H205.8z"/>
					</g>
				</g>
			</g>
			<g>
				<g>
					<g>
						<path class="st35" d="M154.3,87.3c0-0.2,0-0.4,0-0.6c0-0.2,0.1-0.3,0.2-0.5c0.1-0.2,0.2-0.4,0.4-0.5c0.2-0.2,0.4-0.4,0.7-0.6
							c0.2-0.2,0.4-0.4,0.6-0.6c0.1-0.2,0.2-0.5,0.2-0.8c0-0.3-0.1-0.5-0.2-0.7c-0.1-0.2-0.3-0.2-0.6-0.2c-0.1,0-0.2,0-0.3,0.1
							c-0.1,0-0.2,0.1-0.2,0.2c-0.1,0.1-0.1,0.2-0.1,0.3c0,0.1,0,0.2-0.1,0.3c0,0.1,0,0.2,0,0.4h-0.6v-0.2c0-0.2,0-0.4,0.1-0.6
							s0.1-0.3,0.2-0.5c0.1-0.1,0.2-0.2,0.4-0.3c0.2-0.1,0.4-0.1,0.6-0.1c0.4,0,0.7,0.1,1,0.4c0.2,0.3,0.3,0.6,0.3,1
							c0,0.2,0,0.4-0.1,0.5c0,0.2-0.1,0.3-0.2,0.4c-0.1,0.1-0.2,0.3-0.3,0.4c-0.1,0.1-0.2,0.2-0.4,0.4c-0.2,0.2-0.3,0.3-0.4,0.4
							s-0.2,0.2-0.3,0.3s-0.2,0.2-0.2,0.2c0,0-0.1,0.1-0.1,0.2c0,0.1-0.1,0.1-0.1,0.2c0,0.1,0,0.1,0,0.2h2.1v0.5H154.3z"/>
						<path class="st35" d="M157.7,82.9v-0.5h2.8v0.5c-0.5,0.6-0.9,1.3-1.1,2.1c-0.3,0.8-0.5,1.6-0.5,2.4h-0.6
							c0.1-0.8,0.3-1.6,0.6-2.3c0.3-0.8,0.7-1.5,1.2-2.1H157.7z"/>
					</g>
				</g>
				<g>
					<g>
						<path class="st35" d="M178.4,87.3c0-0.2,0-0.4,0-0.6c0-0.2,0.1-0.3,0.2-0.5c0.1-0.2,0.2-0.4,0.4-0.5c0.2-0.2,0.4-0.4,0.7-0.6
							c0.2-0.2,0.4-0.4,0.6-0.6c0.1-0.2,0.2-0.5,0.2-0.8c0-0.3-0.1-0.5-0.2-0.7c-0.1-0.2-0.3-0.2-0.6-0.2c-0.1,0-0.2,0-0.3,0.1
							c-0.1,0-0.2,0.1-0.2,0.2c-0.1,0.1-0.1,0.2-0.1,0.3c0,0.1,0,0.2-0.1,0.3c0,0.1,0,0.2,0,0.4h-0.6v-0.2c0-0.2,0-0.4,0.1-0.6
							s0.1-0.3,0.2-0.5c0.1-0.1,0.2-0.2,0.4-0.3c0.2-0.1,0.4-0.1,0.6-0.1c0.4,0,0.7,0.1,1,0.4c0.2,0.3,0.3,0.6,0.3,1
							c0,0.2,0,0.4-0.1,0.5c0,0.2-0.1,0.3-0.2,0.4c-0.1,0.1-0.2,0.3-0.3,0.4c-0.1,0.1-0.2,0.2-0.4,0.4c-0.2,0.2-0.3,0.3-0.4,0.4
							s-0.2,0.2-0.3,0.3s-0.2,0.2-0.2,0.2c0,0-0.1,0.1-0.1,0.2c0,0.1-0.1,0.1-0.1,0.2c0,0.1,0,0.1,0,0.2h2.1v0.5H178.4z"/>
						<path class="st35" d="M181.7,84c0-0.5,0.1-1,0.4-1.3c0.3-0.3,0.6-0.5,1-0.5c0.2,0,0.4,0,0.5,0.1c0.2,0.1,0.3,0.1,0.4,0.2
							s0.2,0.2,0.3,0.3c0.1,0.1,0.1,0.3,0.2,0.4c0,0.1,0.1,0.3,0.1,0.4s0,0.3,0,0.5s0,0.3,0,0.5c0,0.2,0,0.4,0,0.5s0,0.3,0,0.5
							c0,0.2,0,0.4-0.1,0.5c0,0.1-0.1,0.3-0.2,0.5c-0.1,0.2-0.2,0.3-0.3,0.4c-0.1,0.1-0.2,0.2-0.4,0.3c-0.2,0.1-0.3,0.1-0.5,0.1
							c-0.4,0-0.7-0.1-0.9-0.3s-0.3-0.5-0.3-0.9h0.6c0,0.2,0.1,0.4,0.2,0.5c0.1,0.1,0.3,0.2,0.5,0.2c0.1,0,0.2,0,0.2,0
							c0.1,0,0.1-0.1,0.2-0.2c0.1-0.1,0.1-0.1,0.1-0.2c0-0.1,0.1-0.2,0.1-0.3c0-0.1,0.1-0.2,0.1-0.3c0-0.1,0-0.2,0.1-0.3
							s0-0.2,0-0.3c0-0.1,0-0.2,0-0.3h0c-0.1,0.2-0.2,0.4-0.4,0.5c-0.2,0.1-0.3,0.2-0.5,0.2c-0.2,0-0.4,0-0.6-0.1
							c-0.2-0.1-0.3-0.2-0.4-0.3s-0.2-0.3-0.2-0.5C181.8,84.4,181.7,84.2,181.7,84z M182.3,83.9c0,0.1,0,0.2,0,0.3
							c0,0.1,0,0.2,0.1,0.3c0,0.1,0.1,0.2,0.1,0.3s0.1,0.1,0.2,0.2c0.1,0,0.2,0.1,0.3,0.1c0.2,0,0.3,0,0.4-0.1
							c0.1-0.1,0.2-0.1,0.3-0.2c0.1-0.1,0.1-0.2,0.1-0.3c0-0.1,0-0.2,0-0.4c0-0.2,0-0.3,0-0.4c0-0.1-0.1-0.3-0.1-0.4
							c-0.1-0.1-0.1-0.2-0.3-0.3c-0.1-0.1-0.3-0.1-0.4-0.1c-0.2,0-0.3,0-0.4,0.1c-0.1,0.1-0.2,0.2-0.2,0.3c-0.1,0.1-0.1,0.2-0.1,0.4
							S182.3,83.8,182.3,83.9z"/>
					</g>
				</g>
				<g>
					<g>
						<path class="st35" d="M202.4,85.8h0.6c0,0.1,0,0.2,0,0.3c0,0.1,0,0.2,0.1,0.3c0,0.1,0.1,0.2,0.1,0.2c0.1,0.1,0.1,0.1,0.2,0.2
							c0.1,0,0.2,0.1,0.3,0.1c0.3,0,0.5-0.1,0.6-0.2c0.1-0.2,0.2-0.4,0.2-0.7c0-0.2,0-0.4-0.1-0.5c0-0.1-0.1-0.2-0.2-0.3
							c-0.1-0.1-0.2-0.1-0.4-0.2c-0.1,0-0.3,0-0.5,0v-0.5c0.4,0,0.6-0.1,0.8-0.2c0.2-0.1,0.3-0.3,0.3-0.7c0-0.6-0.2-0.8-0.7-0.8
							c-0.1,0-0.2,0-0.3,0.1c-0.1,0.1-0.2,0.1-0.2,0.2c-0.1,0.1-0.1,0.2-0.1,0.3c0,0.1,0,0.2,0,0.4h-0.5c0-0.4,0.1-0.8,0.3-1.1
							c0.2-0.3,0.5-0.4,0.9-0.4c0.4,0,0.7,0.1,0.9,0.3s0.3,0.5,0.3,0.9c0,0.3-0.1,0.5-0.2,0.7c-0.1,0.2-0.3,0.3-0.6,0.4
							c0.3,0.1,0.5,0.2,0.7,0.4c0.1,0.2,0.2,0.5,0.2,0.8c0,0.4-0.1,0.8-0.3,1.1s-0.6,0.4-1,0.4c-0.2,0-0.4,0-0.6-0.1
							c-0.2-0.1-0.3-0.2-0.4-0.3c-0.1-0.1-0.2-0.3-0.2-0.5S202.4,86,202.4,85.8z"/>
						<path class="st35" d="M206,83.6v-0.4c0.2,0,0.4,0,0.5,0c0.1,0,0.2-0.1,0.4-0.1c0.1-0.1,0.2-0.2,0.2-0.3
							c0.1-0.1,0.1-0.3,0.1-0.5h0.4v5h-0.6v-3.7H206z"/>
					</g>
				</g>
			</g>
		</g>
	</g>
	<path class="st67" d="M217.6,97.4"/>
</g>
</svg>
