<svg width="311" height="109" viewBox="0 0 311 109" fill="none" xmlns="http://www.w3.org/2000/svg">
<g clip-path="url(#clip0_1_2)">
<path d="M290.7 105.8H14.1C8.20003 105.8 3.40002 101 3.40002 95V14.3C3.40002 8.40001 8.20003 3.60001 13.1 3.60001H294.3C301.2 3.60001 306 8.40001 306 14.3V90.4C306 98.9 299.1 105.8 290.7 105.8Z" stroke="#ADB9BC" stroke-width="0.75" stroke-miterlimit="10" stroke-dasharray="3 3"/>
<path d="M274 87.5H25.3C21.4 87.5 18.3 84.4 18.3 80.5V30C18.3 26.1 21.4 23 25.3 23H274C277.9 23 281 26.1 281 30V80.5C281 84.4 277.9 87.5 274 87.5Z" fill="#F2F2F2"/>
<path d="M14.5 68.3L8.79999 66.7V65.9L14.5 64.3V65L12.8 65.5V67.3L14.5 67.7V68.3ZM12.3 67V65.5L9.19999 66.2L12.3 67Z" fill="#3B5059"/>
<path d="M14.5 63.5H8.70001V62C8.70001 61.5 8.80001 61.1 9.10001 60.8C9.40001 60.5 9.70001 60.4 10.2 60.4C10.5 60.4 10.8 60.5 11 60.6C11.2 60.7 11.4 61 11.4 61.2C11.4 60.9 11.6 60.7 11.8 60.5C12.1 60.3 12.4 60.2 12.8 60.2C13.3 60.2 13.7 60.3 14 60.6C14.3 60.9 14.4 61.3 14.4 61.8V63.5H14.5ZM11.2 62.8V62C11.2 61.7 11.1 61.4 11 61.3C10.9 61.1 10.6 61.1 10.3 61.1C10 61.1 9.80001 61.2 9.60001 61.3C9.50001 61.5 9.40001 61.7 9.40001 62V62.9H11.2V62.8ZM13.9 62.8V61.9C13.9 61.6 13.8 61.3 13.6 61.1C13.4 60.9 13.2 60.9 12.8 60.9C12.1 60.9 11.7 61.3 11.7 62V62.9H13.9V62.8Z" fill="#3B5059"/>
<path d="M11.6 59.4C11.4 59.4 11.2 59.4 11 59.4C10.8 59.4 10.6 59.4 10.4 59.3C10.2 59.3 10 59.2 9.8 59.2C9.6 59.1 9.5 59.1 9.3 59C9.1 58.9 9 58.8 8.9 58.7C8.8 58.6 8.7 58.4 8.6 58.2C8.5 58 8.5 57.8 8.5 57.6C8.5 57.4 8.5 57.2 8.6 57.1C8.6 56.9 8.7 56.8 8.8 56.7C8.9 56.6 9 56.5 9.1 56.4C9.2 56.3 9.3 56.2 9.4 56.2C9.5 56.1 9.6 56.1 9.8 56C10 55.9 10.1 55.9 10.2 55.9C10.3 55.9 10.5 55.8 10.7 55.8C10.9 55.8 11 55.8 11.2 55.8C11.4 55.8 11.5 55.8 11.6 55.8C11.8 55.8 12.1 55.8 12.3 55.8C12.5 55.8 12.7 55.8 12.9 55.9C13.1 55.9 13.3 56 13.5 56C13.7 56.1 13.8 56.1 14 56.2C14.2 56.3 14.3 56.4 14.4 56.5C14.5 56.6 14.6 56.8 14.6 57C14.7 57.2 14.7 57.4 14.7 57.6C14.7 57.8 14.7 58 14.6 58.2C14.5 58.4 14.5 58.5 14.4 58.7C14.3 58.9 14.2 58.9 14 59C13.8 59.1 13.7 59.2 13.5 59.2C13.3 59.3 13.1 59.3 12.9 59.3C12.7 59.3 12.5 59.4 12.3 59.4C12.1 59.4 11.9 59.4 11.6 59.4ZM11.5 58.7C11.9 58.7 12.2 58.7 12.4 58.7C12.6 58.7 12.9 58.6 13.1 58.6C13.3 58.5 13.5 58.5 13.6 58.4C13.7 58.3 13.8 58.2 13.9 58C14 57.9 14 57.7 14 57.5C14 57.3 14 57.2 13.9 57C13.9 56.9 13.8 56.8 13.7 56.7C13.6 56.6 13.5 56.5 13.3 56.5C13.2 56.4 13 56.4 12.8 56.4C12.6 56.4 12.4 56.3 12.2 56.3C12 56.3 11.7 56.3 11.4 56.3C11.1 56.3 10.9 56.3 10.7 56.3C10.5 56.3 10.3 56.4 10.1 56.4C9.9 56.5 9.7 56.5 9.6 56.6C9.5 56.7 9.4 56.8 9.3 57C9.2 57.1 9.2 57.3 9.2 57.5C9.2 57.7 9.2 57.9 9.3 58C9.4 58.1 9.5 58.3 9.6 58.3C9.7 58.4 9.9 58.5 10.1 58.5C10.3 58.6 10.5 58.6 10.7 58.6C11 58.7 11.2 58.7 11.5 58.7Z" fill="#3B5059"/>
<path d="M14.5 52.7H8.70001V50H9.30001V52H14.5V52.7Z" fill="#3B5059"/>
<path d="M14.5 50.2L8.79999 48.6V47.8L14.5 46.2V46.9L12.8 47.4V49.2L14.5 49.6V50.2ZM12.3 48.9V47.4L9.19999 48.1L12.3 48.9Z" fill="#3B5059"/>
<path d="M12.7 45.6V45C12.9 45 13.1 45 13.3 44.9C13.5 44.9 13.6 44.8 13.7 44.7C13.8 44.6 13.9 44.5 14 44.4C14.1 44.3 14 44 14 43.8C14 43.6 14 43.4 13.9 43.3C13.8 43.2 13.7 43 13.6 43C13.5 42.9 13.4 42.9 13.2 42.8C13.1 42.8 12.9 42.7 12.8 42.7C12.5 42.7 12.3 42.8 12 43C11.8 43.2 11.7 43.4 11.7 43.8V44.3H11.1V43.9C11.1 43.6 11 43.4 10.8 43.2C10.6 43 10.4 43 10.1 43C9.79998 43 9.49997 43.1 9.39997 43.2C9.19997 43.4 9.09998 43.6 9.09998 43.9C9.09998 44.2 9.19997 44.4 9.39997 44.6C9.59997 44.8 9.79998 44.9 10.2 44.9V45.5C9.69998 45.4 9.29998 45.3 8.99998 45C8.69998 44.7 8.59998 44.3 8.59998 43.8C8.59998 43.4 8.69998 43 8.99998 42.7C9.29998 42.4 9.59998 42.3 9.99998 42.3C10.4 42.3 10.7 42.4 10.9 42.5C11.1 42.7 11.3 42.9 11.4 43.1C11.5 42.8 11.6 42.5 11.9 42.3C12.2 42.1 12.5 42 12.9 42C13 42 13.2 42 13.3 42C13.4 42 13.6 42.1 13.7 42.2C13.9 42.3 14 42.4 14.1 42.5C14.2 42.6 14.3 42.8 14.4 43C14.5 43.2 14.5 43.5 14.5 43.7C14.5 44 14.5 44.3 14.4 44.5C14.3 44.7 14.2 44.9 14 45C13.8 45.1 13.6 45.2 13.4 45.3C13.3 45.5 13 45.6 12.7 45.6Z" fill="#3B5059"/>
<path d="M14.5 41.5L8.79999 39.9V39.1L14.5 37.5V38.2L12.8 38.7V40.5L14.5 40.9V41.5ZM12.3 40.3V38.8L9.19999 39.5L12.3 40.3Z" fill="#3B5059"/>
<path d="M103 22.2V15.4" stroke="url(#paint0_linear_1_2)" stroke-miterlimit="10"/>
<path d="M103 94.2V87.4" stroke="url(#paint1_linear_1_2)" stroke-miterlimit="10"/>
<path d="M79.1 22.2V15.4" stroke="url(#paint2_linear_1_2)" stroke-miterlimit="10"/>
<path d="M79.1 94.2V87.4" stroke="url(#paint3_linear_1_2)" stroke-miterlimit="10"/>
<path d="M55.5 22.2V15.4" stroke="url(#paint4_linear_1_2)" stroke-miterlimit="10"/>
<path d="M55.5 94.2V87.4" stroke="url(#paint5_linear_1_2)" stroke-miterlimit="10"/>
<path d="M126.6 87.5V91.8C126.6 93.1 125.5 94.2 124.2 94.2H33.7001C32.4001 94.2 31.8 93.1 31.8 91.8V87.5" stroke="url(#paint6_linear_1_2)" stroke-miterlimit="10"/>
<path d="M126.6 22.2V17.9C126.6 16.6 125.5 15.5 124.2 15.5H33.7001C32.4001 15.5 31.8 16.6 31.8 17.9V22.2" stroke="url(#paint7_linear_1_2)" stroke-miterlimit="10"/>
<path d="M163 15V10.5075C163 9.14925 162.431 8 161.759 8H114.982C114.31 8 114 9.14925 114 10.5075V15" stroke="url(#paint8_linear_1_2)" stroke-miterlimit="10"/>
<path d="M163 95V99.4925C163 100.851 162.431 102 161.759 102H114.982C114.31 102 114 100.851 114 99.4925V95" stroke="url(#paint9_linear_1_2)" stroke-miterlimit="10"/>
<path d="M221.3 22.2V15.4" stroke="url(#paint10_linear_1_2)" stroke-miterlimit="10"/>
<path d="M244.9 22.2V15.4" stroke="url(#paint11_linear_1_2)" stroke-miterlimit="10"/>
<path d="M267.3 22.2V15.4" stroke="url(#paint12_linear_1_2)" stroke-miterlimit="10"/>
<path d="M197.5 22.2V15.4" stroke="url(#paint13_linear_1_2)" stroke-miterlimit="10"/>
<path d="M173.8 22.2V15.4" stroke="url(#paint14_linear_1_2)" stroke-miterlimit="10"/>
<path d="M174.846 88.4V94.7" stroke="url(#paint15_linear_1_2)" stroke-miterlimit="10"/>
<path d="M197.856 88.4V94.7" stroke="url(#paint16_linear_1_2)" stroke-miterlimit="10"/>
<path d="M150 88.4V92.3C150 93.6 150.601 94.7 151.311 94.7H291.089C291.799 94.7 292.4 93.6 292.4 92.3V61.1" stroke="url(#paint17_linear_1_2)" stroke-miterlimit="10"/>
<path d="M222.593 88.4V94.7" stroke="url(#paint18_linear_1_2)" stroke-miterlimit="10"/>
<path d="M244.549 88.4V94.7" stroke="url(#paint19_linear_1_2)" stroke-miterlimit="10"/>
<path d="M268.226 88.4V94.7" stroke="url(#paint20_linear_1_2)" stroke-miterlimit="10"/>
<path d="M292.4 48.7V17.8C292.4 16.5 291.3 15.4 290 15.4H152C150.7 15.4 150.1 16.5 150.1 17.8V22.1" stroke="url(#paint21_linear_1_2)" stroke-miterlimit="10"/>
<path d="M36.2 78.4H27.6C23.7 78.4 20.6 75.3 20.6 71.4V62.8C20.6 58.9 23.7 55.8 27.6 55.8H36.2C40.1 55.8 43.2 58.9 43.2 62.8V71.4C43.2 75.3 40 78.4 36.2 78.4Z" fill="url(#paint22_linear_1_2)"/>
<path d="M59.8 78.4H51.2C47.3 78.4 44.2 75.3 44.2 71.4V62.8C44.2 58.9 47.3 55.8 51.2 55.8H59.8C63.7 55.8 66.8 58.9 66.8 62.8V71.4C66.8 75.3 63.7 78.4 59.8 78.4Z" fill="url(#paint23_linear_1_2)"/>
<path d="M83.5 78.4H74.9C71 78.4 67.9 75.3 67.9 71.4V62.8C67.9 58.9 71 55.8 74.9 55.8H83.5C87.4 55.8 90.5 58.9 90.5 62.8V71.4C90.5 75.3 87.3 78.4 83.5 78.4Z" fill="url(#paint24_linear_1_2)"/>
<path d="M107.3 78.4H98.7C94.8 78.4 91.7 75.3 91.7 71.4V62.8C91.7 58.9 94.8 55.8 98.7 55.8H107.3C111.2 55.8 114.3 58.9 114.3 62.8V71.4C114.3 75.3 111.2 78.4 107.3 78.4Z" fill="url(#paint25_linear_1_2)"/>
<path d="M130.9 78.4H122.3C118.4 78.4 115.3 75.3 115.3 71.4V62.8C115.3 58.9 118.4 55.8 122.3 55.8H130.9C134.8 55.8 137.9 58.9 137.9 62.8V71.4C137.9 75.3 134.8 78.4 130.9 78.4Z" fill="url(#paint26_linear_1_2)"/>
<path d="M154.5 78.4H145.9C142 78.4 138.9 75.3 138.9 71.4V62.8C138.9 58.9 142 55.8 145.9 55.8H154.5C158.4 55.8 161.5 58.9 161.5 62.8V71.4C161.5 75.3 158.4 78.4 154.5 78.4Z" fill="url(#paint27_linear_1_2)"/>
<path d="M178.1 78.4H169.5C165.6 78.4 162.5 75.3 162.5 71.4V62.8C162.5 58.9 165.6 55.8 169.5 55.8H178.1C182 55.8 185.1 58.9 185.1 62.8V71.4C185.1 75.3 182 78.4 178.1 78.4Z" fill="url(#paint28_linear_1_2)"/>
<path d="M201.8 78.4H193.2C189.3 78.4 186.2 75.3 186.2 71.4V62.8C186.2 58.9 189.3 55.8 193.2 55.8H201.8C205.7 55.8 208.8 58.9 208.8 62.8V71.4C208.8 75.3 205.6 78.4 201.8 78.4Z" fill="url(#paint29_linear_1_2)"/>
<path d="M225.6 78.4H217C213.1 78.4 210 75.3 210 71.4V62.8C210 58.9 213.1 55.8 217 55.8H225.6C229.5 55.8 232.6 58.9 232.6 62.8V71.4C232.6 75.3 229.5 78.4 225.6 78.4Z" fill="url(#paint30_linear_1_2)"/>
<path d="M249.2 78.4H240.6C236.7 78.4 233.6 75.3 233.6 71.4V62.8C233.6 58.9 236.7 55.8 240.6 55.8H249.2C253.1 55.8 256.2 58.9 256.2 62.8V71.4C256.2 75.3 253.1 78.4 249.2 78.4Z" fill="url(#paint31_linear_1_2)"/>
<path d="M272.5 78.4H263.9C260 78.4 256.9 75.3 256.9 71.4V62.8C256.9 58.9 260 55.8 263.9 55.8H272.5C276.4 55.8 279.5 58.9 279.5 62.8V71.4C279.5 75.3 276.3 78.4 272.5 78.4Z" fill="url(#paint32_linear_1_2)"/>
<path d="M36.2 54.7H27.6C23.7 54.7 20.6 51.6 20.6 47.7V39.1C20.6 35.2 23.7 32.1 27.6 32.1H36.2C40.1 32.1 43.2 35.2 43.2 39.1V47.7C43.2 51.6 40 54.7 36.2 54.7Z" fill="url(#paint33_linear_1_2)"/>
<path d="M59.8 54.7H51.2C47.3 54.7 44.2 51.6 44.2 47.7V39.1C44.2 35.2 47.3 32.1 51.2 32.1H59.8C63.7 32.1 66.8 35.2 66.8 39.1V47.7C66.8 51.6 63.7 54.7 59.8 54.7Z" fill="url(#paint34_linear_1_2)"/>
<path d="M83.5 54.7H74.9C71 54.7 67.9 51.6 67.9 47.7V39.1C67.9 35.2 71 32.1 74.9 32.1H83.5C87.4 32.1 90.5 35.2 90.5 39.1V47.7C90.5 51.6 87.3 54.7 83.5 54.7Z" fill="url(#paint35_linear_1_2)"/>
<path d="M107.3 54.7H98.7C94.8 54.7 91.7 51.6 91.7 47.7V39.1C91.7 35.2 94.8 32.1 98.7 32.1H107.3C111.2 32.1 114.3 35.2 114.3 39.1V47.7C114.3 51.6 111.2 54.7 107.3 54.7Z" fill="url(#paint36_linear_1_2)"/>
<path d="M130.9 54.7H122.3C118.4 54.7 115.3 51.6 115.3 47.7V39.1C115.3 35.2 118.4 32.1 122.3 32.1H130.9C134.8 32.1 137.9 35.2 137.9 39.1V47.7C137.9 51.6 134.8 54.7 130.9 54.7Z" fill="url(#paint37_linear_1_2)"/>
<path d="M154.5 54.7H145.9C142 54.7 138.9 51.6 138.9 47.7V39.1C138.9 35.2 142 32.1 145.9 32.1H154.5C158.4 32.1 161.5 35.2 161.5 39.1V47.7C161.5 51.6 158.4 54.7 154.5 54.7Z" fill="url(#paint38_linear_1_2)"/>
<path d="M178.1 54.7H169.5C165.6 54.7 162.5 51.6 162.5 47.7V39.1C162.5 35.2 165.6 32.1 169.5 32.1H178.1C182 32.1 185.1 35.2 185.1 39.1V47.7C185.1 51.6 182 54.7 178.1 54.7Z" fill="url(#paint39_linear_1_2)"/>
<path d="M201.8 54.7H193.2C189.3 54.7 186.2 51.6 186.2 47.7V39.1C186.2 35.2 189.3 32.1 193.2 32.1H201.8C205.7 32.1 208.8 35.2 208.8 39.1V47.7C208.8 51.6 205.6 54.7 201.8 54.7Z" fill="url(#paint40_linear_1_2)"/>
<path d="M225.6 54.7H217C213.1 54.7 210 51.6 210 47.7V39.1C210 35.2 213.1 32.1 217 32.1H225.6C229.5 32.1 232.6 35.2 232.6 39.1V47.7C232.6 51.6 229.5 54.7 225.6 54.7Z" fill="url(#paint41_linear_1_2)"/>
<path d="M249.2 54.7H240.6C236.7 54.7 233.6 51.6 233.6 47.7V39.1C233.6 35.2 236.7 32.1 240.6 32.1H249.2C253.1 32.1 256.2 35.2 256.2 39.1V47.7C256.2 51.6 253.1 54.7 249.2 54.7Z" fill="url(#paint42_linear_1_2)"/>
<path d="M272.5 54.7H263.9C260 54.7 256.9 51.6 256.9 47.7V39.1C256.9 35.2 260 32.1 263.9 32.1H272.5C276.4 32.1 279.5 35.2 279.5 39.1V47.7C279.5 51.6 276.3 54.7 272.5 54.7Z" fill="url(#paint43_linear_1_2)"/>
<path opacity="0.9" d="M31.8 60.7C31.8 62.7 31.8 64.7 31.8 66.7C32 65 33.6 63.7 35.3 63.9C37 64.1 38.1 65.6 38.1 67.1C36.1 67.1 34.1 67.1 32.1 67.1C33.9 67.3 35.1 68.9 34.9 70.6C34.7 72.3 33.2 73.4 31.7 73.4C31.7 71.4 31.7 69.4 31.7 67.4C31.5 69.1 29.9 70.4 28.2 70.2C26.5 70 25.3 68.5 25.4 67C27.4 67 29.4 67 31.4 67C30.5 66.9 29.8 66.5 29.3 65.8C28.7 65.1 28.5 64.3 28.6 63.5C28.9 61.9 30.3 60.7 31.8 60.7Z" stroke="white" stroke-width="0.5" stroke-miterlimit="10"/>
<path opacity="0.9" d="M55.5001 60.7C55.5001 62.7 55.5001 64.7 55.5001 66.7C55.7001 65 57.3001 63.7 59.0001 63.9C60.7001 64.1 61.8001 65.6 61.8001 67.1C59.8001 67.1 57.8001 67.1 55.8001 67.1C57.6001 67.3 58.8001 68.9 58.6001 70.6C58.4001 72.3 56.9001 73.4 55.4001 73.4C55.4001 71.4 55.4001 69.4 55.4001 67.4C55.2001 69.1 53.6001 70.4 51.9001 70.2C50.2001 70 49.0001 68.5 49.1001 67C51.1001 67 53.1001 67 55.1001 67C54.2001 66.9 53.5001 66.5 53.0001 65.8C52.4001 65.1 52.2001 64.3 52.3001 63.5C52.5001 61.9 54.0001 60.7 55.5001 60.7Z" stroke="white" stroke-width="0.5" stroke-miterlimit="10"/>
<path opacity="0.9" d="M79.1 60.7C79.1 62.7 79.1 64.7 79.1 66.7C79.3 65 80.9 63.7 82.6 63.9C84.3 64.1 85.4 65.6 85.4 67.1C83.4 67.1 81.4 67.1 79.4 67.1C81.2 67.3 82.4 68.9 82.2 70.6C82 72.3 80.5 73.4 79 73.4C79 71.4 79 69.4 79 67.4C78.8 69.1 77.2 70.4 75.5 70.2C73.8 70 72.6 68.5 72.7 67C74.7 67 76.7 67 78.7 67C77.8 66.9 77.1 66.5 76.6 65.8C76 65.1 75.8 64.3 75.9 63.5C76.2 61.9 77.6 60.7 79.1 60.7Z" stroke="white" stroke-width="0.5" stroke-miterlimit="10"/>
<path opacity="0.9" d="M103 60.7C103 62.7 103 64.7 103 66.7C103.2 65 104.8 63.7 106.5 63.9C108.2 64.1 109.3 65.6 109.3 67.1C107.3 67.1 105.3 67.1 103.3 67.1C105.1 67.3 106.3 68.9 106.1 70.6C105.9 72.3 104.4 73.4 102.9 73.4C102.9 71.4 102.9 69.4 102.9 67.4C102.7 69.1 101.1 70.4 99.4001 70.2C97.7001 70 96.5001 68.5 96.6001 67C98.6001 67 100.6 67 102.6 67C101.7 66.9 101 66.5 100.5 65.8C99.9001 65.1 99.7001 64.3 99.8001 63.5C100 61.9 101.5 60.7 103 60.7Z" stroke="white" stroke-width="0.5" stroke-miterlimit="10"/>
<path opacity="0.9" d="M126.6 60.7C126.6 62.7 126.6 64.7 126.6 66.7C126.8 65 128.4 63.7 130.1 63.9C131.8 64.1 132.9 65.6 132.9 67.1C130.9 67.1 128.9 67.1 126.9 67.1C128.7 67.3 129.9 68.9 129.7 70.6C129.5 72.3 128 73.4 126.5 73.4C126.5 71.4 126.5 69.4 126.5 67.4C126.3 69.1 124.7 70.4 123 70.2C121.3 70 120.1 68.5 120.2 67C122.2 67 124.2 67 126.2 67C125.3 66.9 124.6 66.5 124.1 65.8C123.5 65.1 123.3 64.3 123.4 63.5C123.6 61.9 125.1 60.7 126.6 60.7Z" stroke="white" stroke-width="0.5" stroke-miterlimit="10"/>
<path opacity="0.9" d="M150.2 60.7C150.2 62.7 150.2 64.7 150.2 66.7C150.4 65 152 63.7 153.7 63.9C155.4 64.1 156.5 65.6 156.5 67.1C154.5 67.1 152.5 67.1 150.5 67.1C152.3 67.3 153.5 68.9 153.3 70.6C153.1 72.3 151.6 73.4 150.1 73.4C150.1 71.4 150.1 69.4 150.1 67.4C149.9 69.1 148.3 70.4 146.6 70.2C144.9 70 143.7 68.5 143.8 67C145.8 67 147.8 67 149.8 67C148.9 66.9 148.2 66.5 147.7 65.8C147.1 65.1 146.9 64.3 147 63.5C147.2 61.9 148.7 60.7 150.2 60.7Z" stroke="white" stroke-width="0.5" stroke-miterlimit="10"/>
<path opacity="0.9" d="M173.8 60.7C173.8 62.7 173.8 64.7 173.8 66.7C174 65 175.6 63.7 177.3 63.9C179 64.1 180.1 65.6 180.1 67.1C178.1 67.1 176.1 67.1 174.1 67.1C175.9 67.3 177.1 68.9 176.9 70.6C176.7 72.3 175.2 73.4 173.7 73.4C173.7 71.4 173.7 69.4 173.7 67.4C173.5 69.1 171.9 70.4 170.2 70.2C168.5 70 167.3 68.5 167.4 67C169.4 67 171.4 67 173.4 67C172.5 66.9 171.8 66.5 171.3 65.8C170.7 65.1 170.5 64.3 170.6 63.5C170.8 61.9 172.3 60.7 173.8 60.7Z" stroke="white" stroke-width="0.5" stroke-miterlimit="10"/>
<path opacity="0.9" d="M197.5 60.7C197.5 62.7 197.5 64.7 197.5 66.7C197.7 65 199.3 63.7 201 63.9C202.7 64.1 203.8 65.6 203.8 67.1C201.8 67.1 199.8 67.1 197.8 67.1C199.6 67.3 200.8 68.9 200.6 70.6C200.4 72.3 198.9 73.4 197.4 73.4C197.4 71.4 197.4 69.4 197.4 67.4C197.2 69.1 195.6 70.4 193.9 70.2C192.2 70 191 68.5 191.1 67C193.1 67 195.1 67 197.1 67C196.2 66.9 195.5 66.5 195 65.8C194.4 65.1 194.2 64.3 194.3 63.5C194.5 61.9 196 60.7 197.5 60.7Z" stroke="white" stroke-width="0.5" stroke-miterlimit="10"/>
<path opacity="0.9" d="M221.3 60.7C221.3 62.7 221.3 64.7 221.3 66.7C221.5 65 223.1 63.7 224.8 63.9C226.5 64.1 227.6 65.6 227.6 67.1C225.6 67.1 223.6 67.1 221.6 67.1C223.4 67.3 224.6 68.9 224.4 70.6C224.2 72.3 222.7 73.4 221.2 73.4C221.2 71.4 221.2 69.4 221.2 67.4C221 69.1 219.4 70.4 217.7 70.2C216 70 214.8 68.5 214.9 67C216.9 67 218.9 67 220.9 67C220 66.9 219.3 66.5 218.8 65.8C218.2 65.1 218 64.3 218.1 63.5C218.3 61.9 219.8 60.7 221.3 60.7Z" stroke="white" stroke-width="0.5" stroke-miterlimit="10"/>
<path opacity="0.9" d="M244.9 60.7C244.9 62.7 244.9 64.7 244.9 66.7C245.1 65 246.7 63.7 248.4 63.9C250.1 64.1 251.2 65.6 251.2 67.1C249.2 67.1 247.2 67.1 245.2 67.1C247 67.3 248.2 68.9 248 70.6C247.8 72.3 246.3 73.4 244.8 73.4C244.8 71.4 244.8 69.4 244.8 67.4C244.6 69.1 243 70.4 241.3 70.2C239.6 70 238.4 68.5 238.5 67C240.5 67 242.5 67 244.5 67C243.6 66.9 242.9 66.5 242.4 65.8C241.8 65.1 241.6 64.3 241.7 63.5C241.9 61.9 243.4 60.7 244.9 60.7Z" stroke="white" stroke-width="0.5" stroke-miterlimit="10"/>
<path opacity="0.9" d="M268.2 60.7C268.2 62.7 268.2 64.7 268.2 66.7C268.4 65 270 63.7 271.7 63.9C273.4 64.1 274.5 65.6 274.5 67.1C272.5 67.1 270.5 67.1 268.5 67.1C270.3 67.3 271.5 68.9 271.3 70.6C271.1 72.3 269.6 73.4 268.1 73.4C268.1 71.4 268.1 69.4 268.1 67.4C267.9 69.1 266.3 70.4 264.6 70.2C262.9 70 261.7 68.5 261.8 67C263.8 67 265.8 67 267.8 67C266.9 66.9 266.2 66.5 265.7 65.8C265.1 65.1 264.9 64.3 265 63.5C265.2 61.9 266.7 60.7 268.2 60.7Z" stroke="white" stroke-width="0.5" stroke-miterlimit="10"/>
<path opacity="0.9" d="M31.8 37.1C31.8 39.1 31.8 41.1 31.8 43.1C32 41.4 33.6 40.1 35.3 40.3C37 40.5 38.1 42 38.1 43.5C36.1 43.5 34.1 43.5 32.1 43.5C33.9 43.7 35.1 45.3 34.9 47C34.7 48.7 33.2 49.8 31.7 49.8C31.7 47.8 31.7 45.8 31.7 43.8C31.5 45.5 29.9 46.8 28.2 46.6C26.5 46.4 25.3 44.9 25.4 43.4C27.4 43.4 29.4 43.4 31.4 43.4C30.5 43.3 29.8 42.9 29.3 42.2C28.7 41.5 28.5 40.7 28.6 39.9C28.9 38.2 30.3 37.1 31.8 37.1Z" stroke="white" stroke-width="0.5" stroke-miterlimit="10"/>
<path opacity="0.9" d="M55.5001 37.1C55.5001 39.1 55.5001 41.1 55.5001 43.1C55.7001 41.4 57.3001 40.1 59.0001 40.3C60.7001 40.5 61.8001 42 61.8001 43.5C59.8001 43.5 57.8001 43.5 55.8001 43.5C57.6001 43.7 58.8001 45.3 58.6001 47C58.4001 48.7 56.9001 49.8 55.4001 49.8C55.4001 47.8 55.4001 45.8 55.4001 43.8C55.2001 45.5 53.6001 46.8 51.9001 46.6C50.2001 46.4 49.0001 44.9 49.1001 43.4C51.1001 43.4 53.1001 43.4 55.1001 43.4C54.2001 43.3 53.5001 42.9 53.0001 42.2C52.4001 41.5 52.2001 40.7 52.3001 39.9C52.5001 38.2 54.0001 37.1 55.5001 37.1Z" stroke="white" stroke-width="0.5" stroke-miterlimit="10"/>
<path opacity="0.9" d="M79.1 37.1C79.1 39.1 79.1 41.1 79.1 43.1C79.3 41.4 80.9 40.1 82.6 40.3C84.3 40.5 85.4 42 85.4 43.5C83.4 43.5 81.4 43.5 79.4 43.5C81.2 43.7 82.4 45.3 82.2 47C82 48.7 80.5 49.8 79 49.8C79 47.8 79 45.8 79 43.8C78.8 45.5 77.2 46.8 75.5 46.6C73.8 46.4 72.6 44.9 72.7 43.4C74.7 43.4 76.7 43.4 78.7 43.4C77.8 43.3 77.1 42.9 76.6 42.2C76 41.5 75.8 40.7 75.9 39.9C76.2 38.2 77.6 37.1 79.1 37.1Z" stroke="white" stroke-width="0.5" stroke-miterlimit="10"/>
<path opacity="0.9" d="M103 37.1C103 39.1 103 41.1 103 43.1C103.2 41.4 104.8 40.1 106.5 40.3C108.2 40.5 109.3 42 109.3 43.5C107.3 43.5 105.3 43.5 103.3 43.5C105.1 43.7 106.3 45.3 106.1 47C105.9 48.7 104.4 49.8 102.9 49.8C102.9 47.8 102.9 45.8 102.9 43.8C102.7 45.5 101.1 46.8 99.4001 46.6C97.7001 46.4 96.5001 44.9 96.6001 43.4C98.6001 43.4 100.6 43.4 102.6 43.4C101.7 43.3 101 42.9 100.5 42.2C99.9001 41.5 99.7001 40.7 99.8001 39.9C100 38.2 101.5 37.1 103 37.1Z" stroke="white" stroke-width="0.5" stroke-miterlimit="10"/>
<path opacity="0.9" d="M126.6 37.1C126.6 39.1 126.6 41.1 126.6 43.1C126.8 41.4 128.4 40.1 130.1 40.3C131.8 40.5 132.9 42 132.9 43.5C130.9 43.5 128.9 43.5 126.9 43.5C128.7 43.7 129.9 45.3 129.7 47C129.5 48.7 128 49.8 126.5 49.8C126.5 47.8 126.5 45.8 126.5 43.8C126.3 45.5 124.7 46.8 123 46.6C121.3 46.4 120.1 44.9 120.2 43.4C122.2 43.4 124.2 43.4 126.2 43.4C125.3 43.3 124.6 42.9 124.1 42.2C123.5 41.5 123.3 40.7 123.4 39.9C123.6 38.2 125.1 37.1 126.6 37.1Z" stroke="white" stroke-width="0.5" stroke-miterlimit="10"/>
<path opacity="0.9" d="M150.2 37.1C150.2 39.1 150.2 41.1 150.2 43.1C150.4 41.4 152 40.1 153.7 40.3C155.4 40.5 156.5 42 156.5 43.5C154.5 43.5 152.5 43.5 150.5 43.5C152.3 43.7 153.5 45.3 153.3 47C153.1 48.7 151.6 49.8 150.1 49.8C150.1 47.8 150.1 45.8 150.1 43.8C149.9 45.5 148.3 46.8 146.6 46.6C144.9 46.4 143.7 44.9 143.8 43.4C145.8 43.4 147.8 43.4 149.8 43.4C148.9 43.3 148.2 42.9 147.7 42.2C147.1 41.5 146.9 40.7 147 39.9C147.2 38.2 148.7 37.1 150.2 37.1Z" stroke="white" stroke-width="0.5" stroke-miterlimit="10"/>
<path opacity="0.9" d="M173.8 37.1C173.8 39.1 173.8 41.1 173.8 43.1C174 41.4 175.6 40.1 177.3 40.3C179 40.5 180.1 42 180.1 43.5C178.1 43.5 176.1 43.5 174.1 43.5C175.9 43.7 177.1 45.3 176.9 47C176.7 48.7 175.2 49.8 173.7 49.8C173.7 47.8 173.7 45.8 173.7 43.8C173.5 45.5 171.9 46.8 170.2 46.6C168.5 46.4 167.3 44.9 167.4 43.4C169.4 43.4 171.4 43.4 173.4 43.4C172.5 43.3 171.8 42.9 171.3 42.2C170.7 41.5 170.5 40.7 170.6 39.9C170.8 38.2 172.3 37.1 173.8 37.1Z" stroke="white" stroke-width="0.5" stroke-miterlimit="10"/>
<path opacity="0.9" d="M197.5 37.1C197.5 39.1 197.5 41.1 197.5 43.1C197.7 41.4 199.3 40.1 201 40.3C202.7 40.5 203.8 42 203.8 43.5C201.8 43.5 199.8 43.5 197.8 43.5C199.6 43.7 200.8 45.3 200.6 47C200.4 48.7 198.9 49.8 197.4 49.8C197.4 47.8 197.4 45.8 197.4 43.8C197.2 45.5 195.6 46.8 193.9 46.6C192.2 46.4 191 44.9 191.1 43.4C193.1 43.4 195.1 43.4 197.1 43.4C196.2 43.3 195.5 42.9 195 42.2C194.4 41.5 194.2 40.7 194.3 39.9C194.5 38.2 196 37.1 197.5 37.1Z" stroke="white" stroke-width="0.5" stroke-miterlimit="10"/>
<path opacity="0.9" d="M221.3 37.1C221.3 39.1 221.3 41.1 221.3 43.1C221.5 41.4 223.1 40.1 224.8 40.3C226.5 40.5 227.6 42 227.6 43.5C225.6 43.5 223.6 43.5 221.6 43.5C223.4 43.7 224.6 45.3 224.4 47C224.2 48.7 222.7 49.8 221.2 49.8C221.2 47.8 221.2 45.8 221.2 43.8C221 45.5 219.4 46.8 217.7 46.6C216 46.4 214.8 44.9 214.9 43.4C216.9 43.4 218.9 43.4 220.9 43.4C220 43.3 219.3 42.9 218.8 42.2C218.2 41.5 218 40.7 218.1 39.9C218.3 38.2 219.8 37.1 221.3 37.1Z" stroke="white" stroke-width="0.5" stroke-miterlimit="10"/>
<path opacity="0.9" d="M244.9 37.1C244.9 39.1 244.9 41.1 244.9 43.1C245.1 41.4 246.7 40.1 248.4 40.3C250.1 40.5 251.2 42 251.2 43.5C249.2 43.5 247.2 43.5 245.2 43.5C247 43.7 248.2 45.3 248 47C247.8 48.7 246.3 49.8 244.8 49.8C244.8 47.8 244.8 45.8 244.8 43.8C244.6 45.5 243 46.8 241.3 46.6C239.6 46.4 238.4 44.9 238.5 43.4C240.5 43.4 242.5 43.4 244.5 43.4C243.6 43.3 242.9 42.9 242.4 42.2C241.8 41.5 241.6 40.7 241.7 39.9C241.9 38.2 243.4 37.1 244.9 37.1Z" stroke="white" stroke-width="0.5" stroke-miterlimit="10"/>
<path opacity="0.9" d="M268.2 37.1C268.2 39.1 268.2 41.1 268.2 43.1C268.4 41.4 270 40.1 271.7 40.3C273.4 40.5 274.5 42 274.5 43.5C272.5 43.5 270.5 43.5 268.5 43.5C270.3 43.7 271.5 45.3 271.3 47C271.1 48.7 269.6 49.8 268.1 49.8C268.1 47.8 268.1 45.8 268.1 43.8C267.9 45.5 266.3 46.8 264.6 46.6C262.9 46.4 261.7 44.9 261.8 43.4C263.8 43.4 265.8 43.4 267.8 43.4C266.9 43.3 266.2 42.9 265.7 42.2C265.1 41.5 264.9 40.7 265 39.9C265.2 38.2 266.7 37.1 268.2 37.1Z" stroke="white" stroke-width="0.5" stroke-miterlimit="10"/>
<path d="M28.3 27.2C28.3 27 28.3 26.9 28.3 26.7C28.3 26.6 28.3 26.4 28.3 26.2C28.3 26 28.4 25.9 28.4 25.7C28.4 25.6 28.5 25.4 28.6 25.3C28.7 25.2 28.8 25 28.8 24.9C28.9 24.8 29 24.7 29.2 24.7C29.3 24.6 29.5 24.6 29.7 24.6C29.9 24.6 30 24.6 30.2 24.7C30.3 24.8 30.5 24.8 30.6 24.9C30.7 25 30.8 25.1 30.8 25.3C30.9 25.4 30.9 25.6 31 25.7C31.1 25.8 31 26 31 26.2C31 26.4 31 26.5 31 26.7C31 26.8 31 27 31 27.2C31 27.3 31 27.5 31 27.6C31 27.7 31 27.8 31 28C31 28.1 31 28.3 31 28.4C31 28.5 31 28.6 30.9 28.7C30.9 28.8 30.8 28.9 30.8 29C30.8 29.1 30.7 29.2 30.7 29.3C30.7 29.4 30.6 29.5 30.5 29.5C30.4 29.6 30.4 29.6 30.3 29.7C30.2 29.8 30.1 29.8 30 29.8C29.9 29.8 29.8 29.8 29.6 29.8C29.4 29.8 29.3 29.8 29.1 29.7C29 29.6 28.8 29.6 28.7 29.5C28.6 29.4 28.5 29.3 28.5 29.1C28.4 29 28.4 28.8 28.3 28.7C28.2 28.6 28.2 28.4 28.2 28.2C28.2 28 28.2 27.8 28.2 27.7C28.3 27.5 28.3 27.4 28.3 27.2ZM28.9 27.2C28.9 27.4 28.9 27.6 28.9 27.7C28.9 27.8 28.9 28 28.9 28.2C28.9 28.4 28.9 28.5 29 28.6C29 28.7 29.1 28.8 29.1 28.9C29.2 29 29.2 29.1 29.3 29.1C29.4 29.1 29.5 29.2 29.6 29.2C29.7 29.2 29.8 29.2 29.9 29.1C30 29.1 30 29 30.1 28.9C30.2 28.8 30.2 28.7 30.2 28.6C30.2 28.5 30.3 28.4 30.3 28.3C30.3 28.2 30.3 28.1 30.4 27.9C30.4 27.8 30.4 27.6 30.4 27.5C30.4 27.4 30.4 27.2 30.4 27.1C30.4 27 30.4 26.8 30.4 26.7C30.4 26.6 30.4 26.4 30.4 26.3C30.4 26.2 30.4 26 30.3 25.9C30.3 25.8 30.2 25.7 30.2 25.6C30.2 25.5 30.1 25.4 30.1 25.3C30 25.2 30 25.2 29.9 25.1C29.8 25.1 29.7 25 29.6 25C29.5 25 29.4 25 29.3 25.1C29.2 25.1 29.2 25.2 29.1 25.3C29 25.4 29 25.5 29 25.6C29 25.7 28.9 25.8 28.9 25.9C28.9 26 28.9 26.1 28.8 26.3C28.8 26.4 28.8 26.6 28.8 26.7C28.9 26.9 28.9 27 28.9 27.2Z" fill="#868686"/>
<path d="M31.7 29.6C31.7 29.4 31.7 29.2 31.7 29C31.7 28.8 31.8 28.7 31.9 28.5C32 28.3 32.1 28.2 32.3 28C32.5 27.8 32.7 27.6 33 27.4C33.2 27.2 33.4 27 33.6 26.8C33.7 26.6 33.8 26.3 33.8 26C33.8 25.7 33.7 25.5 33.6 25.3C33.5 25.1 33.3 25.1 33 25.1C32.9 25.1 32.8 25.1 32.7 25.2C32.6 25.2 32.5 25.3 32.5 25.4C32.4 25.5 32.4 25.6 32.4 25.7C32.4 25.8 32.4 25.9 32.3 26C32.3 26.1 32.3 26.2 32.3 26.4H31.7V26.2C31.7 26 31.7 25.8 31.8 25.6C31.9 25.4 31.9 25.3 32 25.1C32.1 25 32.2 24.9 32.4 24.8C32.6 24.7 32.8 24.7 33 24.7C33.4 24.7 33.7 24.8 34 25.1C34.2 25.4 34.3 25.7 34.3 26.1C34.3 26.3 34.3 26.5 34.2 26.6C34.2 26.8 34.1 26.9 34 27C33.9 27.1 33.8 27.3 33.7 27.4C33.6 27.5 33.5 27.6 33.3 27.7C33.2 27.8 33.1 28 33 28C32.9 28.1 32.8 28.2 32.7 28.3C32.6 28.4 32.5 28.5 32.5 28.5C32.5 28.5 32.4 28.6 32.4 28.7C32.4 28.8 32.3 28.8 32.3 28.9C32.3 29 32.3 29 32.3 29.1H34.4V29.6H31.7V29.6Z" fill="#868686"/>
<path d="M52.3 27.2C52.3 27 52.3 26.9 52.3 26.7C52.3 26.6 52.3 26.4 52.3 26.2C52.3 26 52.4 25.9 52.4 25.7C52.4 25.6 52.5 25.4 52.6 25.3C52.7 25.2 52.8 25 52.8 24.9C52.9 24.8 53 24.7 53.2 24.7C53.3 24.6 53.5 24.6 53.7 24.6C53.9 24.6 54 24.6 54.2 24.7C54.3 24.8 54.5 24.8 54.6 24.9C54.7 25 54.8 25.1 54.8 25.3C54.9 25.4 54.9 25.6 55 25.7C55.1 25.8 55 26 55 26.2C55 26.4 55 26.5 55 26.7C55 26.8 55 27 55 27.2C55 27.3 55 27.5 55 27.6C55 27.7 55 27.8 55 28C55 28.1 55 28.3 55 28.4C55 28.5 55 28.6 54.9 28.7C54.8 28.8 54.8 28.9 54.8 29C54.8 29.1 54.7 29.2 54.7 29.3C54.7 29.4 54.6 29.5 54.5 29.5C54.4 29.6 54.4 29.6 54.3 29.7C54.2 29.8 54.1 29.8 54 29.8C53.9 29.8 53.8 29.8 53.6 29.8C53.4 29.8 53.3 29.8 53.1 29.7C53 29.6 52.8 29.6 52.7 29.5C52.6 29.4 52.5 29.3 52.5 29.1C52.4 29 52.4 28.8 52.3 28.7C52.2 28.6 52.2 28.4 52.2 28.2C52.2 28 52.2 27.8 52.2 27.7C52.3 27.5 52.3 27.4 52.3 27.2ZM52.9 27.2C52.9 27.4 52.9 27.6 52.9 27.7C52.9 27.8 52.9 28 52.9 28.2C52.9 28.4 52.9 28.5 53 28.6C53 28.7 53.1 28.8 53.1 28.9C53.2 29 53.2 29.1 53.3 29.1C53.4 29.2 53.5 29.2 53.6 29.2C53.7 29.2 53.8 29.2 53.9 29.1C54 29.1 54 29 54.1 28.9C54.2 28.8 54.2 28.7 54.2 28.6C54.2 28.5 54.3 28.4 54.3 28.3C54.3 28.2 54.3 28.1 54.4 27.9C54.4 27.8 54.4 27.6 54.4 27.5C54.4 27.4 54.4 27.2 54.4 27.1C54.4 27 54.4 26.8 54.4 26.7C54.4 26.6 54.4 26.4 54.4 26.3C54.4 26.2 54.4 26 54.3 25.9C54.3 25.8 54.2 25.7 54.2 25.6C54.2 25.5 54.1 25.4 54.1 25.3C54 25.2 54 25.2 53.9 25.1C53.8 25.1 53.7 25 53.6 25C53.5 25 53.4 25 53.3 25.1C53.2 25.1 53.2 25.2 53.1 25.3C53 25.4 53 25.5 53 25.6C53 25.7 52.9 25.8 52.9 25.9C52.9 26 52.9 26.1 52.8 26.3C52.8 26.4 52.8 26.6 52.8 26.7C52.9 26.9 52.9 27 52.9 27.2Z" fill="#868686"/>
<path d="M55.5 28.4V27.9L57.4 24.6H57.9V27.9H58.3V28.4H57.9V29.7H57.3V28.4H55.5ZM56 27.9H57.4V25.5L56 27.9Z" fill="#868686"/>
<path d="M76.3 27.2C76.3 27 76.3 26.9 76.3 26.7C76.3 26.6 76.3 26.4 76.3 26.2C76.3 26 76.4 25.9 76.4 25.7C76.4 25.6 76.5 25.4 76.6 25.3C76.7 25.2 76.8 25 76.8 24.9C76.9 24.8 77 24.7 77.2 24.7C77.3 24.6 77.5 24.6 77.7 24.6C77.9 24.6 78 24.6 78.2 24.7C78.3 24.8 78.5 24.8 78.6 24.9C78.7 25 78.8 25.1 78.8 25.3C78.9 25.4 78.9 25.6 79 25.7C79.1 25.8 79 26 79 26.2C79 26.4 79 26.5 79 26.7C79 26.8 79 27 79 27.2C79 27.3 79 27.5 79 27.6C79 27.7 79 27.8 79 28C79 28.1 79 28.3 79 28.4C79 28.5 79 28.6 78.9 28.7C78.8 28.8 78.8 28.9 78.8 29C78.8 29.1 78.7 29.2 78.7 29.3C78.7 29.4 78.6 29.5 78.5 29.5C78.4 29.6 78.4 29.6 78.3 29.7C78.2 29.8 78.1 29.8 78 29.8C77.9 29.8 77.8 29.8 77.6 29.8C77.4 29.8 77.3 29.8 77.1 29.7C77 29.6 76.8 29.6 76.7 29.5C76.6 29.4 76.5 29.3 76.5 29.1C76.4 29 76.4 28.8 76.3 28.7C76.3 28.6 76.2 28.4 76.2 28.2C76.2 28 76.2 27.8 76.2 27.7C76.3 27.5 76.3 27.4 76.3 27.2ZM76.9 27.2C76.9 27.4 76.9 27.6 76.9 27.7C76.9 27.8 76.9 28 76.9 28.2C76.9 28.4 76.9 28.5 77 28.6C77 28.7 77.1 28.8 77.1 28.9C77.2 29 77.2 29.1 77.3 29.1C77.4 29.1 77.5 29.2 77.6 29.2C77.7 29.2 77.8 29.2 77.9 29.1C78 29.1 78 29 78.1 28.9C78.2 28.8 78.2 28.7 78.2 28.6C78.2 28.5 78.3 28.4 78.3 28.3C78.3 28.2 78.3 28.1 78.4 27.9C78.4 27.8 78.4 27.6 78.4 27.5C78.4 27.4 78.4 27.2 78.4 27.1C78.4 27 78.4 26.8 78.4 26.7C78.4 26.6 78.4 26.4 78.4 26.3C78.4 26.2 78.4 26 78.3 25.9C78.3 25.8 78.2 25.7 78.2 25.6C78.2 25.5 78.1 25.4 78.1 25.3C78 25.2 78 25.2 77.9 25.1C77.8 25.1 77.7 25 77.6 25C77.5 25 77.4 25 77.3 25.1C77.2 25.1 77.2 25.2 77.1 25.3C77 25.4 77 25.5 77 25.6C77 25.7 76.9 25.8 76.9 25.9C76.9 26 76.9 26.1 76.8 26.3C76.8 26.4 76.8 26.6 76.8 26.7C76.9 26.9 76.9 27 76.9 27.2Z" fill="#868686"/>
<path d="M79.6 27.4C79.6 27.2 79.6 27 79.6 26.9C79.6 26.8 79.6 26.6 79.7 26.4C79.7 26.2 79.8 26 79.8 25.9C79.8 25.8 79.9 25.6 79.9 25.4C80 25.2 80.1 25.1 80.2 25C80.3 24.9 80.4 24.8 80.6 24.7C80.8 24.6 80.9 24.6 81.1 24.6C81.4 24.6 81.7 24.7 81.9 24.9C82.1 25.1 82.2 25.4 82.2 25.8H81.6C81.6 25.5 81.5 25.4 81.4 25.3C81.3 25.2 81.1 25.1 80.9 25.1C80.8 25.1 80.7 25.1 80.6 25.2C80.5 25.3 80.5 25.3 80.4 25.4C80.3 25.5 80.3 25.6 80.3 25.7C80.3 25.8 80.2 26 80.2 26.2C80.2 26.4 80.1 26.5 80.1 26.6C80.1 26.6 80.1 26.7 80.1 26.8C80.1 26.9 80.1 27 80.1 27.1C80.2 26.9 80.3 26.7 80.5 26.6C80.7 26.5 80.9 26.4 81 26.4C81.2 26.4 81.4 26.4 81.6 26.5C81.8 26.6 81.9 26.7 82 26.8C82.1 26.9 82.2 27.1 82.2 27.3C82.3 27.5 82.3 27.7 82.3 27.9C82.3 28.4 82.2 28.9 81.9 29.2C81.6 29.5 81.3 29.7 80.9 29.7C80.8 29.7 80.6 29.7 80.5 29.7C80.4 29.7 80.3 29.6 80.2 29.6C80.1 29.5 80 29.5 80 29.4C79.9 29.3 79.9 29.2 79.8 29.1C79.8 29 79.7 28.9 79.7 28.8C79.7 28.7 79.6 28.6 79.6 28.5C79.6 28.4 79.6 28.3 79.6 28.1C79.6 28 79.6 27.8 79.6 27.7C79.6 27.7 79.6 27.5 79.6 27.4ZM80.2 28C80.2 28.5 80.3 28.8 80.4 29C80.5 29.2 80.7 29.3 81 29.3C81.2 29.3 81.3 29.3 81.4 29.2C81.5 29.1 81.6 29 81.6 28.9C81.7 28.8 81.7 28.6 81.7 28.5C81.7 28.4 81.7 28.2 81.7 28.1C81.7 27.4 81.4 27 80.9 27C80.5 26.9 80.2 27.3 80.2 28Z" fill="#868686"/>
<path d="M100.3 27.2C100.3 27 100.3 26.9 100.3 26.7C100.3 26.6 100.3 26.4 100.3 26.2C100.3 26 100.4 25.9 100.4 25.7C100.4 25.6 100.5 25.4 100.6 25.3C100.7 25.2 100.8 25 100.8 24.9C100.9 24.8 101 24.7 101.2 24.7C101.3 24.6 101.5 24.6 101.7 24.6C101.9 24.6 102 24.6 102.2 24.7C102.3 24.8 102.5 24.8 102.6 24.9C102.7 25 102.8 25.1 102.8 25.3C102.9 25.4 102.9 25.6 103 25.7C103.1 25.8 103.1 26 103.1 26.2C103.1 26.4 103.1 26.5 103.1 26.7C103.1 26.8 103.1 27 103.1 27.2C103.1 27.3 103.1 27.5 103.1 27.6C103.1 27.7 103.1 27.8 103.1 28C103.1 28.1 103.1 28.3 103.1 28.4C103.1 28.5 103.1 28.6 103 28.7C103 28.8 102.9 28.9 102.9 29C102.9 29.1 102.8 29.2 102.8 29.3C102.8 29.4 102.7 29.5 102.6 29.5C102.5 29.6 102.5 29.6 102.4 29.7C102.3 29.8 102.2 29.8 102.1 29.8C102 29.8 101.9 29.8 101.7 29.8C101.5 29.8 101.4 29.8 101.2 29.7C101.1 29.6 100.9 29.6 100.8 29.5C100.7 29.4 100.6 29.3 100.6 29.1C100.5 29 100.5 28.8 100.4 28.7C100.3 28.6 100.3 28.4 100.3 28.2C100.3 28 100.3 27.8 100.3 27.7C100.3 27.5 100.3 27.4 100.3 27.2ZM100.9 27.2C100.9 27.4 100.9 27.6 100.9 27.7C100.9 27.8 100.9 28 100.9 28.2C100.9 28.4 100.9 28.5 101 28.6C101 28.7 101.1 28.8 101.1 28.9C101.2 29 101.2 29.1 101.3 29.1C101.4 29.2 101.5 29.2 101.6 29.2C101.7 29.2 101.8 29.2 101.9 29.1C102 29.1 102 29 102.1 28.9C102.2 28.8 102.2 28.7 102.2 28.6C102.2 28.5 102.3 28.4 102.3 28.3C102.3 28.2 102.3 28.1 102.4 27.9C102.4 27.8 102.4 27.6 102.4 27.5C102.4 27.4 102.4 27.2 102.4 27.1C102.4 27 102.4 26.8 102.4 26.7C102.4 26.6 102.4 26.4 102.4 26.3C102.4 26.2 102.4 26 102.3 25.9C102.3 25.8 102.2 25.7 102.2 25.6C102.2 25.5 102.1 25.4 102.1 25.3C102 25.2 102 25.2 101.9 25.1C101.8 25.1 101.7 25 101.6 25C101.5 25 101.4 25 101.3 25.1C101.2 25.1 101.2 25.2 101.1 25.3C101 25.4 101 25.5 101 25.6C101 25.7 100.9 25.8 100.9 25.9C100.9 26 100.9 26.1 100.8 26.3C100.8 26.4 100.8 26.6 100.8 26.7C100.9 26.9 100.9 27 100.9 27.2Z" fill="#868686"/>
<path d="M103.6 28.2C103.6 28 103.6 27.8 103.7 27.7C103.8 27.5 103.8 27.4 103.9 27.3C104 27.2 104.1 27.1 104.2 27C104.3 26.9 104.4 26.9 104.5 26.9C104.2 26.8 104 26.7 103.9 26.5C103.8 26.3 103.7 26.1 103.7 25.8C103.7 25.7 103.7 25.5 103.8 25.4C103.8 25.3 103.9 25.1 104 25C104.1 24.9 104.2 24.8 104.4 24.7C104.6 24.6 104.7 24.6 105 24.6C105.2 24.6 105.3 24.6 105.5 24.7C105.6 24.7 105.8 24.8 105.8 24.9C105.9 25 106 25.1 106 25.2C106.1 25.3 106.1 25.4 106.1 25.5C106.1 25.6 106.1 25.7 106.1 25.9C106.1 26.2 106 26.4 105.9 26.6C105.8 26.8 105.6 26.9 105.3 27C105.6 27 105.8 27.2 105.9 27.4C106.1 27.6 106.2 27.9 106.2 28.3C106.2 28.8 106.1 29.2 105.8 29.4C105.6 29.7 105.2 29.8 104.8 29.8C104.3 29.8 104 29.7 103.8 29.4C103.7 29.1 103.6 28.7 103.6 28.2ZM104.2 28.2C104.2 28.4 104.2 28.5 104.2 28.6C104.2 28.7 104.3 28.8 104.3 28.9C104.4 29 104.4 29.1 104.5 29.1C104.6 29.2 104.7 29.2 104.9 29.2C105 29.2 105.1 29.2 105.2 29.1C105.3 29.1 105.4 29 105.4 29C105.5 28.9 105.5 28.9 105.5 28.8C105.5 28.7 105.6 28.6 105.6 28.5C105.6 28.4 105.6 28.3 105.6 28.2C105.6 28.1 105.6 27.9 105.6 27.8C105.6 27.7 105.5 27.6 105.5 27.5C105.4 27.4 105.4 27.3 105.3 27.3C105.2 27.2 105.1 27.2 104.9 27.2C104.7 27.2 104.6 27.3 104.4 27.4C104.3 27.5 104.2 27.6 104.1 27.8C104.2 27.9 104.2 28 104.2 28.2ZM104.4 25.9C104.4 26.2 104.5 26.4 104.6 26.5C104.7 26.6 104.9 26.7 105.1 26.7C105.5 26.7 105.7 26.4 105.7 25.9C105.7 25.7 105.6 25.5 105.5 25.3C105.4 25.2 105.2 25.1 105 25.1C104.6 25.1 104.4 25.4 104.4 25.9Z" fill="#868686"/>
<path d="M123.8 26V25.6C124 25.6 124.2 25.6 124.3 25.6C124.4 25.6 124.5 25.5 124.6 25.5C124.7 25.4 124.8 25.3 124.8 25.2C124.9 25.1 124.9 24.9 124.9 24.7H125.3V29.7H124.7V26H123.8Z" fill="#868686"/>
<path d="M127 27.2C127 27 127 26.9 127 26.7C127 26.6 127 26.4 127 26.2C127 26 127.1 25.9 127.1 25.7C127.1 25.6 127.2 25.4 127.3 25.3C127.4 25.2 127.5 25 127.5 24.9C127.6 24.8 127.7 24.7 127.9 24.7C128 24.6 128.2 24.6 128.4 24.6C128.6 24.6 128.7 24.6 128.9 24.7C129 24.8 129.2 24.8 129.3 24.9C129.4 25 129.5 25.1 129.5 25.3C129.6 25.4 129.6 25.6 129.7 25.7C129.7 25.8 129.8 26 129.8 26.2C129.8 26.4 129.8 26.5 129.8 26.7C129.8 26.8 129.8 27 129.8 27.2C129.8 27.3 129.8 27.5 129.8 27.6C129.8 27.7 129.8 27.8 129.8 28C129.8 28.1 129.8 28.3 129.8 28.4C129.8 28.5 129.8 28.6 129.7 28.7C129.6 28.8 129.6 28.9 129.6 29C129.6 29.1 129.5 29.2 129.5 29.3C129.5 29.4 129.4 29.5 129.3 29.5C129.2 29.6 129.2 29.6 129.1 29.7C129 29.8 128.9 29.8 128.8 29.8C128.7 29.8 128.6 29.8 128.4 29.8C128.2 29.8 128.1 29.8 127.9 29.7C127.8 29.6 127.6 29.6 127.5 29.5C127.4 29.4 127.3 29.3 127.3 29.1C127.2 29 127.2 28.8 127.1 28.7C127 28.6 127 28.4 127 28.2C127 28 127 27.8 127 27.7C127 27.5 127 27.4 127 27.2ZM127.6 27.2C127.6 27.4 127.6 27.6 127.6 27.7C127.6 27.8 127.6 28 127.6 28.2C127.6 28.4 127.6 28.5 127.7 28.6C127.7 28.7 127.8 28.8 127.8 28.9C127.9 29 127.9 29.1 128 29.1C128.1 29.2 128.2 29.2 128.3 29.2C128.4 29.2 128.5 29.2 128.6 29.1C128.7 29.1 128.7 29 128.8 28.9C128.9 28.8 128.9 28.7 128.9 28.6C128.9 28.5 129 28.4 129 28.3C129 28.2 129 28.1 129.1 27.9C129.1 27.8 129.1 27.6 129.1 27.5C129.1 27.4 129.1 27.2 129.1 27.1C129.1 27 129.1 26.8 129.1 26.7C129.1 26.6 129.1 26.4 129.1 26.3C129.1 26.2 129.1 26 129 25.9C129 25.8 128.9 25.7 128.9 25.6C128.9 25.5 128.8 25.4 128.8 25.3C128.7 25.2 128.7 25.2 128.6 25.1C128.5 25.1 128.4 25 128.3 25C128.2 25 128.1 25 128 25.1C127.9 25.1 127.9 25.2 127.8 25.3C127.7 25.4 127.7 25.5 127.7 25.6C127.7 25.7 127.6 25.8 127.6 25.9C127.6 26 127.6 26.1 127.5 26.3C127.5 26.4 127.5 26.6 127.5 26.7C127.6 26.9 127.6 27 127.6 27.2Z" fill="#868686"/>
<path d="M28.3 82.4C28.3 82.2 28.3 82.1 28.3 81.9C28.3 81.8 28.3 81.6 28.3 81.4C28.3 81.2 28.4 81.1 28.4 80.9C28.4 80.8 28.5 80.6 28.6 80.5C28.7 80.4 28.8 80.2 28.8 80.1C28.9 80 29.0001 79.9 29.2001 79.9C29.3001 79.8 29.5001 79.8 29.7001 79.8C29.9001 79.8 30.0001 79.8 30.2001 79.9C30.3001 80 30.5 80 30.6 80.1C30.7 80.2 30.8 80.3 30.8 80.5C30.9 80.6 30.9 80.8 31 80.9C31 81 31.1 81.2 31.1 81.4C31.1 81.6 31.1 81.7 31.1 81.9C31.1 82 31.1 82.2 31.1 82.4C31.1 82.5 31.1 82.7 31.1 82.8C31.1 82.9 31.1 83 31.1 83.2C31.1 83.3 31.1 83.5 31.1 83.6C31.1 83.7 31.1 83.8 31 83.9C31 84 30.9 84.1 30.9 84.2C30.9 84.3 30.8 84.4 30.8 84.5C30.8 84.6 30.7 84.7 30.6 84.7C30.5 84.8 30.5 84.8 30.4 84.9C30.3 85 30.2 85 30.1 85C30 85 29.9001 85 29.7001 85C29.5001 85 29.4001 85 29.2001 84.9C29.1001 84.8 28.9 84.8 28.8 84.7C28.7 84.6 28.6 84.5 28.6 84.3C28.5 84.2 28.5 84 28.4 83.9C28.4 83.8 28.3 83.6 28.3 83.4C28.3 83.2 28.3 83 28.3 82.9C28.3 82.7 28.3 82.5 28.3 82.4ZM28.9 82.4C28.9 82.6 28.9 82.8 28.9 82.9C28.9 83 28.9 83.2 28.9 83.4C28.9 83.6 28.9 83.7 29 83.8C29 83.9 29.1 84 29.1 84.1C29.2 84.2 29.2 84.3 29.3 84.3C29.4 84.3 29.5 84.4 29.6 84.4C29.7 84.4 29.8 84.4 29.9 84.3C30 84.2 30 84.2 30.1 84.1C30.2 84 30.2001 83.9 30.2001 83.8C30.2001 83.7 30.3 83.6 30.3 83.5C30.3 83.4 30.3 83.3 30.4 83.1C30.4 83 30.4 82.8 30.4 82.7C30.4 82.6 30.4 82.4 30.4 82.3C30.4 82.2 30.4 82 30.4 81.9C30.4 81.8 30.4 81.6 30.4 81.5C30.4 81.4 30.4 81.2 30.3 81.1C30.3 81 30.2001 80.9 30.2001 80.8C30.2001 80.7 30.1 80.6 30.1 80.5C30 80.4 30 80.4 29.9 80.3C29.8 80.3 29.7 80.2 29.6 80.2C29.5 80.2 29.4 80.2 29.3 80.3C29.2 80.3 29.2 80.4 29.1 80.5C29 80.6 29 80.7 29 80.8C29 80.9 28.9 81 28.9 81.1C28.9 81.2 28.9 81.3 28.8 81.5C28.8 81.6 28.8 81.8 28.8 81.9C28.9 82.1 28.9 82.2 28.9 82.4Z" fill="#868686"/>
<path d="M31.9 81.2V80.8C32.1 80.8 32.3 80.8 32.4 80.8C32.5 80.8 32.6 80.7 32.7 80.7C32.8 80.6 32.9 80.5 32.9 80.4C33 80.1 33 80 33 79.8H33.4V84.8H32.8V81.1H31.9V81.2Z" fill="#868686"/>
<path d="M52.3 82.4C52.3 82.2 52.3 82.1 52.3 81.9C52.3 81.8 52.3 81.6 52.3 81.4C52.3 81.2 52.4001 81.1 52.4001 80.9C52.4001 80.8 52.5 80.6 52.6 80.5C52.7 80.4 52.8 80.2 52.8 80.1C52.9 80 53.0001 79.9 53.2001 79.9C53.3001 79.8 53.5001 79.8 53.7001 79.8C53.9001 79.8 54.0001 79.8 54.2001 79.9C54.3001 80 54.5 80 54.6 80.1C54.7 80.2 54.8 80.3 54.8 80.5C54.9 80.6 54.9 80.8 55 80.9C55 81 55.1 81.2 55.1 81.4C55.1 81.6 55.1 81.7 55.1 81.9C55.1 82 55.1 82.2 55.1 82.4C55.1 82.5 55.1 82.7 55.1 82.8C55.1 82.9 55.1 83 55.1 83.2C55.1 83.3 55.1 83.5 55.1 83.6C55.1 83.7 55.1 83.8 55 83.9C54.9 84 54.9001 84.1 54.9001 84.2C54.9001 84.3 54.8 84.4 54.8 84.5C54.8 84.6 54.7 84.7 54.6 84.7C54.5 84.8 54.5001 84.8 54.4001 84.9C54.3001 85 54.2 85 54.1 85C54 85 53.9001 85 53.7001 85C53.5001 85 53.4001 85 53.2001 84.9C53.1001 84.8 52.9 84.8 52.8 84.7C52.7 84.6 52.6 84.5 52.6 84.3C52.5 84.2 52.5001 84 52.4001 83.9C52.4001 83.8 52.3 83.6 52.3 83.4C52.3 83.2 52.3 83 52.3 82.9C52.3 82.8 52.3 82.5 52.3 82.4ZM52.9001 82.4C52.9001 82.6 52.9001 82.8 52.9001 82.9C52.9001 83 52.9001 83.2 52.9001 83.4C52.9001 83.6 52.9 83.7 53 83.8C53 83.9 53.1 84 53.1 84.1C53.1 84.2 53.2 84.3 53.3 84.3C53.4 84.4 53.5 84.4 53.6 84.4C53.7 84.4 53.8001 84.4 53.9001 84.3C54.0001 84.2 54 84.2 54.1 84.1C54.2 84 54.2001 83.9 54.2001 83.8C54.2001 83.7 54.3 83.6 54.3 83.5C54.3 83.4 54.3001 83.3 54.4001 83.1C54.4001 83 54.4001 82.8 54.4001 82.7C54.4001 82.6 54.4001 82.4 54.4001 82.3C54.4001 82.2 54.4001 82 54.4001 81.9C54.4001 81.8 54.4001 81.6 54.4001 81.5C54.4001 81.4 54.4 81.2 54.3 81.1C54.3 81 54.2001 80.9 54.2001 80.8C54.2001 80.7 54.1 80.6 54.1 80.5C54.1 80.4 54.0001 80.4 53.9001 80.3C53.8001 80.3 53.7 80.2 53.6 80.2C53.5 80.2 53.4 80.2 53.3 80.3C53.2 80.3 53.2 80.4 53.1 80.5C53 80.6 53 80.7 53 80.8C53 80.9 52.9001 81 52.9001 81.1C52.9001 81.2 52.9 81.3 52.8 81.5C52.8 81.6 52.8 81.8 52.8 81.9C52.9 82.1 52.9001 82.2 52.9001 82.4Z" fill="#868686"/>
<path d="M55.6 83.3H56.2C56.2 83.4 56.2 83.5 56.2 83.6C56.2 83.7 56.2 83.8 56.3 83.9C56.3 84 56.4 84.1 56.4 84.1C56.5 84.2 56.5 84.2 56.6 84.3C56.7 84.3 56.8 84.4 56.9 84.4C57.2 84.4 57.4 84.3 57.5 84.2C57.6 84 57.7 83.8 57.7 83.5C57.7 83.3 57.7 83.1 57.6 83C57.6 82.9 57.5 82.8 57.4 82.7C57.3 82.6 57.2 82.6 57 82.5C56.9 82.5 56.7 82.5 56.5 82.5V82C56.9 82 57.1 81.9 57.3 81.8C57.5 81.7 57.6 81.5 57.6 81.1C57.6 80.6 57.4 80.3 56.9 80.3C56.8 80.3 56.7 80.3 56.6 80.4C56.5 80.5 56.4 80.5 56.4 80.6C56.3 80.7 56.3 80.8 56.3 80.9C56.3 81 56.3 81.1 56.3 81.3H55.8C55.8 80.9 55.9 80.5 56.1 80.2C56.3 79.9 56.6 79.8 57 79.8C57.4 79.8 57.7 79.9 57.9 80.1C58.1 80.3 58.2 80.6 58.2 81C58.2 81.3 58.1 81.5 58 81.7C57.9 81.9 57.7 82 57.4 82.1C57.7 82.2 57.9 82.3 58.1 82.5C58.2 82.7 58.3 83 58.3 83.3C58.3 83.7 58.2 84.1 58 84.4C57.8 84.7 57.4 84.8 57 84.8C56.8 84.8 56.6 84.8 56.4 84.7C56.2 84.6 56.1 84.5 56 84.4C55.9 84.3 55.8 84.1 55.8 83.9C55.8 83.7 55.6 83.6 55.6 83.3Z" fill="#868686"/>
<path d="M76.3 82.4C76.3 82.2 76.3 82.1 76.3 81.9C76.3 81.8 76.3 81.6 76.3 81.4C76.3 81.2 76.4 81.1 76.4 80.9C76.4 80.8 76.5 80.6 76.6 80.5C76.7 80.4 76.8 80.2 76.8 80.1C76.9 80 77 79.9 77.2 79.9C77.3 79.8 77.5 79.8 77.7 79.8C77.9 79.8 78 79.8 78.2 79.9C78.3 80 78.5 80 78.6 80.1C78.7 80.2 78.8 80.3 78.8 80.5C78.9 80.6 78.9 80.8 79 80.9C79 81 79.1 81.2 79.1 81.4C79.1 81.6 79.1 81.7 79.1 81.9C79.1 82 79.1 82.2 79.1 82.4C79.1 82.5 79.1 82.7 79.1 82.8C79.1 82.9 79.1 83 79.1 83.2C79.1 83.3 79.1 83.5 79.1 83.6C79.1 83.7 79.1 83.8 79 83.9C78.9 84 78.9 84.1 78.9 84.2C78.9 84.3 78.8 84.4 78.8 84.5C78.8 84.6 78.7 84.7 78.6 84.7C78.5 84.8 78.5 84.8 78.4 84.9C78.3 85 78.2 85 78.1 85C78 85 77.9 85 77.7 85C77.5 85 77.4 85 77.2 84.9C77.1 84.8 76.9 84.8 76.8 84.7C76.7 84.6 76.6 84.5 76.6 84.3C76.5 84.2 76.5 84 76.4 83.9C76.4 83.8 76.3 83.6 76.3 83.4C76.3 83.2 76.3 83 76.3 82.9C76.3 82.8 76.3 82.5 76.3 82.4ZM76.9 82.4C76.9 82.6 76.9 82.8 76.9 82.9C76.9 83 76.9 83.2 76.9 83.4C76.9 83.6 76.9 83.7 77 83.8C77 83.9 77.1 84 77.1 84.1C77.2 84.2 77.2 84.3 77.3 84.3C77.4 84.3 77.5 84.4 77.6 84.4C77.7 84.4 77.8 84.4 77.9 84.3C78 84.3 78 84.2 78.1 84.1C78.2 84 78.2 83.9 78.2 83.8C78.2 83.7 78.3 83.6 78.3 83.5C78.3 83.4 78.3 83.3 78.4 83.1C78.4 83 78.4 82.8 78.4 82.7C78.4 82.6 78.4 82.4 78.4 82.3C78.4 82.2 78.4 82 78.4 81.9C78.4 81.8 78.4 81.6 78.4 81.5C78.4 81.4 78.4 81.2 78.3 81.1C78.3 81 78.2 80.9 78.2 80.8C78.2 80.7 78.1 80.6 78.1 80.5C78 80.4 78 80.4 77.9 80.3C77.8 80.3 77.7 80.2 77.6 80.2C77.5 80.2 77.4 80.2 77.3 80.3C77.2 80.3 77.2 80.4 77.1 80.5C77 80.6 77 80.7 77 80.8C77 80.9 76.9 81 76.9 81.1C76.9 81.2 76.9 81.3 76.8 81.5C76.8 81.6 76.8 81.8 76.8 81.9C76.9 82.1 76.9 82.2 76.9 82.4Z" fill="#868686"/>
<path d="M79.7001 83.5H80.3001C80.3001 83.8 80.4001 84 80.5001 84.2C80.6001 84.4 80.8001 84.4 81.1001 84.4C81.2001 84.4 81.4001 84.4 81.5001 84.3C81.6001 84.2 81.7001 84.1 81.8001 84C81.9001 83.9 81.9001 83.8 81.9001 83.6C81.9001 83.5 81.9001 83.3 81.9001 83.1C81.9001 83 81.9001 82.9 81.9001 82.8C81.9001 82.7 81.9001 82.6 81.8001 82.5C81.7001 82.4 81.7001 82.3 81.7001 82.2C81.6001 82.1 81.6001 82.1 81.5001 82C81.4001 82 81.3001 81.9 81.1001 81.9C80.8001 81.9 80.5001 82.1 80.4001 82.4H79.9001L80.2001 79.8H82.3001V80.3H80.6001L80.4001 81.8C80.5001 81.7 80.7001 81.6 80.8001 81.5C80.9001 81.4 81.1001 81.4 81.2001 81.4C81.4001 81.4 81.6001 81.4 81.8001 81.5C82.0001 81.6 82.1001 81.7 82.2001 81.9C82.3001 82.1 82.4001 82.2 82.4001 82.4C82.4001 82.6 82.5001 82.8 82.5001 83C82.5001 83.2 82.5001 83.4 82.5001 83.5C82.5001 83.7 82.4001 83.8 82.4001 84C82.4001 84.2 82.2001 84.3 82.1001 84.4C82.0001 84.5 81.9001 84.6 81.7001 84.7C81.5001 84.8 81.4001 84.8 81.2001 84.8C80.8001 84.8 80.4001 84.7 80.2001 84.4C79.8001 84.3 79.7001 84 79.7001 83.5Z" fill="#868686"/>
<path d="M100.3 82.4C100.3 82.2 100.3 82.1 100.3 81.9C100.3 81.8 100.3 81.6 100.3 81.4C100.3 81.2 100.4 81.1 100.4 80.9C100.4 80.8 100.5 80.6 100.6 80.5C100.7 80.4 100.8 80.2 100.8 80.1C100.9 80 101 79.9 101.2 79.9C101.3 79.8 101.5 79.8 101.7 79.8C101.9 79.8 102 79.8 102.2 79.9C102.3 80 102.5 80 102.6 80.1C102.7 80.2 102.8 80.3 102.8 80.5C102.9 80.6 102.9 80.8 103 80.9C103 81 103.1 81.2 103.1 81.4C103.1 81.6 103.1 81.7 103.1 81.9C103.1 82 103.1 82.2 103.1 82.4C103.1 82.5 103.1 82.7 103.1 82.8C103.1 82.9 103.1 83 103.1 83.2C103.1 83.3 103.1 83.5 103.1 83.6C103.1 83.7 103.1 83.8 103 83.9C103 84 102.9 84.1 102.9 84.2C102.9 84.3 102.8 84.4 102.8 84.5C102.8 84.6 102.7 84.7 102.6 84.7C102.5 84.8 102.5 84.8 102.4 84.9C102.3 85 102.2 85 102.1 85C102 85 101.9 85 101.7 85C101.5 85 101.4 85 101.2 84.9C101.1 84.8 100.9 84.8 100.8 84.7C100.7 84.6 100.6 84.5 100.6 84.3C100.5 84.2 100.5 84 100.4 83.9C100.4 83.8 100.3 83.6 100.3 83.4C100.3 83.2 100.3 83 100.3 82.9C100.3 82.8 100.3 82.5 100.3 82.4ZM100.9 82.4C100.9 82.6 100.9 82.8 100.9 82.9C100.9 83 100.9 83.2 100.9 83.4C100.9 83.6 100.9 83.7 101 83.8C101 83.9 101.1 84 101.1 84.1C101.1 84.2 101.2 84.3 101.3 84.3C101.4 84.4 101.5 84.4 101.6 84.4C101.7 84.4 101.8 84.4 101.9 84.3C102 84.2 102 84.2 102.1 84.1C102.2 84 102.2 83.9 102.2 83.8C102.2 83.7 102.3 83.6 102.3 83.5C102.3 83.4 102.3 83.3 102.4 83.1C102.4 83 102.4 82.8 102.4 82.7C102.4 82.6 102.4 82.4 102.4 82.3C102.4 82.2 102.4 82 102.4 81.9C102.4 81.8 102.4 81.6 102.4 81.5C102.4 81.4 102.4 81.2 102.3 81.1C102.3 81 102.2 80.9 102.2 80.8C102.2 80.7 102.1 80.6 102.1 80.5C102 80.4 102 80.4 101.9 80.3C101.8 80.3 101.7 80.2 101.6 80.2C101.5 80.2 101.4 80.2 101.3 80.3C101.2 80.3 101.2 80.4 101.1 80.5C101 80.6 101 80.7 101 80.8C101 80.9 100.9 81 100.9 81.1C100.9 81.2 100.9 81.3 100.8 81.5C100.8 81.6 100.8 81.8 100.8 81.9C100.9 82.1 100.9 82.2 100.9 82.4Z" fill="#868686"/>
<path d="M103.6 80.4V79.9H106.4V80.4C105.9 81 105.5 81.7 105.3 82.5C105 83.3 104.8 84 104.8 84.9H104.2C104.3 84.1 104.5 83.3 104.8 82.6C105.1 81.8 105.5 81.1 106 80.5H103.6V80.4Z" fill="#868686"/>
<path d="M123.6 82.4C123.6 82.2 123.6 82.1 123.6 81.9C123.6 81.8 123.6 81.6 123.6 81.4C123.6 81.2 123.7 81.1 123.7 80.9C123.7 80.8 123.8 80.6 123.9 80.5C124 80.4 124.1 80.2 124.1 80.1C124.2 80 124.3 79.9 124.5 79.9C124.6 79.8 124.8 79.8 125 79.8C125.2 79.8 125.3 79.8 125.5 79.9C125.6 80 125.8 80 125.9 80.1C126 80.2 126.1 80.3 126.1 80.5C126.2 80.6 126.2 80.8 126.3 80.9C126.3 81 126.4 81.2 126.4 81.4C126.4 81.6 126.4 81.7 126.4 81.9C126.4 82 126.4 82.2 126.4 82.4C126.4 82.5 126.4 82.7 126.4 82.8C126.4 82.9 126.4 83 126.4 83.2C126.4 83.3 126.4 83.5 126.4 83.6C126.4 83.7 126.4 83.8 126.3 83.9C126.3 84 126.2 84.1 126.2 84.2C126.2 84.3 126.1 84.4 126.1 84.5C126.1 84.6 126 84.7 125.9 84.7C125.8 84.8 125.8 84.8 125.7 84.9C125.6 85 125.5 85 125.4 85C125.3 85 125.2 85 125 85C124.8 85 124.7 85 124.5 84.9C124.4 84.8 124.2 84.8 124.1 84.7C124 84.6 123.9 84.5 123.9 84.3C123.8 84.2 123.8 84 123.7 83.9C123.7 83.8 123.6 83.6 123.6 83.4C123.6 83.2 123.6 83 123.6 82.9C123.6 82.7 123.6 82.5 123.6 82.4ZM124.2 82.4C124.2 82.6 124.2 82.8 124.2 82.9C124.2 83 124.2 83.2 124.2 83.4C124.2 83.6 124.2 83.7 124.3 83.8C124.3 83.9 124.4 84 124.4 84.1C124.5 84.2 124.5 84.3 124.6 84.3C124.7 84.3 124.8 84.4 124.9 84.4C125 84.4 125.1 84.4 125.2 84.3C125.3 84.2 125.3 84.2 125.4 84.1C125.5 84 125.5 83.9 125.5 83.8C125.5 83.7 125.6 83.6 125.6 83.5C125.6 83.4 125.6 83.3 125.7 83.1C125.7 83 125.7 82.8 125.7 82.7C125.7 82.6 125.7 82.4 125.7 82.3C125.7 82.2 125.7 82 125.7 81.9C125.7 81.8 125.7 81.6 125.7 81.5C125.7 81.4 125.7 81.2 125.6 81.1C125.6 81 125.5 80.9 125.5 80.8C125.5 80.7 125.4 80.6 125.4 80.5C125.4 80.4 125.3 80.4 125.2 80.3C125.1 80.3 125 80.2 124.9 80.2C124.8 80.2 124.7 80.2 124.6 80.3C124.5 80.3 124.5 80.4 124.4 80.5C124.3 80.6 124.3 80.7 124.3 80.8C124.3 80.9 124.2 81 124.2 81.1C124.2 81.2 124.2 81.3 124.1 81.5C124.1 81.6 124.1 81.8 124.1 81.9C124.2 82.1 124.2 82.2 124.2 82.4Z" fill="#868686"/>
<path d="M127 81.6C127 81.1 127.1 80.6 127.4 80.3C127.7 80 128 79.8 128.4 79.8C128.6 79.8 128.8 79.8 128.9 79.9C129.1 80 129.2 80 129.3 80.1C129.4 80.2 129.5 80.3 129.6 80.4C129.7 80.5 129.7 80.7 129.8 80.8C129.8 80.9 129.9 81.1 129.9 81.2C129.9 81.4 129.9 81.5 129.9 81.7C129.9 81.8 129.9 82 129.9 82.2C129.9 82.4 129.9 82.6 129.9 82.7C129.9 82.8 129.9 83 129.9 83.2C129.9 83.4 129.9 83.6 129.8 83.7C129.8 83.8 129.7 84 129.6 84.2C129.5 84.4 129.4 84.5 129.3 84.6C129.2 84.7 129.1 84.8 128.9 84.9C128.7 85 128.6 85 128.4 85C128 85 127.7 84.9 127.5 84.7C127.3 84.5 127.2 84.2 127.2 83.8H127.8C127.8 84 127.9 84.2 128 84.3C128.1 84.4 128.3 84.5 128.5 84.5C128.6 84.5 128.7 84.5 128.7 84.5C128.8 84.5 128.8 84.4 128.9 84.3C129 84.2 129 84.2 129 84.1C129 84 129.1 83.9 129.1 83.8C129.1 83.7 129.2 83.6 129.2 83.5C129.2 83.4 129.2 83.3 129.3 83.2C129.3 83.1 129.3 83 129.3 82.9C129.3 82.8 129.3 82.7 129.3 82.6C129.2 82.8 129.1 83 128.9 83.1C128.7 83.2 128.6 83.3 128.4 83.3C128.2 83.3 128 83.3 127.8 83.2C127.6 83.1 127.5 83 127.4 82.9C127.3 82.8 127.2 82.6 127.2 82.4C127 82 127 81.8 127 81.6ZM127.5 81.5C127.5 81.6 127.5 81.7 127.5 81.8C127.5 81.9 127.5 82 127.6 82.1C127.6 82.2 127.7 82.3 127.7 82.4C127.8 82.5 127.8 82.5 127.9 82.6C128 82.6 128.1 82.7 128.2 82.7C128.3 82.7 128.5 82.7 128.6 82.6C128.7 82.5 128.8 82.5 128.9 82.4C129 82.3 129 82.2 129 82.1C129 82 129 81.9 129 81.7C129 81.6 129 81.4 129 81.3C129 81.2 128.9 81 128.9 80.9C128.8 80.8 128.8 80.7 128.6 80.6C128.5 80.5 128.4 80.5 128.2 80.5C128.1 80.5 127.9 80.5 127.8 80.6C127.7 80.7 127.6 80.8 127.6 80.9C127.5 81 127.5 81.1 127.5 81.3C127.5 81.2 127.5 81.3 127.5 81.5Z" fill="#868686"/>
<path d="M147.1 26V25.6C147.3 25.6 147.5 25.6 147.6 25.6C147.7 25.6 147.8 25.5 147.9 25.5C148 25.4 148.1 25.3 148.1 25.2C148.2 25.1 148.2 24.9 148.2 24.7H148.6V29.7H148V26H147.1Z" fill="#868686"/>
<path d="M150.2 29.6C150.2 29.4 150.2 29.2 150.2 29C150.2 28.8 150.3 28.7 150.4 28.5C150.5 28.3 150.6 28.2 150.8 28C151 27.8 151.2 27.6 151.5 27.4C151.7 27.2 151.9 27 152.1 26.8C152.2 26.6 152.3 26.3 152.3 26C152.3 25.7 152.2 25.5 152.1 25.3C152 25.1 151.8 25.1 151.5 25.1C151.4 25.1 151.3 25.1 151.2 25.2C151.1 25.2 151 25.3 151 25.4C150.9 25.5 150.9 25.6 150.9 25.7C150.9 25.8 150.9 25.9 150.8 26C150.8 26.1 150.8 26.2 150.8 26.4H150.2V26.2C150.2 26 150.2 25.8 150.3 25.6C150.4 25.4 150.4 25.3 150.5 25.1C150.6 25 150.7 24.9 150.9 24.8C151.1 24.7 151.3 24.7 151.5 24.7C151.9 24.7 152.2 24.8 152.5 25.1C152.7 25.4 152.8 25.7 152.8 26.1C152.8 26.3 152.8 26.5 152.7 26.6C152.7 26.8 152.6 26.9 152.5 27C152.4 27.1 152.3 27.3 152.2 27.4C152.1 27.5 152 27.6 151.8 27.7C151.6 27.9 151.5 28 151.4 28.1C151.3 28.2 151.2 28.3 151.1 28.4C151 28.5 150.9 28.6 150.9 28.6C150.9 28.6 150.8 28.7 150.8 28.8C150.8 28.9 150.7 28.9 150.7 29C150.7 29.1 150.7 29.1 150.7 29.2H152.8V29.7H150.2V29.6Z" fill="#868686"/>
<path d="M171.1 26V25.6C171.3 25.6 171.5 25.6 171.6 25.6C171.7 25.6 171.8 25.5 171.9 25.5C172 25.4 172.1 25.3 172.1 25.2C172.2 25.1 172.2 24.9 172.2 24.7H172.6V29.7H172V26H171.1Z" fill="#868686"/>
<path d="M174.1 28.4V27.9L176 24.6H176.5V27.9H176.9V28.4H176.5V29.7H176V28.4H174.1ZM174.6 27.9H176V25.5L174.6 27.9Z" fill="#868686"/>
<path d="M195.1 26V25.6C195.3 25.6 195.5 25.6 195.6 25.6C195.7 25.6 195.8 25.5 195.9 25.5C196 25.4 196.1 25.3 196.1 25.2C196.2 25.1 196.2 24.9 196.2 24.7H196.6V29.7H196V26H195.1Z" fill="#868686"/>
<path d="M198.2 27.4C198.2 27.2 198.2 27 198.2 26.9C198.2 26.8 198.2 26.6 198.3 26.4C198.3 26.2 198.4 26 198.4 25.9C198.4 25.8 198.5 25.6 198.5 25.4C198.6 25.2 198.7 25.1 198.8 25C198.9 24.9 199 24.8 199.2 24.7C199.4 24.6 199.5 24.6 199.7 24.6C200 24.6 200.3 24.7 200.5 24.9C200.7 25.1 200.8 25.4 200.8 25.8H200.2C200.2 25.5 200.1 25.4 200 25.3C199.9 25.2 199.7 25.1 199.5 25.1C199.4 25.1 199.3 25.1 199.2 25.2C199.1 25.3 199.1 25.3 199 25.4C198.9 25.5 198.9 25.6 198.9 25.7C198.9 25.8 198.8 26 198.8 26.2C198.8 26.4 198.7 26.5 198.7 26.6C198.7 26.6 198.7 26.7 198.7 26.8C198.7 26.9 198.7 27 198.7 27.1C198.8 26.9 198.9 26.7 199.1 26.6C199.3 26.5 199.5 26.4 199.6 26.4C199.8 26.4 200 26.4 200.2 26.5C200.4 26.6 200.5 26.7 200.6 26.8C200.7 26.9 200.8 27.1 200.8 27.3C200.9 27.5 200.9 27.7 200.9 27.9C200.9 28.4 200.8 28.9 200.5 29.2C200.2 29.5 199.9 29.7 199.5 29.7C199.4 29.7 199.2 29.7 199.1 29.7C199 29.7 198.9 29.6 198.8 29.6C198.7 29.6 198.6 29.5 198.6 29.4C198.5 29.3 198.5 29.2 198.4 29.1C198.4 29 198.3 28.9 198.3 28.8C198.3 28.7 198.2 28.6 198.2 28.5C198.2 28.4 198.2 28.3 198.2 28.1C198.2 28 198.2 27.8 198.2 27.7C198.2 27.7 198.2 27.5 198.2 27.4ZM198.8 28C198.8 28.5 198.9 28.8 199 29C199.1 29.2 199.3 29.3 199.6 29.3C199.8 29.3 199.9 29.3 200 29.2C200.1 29.1 200.2 29 200.2 28.9C200.3 28.8 200.3 28.6 200.3 28.5C200.3 28.4 200.3 28.2 200.3 28.1C200.3 27.4 200 27 199.5 27C199.1 26.9 198.8 27.3 198.8 28Z" fill="#868686"/>
<path d="M219 26V25.6C219.2 25.6 219.4 25.6 219.5 25.6C219.6 25.6 219.7 25.5 219.8 25.5C219.9 25.4 220 25.3 220 25.2C220.1 25.1 220.1 24.9 220.1 24.7H220.5V29.7H219.9V26H219Z" fill="#868686"/>
<path d="M222.2 28.2C222.2 28 222.2 27.8 222.3 27.7C222.4 27.5 222.4 27.4 222.5 27.3C222.6 27.2 222.7 27.1 222.8 27C222.9 26.9 223 26.9 223.1 26.9C222.8 26.8 222.6 26.7 222.5 26.5C222.4 26.3 222.3 26.1 222.3 25.8C222.3 25.7 222.3 25.5 222.4 25.4C222.4 25.3 222.5 25.1 222.6 25C222.7 24.9 222.8 24.8 223 24.7C223.2 24.6 223.3 24.6 223.6 24.6C223.8 24.6 223.9 24.6 224.1 24.7C224.2 24.7 224.4 24.8 224.4 24.9C224.5 25 224.6 25.1 224.6 25.2C224.7 25.3 224.7 25.4 224.7 25.5C224.7 25.6 224.7 25.7 224.7 25.9C224.7 26.2 224.6 26.4 224.5 26.6C224.4 26.8 224.2 26.9 223.9 27C224.2 27 224.4 27.2 224.5 27.4C224.7 27.6 224.8 27.9 224.8 28.3C224.8 28.8 224.7 29.2 224.4 29.4C224.2 29.7 223.8 29.8 223.4 29.8C222.9 29.8 222.6 29.7 222.4 29.4C222.3 29.1 222.2 28.7 222.2 28.2ZM222.8 28.2C222.8 28.4 222.8 28.5 222.8 28.6C222.8 28.7 222.9 28.8 222.9 28.9C223 29 223 29.1 223.1 29.1C223.2 29.2 223.3 29.2 223.5 29.2C223.6 29.2 223.7 29.2 223.8 29.1C223.9 29.1 224 29 224 29C224.1 28.9 224.1 28.9 224.1 28.8C224.1 28.7 224.2 28.6 224.2 28.5C224.2 28.4 224.2 28.3 224.2 28.2C224.2 28.1 224.2 27.9 224.2 27.8C224.2 27.7 224.1 27.6 224.1 27.5C224 27.4 224 27.3 223.9 27.3C223.8 27.2 223.7 27.2 223.5 27.2C223.3 27.2 223.2 27.3 223 27.4C222.9 27.5 222.8 27.6 222.7 27.8C222.6 28 222.8 28 222.8 28.2ZM222.9 25.9C222.9 26.2 223 26.4 223.1 26.5C223.2 26.6 223.4 26.7 223.6 26.7C224 26.7 224.2 26.4 224.2 25.9C224.2 25.7 224.1 25.5 224 25.3C223.9 25.2 223.7 25.1 223.5 25.1C223.2 25.1 222.9 25.4 222.9 25.9Z" fill="#868686"/>
<path d="M242.2 29.6C242.2 29.4 242.2 29.2 242.2 29C242.2 28.8 242.3 28.7 242.4 28.5C242.5 28.3 242.6 28.2 242.8 28C243 27.8 243.2 27.6 243.5 27.4C243.7 27.2 243.9 27 244.1 26.8C244.2 26.6 244.3 26.3 244.3 26C244.3 25.7 244.2 25.5 244.1 25.3C244 25.1 243.8 25.1 243.5 25.1C243.4 25.1 243.3 25.1 243.2 25.2C243.1 25.2 243 25.3 243 25.4C242.9 25.5 242.9 25.6 242.9 25.7C242.9 25.8 242.9 25.9 242.8 26C242.8 26.1 242.8 26.2 242.8 26.4H242.2V26.2C242.2 26 242.2 25.8 242.3 25.6C242.4 25.4 242.4 25.3 242.5 25.1C242.6 25 242.7 24.9 242.9 24.8C243.1 24.7 243.3 24.7 243.5 24.7C243.9 24.7 244.2 24.8 244.5 25.1C244.7 25.4 244.8 25.7 244.8 26.1C244.8 26.3 244.8 26.5 244.7 26.6C244.7 26.8 244.6 26.9 244.5 27C244.4 27.1 244.3 27.3 244.2 27.4C244.1 27.5 244 27.6 243.8 27.7C243.6 27.9 243.5 28 243.4 28.1C243.3 28.2 243.2 28.3 243.1 28.4C243 28.5 242.9 28.6 242.9 28.6C242.9 28.6 242.8 28.7 242.8 28.8C242.8 28.9 242.7 28.9 242.7 29C242.7 29.1 242.7 29.1 242.7 29.2H244.8V29.7H242.2V29.6Z" fill="#868686"/>
<path d="M245.6 27.2C245.6 27 245.6 26.9 245.6 26.7C245.6 26.6 245.6 26.4 245.6 26.2C245.6 26 245.7 25.9 245.7 25.7C245.7 25.6 245.8 25.4 245.9 25.3C246 25.2 246.1 25 246.1 24.9C246.2 24.8 246.3 24.7 246.5 24.7C246.6 24.6 246.8 24.6 247 24.6C247.2 24.6 247.3 24.6 247.5 24.7C247.6 24.8 247.8 24.8 247.9 24.9C248 25 248.1 25.1 248.1 25.3C248.2 25.4 248.2 25.6 248.3 25.7C248.3 25.8 248.4 26 248.4 26.2C248.4 26.4 248.4 26.5 248.4 26.7C248.4 26.8 248.4 27 248.4 27.2C248.4 27.3 248.4 27.5 248.4 27.6C248.4 27.7 248.4 27.8 248.4 28C248.4 28.1 248.4 28.3 248.4 28.4C248.4 28.5 248.4 28.6 248.3 28.7C248.2 28.8 248.2 28.9 248.2 29C248.2 29.1 248.1 29.2 248.1 29.3C248.1 29.4 248 29.5 247.9 29.5C247.8 29.6 247.8 29.6 247.7 29.7C247.6 29.8 247.5 29.8 247.4 29.8C247.3 29.8 247.2 29.8 247 29.8C246.8 29.8 246.7 29.8 246.5 29.7C246.4 29.6 246.2 29.6 246.1 29.5C246 29.4 245.9 29.3 245.9 29.1C245.8 29 245.8 28.8 245.7 28.7C245.7 28.6 245.6 28.4 245.6 28.2C245.6 28 245.6 27.8 245.6 27.7C245.6 27.5 245.6 27.4 245.6 27.2ZM246.1 27.2C246.1 27.4 246.1 27.6 246.1 27.7C246.1 27.8 246.1 28 246.1 28.2C246.1 28.4 246.1 28.5 246.2 28.6C246.2 28.7 246.3 28.8 246.3 28.9C246.4 29 246.4 29.1 246.5 29.1C246.6 29.1 246.7 29.2 246.8 29.2C246.9 29.2 247 29.2 247.1 29.1C247.2 29.1 247.2 29 247.3 28.9C247.4 28.8 247.4 28.7 247.4 28.6C247.4 28.5 247.5 28.4 247.5 28.3C247.5 28.2 247.5 28.1 247.6 27.9C247.6 27.8 247.6 27.6 247.6 27.5C247.6 27.4 247.6 27.2 247.6 27.1C247.6 27 247.6 26.8 247.6 26.7C247.6 26.6 247.6 26.4 247.6 26.3C247.6 26.2 247.6 26 247.5 25.9C247.5 25.8 247.4 25.7 247.4 25.6C247.4 25.5 247.3 25.4 247.3 25.3C247.2 25.2 247.2 25.2 247.1 25.1C247 25.1 246.9 25 246.8 25C246.7 25 246.6 25 246.5 25.1C246.4 25.1 246.4 25.2 246.3 25.3C246.2 25.4 246.2 25.5 246.2 25.6C246.2 25.7 246.1 25.8 246.1 25.9C246.1 26 246.1 26.1 246 26.3C246 26.4 246 26.6 246 26.7C246.1 26.9 246.1 27 246.1 27.2Z" fill="#868686"/>
<path d="M264.6 29.6C264.6 29.4 264.6 29.2 264.6 29C264.6 28.8 264.7 28.7 264.8 28.5C264.9 28.3 265 28.2 265.2 28C265.4 27.8 265.6 27.6 265.9 27.4C266.1 27.2 266.3 27 266.5 26.8C266.6 26.6 266.7 26.3 266.7 26C266.7 25.7 266.6 25.5 266.5 25.3C266.4 25.1 266.2 25.1 265.9 25.1C265.8 25.1 265.7 25.1 265.6 25.2C265.5 25.2 265.4 25.3 265.4 25.4C265.3 25.5 265.3 25.6 265.3 25.7C265.3 25.8 265.3 25.9 265.2 26C265.2 26.1 265.2 26.2 265.2 26.4H264.6V26.2C264.6 26 264.6 25.8 264.7 25.6C264.8 25.4 264.8 25.3 264.9 25.1C265 25 265.1 24.9 265.3 24.8C265.5 24.7 265.7 24.7 265.9 24.7C266.3 24.7 266.6 24.8 266.9 25.1C267.1 25.4 267.2 25.7 267.2 26.1C267.2 26.3 267.2 26.5 267.1 26.6C267.1 26.8 267 26.9 266.9 27C266.8 27.1 266.7 27.3 266.6 27.4C266.5 27.5 266.4 27.6 266.2 27.7C266 27.9 265.9 28 265.8 28.1C265.7 28.2 265.6 28.3 265.5 28.4C265.4 28.5 265.3 28.6 265.3 28.6C265.3 28.6 265.2 28.7 265.2 28.8C265.2 28.9 265.1 28.9 265.1 29C265.1 29.1 265.1 29.1 265.1 29.2H267.2V29.7H264.6V29.6Z" fill="#868686"/>
<path d="M268 29.6C268 29.4 268 29.2 268 29C268 28.8 268.1 28.7 268.2 28.5C268.3 28.3 268.4 28.2 268.6 28C268.8 27.8 269 27.6 269.3 27.4C269.5 27.2 269.7 27 269.9 26.8C270 26.6 270.1 26.3 270.1 26C270.1 25.7 270 25.5 269.9 25.3C269.8 25.1 269.6 25.1 269.3 25.1C269.2 25.1 269.1 25.1 269 25.2C268.9 25.2 268.8 25.3 268.8 25.4C268.7 25.5 268.7 25.6 268.7 25.7C268.7 25.8 268.7 25.9 268.6 26C268.6 26.1 268.6 26.2 268.6 26.4H268V26.2C268 26 268 25.8 268.1 25.6C268.2 25.4 268.2 25.3 268.3 25.1C268.4 25 268.5 24.9 268.7 24.8C268.9 24.7 269.1 24.7 269.3 24.7C269.7 24.7 270 24.8 270.3 25.1C270.5 25.4 270.6 25.7 270.6 26.1C270.6 26.3 270.6 26.5 270.5 26.6C270.5 26.8 270.4 26.9 270.3 27C270.2 27.1 270.1 27.3 270 27.4C269.9 27.5 269.8 27.6 269.6 27.7C269.4 27.9 269.3 28 269.2 28.1C269.1 28.2 269 28.3 268.9 28.4C268.8 28.5 268.7 28.6 268.7 28.6C268.7 28.6 268.6 28.7 268.6 28.8C268.6 28.9 268.5 28.9 268.5 29C268.5 29.1 268.5 29.1 268.5 29.2H270.6V29.7H268V29.6Z" fill="#868686"/>
<path d="M147.1 81.2V80.8C147.3 80.8 147.5 80.8 147.6 80.8C147.7 80.8 147.8 80.7 147.9 80.7C148 80.6 148.1 80.5 148.1 80.4C148.2 80.3 148.2 80.1 148.2 79.9H148.6V84.9H148V81.2H147.1Z" fill="#868686"/>
<path d="M150.4 81.2V80.8C150.6 80.8 150.8 80.8 150.9 80.8C151 80.8 151.1 80.7 151.2 80.7C151.3 80.6 151.4 80.5 151.4 80.4C151.5 80.3 151.5 80.1 151.5 79.9H151.9V84.9H151.3V81.2H150.4Z" fill="#868686"/>
<path d="M171.1 81.2V80.8C171.3 80.8 171.5 80.8 171.6 80.8C171.7 80.8 171.8 80.7 171.9 80.7C172 80.6 172.1 80.5 172.1 80.4C172.2 80.3 172.2 80.1 172.2 79.9H172.6V84.9H172V81.2H171.1Z" fill="#868686"/>
<path d="M174.2 83.3H174.8C174.8 83.4 174.8 83.5 174.8 83.6C174.8 83.7 174.8 83.8 174.9 83.9C174.9 84 175 84.1 175 84.1C175.1 84.2 175.1 84.2 175.2 84.3C175.3 84.3 175.4 84.4 175.5 84.4C175.8 84.4 176 84.3 176.1 84.2C176.2 84 176.3 83.8 176.3 83.5C176.3 83.3 176.3 83.1 176.2 83C176.2 82.9 176.1 82.8 176 82.7C175.9 82.6 175.8 82.6 175.6 82.5C175.5 82.5 175.3 82.5 175.1 82.5V82C175.5 82 175.7 81.9 175.9 81.8C176.1 81.7 176.2 81.5 176.2 81.1C176.2 80.6 176 80.3 175.5 80.3C175.4 80.3 175.3 80.3 175.2 80.4C175.1 80.5 175 80.5 175 80.6C174.9 80.7 174.9 80.8 174.9 80.9C174.9 81 174.9 81.1 174.9 81.3H174.4C174.4 80.9 174.5 80.5 174.7 80.2C174.9 79.9 175.2 79.8 175.6 79.8C176 79.8 176.3 79.9 176.5 80.1C176.7 80.3 176.8 80.6 176.8 81C176.8 81.3 176.7 81.5 176.6 81.7C176.5 81.9 176.3 82 176 82.1C176.3 82.2 176.5 82.3 176.7 82.5C176.8 82.7 176.9 83 176.9 83.3C176.9 83.7 176.8 84.1 176.6 84.4C176.4 84.7 176 84.8 175.6 84.8C175.4 84.8 175.2 84.8 175 84.7C174.8 84.6 174.7 84.5 174.6 84.4C174.5 84.3 174.4 84.1 174.4 83.9C174.2 83.8 174.2 83.6 174.2 83.3Z" fill="#868686"/>
<path d="M195.1 81.2V80.8C195.3 80.8 195.5 80.8 195.6 80.8C195.7 80.8 195.8 80.7 195.9 80.7C196 80.6 196.1 80.5 196.1 80.4C196.2 80.3 196.2 80.1 196.2 79.9H196.6V84.9H196V81.2H195.1Z" fill="#868686"/>
<path d="M198.2 83.5H198.8C198.8 83.8 198.9 84 199 84.2C199.1 84.4 199.3 84.4 199.6 84.4C199.7 84.4 199.9 84.4 200 84.3C200.1 84.2 200.2 84.1 200.3 84C200.4 83.9 200.4 83.8 200.4 83.6C200.4 83.5 200.4 83.3 200.4 83.1C200.4 83 200.4 82.9 200.4 82.8C200.4 82.7 200.4 82.6 200.3 82.5C200.3 82.4 200.2 82.3 200.2 82.2C200.1 82.1 200.1 82.1 200 82C199.9 82 199.8 81.9 199.6 81.9C199.3 81.9 199 82.1 198.9 82.4H198.4L198.7 79.8H200.8V80.3H199.1L198.9 81.8C199 81.7 199.2 81.6 199.3 81.5C199.4 81.4 199.6 81.4 199.7 81.4C199.9 81.4 200.1 81.4 200.3 81.5C200.5 81.6 200.6 81.7 200.7 81.9C200.8 82.1 200.9 82.2 200.9 82.4C200.9 82.6 201 82.8 201 83C201 83.2 201 83.4 201 83.5C201 83.7 200.9 83.8 200.9 84C200.9 84.2 200.7 84.3 200.6 84.4C200.5 84.5 200.4 84.6 200.2 84.7C200 84.8 199.9 84.8 199.7 84.8C199.3 84.8 198.9 84.7 198.7 84.4C198.4 84.3 198.2 84 198.2 83.5Z" fill="#868686"/>
<path d="M219 81.2V80.8C219.2 80.8 219.4 80.8 219.5 80.8C219.6 80.8 219.7 80.7 219.8 80.7C219.9 80.6 220 80.5 220 80.4C220.1 80.3 220.1 80.1 220.1 79.9H220.5V84.9H219.9V81.2H219Z" fill="#868686"/>
<path d="M222.2 80.4V79.9H225V80.4C224.5 81 224.1 81.7 223.9 82.5C223.6 83.3 223.4 84 223.4 84.9H222.8C222.9 84.1 223.1 83.3 223.4 82.6C223.7 81.8 224.1 81.1 224.6 80.5H222.2V80.4Z" fill="#868686"/>
<path d="M241.4 81.2V80.8C241.6 80.8 241.8 80.8 241.9 80.8C242 80.8 242.1 80.7 242.2 80.7C242.3 80.6 242.4 80.5 242.4 80.4C242.5 80.3 242.5 80.1 242.5 79.9H242.9V84.9H242.3V81.2H241.4Z" fill="#868686"/>
<path d="M244.6 81.6C244.6 81.1 244.7 80.6 245 80.3C245.3 80 245.6 79.8 246 79.8C246.2 79.8 246.4 79.8 246.5 79.9C246.7 80 246.8 80 246.9 80.1C247 80.2 247.1 80.3 247.2 80.4C247.3 80.5 247.3 80.7 247.4 80.8C247.4 80.9 247.5 81.1 247.5 81.2C247.5 81.4 247.5 81.5 247.5 81.7C247.5 81.8 247.5 82 247.5 82.2C247.5 82.4 247.5 82.6 247.5 82.7C247.5 82.8 247.5 83 247.5 83.2C247.5 83.4 247.5 83.6 247.4 83.7C247.4 83.8 247.3 84 247.2 84.2C247.1 84.4 247 84.5 246.9 84.6C246.8 84.7 246.7 84.8 246.5 84.9C246.3 85 246.2 85 246 85C245.6 85 245.3 84.9 245.1 84.7C244.9 84.5 244.8 84.2 244.8 83.8H245.4C245.4 84 245.5 84.2 245.6 84.3C245.7 84.4 245.9 84.5 246.1 84.5C246.2 84.5 246.3 84.5 246.3 84.5C246.4 84.5 246.4 84.4 246.5 84.3C246.6 84.2 246.6 84.2 246.6 84.1C246.6 84 246.7 83.9 246.7 83.8C246.7 83.7 246.8 83.6 246.8 83.5C246.8 83.4 246.8 83.3 246.9 83.2C246.9 83.1 246.9 83 246.9 82.9C246.9 82.8 246.9 82.7 246.9 82.6C246.8 82.8 246.7 83 246.5 83.1C246.3 83.2 246.2 83.3 246 83.3C245.8 83.3 245.6 83.3 245.4 83.2C245.2 83.1 245.1 83 245 82.9C244.9 82.8 244.8 82.6 244.8 82.4C244.6 82 244.6 81.8 244.6 81.6ZM245.2 81.5C245.2 81.6 245.2 81.7 245.2 81.8C245.2 81.9 245.2 82 245.3 82.1C245.3 82.2 245.4 82.3 245.4 82.4C245.5 82.5 245.5 82.5 245.6 82.6C245.7 82.6 245.8 82.7 245.9 82.7C246 82.7 246.2 82.7 246.3 82.6C246.4 82.5 246.5 82.5 246.6 82.4C246.7 82.3 246.7 82.2 246.7 82.1C246.7 82 246.7 81.9 246.7 81.7C246.7 81.6 246.7 81.4 246.7 81.3C246.7 81.2 246.6 81 246.6 80.9C246.5 80.8 246.5 80.7 246.3 80.6C246.2 80.5 246.1 80.5 245.9 80.5C245.8 80.5 245.6 80.5 245.5 80.6C245.4 80.7 245.3 80.8 245.3 80.9C245.2 81 245.2 81.1 245.2 81.3C245.2 81.2 245.2 81.3 245.2 81.5Z" fill="#868686"/>
<path d="M265.2 84.8C265.2 84.6 265.2 84.4 265.2 84.2C265.2 84 265.3 83.9 265.4 83.7C265.5 83.5 265.6 83.4 265.8 83.2C266 83 266.2 82.8 266.5 82.6C266.7 82.4 266.9 82.2 267.1 82C267.2 81.8 267.3 81.5 267.3 81.2C267.3 80.9 267.2 80.7 267.1 80.5C267 80.3 266.8 80.3 266.5 80.3C266.4 80.3 266.3 80.3 266.2 80.4C266.1 80.4 266 80.5 266 80.6C265.9 80.7 265.9 80.8 265.9 80.9C265.9 81 265.9 81.1 265.8 81.2C265.8 81.3 265.8 81.4 265.8 81.6H265.2V81.4C265.2 81.2 265.2 81 265.3 80.8C265.4 80.6 265.4 80.5 265.5 80.3C265.6 80.2 265.7 80.1 265.9 80C266.1 79.9 266.3 79.9 266.5 79.9C266.9 79.9 267.2 80 267.5 80.3C267.7 80.6 267.8 80.9 267.8 81.3C267.8 81.5 267.8 81.7 267.7 81.8C267.7 82 267.6 82.1 267.5 82.2C267.4 82.3 267.3 82.5 267.2 82.6C267.1 82.7 267 82.8 266.8 82.9C266.6 83.1 266.5 83.2 266.4 83.3C266.3 83.4 266.2 83.5 266.1 83.6C266 83.7 265.9 83.8 265.9 83.8C265.9 83.8 265.8 83.9 265.8 84C265.8 84.1 265.7 84.1 265.7 84.2C265.7 84.3 265.7 84.3 265.7 84.4H267.8V84.9H265.2V84.8Z" fill="#868686"/>
<path d="M268.8 81.2V80.8C269 80.8 269.2 80.8 269.3 80.8C269.4 80.8 269.5 80.7 269.6 80.7C269.7 80.6 269.8 80.5 269.8 80.4C269.9 80.3 269.9 80.1 269.9 79.9H270.3V84.9H269.7V81.2H268.8Z" fill="#868686"/>
</g>
<defs>
<linearGradient id="paint0_linear_1_2" x1="-nan" y1="-nan" x2="-nan" y2="-nan" gradientUnits="userSpaceOnUse">
<stop offset="4.1024e-07" stop-color="#ADB9BC"/>
<stop offset="1" stop-color="#C0CBCE"/>
</linearGradient>
<linearGradient id="paint1_linear_1_2" x1="-nan" y1="-nan" x2="-nan" y2="-nan" gradientUnits="userSpaceOnUse">
<stop offset="4.1024e-07" stop-color="#ADB9BC"/>
<stop offset="1" stop-color="#C0CBCE"/>
</linearGradient>
<linearGradient id="paint2_linear_1_2" x1="-nan" y1="-nan" x2="-nan" y2="-nan" gradientUnits="userSpaceOnUse">
<stop offset="4.1024e-07" stop-color="#ADB9BC"/>
<stop offset="1" stop-color="#C0CBCE"/>
</linearGradient>
<linearGradient id="paint3_linear_1_2" x1="-nan" y1="-nan" x2="-nan" y2="-nan" gradientUnits="userSpaceOnUse">
<stop offset="4.1024e-07" stop-color="#ADB9BC"/>
<stop offset="1" stop-color="#C0CBCE"/>
</linearGradient>
<linearGradient id="paint4_linear_1_2" x1="-nan" y1="-nan" x2="-nan" y2="-nan" gradientUnits="userSpaceOnUse">
<stop offset="4.1024e-07" stop-color="#ADB9BC"/>
<stop offset="1" stop-color="#C0CBCE"/>
</linearGradient>
<linearGradient id="paint5_linear_1_2" x1="-nan" y1="-nan" x2="-nan" y2="-nan" gradientUnits="userSpaceOnUse">
<stop offset="4.1024e-07" stop-color="#ADB9BC"/>
<stop offset="1" stop-color="#C0CBCE"/>
</linearGradient>
<linearGradient id="paint6_linear_1_2" x1="127.099" y1="91.1416" x2="31.3273" y2="91.1416" gradientUnits="userSpaceOnUse">
<stop offset="4.1024e-07" stop-color="#ADB9BC"/>
<stop offset="1" stop-color="#C0CBCE"/>
</linearGradient>
<linearGradient id="paint7_linear_1_2" x1="127.099" y1="18.5584" x2="31.3273" y2="18.5584" gradientUnits="userSpaceOnUse">
<stop offset="4.1024e-07" stop-color="#ADB9BC"/>
<stop offset="1" stop-color="#C0CBCE"/>
</linearGradient>
<linearGradient id="paint8_linear_1_2" x1="163.258" y1="11.1953" x2="113.756" y2="11.1953" gradientUnits="userSpaceOnUse">
<stop offset="4.1024e-07" stop-color="#ADB9BC"/>
<stop offset="1" stop-color="#C0CBCE"/>
</linearGradient>
<linearGradient id="paint9_linear_1_2" x1="163.258" y1="98.8047" x2="113.756" y2="98.8047" gradientUnits="userSpaceOnUse">
<stop offset="4.1024e-07" stop-color="#ADB9BC"/>
<stop offset="1" stop-color="#C0CBCE"/>
</linearGradient>
<linearGradient id="paint10_linear_1_2" x1="-nan" y1="-nan" x2="-nan" y2="-nan" gradientUnits="userSpaceOnUse">
<stop offset="4.1024e-07" stop-color="#ADB9BC"/>
<stop offset="1" stop-color="#C0CBCE"/>
</linearGradient>
<linearGradient id="paint11_linear_1_2" x1="-nan" y1="-nan" x2="-nan" y2="-nan" gradientUnits="userSpaceOnUse">
<stop offset="4.1024e-07" stop-color="#ADB9BC"/>
<stop offset="1" stop-color="#C0CBCE"/>
</linearGradient>
<linearGradient id="paint12_linear_1_2" x1="-nan" y1="-nan" x2="-nan" y2="-nan" gradientUnits="userSpaceOnUse">
<stop offset="4.1024e-07" stop-color="#ADB9BC"/>
<stop offset="1" stop-color="#C0CBCE"/>
</linearGradient>
<linearGradient id="paint13_linear_1_2" x1="-nan" y1="-nan" x2="-nan" y2="-nan" gradientUnits="userSpaceOnUse">
<stop offset="4.1024e-07" stop-color="#ADB9BC"/>
<stop offset="1" stop-color="#C0CBCE"/>
</linearGradient>
<linearGradient id="paint14_linear_1_2" x1="-nan" y1="-nan" x2="-nan" y2="-nan" gradientUnits="userSpaceOnUse">
<stop offset="4.1024e-07" stop-color="#ADB9BC"/>
<stop offset="1" stop-color="#C0CBCE"/>
</linearGradient>
<linearGradient id="paint15_linear_1_2" x1="-nan" y1="-nan" x2="-nan" y2="-nan" gradientUnits="userSpaceOnUse">
<stop offset="4.1024e-07" stop-color="#ADB9BC"/>
<stop offset="1" stop-color="#C0CBCE"/>
</linearGradient>
<linearGradient id="paint16_linear_1_2" x1="-nan" y1="-nan" x2="-nan" y2="-nan" gradientUnits="userSpaceOnUse">
<stop offset="4.1024e-07" stop-color="#ADB9BC"/>
<stop offset="1" stop-color="#C0CBCE"/>
</linearGradient>
<linearGradient id="paint17_linear_1_2" x1="149.742" y1="78.1143" x2="292.707" y2="78.1143" gradientUnits="userSpaceOnUse">
<stop offset="4.1024e-07" stop-color="#ADB9BC"/>
<stop offset="1" stop-color="#C0CBCE"/>
</linearGradient>
<linearGradient id="paint18_linear_1_2" x1="-nan" y1="-nan" x2="-nan" y2="-nan" gradientUnits="userSpaceOnUse">
<stop offset="4.1024e-07" stop-color="#ADB9BC"/>
<stop offset="1" stop-color="#C0CBCE"/>
</linearGradient>
<linearGradient id="paint19_linear_1_2" x1="-nan" y1="-nan" x2="-nan" y2="-nan" gradientUnits="userSpaceOnUse">
<stop offset="4.1024e-07" stop-color="#ADB9BC"/>
<stop offset="1" stop-color="#C0CBCE"/>
</linearGradient>
<linearGradient id="paint20_linear_1_2" x1="-nan" y1="-nan" x2="-nan" y2="-nan" gradientUnits="userSpaceOnUse">
<stop offset="4.1024e-07" stop-color="#ADB9BC"/>
<stop offset="1" stop-color="#C0CBCE"/>
</linearGradient>
<linearGradient id="paint21_linear_1_2" x1="292.877" y1="31.8131" x2="149.646" y2="31.8131" gradientUnits="userSpaceOnUse">
<stop offset="4.1024e-07" stop-color="#ADB9BC"/>
<stop offset="1" stop-color="#C0CBCE"/>
</linearGradient>
<linearGradient id="paint22_linear_1_2" x1="15.5552" y1="68.7744" x2="297.057" y2="39.7241" gradientUnits="userSpaceOnUse">
<stop offset="4.1e-07" stop-color="#1FBDDC"/>
<stop offset="1" stop-color="#0079C2"/>
</linearGradient>
<linearGradient id="paint23_linear_1_2" x1="39.1741" y1="68.7744" x2="320.676" y2="39.7241" gradientUnits="userSpaceOnUse">
<stop offset="4.1e-07" stop-color="#1FBDDC"/>
<stop offset="1" stop-color="#0079C2"/>
</linearGradient>
<linearGradient id="paint24_linear_1_2" x1="62.8474" y1="68.7744" x2="344.349" y2="39.7241" gradientUnits="userSpaceOnUse">
<stop offset="4.1e-07" stop-color="#1FBDDC"/>
<stop offset="1" stop-color="#0079C2"/>
</linearGradient>
<linearGradient id="paint25_linear_1_2" x1="86.674" y1="68.7744" x2="368.176" y2="39.7241" gradientUnits="userSpaceOnUse">
<stop offset="4.1e-07" stop-color="#1FBDDC"/>
<stop offset="1" stop-color="#0079C2"/>
</linearGradient>
<linearGradient id="paint26_linear_1_2" x1="110.305" y1="68.7744" x2="391.807" y2="39.7241" gradientUnits="userSpaceOnUse">
<stop offset="4.1e-07" stop-color="#1FBDDC"/>
<stop offset="1" stop-color="#0079C2"/>
</linearGradient>
<linearGradient id="paint27_linear_1_2" x1="133.874" y1="68.7744" x2="415.376" y2="39.7241" gradientUnits="userSpaceOnUse">
<stop offset="4.1e-07" stop-color="#1FBDDC"/>
<stop offset="1" stop-color="#0079C2"/>
</linearGradient>
<linearGradient id="paint28_linear_1_2" x1="157.493" y1="68.7744" x2="438.995" y2="39.7241" gradientUnits="userSpaceOnUse">
<stop offset="4.1e-07" stop-color="#1FBDDC"/>
<stop offset="1" stop-color="#0079C2"/>
</linearGradient>
<linearGradient id="paint29_linear_1_2" x1="181.166" y1="68.7744" x2="462.668" y2="39.7241" gradientUnits="userSpaceOnUse">
<stop offset="4.1e-07" stop-color="#1FBDDC"/>
<stop offset="1" stop-color="#0079C2"/>
</linearGradient>
<linearGradient id="paint30_linear_1_2" x1="204.993" y1="68.7744" x2="486.495" y2="39.7241" gradientUnits="userSpaceOnUse">
<stop offset="4.1e-07" stop-color="#1FBDDC"/>
<stop offset="1" stop-color="#0079C2"/>
</linearGradient>
<linearGradient id="paint31_linear_1_2" x1="228.624" y1="68.7744" x2="510.126" y2="39.7241" gradientUnits="userSpaceOnUse">
<stop offset="4.1e-07" stop-color="#1FBDDC"/>
<stop offset="1" stop-color="#0079C2"/>
</linearGradient>
<linearGradient id="paint32_linear_1_2" x1="251.866" y1="68.7744" x2="533.368" y2="39.7241" gradientUnits="userSpaceOnUse">
<stop offset="4.1e-07" stop-color="#1FBDDC"/>
<stop offset="1" stop-color="#0079C2"/>
</linearGradient>
<linearGradient id="paint33_linear_1_2" x1="15.5552" y1="45.1072" x2="297.057" y2="16.0568" gradientUnits="userSpaceOnUse">
<stop offset="4.1e-07" stop-color="#1FBDDC"/>
<stop offset="1" stop-color="#0079C2"/>
</linearGradient>
<linearGradient id="paint34_linear_1_2" x1="39.1741" y1="45.1072" x2="320.676" y2="16.0568" gradientUnits="userSpaceOnUse">
<stop offset="4.1e-07" stop-color="#1FBDDC"/>
<stop offset="1" stop-color="#0079C2"/>
</linearGradient>
<linearGradient id="paint35_linear_1_2" x1="62.8474" y1="45.1072" x2="344.349" y2="16.0568" gradientUnits="userSpaceOnUse">
<stop offset="4.1e-07" stop-color="#1FBDDC"/>
<stop offset="1" stop-color="#0079C2"/>
</linearGradient>
<linearGradient id="paint36_linear_1_2" x1="86.674" y1="45.1072" x2="368.176" y2="16.0568" gradientUnits="userSpaceOnUse">
<stop offset="4.1e-07" stop-color="#1FBDDC"/>
<stop offset="1" stop-color="#0079C2"/>
</linearGradient>
<linearGradient id="paint37_linear_1_2" x1="110.305" y1="45.1072" x2="391.807" y2="16.0568" gradientUnits="userSpaceOnUse">
<stop offset="4.1e-07" stop-color="#1FBDDC"/>
<stop offset="1" stop-color="#0079C2"/>
</linearGradient>
<linearGradient id="paint38_linear_1_2" x1="133.874" y1="45.1072" x2="415.376" y2="16.0568" gradientUnits="userSpaceOnUse">
<stop offset="4.1e-07" stop-color="#1FBDDC"/>
<stop offset="1" stop-color="#0079C2"/>
</linearGradient>
<linearGradient id="paint39_linear_1_2" x1="157.493" y1="45.1072" x2="438.995" y2="16.0568" gradientUnits="userSpaceOnUse">
<stop offset="4.1e-07" stop-color="#1FBDDC"/>
<stop offset="1" stop-color="#0079C2"/>
</linearGradient>
<linearGradient id="paint40_linear_1_2" x1="181.166" y1="45.1072" x2="462.668" y2="16.0568" gradientUnits="userSpaceOnUse">
<stop offset="4.1e-07" stop-color="#1FBDDC"/>
<stop offset="1" stop-color="#0079C2"/>
</linearGradient>
<linearGradient id="paint41_linear_1_2" x1="204.993" y1="45.1072" x2="486.495" y2="16.0568" gradientUnits="userSpaceOnUse">
<stop offset="4.1e-07" stop-color="#1FBDDC"/>
<stop offset="1" stop-color="#0079C2"/>
</linearGradient>
<linearGradient id="paint42_linear_1_2" x1="228.624" y1="45.1072" x2="510.126" y2="16.0568" gradientUnits="userSpaceOnUse">
<stop offset="4.1e-07" stop-color="#1FBDDC"/>
<stop offset="1" stop-color="#0079C2"/>
</linearGradient>
<linearGradient id="paint43_linear_1_2" x1="251.866" y1="45.1072" x2="533.368" y2="16.0568" gradientUnits="userSpaceOnUse">
<stop offset="4.1e-07" stop-color="#1FBDDC"/>
<stop offset="1" stop-color="#0079C2"/>
</linearGradient>
<clipPath id="clip0_1_2">
<rect width="310.1" height="108.9" fill="white"/>
</clipPath>
</defs>
</svg>
