<svg width="105" height="24" viewBox="0 0 105 24" fill="none" xmlns="http://www.w3.org/2000/svg">
<g clip-path="url(#clip0_0_3)">
<path d="M8.59999 22.5L1.89999 11.8L8.59999 1.6H45.3V22.5H8.59999Z" fill="url(#paint0_linear_0_3)"/>
<path d="M43.8 3.1V21H9.4C5.9 15.4 3.7 11.8 3.7 11.8C3.7 11.8 5.9 8.4 9.4 3.1C22.5 3.1 30.8 3.1 43.8 3.1ZM46.8 0.0999985H43.8H9.4H7.8L6.9 1.5L1.2 10.2L0.199997 11.8L1.2 13.4L3.6 17.3L6.9 22.6L7.8 24H9.5H43.9H46.9V21V3.1V0.0999985H46.8Z" fill="white"/>
<path d="M30 15V8H28.5106V11.0139L26.7021 8H25.1064L27.0213 11.0139L25 15H26.5957L27.9787 12.1806L28.5106 12.8611V15H30V15Z" fill="white"/>
<path d="M24 15V8H19V15H20.5217V9.06944H22.4783V15H24Z" fill="white"/>
<path d="M59.2 22.5V1.6H96C96 1.6 101.5 10.4 101.9 11.1L103.4 11.8L102 13.2L95.9 22.5H59.2Z" fill="url(#paint1_linear_0_3)"/>
<path d="M95.1 3.1C98.6 8.7 100.8 12.3 100.8 12.3C100.8 12.3 98.6 15.7 95.1 21C82 21 73.7 21 60.7 21V3.1H95.1ZM96.8 0.0999985H95.1H60.7H57.7V3.1V21V24H60.7H95.1H96.7L97.6 22.6L100.8 17.7L103.3 13.9L104.3 12.3L103.3 10.7L102 8.7L97.6 1.6L96.8 0.0999985Z" fill="white"/>
<path d="M85 15V8H83.5106V11.0139L81.7021 8H80.1064L82.0213 11.0139L80 15H81.5957L82.8723 12.1806L83.4043 12.8611V15H85Z" fill="white"/>
<path d="M79 13.04H77.617C77.617 13.32 77.5106 13.5067 77.4043 13.6933C77.2979 13.88 76.9787 13.9733 76.6596 13.9733C76.3404 13.9733 76.1277 13.88 75.9149 13.6933C75.7021 13.5067 75.7021 13.2267 75.7021 12.8533C75.7021 12.48 75.8085 12.2 76.0213 12.0133C76.234 11.8267 76.4468 11.7333 76.766 11.7333H77.0851V10.8H76.766C76.4468 10.8 76.234 10.7067 76.0213 10.6133C75.8085 10.52 75.8085 10.24 75.8085 9.96C75.8085 9.86667 75.8085 9.77333 75.8085 9.58667C75.8085 9.4 75.9149 9.4 75.9149 9.30667C75.9149 9.21333 76.0213 9.12 76.1277 9.12C76.234 9.02667 76.3404 9.02667 76.5532 9.02667C76.8723 9.02667 77.0851 9.12 77.1915 9.30667C77.2979 9.49333 77.4043 9.77333 77.4043 10.0533H78.7872C78.7872 9.49333 78.5745 8.93333 78.1489 8.56C77.7234 8.18667 77.1915 8 76.4468 8C76.1277 8 75.9149 8 75.5957 8.09333C75.2766 8.18667 75.0638 8.28 74.8511 8.37333C74.6383 8.46667 74.4255 8.65333 74.3192 8.93333C74.2128 9.21333 74.1064 9.49333 74.1064 9.77333C74.1064 10.1467 74.2128 10.4267 74.4255 10.7067C74.6383 10.9867 74.9575 11.1733 75.2766 11.2667C74.8511 11.36 74.5319 11.5467 74.3192 11.8267C74.1064 12.1067 74 12.48 74 13.04C74 13.6933 74.2128 14.2533 74.6383 14.5333C75.0638 14.8133 75.5957 15 76.4468 15C76.766 15 77.0851 15 77.4043 14.9067C77.7234 14.8133 77.9362 14.72 78.1489 14.6267C78.3617 14.44 78.5745 14.2533 78.6808 13.9733C78.7872 13.6933 79 13.4133 79 13.04Z" fill="white"/>
</g>
<defs>
<linearGradient id="paint0_linear_0_3" x1="52.596" y1="20.3711" x2="19.0047" y2="9.4829" gradientUnits="userSpaceOnUse">
<stop offset="4.1024e-07" stop-color="#ADB9BC"/>
<stop offset="1" stop-color="#C0CBCE"/>
</linearGradient>
<linearGradient id="paint1_linear_0_3" x1="51.0296" y1="18.4099" x2="86.0271" y2="10.0435" gradientUnits="userSpaceOnUse">
<stop offset="4.1024e-07" stop-color="#ADB9BC"/>
<stop offset="1" stop-color="#C0CBCE"/>
</linearGradient>
<clipPath id="clip0_0_3">
<rect width="104.3" height="24" fill="white"/>
</clipPath>
</defs>
</svg>
